<?xml version="1.0" encoding="utf-8"?>
<!-- Generator: Adobe Illustrator 26.1.0, SVG Export Plug-In . SVG Version: 6.00 Build 0)  -->
<svg version="1.1" id="圖層_1" xmlns="http://www.w3.org/2000/svg" xmlns:xlink="http://www.w3.org/1999/xlink" x="0px" y="0px"
	 viewBox="0 0 1426 376.7" style="enable-background:new 0 0 1426 376.7;" xml:space="preserve">
<style type="text/css">
	.st0{fill:#008DE6;}
</style>
<g id="_x23_008de6ff">
	<path class="st0" d="M48.5,5.1c13.2-6.2,29-6.8,42.7-1.6c12.9,4.8,23.8,14.7,29.9,27c7.1,14.1,7.7,31.2,1.6,45.8
		c-3.1,7.5-8,14.3-13.9,19.8c42.4,49.3,84.9,98.7,127.3,148c1.5-0.9,3.1-1.9,4.6-2.9c-14-61.9-28.1-123.8-42.1-185.7
		c3.2-0.7,6.5-1.5,9.8-2.2c14,61.7,28,123.4,42,185.1c10-1,20.5,3.1,26.6,11.2c8.6,10.6,8.3,27.1-0.8,37.3c-8.2,10-23.3,13.2-35,7.6
		c-11.5-5.2-18.6-18.3-16.7-30.8c0.5-4.4,2.4-8.5,4.6-12.3c-42.8-49.8-85.6-99.5-128.4-149.3c-9.7,5.9-21.1,8.7-32.4,8.1
		c-19.7,53.5-39.4,106.9-59,160.4c-3.1-1.2-6.3-2.3-9.4-3.4c19.4-52.8,38.9-105.7,58.3-158.5C44,105.1,31.3,95.5,24,82.7
		c-8.2-14-9.6-31.7-3.9-46.8C25.1,22.4,35.5,11.1,48.5,5.1z"/>
	<path class="st0" d="M1304.6,44.2c11.4-14,31.9-19.3,48.7-12.8c16.6,6,28.4,22.8,28.4,40.5c14.5,10.2,26.5,24,34.1,40
		c15.9,32.4,12.8,73.2-7.9,102.7c-19.5,28.9-54.4,46.3-89.2,44.6c-0.4,6-3.5,11.5-8.4,15c32.2,31.6,64.4,63.3,96.6,95
		c-2.4,2.5-4.8,4.9-7.2,7.4c-33.7-33.1-67.2-66.2-100.9-99.3c-6.4-0.6-12.5-4.3-15.4-10.1c-2.7-5-2.6-11-0.6-16.1
		c-6.7-2.9-13.1-6.4-19-10.6c-8.8,28.1-17.8,56.1-26.6,84.2c-3.1-1-6.3-2-9.4-3c24-76,48.1-152,72.1-228
		C1291.1,78.3,1292.9,57.6,1304.6,44.2 M1380.3,83.4c-3.3,12.5-12.3,23.3-24.1,28.7c-16.1,7.7-36.7,3.9-49.1-8.8
		c-13.2,42.4-26.8,84.8-40.1,127.2c6.9,5.2,14.5,9.5,22.6,12.6c5.6-3.5,13-4.1,19-1c3.3,1.4,5.4,4.4,7.8,6.9
		c23.8,2,48.3-6,66.6-21.5c14.9-12.5,25.7-29.7,30.3-48.5c5-19.9,3.2-41.5-5.3-60.2C1401.8,104.9,1392.2,92.7,1380.3,83.4z"/>
	<path class="st0" d="M355.7,74.4c22.9-14.1,51-19.4,77.5-14.8c36.9,6,69.6,32,84.1,66.4c5.3,2.2,9.8,6.5,11.4,12
		c2,6,0.5,12.7-3.3,17.6c2.7,22-0.9,44.8-10.9,64.6c-14.2,28.7-41.2,50.7-72.3,58.5c-32.7,8.6-69.2,1.4-96-19.3
		c-17.3-13.1-30.7-31.4-37.9-52c-7.9-22.2-8.4-46.9-1.7-69.4C314.4,111.8,332.3,88.7,355.7,74.4 M393.9,70
		c-24.2,4.8-46.3,18.8-61.2,38.5c-14.8,19.3-22.2,44-20.5,68.2c1.3,21.8,10,43,24.1,59.6c20.7,24.7,53.5,38.4,85.6,35.7
		c31.9-2.2,61.9-20.5,78.7-47.6c11.7-18.5,17.1-40.8,15.3-62.6c-3.5,0.6-7.3,0.9-10.7-0.3c-7.9-2.4-13.6-10.6-12.9-18.8
		c0.3-7.9,6.2-14.8,13.7-17.1c-9.9-20.2-26.6-37.1-46.8-47C439.2,68.6,415.9,65.5,393.9,70z"/>
	<path class="st0" d="M829,64.6c23.1-8.4,49-8.7,72.4-1.2c5.6-2.3,11.8-3.1,17.7-1.6c10,2.3,18.2,10.8,20.1,20.9
		c0.1,1.9,1.4,3.1,2.8,4.2c23.9,21.1,37.7,52.9,37.1,84.8c-0.2,31.6-14.8,62.8-38.8,83.3c-23.6,20.7-56.2,30.5-87.3,26.5
		c-34.2-4-65.7-25-82.9-54.8c-17.5-29.6-20.1-67.3-6.9-99C774.8,98.6,799.4,75,829,64.6 M843,70.8c-28.4,6.7-53.4,26.2-66.8,52.2
		c-11.4,21.7-14.5,47.5-8.7,71.2c7.5,31.6,31,58.7,61.1,70.7c30,12.3,65.8,9,93-8.6c26.6-16.7,44.6-46.3,47-77.6
		c2.8-30-8.9-60.7-30.4-81.7c-1.4,3.3-3.1,6.5-5.6,9.1c-8.8,10-25.2,11.7-35.7,3.6c-11.1-7.7-14.6-24.2-7.3-35.7
		c0.6-1.2,2.1-2.2,1.9-3.7c-2.5,0.2-4.9-0.5-7.3-1C870.6,67.1,856.5,67.6,843,70.8z"/>
	<path class="st0" d="M1061.7,71.5c33-16.5,74.1-15,105.8,3.7c30.9,17.7,52.2,50.9,55.3,86.4c3.6,34.9-10.5,70.9-36.8,94.1
		c-25.6,23.2-62.2,33.4-96.1,26.6c-14.5-2.8-28.4-8.5-40.7-16.6c-4.9,4.3-11.5,6.9-18.1,6.2c-9.8-0.6-18.6-8-21-17.5
		c-2.2-8,0.3-16.8,5.9-22.7c-14.6-23.2-20.2-51.8-15.4-78.8C1006.4,118.1,1030,86.9,1061.7,71.5 M1078.8,75.3
		c-31,10.2-56.3,36.2-65.5,67.5c-8.5,27.7-4.3,58.8,11.1,83.3c8.9-3.2,19.6-1,25.9,6.1c6.3,6.6,7.9,16.8,4.6,25.2
		c23.3,15.5,53,20.7,80.1,14c30.6-7.2,57.1-29.4,69.6-58.3c9.4-21.3,11.2-45.9,4.9-68.3c-7.8-28.8-29-53.4-56.2-65.7
		C1130.2,68.5,1103,67.1,1078.8,75.3z"/>
	<path class="st0" d="M577.3,64.8c22.6-4,46.5-1.3,67.5,8.1c28.7,12.6,51.8,37.3,62.3,66.8c12.6,34.4,7.6,74.7-13.3,104.9
		c-20,29.7-54.3,49.1-90.1,50.7c-4.1,8.8-13,15.3-22.8,15.7c-11.2,0.9-22.5-6.3-26.4-16.9c-3.6-9-1.8-20,4.7-27.2
		c4.5-5.3,11.2-8.5,18.1-9.2C577.3,193.4,577.3,129.1,577.3,64.8 M587.7,73.5c0,61.8,0,123.6,0,185.4c11,3.6,18.7,14.6,18.4,26.1
		c24.7-1.9,48.5-12.8,66.1-30.2c24-23.2,35.8-58.2,30.6-91.2c-4.4-31.3-23.8-59.9-51.1-75.8C632.6,76.4,609.8,71.3,587.7,73.5z"/>
</g>
</svg>
