<svg width="197" height="16" viewBox="0 0 197 16" fill="none"
  xmlns="http://www.w3.org/2000/svg">
  <path d="M0 0.518438C0 0.478438 0 0.478438 0.0403914 0.438438C0.0807827 0.398438 0.0807827 0.398438 0.121174 0.398438H17.8126C19.0243 0.398438 20.0745 0.838438 20.9631 1.67844C21.8113 2.55844 22.2556 3.59844 22.2556 4.79844V6.35844C22.2556 7.59844 21.8113 8.63844 20.9631 9.47844C20.1149 10.3184 19.0647 10.7584 17.8126 10.7584H3.11013V15.6784C3.11013 15.7184 3.11013 15.7584 3.06974 15.7984C3.02935 15.8384 3.02935 15.8384 2.94857 15.8384H0.121174C0.0807827 15.8384 0.0807827 15.8384 0.0403914 15.7984C0 15.7584 0 15.7184 0 15.6784V0.518438ZM17.8126 8.11844C18.1761 8.11844 18.4992 7.99844 18.7416 7.71844C18.9839 7.43844 19.1455 7.15844 19.1455 6.79844V4.35844C19.1455 3.99844 19.0243 3.67844 18.7416 3.39844C18.4589 3.11844 18.1761 2.99844 17.8126 2.99844H3.11013V8.07844H17.8126V8.11844Z" fill="#F9F9F9"></path>
  <path d="M49.1562 15.6784C49.1562 15.7184 49.1562 15.7184 49.1158 15.7584C49.0754 15.7984 49.0754 15.7984 49.035 15.7984H31.384C30.1318 15.7984 29.0817 15.3584 28.2334 14.5184C27.3852 13.6784 26.9409 12.6384 26.9409 11.3984V0.518438C26.9409 0.478438 26.9409 0.438438 26.9813 0.398438H27.0217H29.8895C29.9299 0.398438 29.9703 0.398438 30.0107 0.438438C30.0511 0.478438 30.0511 0.478438 30.0511 0.558438V11.8784C30.0511 12.2384 30.1722 12.5584 30.455 12.7984C30.7377 13.0384 31.0204 13.1984 31.4244 13.1984H49.0754C49.1158 13.1984 49.1158 13.1984 49.1562 13.2384C49.1966 13.2784 49.1966 13.2784 49.1966 13.3184V15.6784H49.1562Z" fill="#F9F9F9"></path>
  <path d="M53.8417 4.79844C53.8417 3.59844 54.286 2.55844 55.1342 1.67844C55.9824 0.838438 57.0326 0.398438 58.2847 0.398438H71.6138C72.8256 0.398438 73.8758 0.838438 74.7644 1.67844C75.653 2.51844 76.0569 3.55844 76.0569 4.79844V15.6784C76.0569 15.7184 76.0569 15.7584 76.0165 15.7984C75.9761 15.8384 75.9761 15.8384 75.8953 15.8384H73.1083C73.0679 15.8384 73.0679 15.8384 73.0275 15.7984C72.9872 15.7584 72.9872 15.7584 72.9872 15.6784V10.7584H56.9518V15.6784C56.9518 15.7184 56.9518 15.7584 56.9114 15.7984C56.871 15.8384 56.871 15.8384 56.8306 15.8384H53.9628C53.9224 15.8384 53.8821 15.8384 53.8417 15.7984C53.8013 15.7584 53.8013 15.7584 53.8013 15.6784V4.79844H53.8417ZM72.9468 8.11844V4.35844C72.9468 3.99844 72.8256 3.67844 72.5429 3.39844C72.2601 3.15844 71.9774 2.99844 71.6138 2.99844H58.2847C57.9212 2.99844 57.5981 3.11844 57.3153 3.39844C57.0326 3.67844 56.9114 3.95844 56.9114 4.35844V8.11844H72.9468Z" fill="#F9F9F9"></path>
  <path d="M99.8877 0.519375C99.8877 0.479375 99.8877 0.439375 99.9281 0.399375C99.9685 0.359375 99.9685 0.359375 100.049 0.359375H102.917C102.957 0.359375 102.957 0.359375 102.998 0.399375C103.038 0.439375 103.038 0.439375 103.038 0.519375V15.6794C103.038 15.7194 103.038 15.7194 102.998 15.7594C102.957 15.7994 102.957 15.7994 102.917 15.7994H97.1411H97.1007C95.8889 15.7594 94.9599 15.2794 94.2733 14.3194L87.0028 3.63938C86.7201 3.23938 86.3162 3.03937 85.8719 3.03937H83.8927V15.6794C83.8927 15.7194 83.8927 15.7194 83.8523 15.7594C83.8119 15.7994 83.8119 15.7994 83.7312 15.7994H80.8634C80.823 15.7994 80.823 15.7994 80.7826 15.7594C80.7422 15.7194 80.7422 15.7194 80.7422 15.6794V0.519375C80.7422 0.479375 80.7422 0.439375 80.7826 0.399375C80.823 0.359375 80.823 0.359375 80.8634 0.359375H86.6393H86.6797C87.8915 0.399375 88.8205 0.919375 89.5071 1.87937L96.7372 12.5594C97.0199 12.9594 97.3834 13.1594 97.8681 13.1594H99.8473V0.519375H99.8877Z" fill="#F9F9F9"></path>
  <path d="M110.793 6.79844H127.556C127.596 6.79844 127.637 6.79844 127.677 6.83844C127.717 6.87844 127.717 6.87844 127.717 6.95844V9.31844C127.717 9.35844 127.717 9.39844 127.677 9.43844C127.637 9.47844 127.637 9.47844 127.556 9.47844H110.793V11.9184C110.793 12.2784 110.915 12.5984 111.197 12.8384C111.48 13.0784 111.763 13.2384 112.167 13.2384H129.818C129.858 13.2384 129.899 13.2384 129.939 13.2784C129.979 13.3184 129.979 13.3184 129.979 13.3584V15.7184C129.979 15.7584 129.979 15.7984 129.939 15.8384C129.899 15.8784 129.899 15.8784 129.818 15.8784H112.167C110.915 15.8784 109.864 15.4384 109.016 14.5984C108.168 13.7584 107.724 12.7184 107.724 11.4784V4.79844C107.724 3.55844 108.168 2.51844 109.016 1.67844C109.864 0.838437 110.915 0.398438 112.167 0.398438H129.818C129.858 0.398438 129.899 0.398438 129.939 0.438437C129.979 0.478437 129.979 0.478437 129.979 0.558437V2.91844C129.979 2.95844 129.979 2.95844 129.939 2.99844C129.899 3.03844 129.899 3.03844 129.818 3.03844H112.167C111.803 3.03844 111.48 3.15844 111.197 3.43844C110.955 3.71844 110.793 3.99844 110.793 4.35844V6.79844Z" fill="#F9F9F9"></path>
  <path d="M134.584 0.519375C134.584 0.479375 134.584 0.439375 134.624 0.399375C134.665 0.359375 134.665 0.359375 134.705 0.359375H156.719C156.759 0.359375 156.759 0.359375 156.799 0.399375C156.84 0.439375 156.84 0.439375 156.84 0.519375V2.87937C156.84 2.91937 156.84 2.91937 156.799 2.95937C156.759 2.99937 156.759 2.99937 156.719 2.99937H147.267V15.6394C147.267 15.6794 147.267 15.7194 147.227 15.7594C147.186 15.7994 147.186 15.7994 147.146 15.7994H144.278C144.238 15.7994 144.197 15.7994 144.157 15.7594C144.116 15.7194 144.116 15.7194 144.116 15.6394V3.03937H134.665C134.624 3.03937 134.624 3.03937 134.584 2.99937C134.544 2.95937 134.544 2.95937 134.544 2.91937V0.519375H134.584Z" fill="#F9F9F9"></path>
  <path d="M169.886 15.6784C169.886 15.7184 169.886 15.7184 169.846 15.7584C169.805 15.7984 169.805 15.7984 169.725 15.7984H166.857C166.816 15.7984 166.816 15.7984 166.776 15.7584C166.736 15.7184 166.736 15.7184 166.736 15.6784V0.518437C166.736 0.478437 166.736 0.438437 166.776 0.398438C166.816 0.398438 166.857 0.398438 166.897 0.398438H169.765C169.805 0.398438 169.846 0.398438 169.886 0.438437C169.927 0.478437 169.927 0.478437 169.927 0.558437V15.6784H169.886ZM192.303 3.03844C191.899 3.03844 191.536 3.19844 191.253 3.51844L187.497 8.11844L191.253 12.7184C191.536 13.0384 191.899 13.1984 192.303 13.1984H196.666C196.706 13.1984 196.706 13.1984 196.746 13.2384C196.787 13.2784 196.787 13.2784 196.787 13.3584V15.7184C196.787 15.7584 196.787 15.7984 196.746 15.8384C196.706 15.8784 196.706 15.8784 196.666 15.8784H192.061C190.849 15.8784 189.799 15.3984 188.951 14.3984L185.679 10.3984L182.407 14.3984C181.519 15.3584 180.509 15.8784 179.297 15.8784H174.693C174.652 15.8784 174.652 15.8784 174.612 15.8384C174.572 15.7984 174.572 15.7984 174.572 15.7184V13.3584C174.572 13.3184 174.572 13.2784 174.612 13.2384C174.652 13.1984 174.652 13.1984 174.693 13.1984H179.055C179.459 13.1984 179.822 13.0384 180.105 12.7184L183.862 8.11844L180.105 3.51844C179.822 3.19844 179.459 3.03844 179.095 3.03844H174.733C174.693 3.03844 174.693 3.03844 174.652 2.99844C174.612 2.95844 174.612 2.95844 174.612 2.91844V0.518437C174.612 0.478437 174.612 0.478437 174.652 0.438437C174.693 0.398438 174.693 0.398438 174.733 0.398438H179.338C180.549 0.398438 181.6 0.878437 182.448 1.87844L185.72 5.87844L188.991 1.87844C189.839 0.918437 190.89 0.398438 192.101 0.398438H196.706C196.746 0.398438 196.746 0.398438 196.787 0.438437C196.827 0.478437 196.827 0.478437 196.827 0.518437V2.91844C196.827 2.95844 196.827 2.95844 196.787 2.99844C196.746 3.03844 196.746 3.03844 196.706 3.03844H192.303Z" fill="#FF6647"></path>
</svg>