<?xml version="1.0" encoding="UTF-8" ?>
<!DOCTYPE svg PUBLIC "-//W3C//DTD SVG 1.1//EN" "http://www.w3.org/Graphics/SVG/1.1/DTD/svg11.dtd">
<svg width="708pt" height="95pt" viewBox="0 0 708 95" version="1.1" xmlns="http://www.w3.org/2000/svg">
<g id="#06c4ffff">
<path fill="#06c4ff" opacity="1.00" d=" M 19.27 0.00 L 20.66 0.00 C 32.14 6.92 44.82 11.61 56.58 18.04 C 50.49 21.12 44.32 24.04 38.14 26.92 C 25.59 21.04 13.14 14.94 0.63 8.97 C 6.89 6.09 13.08 3.04 19.27 0.00 Z" />
</g>
<g id="#932cffff">
<path fill="#932cff" opacity="1.00" d=" M 0.63 8.97 C 13.14 14.94 25.59 21.04 38.14 26.92 C 38.06 32.87 38.23 38.82 38.08 44.77 L 37.82 44.94 C 31.73 41.90 25.63 38.89 19.45 36.03 C 14.55 33.67 9.71 31.20 4.70 29.07 C 3.36 28.33 1.99 27.62 0.63 26.90 C 0.62 20.93 0.63 14.95 0.63 8.97 Z" />
</g>
<g id="#ffffffff">
<path fill="#ffffff" opacity="1.00" d=" M 96.23 15.11 C 116.11 15.15 135.99 15.11 155.87 15.13 C 155.87 16.64 155.87 18.14 155.87 19.65 C 155.87 26.11 155.87 32.57 155.90 39.03 C 155.75 40.33 156.19 41.94 155.12 42.95 C 152.33 46.01 149.21 48.76 146.41 51.82 C 137.02 51.94 127.64 51.86 118.25 51.86 C 118.26 59.45 118.23 67.04 118.27 74.62 C 112.43 74.62 106.59 74.62 100.75 74.62 C 99.25 74.62 97.76 74.62 96.26 74.61 C 96.22 54.78 96.28 34.95 96.23 15.11 M 118.25 30.01 C 118.25 32.92 118.25 35.83 118.25 38.75 C 119.75 38.75 121.25 38.75 122.75 38.75 C 125.30 38.75 127.85 38.76 130.41 38.69 C 131.54 37.61 132.71 36.56 133.92 35.55 C 133.66 35.45 133.15 35.23 132.89 35.13 C 135.12 34.54 133.71 31.62 133.99 30.00 C 128.74 30.00 123.49 29.99 118.25 30.01 Z" />
<path fill="#ffffff" opacity="1.00" d=" M 166.36 15.12 C 173.70 15.13 181.03 15.12 188.36 15.13 C 188.37 16.65 188.37 18.18 188.38 19.70 C 188.37 33.05 188.40 46.41 188.36 59.76 C 189.86 59.75 191.35 59.75 192.85 59.75 C 200.70 59.74 208.54 59.76 216.38 59.74 C 216.38 61.25 216.37 62.77 216.37 64.28 C 216.37 67.73 216.37 71.17 216.39 74.62 C 201.22 74.63 186.05 74.62 170.88 74.62 C 169.38 74.62 167.88 74.62 166.38 74.62 C 166.36 54.79 166.39 34.96 166.36 15.12 Z" />
<path fill="#ffffff" opacity="1.00" d=" M 224.36 15.13 C 241.49 15.14 258.62 15.10 275.76 15.15 C 279.01 18.38 282.25 21.63 285.50 24.88 C 285.51 41.46 285.49 58.04 285.51 74.62 C 279.71 74.63 273.92 74.62 268.13 74.62 C 266.62 74.62 265.12 74.62 263.61 74.63 C 263.63 68.52 263.62 62.42 263.62 56.32 C 263.62 54.84 263.63 53.37 263.63 51.90 C 257.84 51.84 252.04 51.89 246.25 51.86 C 246.26 59.45 246.23 67.04 246.27 74.62 C 240.47 74.62 234.67 74.62 228.88 74.62 C 227.37 74.62 225.88 74.62 224.38 74.62 C 224.36 54.79 224.39 34.96 224.36 15.13 M 246.24 30.01 C 246.25 32.92 246.25 35.83 246.25 38.75 C 247.75 38.75 249.26 38.75 250.77 38.75 C 255.03 38.74 259.30 38.76 263.56 38.74 C 263.61 37.23 263.65 35.73 263.76 34.22 C 262.68 32.66 261.36 31.31 260.02 29.98 C 255.43 30.02 250.83 29.99 246.24 30.01 Z" />
<path fill="#ffffff" opacity="1.00" d=" M 294.23 15.11 C 300.65 15.14 307.07 15.12 313.50 15.12 C 313.50 16.65 313.50 18.18 313.50 19.71 C 313.50 26.06 313.51 32.40 313.50 38.75 C 314.99 38.75 316.49 38.75 317.99 38.75 C 323.79 38.72 329.59 38.82 335.39 38.69 C 335.35 30.83 335.39 22.98 335.36 15.13 C 341.82 15.13 348.28 15.11 354.73 15.14 C 354.74 16.64 354.75 18.14 354.75 19.64 C 354.76 30.39 354.73 41.13 354.76 51.88 C 348.30 51.87 341.84 51.86 335.37 51.90 C 335.38 59.47 335.36 67.05 335.38 74.62 C 329.59 74.62 323.80 74.62 318.01 74.62 C 316.50 74.62 315.00 74.62 313.50 74.62 C 313.50 68.53 313.50 62.44 313.50 56.36 C 313.49 54.86 313.49 53.37 313.50 51.88 C 308.58 51.87 303.67 51.88 298.75 51.88 C 297.25 51.87 295.76 51.87 294.26 51.86 C 294.22 39.61 294.28 27.36 294.23 15.11 Z" />
<path fill="#ffffff" opacity="1.00" d=" M 363.38 15.50 C 383.24 15.48 403.10 15.53 422.96 15.47 C 422.98 16.97 422.99 18.47 423.00 19.98 C 422.99 27.54 423.01 35.10 422.99 42.66 C 419.72 45.88 416.48 49.14 413.24 52.39 C 403.91 52.35 394.58 52.40 385.25 52.36 C 385.25 54.98 385.25 57.61 385.24 60.23 C 386.74 60.24 388.24 60.25 389.75 60.25 C 400.83 60.25 411.91 60.26 423.00 60.25 C 422.99 61.75 422.99 63.26 423.00 64.76 C 423.00 68.22 423.00 71.67 423.00 75.12 C 404.61 75.13 386.21 75.12 367.82 75.13 C 366.33 75.12 364.84 75.10 363.36 75.07 C 363.39 55.22 363.36 35.36 363.38 15.50 M 385.24 30.36 C 385.25 33.27 385.25 36.18 385.25 39.10 C 386.75 39.11 388.24 39.12 389.75 39.13 C 392.37 39.02 395.07 39.41 397.65 38.88 C 399.05 37.81 400.20 36.45 401.18 34.99 C 401.05 33.45 400.98 31.90 400.92 30.35 C 395.69 30.39 390.47 30.38 385.24 30.36 Z" />
<path fill="#ffffff" opacity="1.00" d=" M 434.86 15.12 C 451.50 15.14 468.13 15.09 484.77 15.15 C 488.02 18.40 491.27 21.65 494.52 24.90 C 494.28 33.89 494.41 42.88 494.36 51.87 C 491.15 51.87 487.94 51.88 484.73 51.87 C 487.94 59.47 491.20 67.04 494.44 74.62 C 488.09 74.62 481.75 74.64 475.41 74.62 C 474.49 74.61 473.57 74.60 472.67 74.58 C 470.11 68.43 467.44 62.32 464.84 56.19 C 464.21 54.75 463.61 53.31 463.00 51.87 C 460.95 51.87 458.91 51.88 456.88 51.88 C 456.87 59.46 456.87 67.05 456.88 74.63 C 451.04 74.62 445.20 74.62 439.37 74.62 C 437.89 74.62 436.42 74.63 434.96 74.64 C 434.76 54.81 434.94 34.96 434.86 15.12 M 456.88 30.00 C 456.87 32.92 456.87 35.84 456.86 38.76 C 458.35 38.75 459.84 38.75 461.34 38.75 C 465.16 38.75 468.98 38.75 472.80 38.75 C 472.85 37.31 472.92 35.86 473.05 34.43 C 472.16 32.68 470.88 31.00 469.13 30.07 C 465.05 29.86 460.96 30.06 456.88 30.00 Z" />
<path fill="#ffffff" opacity="1.00" d=" M 504.50 15.13 C 524.38 15.12 544.26 15.13 564.14 15.12 C 564.12 16.67 564.12 18.21 564.13 19.75 C 564.12 34.84 564.13 49.92 564.13 65.01 C 560.91 68.23 557.66 71.42 554.50 74.70 C 539.34 74.83 524.17 74.50 509.00 74.62 C 507.49 74.62 505.99 74.62 504.50 74.62 C 504.50 54.79 504.49 34.96 504.50 15.13 M 526.33 30.14 C 524.83 31.66 523.32 33.18 521.84 34.72 C 521.86 36.86 521.87 38.99 521.89 41.13 C 523.39 41.12 524.90 41.11 526.42 41.10 C 526.45 42.61 526.49 44.11 526.52 45.63 C 526.48 50.96 526.51 56.29 526.50 61.62 C 527.99 61.62 529.49 61.62 531.00 61.63 C 534.87 61.62 538.74 61.63 542.62 61.61 C 542.63 52.62 542.62 43.62 542.62 34.62 C 542.62 33.12 542.62 31.62 542.64 30.13 C 537.20 30.13 531.76 30.12 526.33 30.14 Z" />
<path fill="#ffffff" opacity="1.00" d=" M 574.14 15.26 C 590.71 15.28 607.28 15.16 623.84 15.32 C 627.40 18.21 630.65 21.69 633.72 25.08 C 633.79 41.68 633.71 58.28 633.76 74.88 C 627.92 74.87 622.09 74.88 616.25 74.87 C 614.75 74.87 613.26 74.87 611.77 74.87 C 611.69 61.49 611.80 48.11 611.73 34.73 L 611.64 33.82 C 610.60 32.61 609.51 31.46 608.44 30.29 C 604.29 30.23 600.15 30.25 596.00 30.25 C 595.99 45.12 596.00 60.00 596.00 74.88 C 590.23 74.87 584.46 74.88 578.70 74.87 C 577.17 74.87 575.65 74.87 574.13 74.87 C 574.13 55.00 574.11 35.13 574.14 15.26 Z" />
<path fill="#ffffff" opacity="1.00" d=" M 643.74 15.25 C 663.63 15.25 683.51 15.25 703.39 15.25 C 703.38 16.76 703.37 18.28 703.37 19.79 C 703.38 27.25 703.36 34.71 703.39 42.17 C 700.18 45.48 696.89 48.71 693.65 51.99 C 684.30 52.01 674.96 51.99 665.62 52.00 C 665.61 54.62 665.62 57.25 665.63 59.87 C 667.12 59.87 668.62 59.87 670.13 59.88 C 681.21 59.87 692.29 59.88 703.38 59.87 C 703.37 61.38 703.37 62.89 703.38 64.40 C 703.37 67.85 703.38 71.30 703.36 74.75 C 684.98 74.75 666.61 74.75 648.24 74.75 C 646.73 74.75 645.24 74.75 643.75 74.75 C 643.74 54.92 643.75 35.08 643.74 15.25 M 665.63 30.13 C 665.61 33.04 665.61 35.96 665.63 38.87 C 667.12 38.87 668.62 38.88 670.13 38.88 C 672.75 38.87 675.38 38.87 678.01 38.89 C 679.31 37.62 680.59 36.31 681.55 34.74 C 681.42 33.20 681.36 31.66 681.31 30.12 C 676.08 30.13 670.86 30.12 665.63 30.13 Z" />
</g>
<g id="#27fff9ff">
<path fill="#27fff9" opacity="1.00" d=" M 56.58 18.04 L 56.83 18.20 C 56.85 18.72 56.88 19.78 56.90 20.30 C 56.86 31.57 56.88 42.83 56.87 54.10 C 50.54 56.86 44.45 60.16 38.13 62.96 C 38.12 68.95 38.13 74.94 38.13 80.93 C 31.97 84.17 25.56 86.88 19.37 90.06 C 19.37 78.06 19.38 66.06 19.37 54.06 C 25.44 50.85 31.88 48.39 37.82 44.94 L 38.08 44.77 C 38.23 38.82 38.06 32.87 38.14 26.92 C 44.32 24.04 50.49 21.12 56.58 18.04 Z" />
</g>
<g id="#000000ff">
<path fill="#000000" opacity="1.00" d=" M 155.87 19.65 C 157.37 19.64 158.87 19.63 160.37 19.63 C 160.34 28.72 160.47 37.81 160.29 46.90 C 157.10 50.00 153.95 53.13 150.87 56.34 C 141.48 56.46 132.09 56.27 122.71 56.44 C 122.80 64.00 122.73 71.57 122.75 79.13 C 115.42 79.11 108.09 79.15 100.75 79.11 C 100.75 77.62 100.75 76.12 100.75 74.62 C 106.59 74.62 112.43 74.62 118.27 74.62 C 118.23 67.04 118.26 59.45 118.25 51.86 C 127.64 51.86 137.02 51.94 146.41 51.82 C 149.21 48.76 152.33 46.01 155.12 42.95 C 156.19 41.94 155.75 40.33 155.90 39.03 C 155.87 32.57 155.87 26.11 155.87 19.65 Z" />
<path fill="#000000" opacity="1.00" d=" M 188.38 19.70 C 189.87 19.67 191.37 19.64 192.87 19.61 C 192.86 32.99 192.90 46.37 192.85 59.75 C 191.35 59.75 189.86 59.75 188.36 59.76 C 188.40 46.41 188.37 33.05 188.38 19.70 Z" />
<path fill="#000000" opacity="1.00" d=" M 313.50 19.71 C 315.00 19.67 316.49 19.63 318.00 19.59 C 318.00 25.98 318.00 32.36 317.99 38.75 C 316.49 38.75 314.99 38.75 313.50 38.75 C 313.51 32.40 313.50 26.06 313.50 19.71 Z" />
<path fill="#000000" opacity="1.00" d=" M 354.75 19.64 C 356.24 19.63 357.74 19.63 359.24 19.63 C 359.27 31.88 359.24 44.13 359.26 56.38 C 352.84 56.36 346.42 56.42 340.00 56.33 C 339.73 63.93 339.94 71.53 339.87 79.13 C 332.58 79.12 325.29 79.13 318.00 79.12 C 318.00 77.62 318.00 76.12 318.01 74.62 C 323.80 74.62 329.59 74.62 335.38 74.62 C 335.36 67.05 335.38 59.47 335.37 51.90 C 341.84 51.86 348.30 51.87 354.76 51.88 C 354.73 41.13 354.76 30.39 354.75 19.64 Z" />
<path fill="#000000" opacity="1.00" d=" M 423.00 19.98 C 424.51 20.01 426.03 20.04 427.55 20.08 C 427.41 29.14 427.59 38.19 427.45 47.24 C 424.16 50.40 420.97 53.66 417.76 56.88 C 408.42 56.87 399.09 56.88 389.75 56.87 C 389.75 57.72 389.75 59.41 389.75 60.25 C 388.24 60.25 386.74 60.24 385.24 60.23 C 385.25 57.61 385.25 54.98 385.25 52.36 C 394.58 52.40 403.91 52.35 413.24 52.39 C 416.48 49.14 419.72 45.88 422.99 42.66 C 423.01 35.10 422.99 27.54 423.00 19.98 Z" />
<path fill="#000000" opacity="1.00" d=" M 564.13 19.75 C 565.60 19.68 567.08 19.60 568.58 19.53 C 568.67 36.21 568.62 52.88 568.60 69.55 C 565.36 72.76 562.14 75.97 558.95 79.22 C 542.30 79.27 525.65 79.03 509.00 79.12 C 509.00 77.62 509.00 76.12 509.00 74.62 C 524.17 74.50 539.34 74.83 554.50 74.70 C 557.66 71.42 560.91 68.23 564.13 65.01 C 564.13 49.92 564.12 34.84 564.13 19.75 Z" />
<path fill="#000000" opacity="1.00" d=" M 703.37 19.79 C 704.86 19.76 706.36 19.74 707.86 19.71 C 707.85 28.77 707.94 37.82 707.81 46.87 C 704.57 50.02 701.37 53.21 698.23 56.45 C 688.86 56.57 679.49 56.46 670.12 56.51 C 670.12 57.35 670.13 59.04 670.13 59.88 C 668.62 59.87 667.12 59.87 665.63 59.87 C 665.62 57.25 665.61 54.62 665.62 52.00 C 674.96 51.99 684.30 52.01 693.65 51.99 C 696.89 48.71 700.18 45.48 703.39 42.17 C 703.36 34.71 703.38 27.25 703.37 19.79 Z" />
<path fill="#000000" opacity="1.00" d=" M 56.90 20.30 C 58.41 21.09 59.92 21.89 61.43 22.69 C 61.36 34.61 61.31 46.53 61.46 58.45 C 55.19 61.40 49.05 64.61 42.70 67.37 C 42.56 73.40 42.66 79.43 42.61 85.46 C 36.81 88.75 30.30 90.76 24.80 94.51 L 24.63 95.00 L 23.68 95.00 C 18.83 91.26 12.76 89.54 7.41 86.61 C 5.83 86.04 5.20 84.48 4.65 83.04 C 9.63 85.22 14.53 87.58 19.37 90.06 C 25.56 86.88 31.97 84.17 38.13 80.93 C 38.13 74.94 38.12 68.95 38.13 62.96 C 44.45 60.16 50.54 56.86 56.87 54.10 C 56.88 42.83 56.86 31.57 56.90 20.30 Z" />
<path fill="#000000" opacity="1.00" d=" M 285.50 24.88 C 286.96 26.35 288.44 27.81 289.95 29.25 C 290.07 45.87 289.97 62.50 290.00 79.12 C 282.70 79.13 275.41 79.12 268.13 79.13 C 268.12 77.63 268.13 76.12 268.13 74.62 C 273.92 74.62 279.71 74.63 285.51 74.62 C 285.49 58.04 285.51 41.46 285.50 24.88 Z" />
<path fill="#000000" opacity="1.00" d=" M 494.52 24.90 C 495.99 26.38 497.48 27.85 498.99 29.30 C 498.83 38.32 498.88 47.34 498.88 56.36 C 495.66 56.38 492.44 56.38 489.23 56.36 C 492.42 63.95 495.70 71.51 498.92 79.10 C 491.66 79.14 484.39 79.16 477.13 79.09 C 476.55 77.60 475.97 76.11 475.41 74.62 C 481.75 74.64 488.09 74.62 494.44 74.62 C 491.20 67.04 487.94 59.47 484.73 51.87 C 487.94 51.88 491.15 51.87 494.36 51.87 C 494.41 42.88 494.28 33.89 494.52 24.90 Z" />
<path fill="#000000" opacity="1.00" d=" M 633.72 25.08 C 635.36 26.84 638.32 28.24 638.25 30.99 C 638.26 47.12 638.24 63.25 638.26 79.38 C 630.91 79.34 623.56 79.46 616.22 79.30 C 616.23 77.82 616.24 76.35 616.25 74.87 C 622.09 74.88 627.92 74.87 633.76 74.88 C 633.71 58.28 633.79 41.68 633.72 25.08 Z" />
<path fill="#000000" opacity="1.00" d=" M 4.70 29.07 C 9.71 31.20 14.55 33.67 19.45 36.03 C 18.65 36.41 17.86 36.78 17.06 37.16 C 13.42 35.32 9.52 33.99 6.08 31.77 C 5.74 31.10 5.05 29.75 4.70 29.07 Z" />
<path fill="#000000" opacity="1.00" d=" M 118.25 30.01 C 123.49 29.99 128.74 30.00 133.99 30.00 C 133.71 31.62 135.12 34.54 132.89 35.13 C 129.56 34.44 126.15 34.40 122.76 34.48 C 122.75 35.91 122.75 37.33 122.75 38.75 C 121.25 38.75 119.75 38.75 118.25 38.75 C 118.25 35.83 118.25 32.92 118.25 30.01 Z" />
<path fill="#000000" opacity="1.00" d=" M 246.24 30.01 C 250.83 29.99 255.43 30.02 260.02 29.98 C 261.36 31.31 262.68 32.66 263.76 34.22 C 259.42 34.58 255.06 34.53 250.70 34.55 C 250.72 35.95 250.74 37.35 250.77 38.75 C 249.26 38.75 247.75 38.75 246.25 38.75 C 246.25 35.83 246.25 32.92 246.24 30.01 Z" />
<path fill="#000000" opacity="1.00" d=" M 385.24 30.36 C 390.47 30.38 395.69 30.39 400.92 30.35 C 400.98 31.90 401.05 33.45 401.18 34.99 C 397.37 34.82 393.56 34.87 389.75 34.88 C 389.75 36.29 389.75 37.71 389.75 39.13 C 388.24 39.12 386.75 39.11 385.25 39.10 C 385.25 36.18 385.25 33.27 385.24 30.36 Z" />
<path fill="#000000" opacity="1.00" d=" M 456.88 30.00 C 460.96 30.06 465.05 29.86 469.13 30.07 C 470.88 31.00 472.16 32.68 473.05 34.43 C 469.17 34.54 465.28 34.50 461.40 34.50 C 461.38 35.91 461.35 37.33 461.34 38.75 C 459.84 38.75 458.35 38.75 456.86 38.76 C 456.87 35.84 456.87 32.92 456.88 30.00 Z" />
<path fill="#000000" opacity="1.00" d=" M 526.33 30.14 C 531.76 30.12 537.20 30.13 542.64 30.13 C 542.62 31.62 542.62 33.12 542.62 34.62 C 538.71 34.63 534.79 34.64 530.88 34.59 C 529.34 36.13 527.80 37.65 526.42 39.33 C 526.42 39.77 526.42 40.66 526.42 41.10 C 524.90 41.11 523.39 41.12 521.89 41.13 C 521.87 38.99 521.86 36.86 521.84 34.72 C 523.32 33.18 524.83 31.66 526.33 30.14 Z" />
<path fill="#000000" opacity="1.00" d=" M 596.00 30.25 C 600.15 30.25 604.29 30.23 608.44 30.29 C 609.51 31.46 610.60 32.61 611.64 33.82 L 611.73 34.73 C 608.00 34.76 604.28 34.76 600.56 34.73 C 600.42 49.61 600.55 64.49 600.49 79.37 C 593.20 79.38 585.90 79.38 578.60 79.37 C 578.63 77.87 578.66 76.37 578.70 74.87 C 584.46 74.88 590.23 74.87 596.00 74.88 C 596.00 60.00 595.99 45.12 596.00 30.25 Z" />
<path fill="#000000" opacity="1.00" d=" M 665.63 30.13 C 670.86 30.12 676.08 30.13 681.31 30.12 C 681.36 31.66 681.42 33.20 681.55 34.74 C 677.74 34.57 673.93 34.61 670.12 34.64 C 670.12 36.05 670.12 37.47 670.13 38.88 C 668.62 38.88 667.12 38.87 665.63 38.87 C 665.61 35.96 665.61 33.04 665.63 30.13 Z" />
<path fill="#000000" opacity="1.00" d=" M 526.52 45.63 C 528.00 45.63 529.50 45.63 531.00 45.63 C 531.00 50.96 531.00 56.29 531.00 61.63 C 529.49 61.62 527.99 61.62 526.50 61.62 C 526.51 56.29 526.48 50.96 526.52 45.63 Z" />
<path fill="#000000" opacity="1.00" d=" M 246.25 51.86 C 252.04 51.89 257.84 51.84 263.63 51.90 C 263.63 53.37 263.62 54.84 263.62 56.32 C 259.32 56.41 255.01 56.34 250.71 56.44 C 250.80 64.00 250.73 71.56 250.75 79.13 C 243.46 79.12 236.17 79.13 228.88 79.12 C 228.88 77.62 228.88 76.12 228.88 74.62 C 234.67 74.62 240.47 74.62 246.27 74.62 C 246.23 67.04 246.26 59.45 246.25 51.86 Z" />
<path fill="#000000" opacity="1.00" d=" M 298.75 51.88 C 303.67 51.88 308.58 51.87 313.50 51.88 C 313.49 53.37 313.49 54.86 313.50 56.36 C 308.59 56.39 303.67 56.38 298.76 56.37 C 298.76 54.87 298.75 53.37 298.75 51.88 Z" />
<path fill="#000000" opacity="1.00" d=" M 456.88 51.88 C 458.91 51.88 460.95 51.87 463.00 51.87 C 463.61 53.31 464.21 54.75 464.84 56.19 C 463.97 56.25 462.24 56.39 461.38 56.45 C 461.37 64.01 461.38 71.57 461.37 79.13 C 454.03 79.08 446.69 79.22 439.35 79.04 C 439.35 77.57 439.36 76.10 439.37 74.62 C 445.20 74.62 451.04 74.62 456.88 74.63 C 456.87 67.05 456.87 59.46 456.88 51.88 Z" />
<path fill="#000000" opacity="1.00" d=" M 216.37 64.28 C 217.87 64.26 219.37 64.24 220.88 64.22 C 220.87 69.19 220.88 74.16 220.87 79.13 C 204.21 79.11 187.54 79.14 170.88 79.12 C 170.88 77.62 170.88 76.12 170.88 74.62 C 186.05 74.62 201.22 74.63 216.39 74.62 C 216.37 71.17 216.37 67.73 216.37 64.28 Z" />
<path fill="#000000" opacity="1.00" d=" M 703.38 64.40 C 704.91 64.37 706.45 64.35 708.00 64.32 L 708.00 64.75 C 707.84 69.58 707.85 74.41 707.86 79.23 C 687.99 79.26 668.12 79.26 648.25 79.24 C 648.24 77.74 648.24 76.24 648.24 74.75 C 666.61 74.75 684.98 74.75 703.36 74.75 C 703.38 71.30 703.37 67.85 703.38 64.40 Z" />
<path fill="#000000" opacity="1.00" d=" M 423.00 64.76 C 424.49 64.76 425.99 64.75 427.50 64.75 C 427.51 69.69 427.48 74.64 427.52 79.58 C 407.69 79.71 387.86 79.54 368.03 79.67 C 367.95 78.15 367.88 76.64 367.82 75.13 C 386.21 75.12 404.61 75.13 423.00 75.12 C 423.00 71.67 423.00 68.22 423.00 64.76 Z" />
</g>
<g id="#5c11bfff">
<path fill="#5c11bf" opacity="1.00" d=" M 19.45 36.03 C 25.63 38.89 31.73 41.90 37.82 44.94 C 31.88 48.39 25.44 50.85 19.37 54.06 C 13.21 50.85 6.83 48.12 0.66 44.94 C 6.21 42.53 11.54 39.64 17.06 37.16 C 17.86 36.78 18.65 36.41 19.45 36.03 Z" />
</g>
<g id="#ff5cd1ff">
<path fill="#ff5cd1" opacity="1.00" d=" M 0.63 80.90 C 0.64 68.91 0.59 56.93 0.66 44.94 C 6.83 48.12 13.21 50.85 19.37 54.06 C 19.38 66.06 19.37 78.06 19.37 90.06 C 14.53 87.58 9.63 85.22 4.65 83.04 C 3.32 82.31 1.97 81.60 0.63 80.90 Z" />
</g>
</svg>
