<?xml version="1.0" encoding="utf-8"?>
<!-- Generator: Adobe Illustrator 26.0.3, SVG Export Plug-In . SVG Version: 6.00 Build 0)  -->
<svg version="1.1" id="Layer_1" xmlns="http://www.w3.org/2000/svg" xmlns:xlink="http://www.w3.org/1999/xlink" x="0px" y="0px"
	 viewBox="0 0 500 500" style="enable-background:new 0 0 500 500;" xml:space="preserve">
<style type="text/css">
	.st0{fill-rule:evenodd;clip-rule:evenodd;}
</style>
<g>
	<g>
		<path class="st0" d="M362.4,324.8V303c4.3-1.6,7.4-5.6,7.4-10.4c0-6.2-5-11.2-11.2-11.2c-1,0-2,0.2-2.9,0.4L289.9,88.2
			c5.6,3.5,11.3,7.3,17,10.6c-5-5.4-10-10.7-14.9-16.1c4.8-1.3,9.9-1.9,14.7-3.1c-5,0-10.1,0.1-15-0.2c3.8-6.2,8-12.5,11.6-18.7
			c-5.4,5-10.7,10-16.1,14.9c-1.3-4.8-1.9-9.9-3.1-14.6c-0.1,5,0.2,9.9-0.2,14.9c-6.2-3.8-12.5-8-18.7-11.6c5,5.4,10,10.8,15,16.2
			c-4.9,1.2-10,2-14.7,3c3.7,0,7.6,0.1,11.2,0.1c1.2,0,2.5-0.2,3.7,0.2c-3.9,6.2-7.8,12.3-11.7,18.5c4.8-4.1,9.5-8.8,14.2-13
			l-46.2,195.3c-3.1,0.1-5.7,2.6-5.7,5.8c0,1.5,0.6,2.8,1.5,3.8l-32.5,32.5c-1.2-0.4-2.5-0.7-3.8-0.7c-6.2,0-11.3,5.1-11.3,11.3
			c0,2,0.6,3.8,1.5,5.4l-30.8,39.8v13.3c-1-3.4-2.1-6.8-3.2-10c0.3,7.3,0.6,14.7,0.8,21.9c-4.5-2.1-8.7-5-13.1-7.2
			c3.7,3.3,7.6,6.3,11.2,9.9c-6.9,2.3-14.2,4.3-21,6.6c7.3-0.3,14.7-0.6,22-0.8c-2.3,4.5-5,8.9-7.3,13.1c2.4-2.8,5-5.7,7.4-8.5
			c0.8-0.9,1.5-2,2.6-2.7c2.1,7,4.3,13.9,6.5,20.9c0-7.2-0.7-14.9-0.7-22c4.5,2.2,8.7,5,13,7.2c-3.2-2.9-6.7-5.7-9.9-8.6
			c-0.4-0.4-1-0.8-1.2-1.4c6.9-2.2,14.2-4.2,20.9-6.6c-4.9,0.2-9.9,0.4-14.8,0.6l27.9-13.2c1.1,2.5,3.5,4.3,6.4,4.3c3.9,0,7-3.1,7-7
			c0-0.2,0-0.3,0-0.5l42.5-6.1c1.3,3.8,4.9,6.5,9.2,6.5c5.4,0,9.8-4.4,9.8-9.8c0-1.2-0.2-2.4-0.7-3.5l36.8-27.6
			c0.5,0.1,1,0.1,1.5,0.2c-3,4-6.4,7.9-9.4,11.7c2.9-2.4,5.9-4.8,8.7-7.1c1-0.8,1.8-1.7,3-2.2c0.9,7.2,1.9,14.5,2.8,21.7
			c1.2-7.1,1.8-14.8,3.1-21.8c4,2.9,7.8,6.4,11.6,9.3c-2.7-3.4-5.6-6.8-8.3-10.1c-0.4-0.5-0.9-0.9-1-1.6c7.2-1,14.7-1.8,21.7-2.9
			c-6.3-0.9-12.7-1.7-19-2.5l32.3-9.8c1.4,2,3.7,3.4,6.3,3.4c4.2,0,7.7-3.4,7.7-7.7C368.6,328.6,365.9,325.5,362.4,324.8z
			 M321.3,343.9c2.5-3.2,5.3-6.3,7.6-9.5c-3.8,3.2-7.7,6.5-11.7,9.4c-1.1-7.2-1.8-14.8-3-21.8c-1,7.2-1.8,14.6-2.9,21.8
			c-4.1-2.9-7.8-6.4-11.7-9.3c3.1,3.9,6.5,7.5,9.3,11.6c-7.2,1.1-14.8,1.8-21.8,3c5.5,0.7,11,1.4,16.5,2.2L269.4,377
			c-1.8-2.3-4.6-3.8-7.7-3.8c-5.4,0-9.8,4.4-9.8,9.8c0,0.2,0,0.3,0,0.5l-42.7,6.1c-1.2-2.2-3.5-3.8-6.2-3.8c-3.8,0-6.9,3.1-7,6.9
			l-34.5,16.3c0,0,0,0-0.1,0c2.2-4.5,5-8.8,7.2-13.1c-3.2,3.8-6.5,7.8-9.9,11.2c-0.2-0.6-0.4-1.3-0.6-2v-21.4l29.7-38.4
			c2.1,2.2,4.9,3.5,8.2,3.5c6.2,0,11.3-5.1,11.3-11.3c0-3.9-1.9-7.2-4.9-9.3l32.2-32.2c0.6,0.2,1.3,0.4,2,0.4c3.2,0,5.8-2.6,5.8-5.8
			c0-2.2-1.3-4.2-3.2-5.1l46.2-195.1c0.9,4,1.5,8.1,2.4,11.9c0-3.6,0-7.2,0.1-10.8l65.2,191.5c-3.4,1.9-5.8,5.5-5.8,9.7
			c0,6.2,5,11.2,11.2,11.2c0.3,0,0.7-0.1,1-0.1v21.2c-3.6,0.7-6.3,3.8-6.3,7.5c0,0.6,0.1,1.2,0.2,1.7L321.3,343.9z"/>
	</g>
</g>
</svg>
