<?xml version="1.0" encoding="utf-8"?>
<!-- Generator: Adobe Illustrator 25.3.1, SVG Export Plug-In . SVG Version: 6.00 Build 0)  -->
<svg version="1.1"
	 id="svg785" xmlns:cc="http://creativecommons.org/ns#" xmlns:dc="http://purl.org/dc/elements/1.1/" xmlns:inkscape="http://www.inkscape.org/namespaces/inkscape" xmlns:rdf="http://www.w3.org/1999/02/22-rdf-syntax-ns#" xmlns:serif="http://www.serif.com/" xmlns:sodipodi="http://sodipodi.sourceforge.net/DTD/sodipodi-0.dtd" xmlns:svg="http://www.w3.org/2000/svg"
	 xmlns="http://www.w3.org/2000/svg" xmlns:xlink="http://www.w3.org/1999/xlink" x="0px" y="0px" viewBox="0 0 1000 172"
	 style="enable-background:new 0 0 1000 172;" xml:space="preserve">
<style type="text/css">
	.st0{fill-rule:evenodd;clip-rule:evenodd;}
</style>
<sodipodi:namedview  bordercolor="#000000" borderopacity="1.0" height="200px" id="base" inkscape:current-layer="layer1" inkscape:cx="417.4848" inkscape:cy="107.40272" inkscape:document-rotation="0" inkscape:document-units="px" inkscape:pageopacity="0.0" inkscape:pageshadow="2" inkscape:window-height="847" inkscape:window-maximized="0" inkscape:window-width="1252" inkscape:window-x="57" inkscape:window-y="25" inkscape:zoom="0.7" showgrid="false" units="px">
	</sodipodi:namedview>
<g id="layer1" inkscape:groupmode="layer" inkscape:label="Layer 1">
	<g id="group2" transform="matrix(0.04069886,0,0,0.04077808,8.9593162e-6,0)" serif:id="group">
		<path id="shape-bak-211" serif:id="shape-bak-21" class="st0" d="M18997.8,3.8c78.9,0,153.3,36.9,201.2,99.6l1287.6,1689.8
			c71.6,93.9,213.1,93.9,284.7-0.1l1287.1-1689.7c47.9-62.8,122.3-99.6,201.2-99.6h162.3c94.9,0,172,77,172,171.8v3929.8
			c0,53.9-43.8,97.5-97.7,97.5H22232c-53.9,0-97.6-43.7-97.6-97.5V959.9c0-63.8-81.2-91.1-119.9-40.3l-1111.5,1458.6
			c-65.1,85.4-166.5,135.6-273.9,135.6c-107.6,0-208.9-50.2-274.1-135.6L19242.6,918.6c-38.6-50.7-119.8-23.5-119.8,40.4v1505.7
			c0,53.8-43.7,97.5-97.6,97.5h-264.3c-53.9,0-97.7-43.6-97.7-97.5V175.5c0-94.8,77-171.8,172-171.8H18997.8z M19038.7,2801.3
			c46.1,0,83.5,37.7,83.5,84.2v1229.4c0,46.5-37.3,84.2-83.5,84.2h-288.2c-46.1,0-83.5-37.7-83.5-84.2V2885.5
			c0-46.5,37.4-84.2,83.5-84.2H19038.7z"/>
		<path id="Fill-1bak-111" serif:id="Fill-1bak-11" class="st0" d="M17873.1,4094.7L16028.5,238.9
			c-66.5-139-206.7-227.5-360.6-227.5h-60.2c-153.9,0-294.1,88.5-360.6,227.5l-1844.7,3855.9c-24.8,51.8,12.9,111.9,70.3,111.9
			h275.3c65.4,0,125.1-37.6,153.4-96.8l1531.6-3198.7c35.9-74.8,111.2-122.6,193.9-123.1l10.9-0.1l10.8,0.1
			c82.8,0.4,158.1,48.2,193.9,123.1l1531.7,3198.7c28.3,59.1,87.9,96.8,153.4,96.8h275.3
			C17860.2,4206.6,17897.9,4146.6,17873.1,4094.7"/>
		<path id="shape-bak-221" serif:id="shape-bak-22" class="st0" d="M11636.2,11.3c0,0,1170.3,55.7,1149.7,1263.6
			c-6.3,369.7-50.7,586.9-109.2,688.9c-16.7,29.2-271.3,610.6-1040.5,610.6c-3.8,0-7.3-0.2-11.1-0.2v0.2h-195.5l1168.6,1528.5
			c34.9,45.5,2.2,111.3-55.2,111.3h-372.5c-37.9,0-73.7-17.6-96.8-47.7l-1221.7-1592.1H9843.2c-98,0-177.6,78.8-179.2,176.6l0,3
			v1371.7c0,51-41.2,92.3-92.1,92.3h-274.6c-50.9,0-92.1-41.3-92.1-92.3V2443c0-181.4,146.7-328.3,327.7-328.3h2063
			c699.5,0,742.4-511.7,742.4-803.7c0-752.7-702.2-839.9-702.2-839.9H9329.6c-71.4,0-138.7-33.5-181.9-90.5L8984.6,165
			c-47.8-63.1-2.9-153.7,76.2-153.7H11636.2z"/>
		<path id="Fill-7bak-111" serif:id="Fill-7bak-11" class="st0" d="M2663.3,11.3H95.5c-78.8,0-123.5,90.2-75.9,153l162.6,214.6
			c43.1,56.7,110.1,90.1,181.3,90.1h2299.8c0,0,700.1,86.9,700.1,836.1c0,290.7-42.8,800.1-740.2,800.1H458.3
			c-120.8,0-218.8,98-218.8,218.9v1783.1c0,50.8,41,91.9,91.8,91.9h273.8c50.7,0,91.8-41.1,91.8-91.9V2741.7
			c0-98.7,80-178.8,178.7-178.8h1776.7v-0.2c3.7,0,7.2,0.2,11,0.2c766.9,0,1020.7-578.8,1037.4-607.8
			c58.3-101.5,102.6-317.8,108.9-685.8C3830.1,66.8,2663.3,11.3,2663.3,11.3"/>
		<path id="Fill-13bak-151" serif:id="Fill-13bak-15" class="st0" d="M24526.9,4206.6h-373.7c-24.2,0-43.7-19.5-43.7-43.5V43.6
			c0-24.1,19.6-43.6,43.7-43.6h373.7c24.1,0,43.7,19.5,43.7,43.6v4119.5C24570.6,4187.1,24551,4206.6,24526.9,4206.6"/>
		<path id="Fill-15bak-151" serif:id="Fill-15bak-15" sodipodi:nodetypes="cccccccccccccccccccccsccc" d="M7885.2,3939.1
			c-222.2,1.7-3294.8-0.3-3294.8-0.3l3222-721.6c0,0,230.9,394.7,268.9,462.1C8119.3,3746.7,8107.4,3937.4,7885.2,3939.1
			L7885.2,3939.1z M7250.2,2240.8l424.3,734l-3143.8,739.1L7250.2,2240.8z M4416.9,3489.4l2271-2223.2l425,736.2L4416.9,3489.4z
			 M5918.1,473.2c70.8-122.6,247.6-122.6,318.3,0l324.2,561.9L4284.5,3305L5918.1,473.2z M6408.4,222.2
			c-147.7-255.9-517-255.9-664.7,0c0,0-1871.2,3248.4-1975.8,3428.7c-104.6,180.3-18.4,567.1,355.3,567.1s3426.7-1.7,3884.2-0.9
			c457.4,0.9,460.4-426.8,372.5-579.1C8291.8,3485.6,6408.4,222.2,6408.4,222.2L6408.4,222.2z"/>
	</g>
</g>
</svg>
