<?xml version="1.0" encoding="UTF-8" standalone="no"?>
<svg
   xmlns:serif="http://www.serif.com/"
   xmlns:dc="http://purl.org/dc/elements/1.1/"
   xmlns:cc="http://creativecommons.org/ns#"
   xmlns:rdf="http://www.w3.org/1999/02/22-rdf-syntax-ns#"
   xmlns:svg="http://www.w3.org/2000/svg"
   xmlns="http://www.w3.org/2000/svg"
   xmlns:sodipodi="http://sodipodi.sourceforge.net/DTD/sodipodi-0.dtd"
   xmlns:inkscape="http://www.inkscape.org/namespaces/inkscape"
   width="1000"
   height="1000"
   viewBox="0 0 264.58333 264.58334"
   version="1.1"
   id="svg516"
   inkscape:version="1.0.2 (e86c8708, 2021-01-15)"
   sodipodi:docname="logo-square-with-core-colored.svg">
  <defs
     id="defs510">
    <linearGradient
       id="_Linear5"
       x1="0"
       y1="0"
       x2="1"
       y2="0"
       gradientUnits="userSpaceOnUse"
       gradientTransform="matrix(391.111,-187.33334,186.92449,391.96646,-26.311667,235.31135)">
      <stop
         offset="0"
         style="stop-color:rgb(254,33,5);stop-opacity:1"
         id="stop170" />
      <stop
         offset="0.27"
         style="stop-color:rgb(255,91,0);stop-opacity:1"
         id="stop172" />
      <stop
         offset="1"
         style="stop-color:rgb(150,233,234);stop-opacity:1"
         id="stop174" />
    </linearGradient>
  </defs>
  <sodipodi:namedview
     id="base"
     pagecolor="#ffffff"
     bordercolor="#666666"
     borderopacity="1.0"
     inkscape:pageopacity="0.0"
     inkscape:pageshadow="2"
     inkscape:zoom="0.35"
     inkscape:cx="400"
     inkscape:cy="560"
     inkscape:document-units="px"
     inkscape:current-layer="layer1"
     inkscape:document-rotation="0"
     showgrid="false"
     units="px"
     showborder="true"
     inkscape:window-width="1252"
     inkscape:window-height="847"
     inkscape:window-x="57"
     inkscape:window-y="25"
     inkscape:window-maximized="0" />
  <metadata
     id="metadata513">
    <rdf:RDF>
      <cc:Work
         rdf:about="">
        <dc:format>image/svg+xml</dc:format>
        <dc:type
           rdf:resource="http://purl.org/dc/dcmitype/StillImage" />
        <dc:title></dc:title>
      </cc:Work>
    </rdf:RDF>
  </metadata>
  <g
     inkscape:label="Layer 1"
     inkscape:groupmode="layer"
     id="layer1">
    <rect
       id="rect-bak1"
       serif:id="rect-bak"
       x="0"
       y="0"
       width="264.58334"
       height="264.58334"
       style="clip-rule:evenodd;fill:url(#_Linear5);fill-rule:evenodd;stroke-width:0.115614;stroke-linejoin:round;stroke-miterlimit:2" />
    <path
       id="triangle"
       d="m 182.8271,182.63124 c -6.2458,0.048 -92.185434,-0.0741 -92.185434,-0.0741 l 90.138144,-20.29379 c 0,0 6.48946,11.13802 7.55898,13.03956 1.06953,1.9012 0.73446,7.28109 -5.51169,7.32833 z m -17.35261,-48.01409 11.93407,20.6447 -89.006294,21.01931 z m -80.813044,36.29829 65.117734,-63.31932 11.95318,20.73117 z M 127.95381,85.561114 c 2.00072,-3.45265 7.00285,-3.45265 9.00321,0 l 9.16867,15.820516 -66.027484,64.94701 z m 69.22344,88.632126 c -2.47622,-4.28273 -55.51389,-96.035821 -55.51389,-96.035821 -4.15958,-7.196003 -14.5587,-7.196003 -18.71864,0 0,0 -52.691825,91.329021 -55.638325,96.398071 -2.9465,5.0694 -0.517905,15.9445 10.003571,15.9445 10.52217,0 96.494804,-0.0483 109.376394,-0.024 12.88194,0.024 12.96606,-11.99971 10.49089,-16.28278 z"
       style="clip-rule:evenodd;fill:#ffffff;fill-rule:evenodd;stroke-width:0.0347449;stroke-linejoin:round;stroke-miterlimit:2"
       sodipodi:nodetypes="ccccccccccccccccccccccsccc" />
  </g>
</svg>
