<?xml version="1.0" encoding="utf-8"?>
<!-- Generator: Adobe Illustrator 26.1.0, SVG Export Plug-In . SVG Version: 6.00 Build 0)  -->
<svg version="1.1" id="圖層_1" xmlns="http://www.w3.org/2000/svg" xmlns:xlink="http://www.w3.org/1999/xlink" x="0px" y="0px"
	 viewBox="0 0 354.8 880.3" style="enable-background:new 0 0 354.8 880.3;" xml:space="preserve">
<style type="text/css">
	.st0{fill:#231F1B;}
	.st1{fill:#090706;}
	.st2{fill:#2F2A24;}
	.st3{fill:#E4BB9F;}
	.st4{fill:#1E1E1E;}
	.st5{fill:#7E4830;}
	.st6{fill:#CC9774;}
	.st7{fill:#E4BA9F;}
	.st8{fill:#DFDFDF;}
	.st9{fill:#CDCDCD;}
	.st10{fill:#EEE172;}
	.st11{fill:#AC8E16;}
	.st12{fill:#909090;}
	.st13{fill:#AB8E16;}
	.st14{fill:#8F8F8F;}
	.st15{fill:#E1CE52;}
	.st16{fill:#E5BC9F;}
	.st17{fill:#EEE171;}
	.st18{fill:#F55E37;}
	.st19{fill:#633E31;}
	.st20{fill:#AB8E14;}
	.st21{fill:#E4BB9E;}
	.st22{fill:#7D482F;}
	.st23{fill:#E5BB9F;}
	.st24{fill:#1E0E0B;}
	.st25{fill:#E5BC9E;}
	.st26{fill:#633E30;}
	.st27{fill:#7E482F;}
	.st28{fill:#A8C5D9;}
	.st29{fill:#436382;}
	.st30{fill:#D6DEE5;}
	.st31{fill:#E4BB9D;}
	.st32{fill:#C0CCD7;}
	.st33{fill:#E4BA9E;}
	.st34{fill:#7C8D9E;}
	.st35{fill:#0E0E0E;}
	.st36{fill:#393939;}
	.st37{fill:#8F00A4;}
	.st38{fill:#700085;}
	.st39{fill:#9000A4;}
	.st40{fill:#330043;}
	.st41{fill:#0D0D0D;}
	.st42{fill:#2B2B2B;}
	.st43{opacity:0.45;fill:#13181A;enable-background:new    ;}
	.st44{fill:#320043;}
	.st45{fill:#6F0085;}
</style>
<g id="_x23_231f1bff">
	<path class="st0" d="M224.1,0c4.6-0.1,8.9,1.4,13.4,2.3c27.6,5.8,55.1,11.6,82.7,17.3c11.1,2.6,22.4,4.3,33.4,7.4
		c-21.8,1.2-43.5,3.7-65.3,5.5C234.2,37.2,180,42,125.8,46.8c-7.1,0.6-14.2,1.6-21.4,1.6c-4.3-0.9-8.4-2.3-12.5-3.6
		C61.5,35.1,31.1,25.7,0.7,16L0,15.8c13.1-0.3,26.2-1.7,39.3-2.5C100.9,8.9,162.5,4.4,224.1,0z"/>
</g>
<g id="_x23_090706ff">
	<path class="st1" d="M0.7,16c30.4,9.7,60.8,19.1,91.2,28.7c4.1,1.3,8.3,2.7,12.5,3.6c1.3,34.7,2,69.4,2.9,104.1
		c-4.8-2.2-9.6-4.4-14.6-6.2c0,10.5,1.2,20.9,0.8,31.4c-4.6-2.1-9.1-4.3-13.7-6.6c0.3,10.2,1.4,20.4,0.8,30.6
		c-4.3-1.9-8.3-4.2-12.3-6.7c-0.3-3.7-0.6-7.3-0.9-11c-0.3-6.3-0.4-12.7-0.9-19c-0.3-0.2-0.8-0.6-1.1-0.8c-4.7-2.9-9.8-6.4-15.6-5.6
		c-7.4,0.9-14.7,2-22.1,2.9c-0.5,0.1-1.6,0.2-2.1,0.3c1.4,18.1,2.2,36.3,3.1,54.5c0.2,2.2,0.1,4.9,2.2,6.3c4.2,3.4,9,6,14.3,7.3
		c0.2,2.8,0.3,5.6,0.4,8.3c-7.7-4.3-14.8-9.4-22.4-13.9c0.1,8.8,1,17.5,1.5,26.3c-3.6-2-7.1-4.1-10.4-6.5c-1-7.3-1-14.6-1.6-21.9
		C8.8,156.7,4.7,91.1,0.7,25.6C0.4,22.4,0.4,19.2,0.7,16z"/>
</g>
<g id="_x23_2f2a24ff">
	<path class="st2" d="M288.4,32.5c21.8-1.7,43.5-4.2,65.3-5.5l1.1-0.1c-1.9,32.8-4.1,65.6-6.1,98.4c0-1.3,0-2.5,0-3.8
		c-8,0.8-15.9,2.2-24,2.7c0.2-10.3,1.4-20.6,1.4-30.9c-63.2,7.3-126.5,14.6-189.7,21.9c-0.3,11,0.5,22.1,0.3,33.1
		c-9.7,1.9-19.5,2.8-29.3,4c-0.9-34.7-1.7-69.4-2.9-104.1c7.1,0,14.2-1.1,21.4-1.6C180,42,234.2,37.2,288.4,32.5z"/>
</g>
<g id="_x23_e4bb9fff">
	<path class="st3" d="M136.4,115.3c63.2-7.3,126.5-14.6,189.7-21.9c0,10.3-1.2,20.6-1.4,30.9c8-0.6,16-1.9,24-2.7c0,1.3,0,2.5,0,3.8
		c-3.1,50.3-6.3,100.6-9.5,150.9c-0.2,5.5-0.7,10.9-1.2,16.4c-9.2,1.9-18.5,3.4-27.5,5.9c-21.6,4.4-43.3,8.8-65,13.1
		c-4,0.7-8,1.4-12,2.2c-1.5,0.3-3,0.7-4.5,1c-2.3,0.5-4.6,1.1-6.9,1.7c-0.2,1.5-0.4,3-0.6,4.5c-3.7,0.8-7.4,1.7-11,2.7
		c-0.3,4.1-0.6,8.2-0.8,12.4c-13.2,3.1-26.5,5.6-39.8,8.6c-0.4-2.2-0.6-4.6-1.5-6.6c-1.1-1.7-2.7-3-4.1-4.5c-1-1.4-1.9-2.9-3.2-4.1
		c-4.2-0.8-8.4,0.6-12.5,1.5c-1.4,0.4-2.9,0.7-4.3,1.1c-10.6,2.2-21.1,4.9-31.8,6.2c-2-61.9-3.2-123.9-5-185.9
		c9.8-1.2,19.7-2.1,29.3-4C136.8,137.4,136,126.4,136.4,115.3 M273.4,146.6c-0.8,20.2-1.6,40.4-2.1,60.7c8.3-1.3,16.6-2.5,24.8-4
		c0.9-20,2.1-39.9,2.6-59.9C290.2,144.2,281.8,145.5,273.4,146.6 M165.5,161.3c-0.4,7.7,0.3,15.3,0.2,23c0,13.3-0.1,26.6,0,39.9
		c9.1-1.4,18.2-2.6,27.2-4.4c0.3-13.8,0.2-27.7,0.2-41.5c0-6.9,0.5-13.9,0.1-20.8C183.9,158.6,174.7,159.9,165.5,161.3z"/>
</g>
<g id="_x23_1e1e1eff">
	<path class="st4" d="M273.4,146.6c8.4-1.1,16.8-2.4,25.2-3.2c-0.5,20-1.7,39.9-2.6,59.9c-8.2,1.5-16.5,2.7-24.8,4
		C271.8,187,272.5,166.8,273.4,146.6z"/>
	<path class="st4" d="M165.5,161.3c9.2-1.4,18.5-2.7,27.8-3.8c0.4,6.9-0.2,13.9-0.1,20.8c0,13.8,0.1,27.7-0.2,41.5
		c-9,1.9-18.1,3-27.2,4.4c-0.1-13.3,0-26.6,0-39.9C165.7,176.6,165.1,168.9,165.5,161.3z"/>
</g>
<g id="_x23_7e4830ff">
	<path class="st5" d="M92.7,146.3c5,1.7,9.8,3.9,14.6,6.2c1.7,62,2.9,123.9,5,185.9c-1.3-0.7-2.6-1.4-3.8-2.2
		c-12-8.9-24.3-17.3-36.3-26.2c-17.8-13.1-36-25.8-53.9-38.6c-1.6-1.1-2.5-2.8-2.5-4.7c-0.4-7.5-1.1-14.9-1.4-22.4
		c3.4,2.3,6.8,4.5,10.4,6.5c-0.4-8.8-1.4-17.5-1.5-26.3c7.6,4.4,14.7,9.6,22.4,13.9c-0.1-2.8-0.1-5.6-0.4-8.3
		c-5.2-1.3-10.1-3.9-14.3-7.3c-2-1.4-1.9-4.1-2.2-6.3c-0.9-18.2-1.8-36.3-3.1-54.5c0.5-0.1,1.6-0.2,2.1-0.3c3,2.8,6.6,5,10.3,6.7
		c1.5,20,1.9,40.1,3.4,60c9.2,0.2,18.3-2.2,27.4-3.5c0-13.6-1.2-27.1-1.4-40.7c0.2,3.7,0.6,7.3,0.9,11c3.9,2.5,8,4.8,12.3,6.7
		c0.6-10.2-0.5-20.4-0.8-30.6c4.5,2.2,9,4.5,13.7,6.6C94,167.2,92.7,156.7,92.7,146.3z"/>
</g>
<g id="_x23_cc9774ff">
	<path class="st6" d="M50,158.6c5.8-0.9,10.9,2.7,15.6,5.6c-9,1.8-18.2,2.6-27.3,4c-3.7-1.7-7.3-3.9-10.3-6.7
		C35.2,160.6,42.6,159.5,50,158.6z"/>
</g>
<g id="_x23_e4ba9fff">
	<path class="st7" d="M38.2,168.2c9.1-1.4,18.3-2.2,27.3-4c0.3,0.2,0.8,0.6,1.1,0.8c0.5,6.3,0.5,12.7,0.9,19
		c0.2,13.6,1.4,27.1,1.4,40.7c-9.1,1.3-18.1,3.7-27.4,3.5C40.1,208.3,39.7,188.2,38.2,168.2z"/>
</g>
<g id="_x23_dfdfdfff">
	<path class="st8" d="M245.4,311.6c21.7-4.2,43.3-8.6,65-13.1c0.6,6.3-0.4,12.6-0.5,18.9c-1,15-1.6,30-2.4,45
		c-11.4,4-23.5,5.4-35.1,8.8c-0.4,4.9-0.7,9.9-0.9,14.9c-0.1,3-0.1,6-0.2,8.9c-0.4,7.3-0.8,14.7-0.9,22c-0.1,4-0.3,7.9-0.5,11.9
		c-0.2,4.2-0.3,8.4-0.4,12.6c-0.2,3.1-0.4,6.3-0.6,9.4c-1.1,32.4-2.6,64.8-3.6,97.3c-0.1,1.8-0.2,3.7-0.4,5.5
		c-0.1,0.6-0.3,1.8-0.4,2.4c-50.5,15.3-100.8,30.9-151.3,46.2l0-1c-2.1-88.1-5.1-176.2-7.2-264.3c0.6-0.3,1.7-0.8,2.2-1.1
		c1.2,0.8,2.5,1.5,3.8,2.2c10.7-1.3,21.2-4,31.8-6.2c0.4,7.1,0.1,14.1,0.5,21.2c-0.2,3.8,3.8,5.5,6.7,7c2-0.2,3.9-0.6,5.9-0.9
		c-0.1,6-0.7,11.9,0,17.9c0.4,3.5,4.1,4.9,6.9,6.2c1.8-0.2,3.6-0.5,5.4-0.9c-0.1,2.2-0.2,4.4-0.3,6.6c-12.1,2.4-24.1,5.2-36.1,8.2
		c-0.3,12.4,0.2,24.8,0.4,37.2c17.4-3.6,34.5-8.4,51.7-12.3c12.9-3.1,25.7-6.2,38.6-9.4c8.5-2.1,17.1-3.8,25.5-6.5
		c0.5-11.9,0.8-23.9,0.9-35.9c-8.9,1.9-17.8,4.3-26.7,5.9c0-2,0-4,0-6l0.7-0.2c3.6-0.8,7.1-1.5,10.7-2.4c0.7-8.4,0.5-16.8,1-25.2
		c3.7-1,7.4-1.9,11.2-2.7c0.6-7.5,0.8-15,0.8-22.5C247.9,315.2,246.5,313.4,245.4,311.6z"/>
	<path class="st8" d="M47.3,342.6c17.4-2.9,34.5-6.9,51.8-10.1c0.1,5.7,0.4,11.3,0.9,17c0.8,20.2,1.4,40.5,1.9,60.8
		c-16.8,4.3-33.9,7.5-50.7,12l-0.1-0.9C50.1,395.1,48.4,368.9,47.3,342.6z"/>
	<path class="st8" d="M170.4,350.6c15.3-3.4,30.6-6.7,46-9.7c0.5,8.3,0.5,16.7-0.1,25c-3.8,0.9-7.6,1.8-11.4,2.7
		c-0.1,4.1-0.3,8.3-0.6,12.4c-5.1,1.2-10.2,2.4-15.4,3.4c-0.4-3-1-6.3-3.5-8.3c-2.5-2.1-6-2-9.2-2.4c-0.4-5.5,0.1-10.9-0.3-16.4
		C175.7,354.2,172.4,352.6,170.4,350.6z"/>
</g>
<g id="_x23_cdcdcdff">
	<path class="st9" d="M70,316.3c0.4-2.2,0.7-4.6,2.2-6.4c12,8.9,24.3,17.3,36.3,26.2c-0.6,0.3-1.7,0.8-2.2,1.1c-2-1.4-4-2.7-6-4
		c-0.2,5.4-0.4,10.8-0.2,16.3c-0.5-5.6-0.8-11.3-0.9-17c-17.3,3.3-34.5,7.2-51.8,10.1c-7.5-5.3-14.4-11.4-21.9-16.6
		c0.1-0.3,0.3-0.9,0.4-1.1C40.5,321.9,55.4,319.6,70,316.3z"/>
	<path class="st9" d="M210.3,323.8c3.6-1,7.3-2,11-2.7c2.5,1.3,4.9,2.6,7.4,3.8c0,4.4-0.1,8.8-0.2,13.2c-4.1,0.9-8.2,1.9-12.2,2.8
		c-15.4,3-30.7,6.3-46,9.7c-2.2,0.3-4.5,0.5-6.7,0.7c-0.3-5.9-0.1-11.8,0.5-17.7c1.4,1.5,2.9,2.8,4.1,4.5c1,2.1,1.1,4.4,1.5,6.6
		c13.2-2.9,26.6-5.4,39.8-8.6c2.3,1.3,4.7,2.6,7,3.8c0.4-4.1,0.5-8.3,0.5-12.4C214.8,326.3,212.5,325.1,210.3,323.8z"/>
</g>
<g id="_x23_eee172ff">
	<path class="st10" d="M233.3,313.8c4-0.8,8-1.4,12-2.2c1.1,1.7,2.5,3.5,2.5,5.7c0.1,7.5-0.2,15-0.8,22.5c-3.8,0.8-7.5,1.8-11.2,2.7
		c-0.6,8.4-0.4,16.8-1,25.2c-3.6,0.9-7.1,1.6-10.7,2.4c0-8.5-0.3-17,0.5-25.4c3.4-0.8,6.7-1.6,10-2.6l0.8-0.3
		c1.1-7.2,0.6-14.5,0.8-21.8C236.5,317.6,234.9,315.6,233.3,313.8z"/>
	<path class="st10" d="M148.4,331c4.1-0.9,8.3-2.2,12.5-1.5c1.3,1.2,2.2,2.7,3.2,4.1c-0.6,5.9-0.7,11.8-0.5,17.7
		c2.2-0.2,4.5-0.4,6.7-0.7c2,2,5.3,3.5,5.6,6.7c0.4,5.4-0.1,10.9,0.3,16.4c3.1,0.3,6.6,0.3,9.2,2.4c2.5,2,3,5.3,3.5,8.3
		c-0.4,2.3-1,4.5-1.3,6.9c-2.3,0.6-4.7,1.3-7.1,1.8c-1.5,0.2-3.1,0.3-4.6,0.3c0.1-4,0.1-8,0.1-12.1c-2.2,0.4-4.4,0.8-6.5,1.2
		c-1.8,0.3-3.6,0.6-5.4,0.9c-0.2-8.4,0.1-16.8-0.7-25.1c-2.1,0.4-4.1,0.7-6.2,1.1c-2,0.3-3.9,0.7-5.9,0.9
		c-0.5-7.4-0.2-14.7-0.3-22.1C151.2,335.5,149.8,333.2,148.4,331z"/>
	<path class="st10" d="M210.8,385.6l1,0v1c-0.1,3.8-0.3,7.6-0.5,11.4c-7.6,1.9-15.2,3.9-22.9,5.3c-0.2-4.2-0.1-8.5,0.1-12.7
		C196,389.2,203.4,387.2,210.8,385.6z"/>
</g>
<g id="_x23_ac8e16ff">
	<path class="st11" d="M228.8,314.8c1.5-0.4,3-0.7,4.5-1c1.6,1.8,3.2,3.8,2.9,6.4c-0.1,7.2,0.3,14.6-0.8,21.8l-0.8,0.3
		c-2-1.4-4.1-2.7-6.1-4.1c0.1-4.4,0.2-8.8,0.2-13.2C228.7,321.6,228.8,318.2,228.8,314.8z"/>
</g>
<g id="_x23_909090ff">
	<path class="st12" d="M221.9,316.6c2.3-0.6,4.6-1.2,6.9-1.7c-0.1,3.4-0.1,6.7-0.1,10.1c-2.5-1.2-5-2.5-7.4-3.8
		C221.5,319.6,221.7,318.1,221.9,316.6z"/>
	<path class="st12" d="M210.3,323.8c2.2,1.3,4.5,2.5,6.7,3.8c0,4.2-0.2,8.3-0.5,12.4c-2.3-1.3-4.7-2.6-7-3.8
		C209.7,332.1,210,328,210.3,323.8z"/>
	<path class="st12" d="M25.4,326c7.5,5.2,14.4,11.4,21.9,16.6c1.1,26.2,2.8,52.4,3.9,78.7c-7.4-5.7-14.1-12.3-21-18.7
		c-0.8-6.4-1-12.8-1.2-19.2c-1.1-6.8-0.4-13.6-1.4-20.4c-0.6-5.6-0.1-11.3-1.1-16.9C26.1,339.4,26.1,332.7,25.4,326z"/>
</g>
<g id="_x23_ab8e16ff">
	<path class="st13" d="M144.1,332.1c1.4-0.4,2.9-0.7,4.3-1.1c1.4,2.2,2.8,4.5,2.7,7.2c0.1,7.3-0.2,14.7,0.3,22.1
		c-2.8-1.5-6.9-3.1-6.7-7C144.2,346.2,144.5,339.1,144.1,332.1z"/>
	<path class="st13" d="M217.4,341.6c2,0.9,4,1.7,5.7,3.1c1.6,8.5,0,17.2,0.3,25.7l-0.8,0.1c-2.4-1.9-5.4-3.9-5.5-7.2
		C216.5,356.1,217,348.8,217.4,341.6z"/>
	<path class="st13" d="M157.2,359.3c2.1-0.4,4.1-0.7,6.2-1.1c0.8,8.4,0.5,16.7,0.7,25.1c-2.8-1.2-6.5-2.7-6.9-6.2
		C156.6,371.3,157.1,365.3,157.2,359.3z"/>
	<path class="st13" d="M205.3,368.9c2,1.4,4.7,2.3,5.9,4.6c0.8,4,0.5,8.1,0.6,12.1l-1,0c-2-1.6-4.4-3.1-5.4-5.6
		C204.4,376.4,205.1,372.6,205.3,368.9z"/>
</g>
<g id="_x23_8f8f8fff">
	<path class="st14" d="M100.3,333.2c2,1.3,4,2.6,6,4c2.1,88.1,5,176.2,7.2,264.3c-2-1.7-4-3.5-5.9-5.2c0.3-13-0.9-26-1-39
		c-0.6-16.7-1.1-33.4-1.5-50.1c-0.2-7.6-0.1-15.2-1-22.7c-0.4,0-1.1-0.1-1.5-0.1c2.6-3.6,1.3-8.2,1.4-12.4c0-4-0.4-8-0.7-12
		c-0.6-8.1,1.8-17.1-2.4-24.4c0.7-0.2,1.4-0.5,2.1-0.7c-0.1-3.9-0.2-7.8-0.4-11.7c-0.2-4.3-0.3-8.6-0.5-12.9
		c-0.6-20.3-1.1-40.5-1.9-60.8C99.9,344.1,100,338.6,100.3,333.2z"/>
</g>
<g id="_x23_e1ce52ff">
	<path class="st15" d="M216.3,340.9c4.1-0.9,8.1-1.9,12.2-2.8c2,1.4,4,2.8,6.1,4.1c-3.3,1-6.7,1.8-10,2.6
		c-0.7,8.5-0.5,16.9-0.5,25.4l-0.7,0.2c-0.3-8.6,1.3-17.3-0.3-25.7c-1.7-1.4-3.8-2.2-5.7-3.1c-0.4,7.2-0.9,14.5-0.3,21.7
		c0.1,3.3,3.1,5.3,5.5,7.2c-3.4,0.5-6.7,1.4-10,2.3c-0.3,4.1-0.5,8.2-0.7,12.4c0,0.4-0.1,1.2-0.1,1.5v-1c-0.1-4,0.2-8.1-0.6-12.1
		c-1.3-2.2-3.9-3.2-5.9-4.6c-0.2,3.7-0.8,7.5,0.1,11.1c1,2.5,3.4,4,5.4,5.6c-7.4,1.6-14.8,3.6-22.3,5.1c-0.2,4.2-0.3,8.4-0.1,12.7
		l-0.7-0.4c-0.2-3.9-0.3-7.9,0-11.8c0.3-2.3,0.9-4.6,1.3-6.9c5.1-1,10.2-2.2,15.4-3.4c0.3-4.1,0.5-8.3,0.6-12.4
		c3.8-0.9,7.6-1.8,11.4-2.7C216.8,357.6,216.8,349.2,216.3,340.9z"/>
</g>
<g id="_x23_e5bc9fff">
	<path class="st16" d="M272.4,371.4c11.6-3.4,23.6-4.9,35.1-8.8c-0.2,4.2-0.3,8.4-0.8,12.6c-10.2,2.2-20.4,4.6-30.5,7
		c-2.3,0.3-3.9,2-4.5,4.2C271.7,381.3,272,376.3,272.4,371.4z"/>
</g>
<g id="_x23_eee171ff">
	<path class="st17" d="M212.5,372.7c3.3-0.8,6.6-1.7,10-2.3l0.8-0.1c0,2,0.1,4,0,6c-0.1,2.2-0.2,4.5-0.4,6.7
		c-3.7,0.8-7.5,1.5-11.2,2C212,381,212.2,376.8,212.5,372.7z"/>
</g>
<g id="_x23_f55e37ff">
	<path class="st18" d="M223.5,376.4c9-1.7,17.8-4,26.7-5.9c-0.1,12-0.4,23.9-0.9,35.9c-8.4,2.7-17,4.4-25.5,6.5
		c-12.8,3.2-25.7,6.3-38.6,9.4c-17.3,3.9-34.4,8.6-51.7,12.3c-0.2-12.4-0.7-24.8-0.4-37.2c12-3,24-5.8,36.1-8.2
		c2.2,1.5,4.5,3,6.8,4.3c1.5,0,3.1-0.1,4.6-0.3c0.5,2.1,0.7,4.3,1.8,6.2c1.4,1.7,3.4,2.6,5.3,3.7l0.7,0.4c7.7-1.4,15.3-3.4,22.9-5.3
		c0.2-3.8,0.4-7.6,0.5-11.4c0-0.4,0.1-1.1,0.1-1.5c3.8-0.5,7.5-1.1,11.2-2C223.2,380.9,223.4,378.6,223.5,376.4z"/>
</g>
<g id="_x23_633e31ff">
	<path class="st19" d="M276.1,382.1c10.2-2.4,20.3-4.8,30.5-7c-0.2,3.9-0.5,7.9-0.6,11.8c-11.6,2.4-23.2,5.3-34.7,8.2
		c0.1-3,0-6,0.2-8.9C272.2,384.1,273.8,382.4,276.1,382.1z"/>
	<path class="st19" d="M295,412c3.4-0.9,6.7-1.9,10.1-2.8c-1,7.6-1.6,15.3-1.4,23c-3.2,0.7-6.4,1.5-9.6,2.1
		C294,427,294.4,419.5,295,412z"/>
	<path class="st19" d="M270.5,417.2c1.1,0.2,2.2,0.4,3.3,0.7c0,3.4,0.1,6.8,0.2,10.3c3.2-0.6,6.3-1.2,9.5-1.8
		c0.1,3.6,0.1,7.2,0,10.8c-3.6,1-7.2,2.2-10.8,3.5c-0.2,7.3-0.3,14.7-1,22c-0.7,0.1-2,0.4-2.7,0.5c-0.1-4-0.2-8.1-0.1-12.1
		c0.2-3.1,0.4-6.3,0.6-9.4c4.4-2.5,3.6-7.9,3.8-12.3c-0.8-0.1-2.5-0.2-3.4-0.3C270.2,425.1,270.4,421.2,270.5,417.2z"/>
	<path class="st19" d="M52.2,434.6c16.8-3.5,33.4-8.1,50.2-11.4c0.2,3.9,0.3,7.8,0.4,11.7c-0.7,0.2-1.4,0.5-2.1,0.7
		c-15.9,4.6-32.1,7.7-48.1,11.9c-0.2-0.2-0.6-0.7-0.8-0.9C52.1,442.6,52.4,438.6,52.2,434.6z"/>
	<path class="st19" d="M283.9,437.7c3-1.7,6.5-2.2,9.8-2.9c0,7.3-0.6,14.6-0.8,21.9c-3.3,1.1-6.8,2-10.2,2.6
		C282.8,452.1,282.5,444.8,283.9,437.7z"/>
</g>
<g id="_x23_ab8e14ff">
	<path class="st20" d="M169.5,382.5c2.2-0.4,4.4-0.8,6.5-1.2c0,4,0,8-0.1,12.1c-2.4-1.3-4.6-2.8-6.8-4.3
		C169.3,386.9,169.4,384.7,169.5,382.5z"/>
	<path class="st20" d="M180.6,393.1c2.4-0.5,4.7-1.2,7.1-1.8c-0.2,3.9-0.1,7.9,0,11.8c-1.9-1.1-4-2-5.3-3.7
		C181.3,397.4,181.1,395.2,180.6,393.1z"/>
</g>
<g id="_x23_e4bb9eff">
	<path class="st21" d="M271.4,395.2c11.5-3,23-5.8,34.7-8.2c0.1,7.5-1,14.9-1,22.3c-3.4,0.9-6.8,1.9-10.1,2.8
		c-0.6,7.5-1,14.9-0.9,22.4c3.2-0.7,6.4-1.4,9.6-2.1c-1.5,31.4-3.3,62.7-4.9,94.1c-0.8,10.8-0.9,21.6-2,32.3
		c-6.3,1.8-12.6,3.9-18.9,5.7c0.1-6.7,0.4-13.3,0.5-20c-4.4,1.2-8.7,2.6-13.1,3.9c1-32.4,2.5-64.9,3.6-97.3c-0.1,4,0,8.1,0.1,12.1
		c0.7-0.1,2-0.4,2.7-0.5c0.7-7.3,0.8-14.7,1-22c3.5-1.3,7.1-2.5,10.8-3.5c0.1-3.6,0.1-7.2,0-10.8c-3.2,0.6-6.3,1.2-9.5,1.8
		c-0.1-3.4-0.2-6.9-0.2-10.3c-1.1-0.2-2.2-0.5-3.3-0.7C270.6,409.8,271,402.5,271.4,395.2 M283.9,437.7c-1.4,7.1-1.1,14.5-1.2,21.7
		c3.5-0.7,6.9-1.5,10.2-2.6c0.3-7.3,0.8-14.6,0.8-21.9C290.3,435.5,286.8,436,283.9,437.7z"/>
	<path class="st21" d="M80.1,490.2c4-1.3,8-2.4,12.1-3.1c0.5,7.7,0.4,15.4,0.6,23.2c4.1-0.9,8.2-1.9,12.3-3
		c0.4,16.7,0.9,33.4,1.5,50.1c0,13,1.2,26,1,39c-7.6,2.5-15.4,4.4-22.8,7.2c0,2.1,0.1,4.1,0.1,6.2c-0.1,4.8,0.7,9.5,0.3,14.3
		c-0.9,1.3-2.7,1.4-4.1,2.1c-6.3,1.8-12.4,3.9-18.7,5.5c-2.6-45-4.4-90-7.2-134.9c4.1-1.3,8.3-2.4,12.5-3.4
		c0.6,7.7,0.6,15.5,1.1,23.3c4.1-0.6,8.2-1.7,12-3.1C80.8,505.6,80.2,497.9,80.1,490.2z"/>
</g>
<g id="_x23_7d482fff">
	<path class="st22" d="M29.7,402.1l0.6,0.5c6.8,6.4,13.5,13,21,18.7l0.1,0.9c0.3,4.1,0.6,8.2,1,12.3c-7.7-6.1-14.3-13.5-22-19.6
		c-0.1,1.8-0.1,3.5-0.1,5.3C29.6,414.3,29.4,408.2,29.7,402.1z"/>
	<path class="st22" d="M31.1,428.1c7.7,5.3,13.8,12.3,20.7,18.5c0.2,0.2,0.6,0.7,0.8,0.9c0.4,6.2,0.4,12.4,0.9,18.6
		c0.1,2.1,1.2,4,2.3,5.8c-0.4,0.1-1.3,0.4-1.8,0.6c-1.9-1.8-3.8-3.7-5.7-5.5c-0.1,7.5,0.6,14.9,0.9,22.4c-1.7-1.3-3.4-2.6-5.1-4
		c0.3,6.9,0,13.9,1,20.8c0.5,3.5,3.4,5.7,5.7,8.1c-0.5-7.7-1.1-15.3-1.3-23c1.7,1.3,3.5,2.6,5.2,4c0,0.3,0.1,1,0.2,1.3
		c2.8,44.9,4.6,90,7.2,134.9c-6.2-7.2-12.2-14.6-18.4-21.9c-1.9-2-2.6-4.7-2.7-7.4c-2.2-36.1-4.2-72.1-6.7-108.2
		c0.2,3.6,2.5,6.4,5.3,8.4c-0.2-7.1-1-14.1-0.9-21.2c1.7,0.9,3.5,1.8,5.2,2.7c-0.2-3.5-0.2-7-1.2-10.4c-1-2.4-3.2-4-4.9-5.8
		c0,3.6,0.2,7.2,0.3,10.7c-1.6-1.4-3.2-2.8-4.8-4.2c-0.2-3.4-0.4-6.9-0.5-10.3c1.7,1,3.4,2.1,5,3.1c-0.1-3-0.2-5.9-0.7-8.9
		c-0.5-3-3-5.1-4.7-7.5C31.1,443.4,31.1,435.7,31.1,428.1z"/>
</g>
<g id="_x23_e5bb9fff">
	<path class="st23" d="M51.3,422.3c16.8-4.6,33.9-7.8,50.7-12c0.2,4.3,0.3,8.6,0.5,12.9c-16.9,3.3-33.4,7.9-50.2,11.4
		C51.9,430.5,51.6,426.4,51.3,422.3z"/>
	<path class="st23" d="M270,429.1c0.9,0.1,2.5,0.2,3.4,0.3c-0.2,4.3,0.7,9.7-3.8,12.3C269.7,437.5,269.8,433.3,270,429.1z"/>
</g>
<g id="_x23_1e0e0bff">
	<path class="st24" d="M30.2,415c7.7,6.1,14.3,13.4,22,19.6c0.1,4-0.1,8-0.4,12c-6.9-6.1-13.1-13.2-20.7-18.5l-0.6-0.4
		c-0.2-2.5-0.4-4.9-0.4-7.4C30.1,418.5,30.2,416.8,30.2,415z"/>
	<path class="st24" d="M32.6,450.8c1.7,2.4,4.2,4.5,4.7,7.5c0.6,2.9,0.6,5.9,0.7,8.9c-1.7-1-3.4-2.1-5-3.1
		C32.4,459.7,32.1,455.2,32.6,450.8z"/>
	<path class="st24" d="M48.5,467c1.9,1.8,3.8,3.6,5.7,5.5c0.2,7.6,0.7,15.2,0.8,22.8c-1.7-1.4-3.5-2.7-5.2-4
		c0.2,7.7,0.8,15.3,1.3,23c-2.3-2.4-5.2-4.6-5.7-8.1c-1-6.9-0.7-13.9-1-20.8c1.7,1.3,3.4,2.6,5.1,4C49.1,481.9,48.5,474.5,48.5,467z
		"/>
	<path class="st24" d="M38,467.8c1.8,1.8,3.9,3.4,4.9,5.8c1.1,3.4,1,6.9,1.2,10.4c-1.7-0.9-3.5-1.8-5.2-2.7
		c-0.1,7.1,0.7,14.1,0.9,21.2c-2.9-2-5.1-4.8-5.3-8.4c-0.4-6.6-0.6-13.2-1-19.8c1.6,1.4,3.2,2.8,4.8,4.2
		C38.2,475,38.1,471.4,38,467.8z"/>
</g>
<g id="_x23_e5bc9eff">
	<path class="st25" d="M52.7,447.5c16-4.2,32.2-7.3,48.1-11.9c4.3,7.4,1.8,16.3,2.4,24.4c-3.9,0.7-7.8,1.6-11.7,2.6
		c0,4,0.5,8.2-0.6,12.1c-3.6,1.5-7.4,2.1-11.2,3c-0.1,4.1-0.2,8.2-0.4,12.3c-3.7,0.8-7.7,3-11.5,1.9c-1.4-7.5-0.4-15.3-1.5-22.9
		c-3.6,0.7-7.1,1.6-10.5,2.8c-1.1-1.8-2.2-3.7-2.3-5.8C53.1,459.9,53.1,453.7,52.7,447.5z"/>
	<path class="st25" d="M92,475.1c3.9-1.2,7.9-2.3,12-3.1c-0.1,4.1,1.2,8.8-1.4,12.4c-3.5,0.6-6.9,1.3-10.3,2.1
		C92.1,482.7,92,478.9,92,475.1z"/>
</g>
<g id="_x23_633e30ff">
	<path class="st26" d="M91.6,462.6c3.9-1,7.8-1.9,11.7-2.6c0.3,4,0.6,8,0.7,12c-4.1,0.8-8,1.8-12,3.1c0,3.8,0.1,7.6,0.3,11.4
		c3.4-0.7,6.8-1.5,10.3-2.1c0.4,0,1.1,0.1,1.5,0.1c1,7.5,0.9,15.1,1,22.7c-4.1,1.1-8.2,2.2-12.3,3c-0.1-7.7-0.1-15.5-0.6-23.2
		c-4.1,0.8-8.1,1.8-12.1,3.1c0.1,7.7,0.7,15.5,0.6,23.2c-3.9,1.5-7.9,2.5-12,3.1c-0.5-7.8-0.5-15.5-1.1-23.3
		c-4.2,1-8.4,2.1-12.5,3.4c0-0.3-0.1-1-0.2-1.3c-0.1-7.6-0.5-15.2-0.8-22.8c0.4-0.1,1.3-0.4,1.8-0.6c3.4-1.2,6.9-2.1,10.5-2.8
		c1.1,7.6,0.1,15.3,1.5,22.9c3.8,1,7.8-1.2,11.5-1.9c0.2-4.1,0.3-8.2,0.4-12.3c3.8-0.9,7.6-1.5,11.2-3
		C92.1,470.8,91.5,466.7,91.6,462.6z"/>
</g>
<g id="_x23_7e482fff">
	<path class="st27" d="M265.5,548.4c4.3-1.3,8.7-2.6,13.1-3.9c-0.1,6.7-0.4,13.3-0.5,20c-4.5-3.3-8.7-7-13-10.6
		C265.3,552,265.4,550.2,265.5,548.4z"/>
</g>
<g id="_x23_a8c5d9ff">
	<path class="st28" d="M113.4,602.5c50.5-15.3,100.8-30.9,151.3-46.2c-1.4,13.3-0.7,26.7-2,40c-0.2,6.3,0.1,12.7-0.5,19
		c-1.1,8.6-0.2,17.4-1,26c-1.1,8.6-0.2,17.4-1,26c-1,8.6-0.2,17.3-1,26c-1.1,8.9-0.1,18-1.1,26.9c-0.7,5.9-0.2,11.9-0.7,17.8
		c-3,1-6,2.1-9,3.2c-6.3,2.4-12.7,4.8-19,7.2c-3.3,1.3-6.6,2.4-9.9,3.5l0-0.9c1.5-26.2,1.2-52.5,2.1-78.7c0.2-7.6,0.4-15.3,0.4-23
		c0-13,1.1-26,0.5-39c-7.8,2.1-15.3,5.2-23.2,6.9c-13.8,3.6-27.1,8.5-40.8,12.6c0,26.2,0.1,52.3,0.1,78.5c1.1,11,0.5,22,0.7,33
		c0.2,8.3,0.1,16.7,0.2,25c0.1,3.1-0.3,6.2-1,9.3c-2.9,0.9-5.7,1.9-8.5,3.2l-0.8,0.3c-6.9,2.5-13.7,4.9-20.5,7.7
		c-3.4,1.3-6.9,2.5-10.4,3.7v-1c0.3-12.8-0.8-25.5-0.8-38.2C116.2,701.7,114.9,652.1,113.4,602.5 M231.9,655.9
		c-0.2,3.1-0.3,6.3-0.3,9.4c-0.1,3.7-0.2,7.3-0.2,11c-0.1,2.7-0.1,5.3-0.1,8c-0.2,6.3-1,12.6-0.2,18.8c3-1,6-1.8,8.7-3.5
		c0.9-3,0.7-6.2,1.7-9.1c2.7-1.7,5.7-2.5,8.7-3.6c0.5-3.1,0.8-6.3,1-9.5c-0.3-6.2,0.3-12.4,0-18.6l-0.9,0.3c2.2-2.7,1.4-6.6,1.8-9.9
		C245.2,650.9,238.6,653.5,231.9,655.9 M131.2,690.2c-1.3,0.6-3,0.9-3.9,2.2c-0.5,3-0.1,6,0.1,9c-0.1,6.9,0,13.9,0.3,20.8
		c1.9-0.8,3.8-1.4,5.6-2.2c1.1,2.4,3.3,3.9,5.3,5.5l0,1c3.7-0.9,7.2-2,10.7-3.5c0-3.2,0.3-6.5-0.4-9.6c0.3-6.4,0.1-12.9,0.1-19.3
		c0.1-3.3,0.1-6.5,0.1-9.8C143.1,686.3,137.2,688.3,131.2,690.2 M128.2,730.3c-0.1,3.3,0,6.6,0.2,9.9c3.5-1.3,7.7-1.8,10.5-4.4
		c0.7-2.9-0.1-5.9-0.5-8.7C134.8,727.6,131.4,728.8,128.2,730.3z"/>
</g>
<g id="_x23_436382ff">
	<path class="st29" d="M84.6,603.5c7.5-2.8,15.2-4.7,22.8-7.2c2,1.8,3.9,3.5,5.9,5.2l0,1c1.5,49.6,2.8,99.2,4.2,148.8
		c0,12.7,1.1,25.5,0.8,38.2c-6.9-8.2-13-16.9-19.5-25.5c0.4-4.4,0.5-8.9-0.1-13.3c-1.4-9.2,0.3-18.6-1.1-27.8
		c-1.2-8.4,0.3-16.8-0.9-25.2c-1.4-9.2,0.3-18.6-1.1-27.8c-1.2-8.6,0.4-17.4-1-26c-1.2-8,0.3-16.2-0.8-24.2c-2-4.2-5.7-7.1-9.2-9.9
		C84.7,607.6,84.7,605.6,84.6,603.5z"/>
	<path class="st29" d="M199.4,617.2c7.9-1.7,15.4-4.8,23.2-6.9c0.5,13-0.5,26-0.5,39c0,7.6-0.2,15.3-0.4,23
		c-0.9,26.2-0.6,52.5-2.1,78.7c-7.5-7.6-14.4-15.9-21.6-23.8c1.1-15.3-0.7-30.6,1.3-45.8C199.4,659.9,199.3,638.5,199.4,617.2z"/>
	<path class="st29" d="M244.4,661.1c2-0.6,4-1.2,5.9-2l0.9-0.3c0.3,6.2-0.3,12.4,0,18.6l-0.7-0.1c-2-2-3.8-4-5.7-6.1
		C244.7,667.9,244.5,664.5,244.4,661.1z"/>
	<path class="st29" d="M143.2,696.1c1.9-0.7,3.8-1.3,5.7-2c0.1,6.5,0.3,12.9-0.1,19.3c-1.7-2.2-3.6-4.3-5.5-6.3
		C143.3,703.5,143.3,699.8,143.2,696.1z"/>
</g>
<g id="_x23_d6dee5ff">
	<path class="st30" d="M231.9,655.9c6.7-2.3,13.3-5,20.2-6.6c-0.4,3.2,0.4,7.2-1.8,9.9c-2,0.7-3.9,1.3-5.9,2
		c-4.3,1.3-8.5,2.8-12.8,4.2C231.6,662.2,231.7,659,231.9,655.9z"/>
	<path class="st30" d="M231.3,684.3c6.4-2.2,12.7-4.8,19.2-7l0.7,0.1c-0.2,3.2-0.6,6.3-1,9.5c-2.9,1.1-6,2-8.7,3.6
		c-1,3-0.8,6.2-1.7,9.1c-2.7,1.6-5.8,2.4-8.7,3.5C230.3,696.9,231,690.6,231.3,684.3z"/>
	<path class="st30" d="M131.2,690.2c6-1.9,11.9-4,17.9-5.8c0,3.3,0,6.5-0.1,9.8c-1.9,0.6-3.8,1.3-5.7,2c-5.2,1.8-10.5,3.6-15.8,5.3
		c-0.2-3-0.6-6.1-0.1-9C128.2,691.1,129.9,690.8,131.2,690.2z"/>
	<path class="st30" d="M133.1,710.8c3.4-1.2,6.9-2.4,10.3-3.6c1.9,2,3.8,4.1,5.5,6.3c0.7,3.2,0.4,6.4,0.4,9.6
		c-3.5,1.4-7,2.6-10.7,3.5l0-1c0-2.7,0.2-5.4-0.5-8.1C137.2,714.8,135,712.9,133.1,710.8z"/>
	<path class="st30" d="M128.2,730.3c3.2-1.5,6.6-2.7,10.2-3.2c0.5,2.9,1.2,5.8,0.5,8.7c-2.8,2.6-7,3.1-10.5,4.4
		C128.1,736.9,128.1,733.6,128.2,730.3z"/>
</g>
<g id="_x23_e4bb9dff">
	<path class="st31" d="M231.6,665.3c4.2-1.5,8.5-2.9,12.8-4.2c0.2,3.4,0.3,6.8,0.4,10.1c-4.5,1.6-8.9,3.4-13.4,5
		C231.4,672.6,231.5,669,231.6,665.3z"/>
</g>
<g id="_x23_c0ccd7ff">
	<path class="st32" d="M244.8,671.2c1.9,2.1,3.7,4.1,5.7,6.1c-6.5,2.2-12.8,4.7-19.2,7c0-2.7,0-5.4,0.1-8
		C235.8,674.6,240.3,672.9,244.8,671.2z"/>
</g>
<g id="_x23_e4ba9eff">
	<path class="st33" d="M127.4,701.5c5.3-1.7,10.5-3.5,15.8-5.3c0.1,3.7,0.1,7.4,0.2,11.1c-3.4,1.2-6.9,2.4-10.3,3.6
		c-0.2,3.1-0.2,6.2,0.2,9.3c-1.8,0.8-3.8,1.4-5.6,2.2C127.5,715.4,127.3,708.4,127.4,701.5z"/>
</g>
<g id="_x23_7c8d9eff">
	<path class="st34" d="M133.3,720.1c-0.4-3.1-0.4-6.2-0.2-9.3c1.9,2.1,4.1,4,5,6.7c0.7,2.6,0.4,5.4,0.5,8.1
		C136.6,724,134.4,722.5,133.3,720.1z"/>
</g>
<g id="_x23_0e0e0eff">
	<path class="st35" d="M197.1,761.1c0.1-11.3-0.7-22.7,0.9-33.9c7.1,8,14,16.2,21.6,23.8l0,0.9c0,2.4-0.1,4.8,0.5,7.1
		c1,2.9,3.3,5.1,4.6,7.9c1,2.8,0.9,5.9,1.8,8.8c1.1,2.6,3.1,4.6,4.2,7.1c0.9,2.8,0.7,5.7,1.1,8.6c3.1,5.3,7.7,9.3,11.5,14
		c3.3,4,7,7.7,10.2,11.7c2,2.3,2.1,5.5,2.2,8.4c-0.1,0.7-0.2,2.1-0.2,2.8C235.6,806.2,216.8,783.2,197.1,761.1z"/>
</g>
<g id="_x23_393939ff">
	<path class="st36" d="M248.4,741.1c3-1.1,6-2.2,9-3.2c0.1,2.7-0.1,5.4,0.5,8c1.2,2.5,3.8,4.1,4.9,6.6c0.4,2.8-0.1,5.8,0.4,8.6
		c1.5,2.6,4.2,4.4,5.4,7.2c0.5,2.9,0.1,5.9-0.2,8.9c-2.8,1-5.5,1.9-8.3,3c-6.5,2.3-12.9,4.9-19.2,7.8c-3,1.3-6.1,2.3-9.2,3.4
		c-0.4-2.9-0.2-5.8-1.1-8.6c-1.1-2.5-3.2-4.6-4.2-7.1c-0.9-2.9-0.7-6-1.8-8.8c-1.3-2.8-3.6-5-4.6-7.9c-0.6-2.3-0.5-4.7-0.5-7.1
		c3.3-1.1,6.6-2.2,9.9-3.5c0,3,0,6,0.5,9c1.7,2.1,3.5,4.1,5.3,6.1c0,2.9,0,5.8,0,8.8c6.3-2.2,12.6-4.8,18.8-7.3
		c0.2-2.9,0.3-5.9-0.1-8.7c-1.7-2.2-3.5-4.2-5.4-6.2C248.5,746.9,248.4,744,248.4,741.1z"/>
	<path class="st36" d="M158.6,775.5c0.3-0.1,1-0.3,1.3-0.4c0.1,2.7-0.1,5.4,0.4,8c0.9,2.8,3.4,4.8,4.6,7.5c0.9,3,0.4,6.2,1.1,9.2
		c1.3,2.5,3.6,4.3,4.7,6.9c0.6,3,0.3,6.2,0.4,9.2c-3,1.2-5.9,2.5-8.9,3.6c-7.3,2.3-14.4,5.2-21.4,8.4c-3.3,1.4-6.6,2.8-9.8,4.4
		c-0.9-4.5-0.8-9.4-3.5-13.2c-2.3-3.2-2.8-7-3.4-10.8c-0.5-4-3.7-6.8-5-10.5c-0.7-2.4-0.6-4.9-0.7-7.3c3.5-1.2,6.9-2.4,10.4-3.7
		c0.3,2.9,0.5,5.8,1.2,8.7c2.1,3.4,4.4,6.9,5.1,11c0,1.6,0.1,3.2,0.1,4.8c7-2.4,13.9-5.2,20.7-8.1c-0.1-3-0.4-6-1.2-8.9
		c-1.4-2.3-3.3-4.5-4.1-7.1c-0.7-2.7-0.5-5.6-0.6-8.4C152.8,777.5,155.7,776.5,158.6,775.5z"/>
	<path class="st36" d="M256.7,819.7c12.3-4.9,24.4-10.5,37-14.9c0,2.7,0,5.4,0,8.2c-12.9,5.2-25.9,10.3-38.4,16.2l0.1-0.9
		c0.1-0.7,0.2-2.1,0.2-2.8C255.9,823.6,256.3,821.6,256.7,819.7z"/>
	<path class="st36" d="M153.8,862.5c13.6-5.6,27-11.5,40.8-16.6c0,5.6,0.5,11.1,0.3,16.7c-0.2-2.6-0.4-5.2-0.6-7.8
		c-14.1,4.9-27.5,11.6-41.5,16.8C153.1,868.6,153.5,865.6,153.8,862.5z"/>
</g>
<g id="_x23_8f00a4ff">
	<path class="st37" d="M229.4,748.3c6.3-2.5,12.7-4.8,19-7.2c0,2.9,0,5.8,0.1,8.7c-6.3,2.3-12.5,4.7-18.6,7.5
		C229.4,754.3,229.4,751.3,229.4,748.3z"/>
	<path class="st37" d="M128.9,786.7c6.7-2.8,13.6-5.2,20.5-7.7c0,2.7,0.2,5.5,0.3,8.2c-6.3,3.3-13.1,5.3-19.6,8.2
		C129.4,792.6,129.2,789.6,128.9,786.7z"/>
	<path class="st37" d="M255.3,829.2c12.5-6,25.5-11,38.4-16.2c-0.1,2.7-0.2,5.5-0.4,8.2c-12.7,5.4-25.4,10.8-38.2,16.1
		C255.1,834.6,255.1,831.9,255.3,829.2z"/>
	<path class="st37" d="M152.8,871.6c14-5.2,27.4-11.9,41.5-16.8c0.2,2.6,0.4,5.2,0.6,7.8c-13.8,6.2-27.7,12.1-41.8,17.7
		C153,877.4,153,874.5,152.8,871.6z"/>
</g>
<g id="_x23_700085ff">
	<path class="st38" d="M229.9,757.3c6.1-2.8,12.3-5.2,18.6-7.5c1.8,2,3.7,4,5.4,6.2c-6.1,2.7-12.3,5.2-18.6,7.3
		C233.4,761.4,231.6,759.4,229.9,757.3z"/>
</g>
<g id="_x23_9000a4ff">
	<path class="st39" d="M235.2,763.4c6.3-2.2,12.5-4.6,18.6-7.3c0.4,2.9,0.3,5.8,0.1,8.7c-6.2,2.6-12.5,5.1-18.8,7.3
		C235.2,769.2,235.2,766.3,235.2,763.4z"/>
	<path class="st39" d="M154.8,794.3c0.8,2.9,1,5.9,1.2,8.9c-6.9,2.8-13.7,5.7-20.7,8.1c-0.1-1.6-0.1-3.2-0.1-4.8
		c0-1.3,0.1-2.6,0.2-3.9C141.8,799.7,148.5,797.4,154.8,794.3z"/>
</g>
<g id="_x23_330043ff">
	<path class="st40" d="M197.1,761.1c19.7,22.2,38.5,45.2,58.2,67.3l-0.1,0.9c-0.1,2.7-0.1,5.4-0.1,8.1
		c-18.7-21.8-37.3-43.9-56.1-65.7C196.2,768.8,196.8,764.7,197.1,761.1z"/>
</g>
<g id="_x23_0d0d0dff">
	<path class="st41" d="M98.6,778c-0.3-4.6-0.8-9.4,0.4-13.9c6.4,8.5,12.6,17.3,19.5,25.5v1c0.1,2.4,0,4.9,0.7,7.3
		c1.3,3.7,4.5,6.5,5,10.5c0.5,3.8,1.1,7.6,3.4,10.8c2.8,3.8,2.6,8.7,3.5,13.2c6,9.5,13.4,18.2,19.8,27.5c2.1,3.1,1.7,6.9,2,10.5
		c-5.8-6.1-10.3-13.3-15.3-20.1c-12.6-17.1-24.7-34.5-37.7-51.4c-0.5-2.4-0.6-4.9-0.6-7.3C99.2,787,99,782.5,98.6,778 M103.5,778.2
		c0.1,5-0.1,10,0.3,15c0,3.3,2.4,5.9,4.2,8.4c3.8,4.9,7.1,10.2,11.4,14.8c0-2.9,0.5-6-0.6-8.8c-2.3-4.8-6.6-8.2-9-12.9
		c-1.2-3.2-0.8-6.8-1.9-10.1C106.8,782.3,105,780.3,103.5,778.2z"/>
</g>
<g id="_x23_2b2b2bff">
	<path class="st42" d="M260.1,780.1c2.8-1,5.5-2,8.3-3c8.8,8.8,18.2,17.2,25.2,27.6c-12.6,4.4-24.6,10-37,14.9
		c-0.4,1.9-0.8,3.8-1.1,5.8c-0.1-2.9-0.2-6.1-2.2-8.4c-3.2-4.1-7-7.7-10.2-11.7c-3.8-4.7-8.4-8.8-11.5-14c3.1-1.1,6.2-2.1,9.2-3.4
		c1.9,2.2,3.8,4.3,5.7,6.5c6.5-1.9,12.8-4.6,19-7.5C263.7,784.7,261.9,782.4,260.1,780.1 M253.3,801.6c1.8,2.5,3.8,4.8,5.9,7
		c6.3-2.6,12.8-4.6,18.7-8.1c-1.9-2.3-4-4.5-6.4-6.4C265.6,796.6,259.4,799,253.3,801.6z"/>
	<path class="st42" d="M162.2,819.5c3-1.1,6-2.3,8.9-3.6c4.6,5,8.5,10.5,12.8,15.8c3.6,4.7,7.6,9.1,10.7,14.1
		c-13.8,5.1-27.2,11-40.8,16.6c-0.3,3-0.6,6-1,9.1c0-0.4-0.1-1-0.1-1.4c-0.3-3.5,0.1-7.4-2-10.5c-6.4-9.3-13.7-17.9-19.8-27.5
		c3.2-1.5,6.5-3,9.8-4.4c1.8,2.4,3.7,4.9,5.6,7.2c6.8-2.6,13.6-5.2,20.2-8.2C165.1,824.5,163.7,822,162.2,819.5 M152.2,842.6
		c1.5,2.8,3.4,5.3,5.4,7.7c7.1-2.3,13.9-5.6,20.9-8.4c-1.6-2.5-3.1-5.3-5.5-7.1C165.7,836.3,159.1,840.1,152.2,842.6z"/>
</g>
<g id="_x23_13181a72">
	<path class="st43" d="M98.6,778c0.4,4.5,0.6,9,0.5,13.5C97.7,787.1,98.5,782.5,98.6,778z"/>
</g>
<g id="_x23_320043ff">
	<path class="st44" d="M103.5,778.2c1.5,2.1,3.3,4.1,4.3,6.5c1.1,3.2,0.6,6.8,1.9,10.1c2.4,4.7,6.6,8.2,9,12.9
		c1.1,2.8,0.6,5.8,0.6,8.8c-4.2-4.6-7.5-9.9-11.4-14.8c-1.9-2.5-4.2-5.1-4.2-8.4C103.4,788.3,103.5,783.3,103.5,778.2z"/>
	<path class="st44" d="M99.8,798.8c13,16.8,25,34.3,37.7,51.4c5,6.7,9.5,13.9,15.3,20.1c0,0.3,0.1,1,0.1,1.4
		c0.2,2.9,0.2,5.8,0.3,8.7c-17.5-23.9-34.6-48-51.9-71.9C99,805.7,99.5,802,99.8,798.8z"/>
</g>
<g id="_x23_6f0085ff">
	<path class="st45" d="M149.3,779.1l0.8-0.3c0.1,2.8-0.1,5.6,0.6,8.4c0.9,2.7,2.7,4.8,4.1,7.1c-6.3,3.2-13,5.5-19.5,8.2
		c-0.1,1.3-0.1,2.6-0.2,3.9c-0.7-4.1-3-7.6-5.1-11c6.5-2.8,13.3-4.9,19.6-8.2C149.5,784.5,149.4,781.8,149.3,779.1z"/>
	<path class="st45" d="M240.9,788c6.3-2.9,12.7-5.5,19.2-7.8c1.8,2.2,3.6,4.5,5.4,6.8c-6.1,2.9-12.4,5.6-19,7.5
		C244.7,792.3,242.8,790.1,240.9,788z"/>
	<path class="st45" d="M253.3,801.6c6.1-2.6,12.2-4.9,18.3-7.5c2.3,1.9,4.5,4,6.4,6.4c-5.9,3.5-12.5,5.5-18.7,8.1
		C257.1,806.3,255.1,804,253.3,801.6z"/>
	<path class="st45" d="M140.8,827.9c7-3.2,14.1-6.1,21.4-8.4c1.5,2.5,2.9,4.9,4.3,7.5c-6.6,3-13.4,5.6-20.2,8.2
		C144.5,832.8,142.6,830.4,140.8,827.9z"/>
	<path class="st45" d="M152.2,842.6c7-2.5,13.6-6.3,20.8-7.8c2.4,1.9,3.9,4.6,5.5,7.1c-6.9,2.8-13.7,6.1-20.9,8.4
		C155.6,847.9,153.7,845.3,152.2,842.6z"/>
</g>
</svg>
