<?xml version="1.0" encoding="utf-8"?>
<!-- Generator: Adobe Illustrator 26.0.3, SVG Export Plug-In . SVG Version: 6.00 Build 0)  -->
<svg version="1.1" id="圖層_1" xmlns="http://www.w3.org/2000/svg" xmlns:xlink="http://www.w3.org/1999/xlink" x="0px" y="0px"
	 viewBox="0 0 512 512" style="enable-background:new 0 0 512 512;" xml:space="preserve">
<style type="text/css">
	.st0{fill:#FF993A;}
	.st1{fill:#FFAF40;}
	.st2{fill:#FFC751;}
	.st3{fill:#F97C15;}
	.st4{fill:#FFFFFF;}
	.st5{fill:#FC709B;}
	.st6{fill:#F7A6C1;}
	.st7{fill:#FE255F;}
	.st8{fill:#FFE059;}
	.st9{fill:#FFF370;}
	.st10{fill:#79FF79;}
	.st11{fill:#C2FFC2;}
	.st12{fill:#29E088;}
	.st13{fill:#AB97F2;}
	.st14{fill:#C3B9F9;}
	.st15{fill:#8F6BDD;}
	.st16{fill:#7CBAF7;}
	.st17{fill:#A9CFFC;}
	.st18{fill:#48ACFF;}
	.st19{fill:#D8D4C9;}
	.st20{fill:#E8E4D8;}
	.st21{fill:#B5B1A4;}
</style>
<path class="st0" d="M149.5,266.9c0,58.8,47.6,106.5,106.4,106.5s106.5-47.6,106.5-106.4c0,0,0,0,0-0.1
	c0-58.8-47.7-106.5-106.5-106.5S149.5,208.1,149.5,266.9L149.5,266.9z"/>
<path class="st1" d="M201.8,273.6c-0.3-2.6-0.5-5.2-0.4-7.8c0.5-28.6,23.5-52.2,52-53.5c3.1-0.1,6.2,0,9.3,0.3
	c12.4,1.5,24.2-5.8,27.9-17.7l0.2-0.5c4.7-15.3-5.5-31.2-21.4-33.2c-4.3-0.5-8.7-0.8-13.2-0.8c-58.5-0.1-105.6,46.3-106.6,104.8
	c-0.1,4.9,0.2,9.7,0.7,14.4c1.8,14.8,16,25,30.6,22.2C193.8,299.3,203.4,286.6,201.8,273.6L201.8,273.6z"/>
<path class="st2" d="M193.4,233.6l0.5,0.1c8.7,2.3,18-0.1,24.5-6.3c4.9-4.7,10.7-8.4,17-11c9.6-4,16-13.1,16-23.5v-0.9
	c0-18.2-18.4-30.7-35.4-23.9c-12.8,5.1-24.4,12.7-34.3,22.2C167.5,204.2,174.1,228.4,193.4,233.6z"/>
<path class="st3" d="M362.5,266.9c0,58.8-47.7,106.5-106.5,106.5c-47.3,0-87.4-30.9-101.3-73.6c17.3,26.2,47,43.5,80.8,43.5
	c53.5,0,96.8-43.3,96.8-96.8c0-33.7-17.3-63.5-43.5-80.8C331.6,179.4,362.5,219.5,362.5,266.9L362.5,266.9z"/>
<path class="st4" d="M256.1,438.9H256c-4.5,0-9-0.2-13.4-0.5c-4.3-0.3-7.6-4-7.3-8.3c0.3-4.3,4-7.6,8.3-7.3c0.1,0,0.1,0,0.2,0
	c4,0.3,8.1,0.5,12.2,0.5h0.1c4.3,0,7.9,3.4,7.9,7.7c0,4.3-3.4,7.9-7.7,7.9C256.2,438.9,256.2,438.9,256.1,438.9z M306.8,430.9
	c-3.4,0-6.4-2.2-7.4-5.4c-1.3-4.1,0.9-8.5,5-9.9c0,0,0,0,0,0c3.9-1.3,7.7-2.7,11.5-4.2c4-1.6,8.6,0.4,10.2,4.4
	c1.6,3.9-0.3,8.4-4.2,10.1c-4.2,1.7-8.4,3.3-12.7,4.7C308.5,430.8,307.7,430.9,306.8,430.9L306.8,430.9z M193.3,426.5
	c-1,0-2-0.2-3-0.6c-4.2-1.7-8.3-3.6-12.3-5.7c-3.9-2-5.4-6.7-3.4-10.5c0,0,0,0,0,0c2-3.9,6.7-5.4,10.5-3.4c0,0,0,0,0,0
	c3.6,1.9,7.4,3.6,11.2,5.1c4,1.7,5.9,6.2,4.2,10.2C199.3,424.6,196.4,426.5,193.3,426.5L193.3,426.5z M362.7,399.6
	c-4.3,0-7.8-3.5-7.8-7.8c0-2.3,1-4.5,2.7-6c3.1-2.7,6.1-5.4,9-8.3c3-3.1,8-3.2,11.1-0.1c3.1,3,3.2,8,0.1,11.1c0,0-0.1,0.1-0.1,0.1
	c-3.2,3.2-6.5,6.2-9.9,9.2C366.4,398.9,364.6,399.6,362.7,399.6L362.7,399.6z M140,390.9c-2.1,0-4.1-0.8-5.5-2.3
	c-3.2-3.2-6.2-6.5-9.2-9.9c-2.8-3.3-2.4-8.2,0.9-11c3.3-2.8,8.2-2.4,11,0.9c2.7,3.1,5.4,6.1,8.3,9c3.1,3.1,3.1,8,0,11.1c0,0,0,0,0,0
	C144.1,390.1,142.1,390.9,140,390.9z M402.4,349.3c-1.2,0-2.5-0.3-3.6-0.9c-3.9-2-5.4-6.7-3.4-10.5c0,0,0,0,0,0
	c1.9-3.6,3.6-7.4,5.1-11.2c1.7-4,6.2-5.9,10.2-4.2c0,0,0,0,0,0c4,1.7,5.9,6.2,4.2,10.2c-1.7,4.2-3.6,8.3-5.7,12.3
	C408,347.6,405.3,349.3,402.4,349.3L402.4,349.3z M104.3,337.7c-3.2,0-6-1.9-7.2-4.8c-1.7-4.2-3.3-8.4-4.7-12.7
	c-1.3-4.1,0.9-8.5,5-9.9c0,0,0,0,0,0c4.1-1.3,8.5,0.9,9.9,5c0,0,0,0,0,0c1.3,3.9,2.7,7.7,4.3,11.5c1.7,4-0.2,8.6-4.2,10.2
	C106.4,337.5,105.4,337.7,104.3,337.7L104.3,337.7z M419.7,287.6c-4.3,0-7.8-3.5-7.8-7.8c0-0.2,0-0.4,0-0.6
	c0.3-4.1,0.5-8.2,0.5-12.3l0-0.4c0-4.3,3.5-7.8,7.8-7.8c4.3,0,7.8,3.5,7.8,7.8l0,0.4c0,4.5-0.2,9.1-0.5,13.5
	C427.2,284.4,423.8,287.6,419.7,287.6L419.7,287.6z M91.8,274.9c-4.3,0-7.8-3.5-7.8-7.8v-0.2c0-4.4,0.2-8.9,0.5-13.3
	c0.3-4.3,4.1-7.5,8.4-7.2c4.3,0.3,7.5,4.1,7.2,8.4l0,0c-0.3,4-0.5,8-0.5,12.1v0.2C99.6,271.4,96.1,274.9,91.8,274.9z M412.1,223.6
	c-3.4,0-6.4-2.2-7.4-5.4c-1.3-3.9-2.7-7.7-4.3-11.5c-1.7-4,0.2-8.6,4.2-10.2c4-1.7,8.6,0.2,10.2,4.2c1.7,4.2,3.3,8.4,4.7,12.6
	c1.3,4.1-0.9,8.5-5,9.9C413.8,223.4,412.9,223.6,412.1,223.6z M104.2,212.1c-4.3,0-7.8-3.5-7.8-7.8c0-1,0.2-2,0.6-3
	c1.7-4.2,3.6-8.3,5.7-12.3c2-3.9,6.7-5.4,10.5-3.4s5.4,6.7,3.4,10.5l0,0c-1.9,3.7-3.6,7.4-5.1,11.2
	C110.2,210.2,107.3,212.1,104.2,212.1L104.2,212.1z M380.7,167.8c-2.3,0-4.5-1-5.9-2.7c-2.7-3.1-5.5-6.1-8.4-9c-3.1-3-3.1-8,0-11.1
	c0,0,0,0,0,0c3-3.1,8-3.1,11.1,0c0,0,0,0,0,0c3.2,3.2,6.3,6.5,9.2,9.9c2.8,3.3,2.4,8.2-0.8,11c0,0,0,0,0,0
	C384.3,167.1,382.5,167.8,380.7,167.8L380.7,167.8z M139.7,158.8c-4.3,0-7.8-3.5-7.8-7.8c0-2.1,0.8-4.1,2.3-5.5
	c3.2-3.2,6.5-6.3,9.9-9.2c3.3-2.8,8.2-2.4,11,0.8s2.4,8.2-0.8,11l0,0c-3.1,2.7-6.1,5.5-9,8.4C143.8,157.9,141.8,158.8,139.7,158.8
	L139.7,158.8z M330.3,128.2c-1.2,0-2.4-0.3-3.5-0.9c-3.7-1.9-7.4-3.6-11.2-5.1c-4-1.6-5.9-6.2-4.3-10.2c1.6-4,6.2-5.9,10.2-4.3
	c0,0,0,0,0,0c4.2,1.7,8.3,3.6,12.3,5.6c3.9,2,5.4,6.7,3.4,10.5C335.9,126.6,333.2,128.2,330.3,128.2z M192.9,123.1
	c-4.3,0-7.8-3.5-7.8-7.8c0-3.2,1.9-6,4.8-7.2c4.2-1.7,8.4-3.3,12.7-4.7c4.1-1.3,8.5,0.9,9.9,5c1.3,4.1-0.9,8.5-5,9.8
	c-3.9,1.3-7.7,2.7-11.5,4.3C195,122.9,193.9,123.1,192.9,123.1z M268.6,111c-0.2,0-0.4,0-0.6,0c-4-0.3-8-0.5-12-0.5l-0.3,0
	c-4.3,0-7.8-3.5-7.8-7.8c0-4.3,3.5-7.8,7.8-7.8l0.3,0c4.4,0,8.8,0.2,13.2,0.5c4.3,0,7.8,3.5,7.8,7.8c0,4.3-3.5,7.8-7.8,7.8
	C269,111,268.8,111,268.6,111z M274,512c-4.3,0-7.8-3.5-7.8-7.8c0-4.1,3.2-7.5,7.2-7.8c4-0.3,8-0.7,12-1.2c4.3-0.5,8.2,2.5,8.7,6.8
	c0.5,4.3-2.5,8.1-6.7,8.7c-4.2,0.5-8.5,1-12.8,1.3C274.3,512,274.1,512,274,512L274,512z M224.3,510.5c-0.3,0-0.7,0-1.1-0.1l-0.1,0
	c-4.2-0.6-8.4-1.2-12.6-2c-4.3-0.8-7-4.9-6.3-9.1c0.8-4.3,4.9-7,9.1-6.3c3.9,0.7,7.9,1.4,11.8,1.9l0.1,0c4.3,0.6,7.3,4.5,6.7,8.8
	C231.5,507.6,228.2,510.5,224.3,510.5L224.3,510.5z M334.7,499.3c-3.3,0-6.3-2.1-7.4-5.2c-1.4-4.1,0.7-8.5,4.8-10c0,0,0,0,0,0
	c3.8-1.3,7.5-2.8,11.2-4.3c4-1.6,8.6,0.4,10.1,4.5c1.5,3.9-0.3,8.3-4.2,10c-4,1.6-8,3.2-12,4.6C336.5,499.1,335.6,499.3,334.7,499.3
	L334.7,499.3z M164.3,494.3c-1,0-2.1-0.2-3-0.6c-4-1.7-7.9-3.4-11.7-5.3c-3.9-1.9-5.5-6.6-3.6-10.5c1.9-3.8,6.5-5.5,10.4-3.6
	c3.6,1.7,7.3,3.4,11,4.9c4,1.7,5.9,6.2,4.2,10.2C170.3,492.4,167.5,494.3,164.3,494.3z M390.1,471.2c-2.6,0-5-1.3-6.5-3.4
	c-2.4-3.6-1.5-8.4,2-10.9c0,0,0,0,0,0c3.3-2.3,6.6-4.6,9.8-7.1c3.4-2.6,8.3-2,11,1.4s2,8.3-1.4,11c0,0-0.1,0-0.1,0.1
	c-3.4,2.6-6.9,5.1-10.4,7.5C393.2,470.8,391.7,471.2,390.1,471.2L390.1,471.2z M110.6,463.1c-1.7,0-3.4-0.6-4.8-1.6
	c-3.4-2.6-6.7-5.3-10-8.1c-3.3-2.8-3.6-7.8-0.7-11c2.8-3.2,7.7-3.6,11-0.8c3,2.6,6.2,5.2,9.3,7.6c3.4,2.6,4,7.6,1.4,11
	C115.3,462,113,463.1,110.6,463.1z M436.4,429.8c-4.3,0-7.8-3.5-7.8-7.8c0-1.9,0.7-3.7,1.9-5.1c2.6-3,5.2-6.2,7.6-9.3
	c2.6-3.4,7.5-4.1,11-1.5c3.4,2.6,4.1,7.5,1.5,11c0,0-0.1,0.1-0.1,0.1c-2.6,3.4-5.3,6.7-8.1,10C440.9,428.9,438.7,429.9,436.4,429.8z
	 M66.9,419c-2.4,0-4.8-1.1-6.2-3.1c-2.6-3.4-5.1-6.9-7.5-10.4c-2.4-3.6-1.5-8.4,2-10.9s8.4-1.5,10.9,2l0,0c2.3,3.3,4.6,6.6,7.1,9.8
	c2.6,3.4,2,8.4-1.5,11C70.2,418.4,68.6,419,66.9,419z M470.5,377.9c-4.3,0-7.8-3.5-7.8-7.8c0-1.2,0.3-2.3,0.8-3.4
	c1.7-3.6,3.4-7.3,4.9-11c1.7-4,6.3-5.8,10.3-4.2c4,1.7,5.8,6.2,4.2,10.2c-1.7,4-3.4,7.9-5.3,11.7
	C476.2,376.2,473.5,377.9,470.5,377.9L470.5,377.9z M35.9,365.2c-3.2,0-6-1.9-7.2-4.8c-1.6-4-3.2-8-4.6-12c-1.4-4.1,0.7-8.5,4.8-10
	c4.1-1.4,8.5,0.7,10,4.8c1.3,3.8,2.8,7.5,4.3,11.2c1.6,4-0.3,8.6-4.3,10.2C38,365,36.9,365.2,35.9,365.2L35.9,365.2z M489.8,318.9
	c-4.3,0-7.8-3.5-7.8-7.8c0-0.5,0-1,0.1-1.5c0.7-3.9,1.4-7.9,1.9-11.9l0.1-0.5c0.6-4.3,4.5-7.3,8.8-6.7c4.3,0.6,7.3,4.5,6.7,8.8
	c0,0,0,0,0,0l-0.1,0.5c-0.6,4.2-1.3,8.5-2,12.7C496.8,316.2,493.6,318.9,489.8,318.9L489.8,318.9z M20,305.2c-3.9,0-7.3-2.9-7.8-6.8
	c-0.5-4.3-1-8.5-1.3-12.8c-0.3-4.3,2.9-8.1,7.2-8.4c4.3-0.3,8.1,2.9,8.4,7.2c0.3,4,0.7,8,1.2,12c0.6,4.3-2.5,8.2-6.8,8.8
	C20.6,305.1,20.3,305.2,20,305.2L20,305.2z M493.3,256.4c-4.1,0-7.5-3.2-7.8-7.2c-0.3-4-0.7-8-1.2-12c-0.6-4.3,2.5-8.2,6.8-8.8
	c0,0,0,0,0,0c4.3-0.5,8.2,2.5,8.8,6.8c0.5,4.2,1,8.5,1.3,12.8c0.3,4.3-2.9,8.1-7.2,8.4C493.7,256.4,493.5,256.4,493.3,256.4
	L493.3,256.4z M20.2,243.1c-4.3,0-7.8-3.5-7.8-7.8c0-0.4,0-0.7,0.1-1.1l0-0.2c0.6-4.2,1.2-8.3,2-12.5c0.8-4.2,5-7,9.2-6.2
	c4.2,0.8,6.9,4.8,6.2,9c-0.7,3.9-1.4,7.8-1.9,11.7l0,0.2C27.4,240.2,24.1,243.1,20.2,243.1L20.2,243.1z M480.5,195.7
	c-3.3,0-6.3-2.1-7.4-5.2c-1.3-3.8-2.8-7.5-4.3-11.2c-1.6-4,0.3-8.6,4.3-10.2c4-1.6,8.5,0.3,10.1,4.2c1.6,4,3.2,8,4.6,12
	c1.4,4.1-0.7,8.6-4.8,10C482.2,195.5,481.4,195.7,480.5,195.7z M36.4,183.1c-1,0-2.1-0.2-3-0.6c-4-1.7-5.9-6.2-4.2-10.2c0,0,0,0,0,0
	c1.6-3.9,3.4-7.9,5.3-11.7c1.9-3.9,6.6-5.5,10.5-3.7c3.9,1.9,5.5,6.5,3.7,10.4c-1.7,3.6-3.4,7.3-4.9,11
	C42.4,181.2,39.5,183.1,36.4,183.1L36.4,183.1z M452.3,140.3c-2.6,0-5-1.3-6.5-3.4c-2.3-3.3-4.6-6.6-7.1-9.8
	c-2.7-3.4-2.1-8.3,1.3-11c3.4-2.7,8.3-2.1,11,1.3c0,0.1,0.1,0.1,0.1,0.2c2.6,3.4,5.1,6.9,7.5,10.4c2.4,3.6,1.5,8.4-2,10.9
	C455.5,139.8,453.9,140.3,452.3,140.3L452.3,140.3z M67.6,129.4c-4.3,0-7.8-3.5-7.8-7.8c0-1.7,0.6-3.4,1.6-4.8
	c2.6-3.4,5.3-6.7,8.1-10c2.8-3.3,7.7-3.7,11-0.9c3.3,2.8,3.7,7.7,0.9,11c0,0-0.1,0.1-0.1,0.1c-2.6,3-5.2,6.2-7.6,9.3
	C72.3,128.3,70,129.4,67.6,129.4L67.6,129.4z M410.9,94.1c-1.9,0-3.7-0.7-5.1-1.9c-3-2.6-6.2-5.2-9.3-7.6c-3.4-2.6-4.1-7.6-1.4-11
	c0,0,0,0,0,0c2.6-3.4,7.6-4.1,11-1.4c0,0,0,0,0,0c3.4,2.6,6.7,5.3,10,8.1c3.3,2.8,3.7,7.8,0.8,11C415.3,93.1,413.2,94.1,410.9,94.1
	L410.9,94.1z M111.6,85.6c-4.3,0-7.8-3.5-7.8-7.8c0-2.4,1.1-4.7,3.1-6.2c3.4-2.6,6.9-5.1,10.4-7.5c3.6-2.4,8.4-1.5,10.9,2
	c2.4,3.6,1.5,8.4-2,10.9c-3.3,2.3-6.6,4.6-9.8,7.1C115,85.1,113.3,85.6,111.6,85.6z M358.9,60.1c-1.2,0-2.3-0.3-3.4-0.8
	c-3.6-1.7-7.3-3.4-11-4.9c-4-1.7-5.9-6.2-4.2-10.2c1.7-4,6.2-5.9,10.2-4.2c0,0,0,0,0,0c4,1.6,7.9,3.4,11.7,5.2
	c3.9,1.9,5.5,6.5,3.7,10.4c0,0,0,0,0,0C364.6,58.4,361.9,60.1,358.9,60.1z M165.4,54.7c-4.3,0-7.8-3.5-7.8-7.8c0-3.2,1.9-6,4.8-7.2
	c4-1.6,8-3.2,12-4.6c4.1-1.4,8.5,0.7,10,4.8c0,0,0,0,0,0c1.4,4.1-0.7,8.5-4.8,10c0,0,0,0,0,0c-3.8,1.3-7.5,2.8-11.2,4.3
	C167.5,54.5,166.5,54.7,165.4,54.7z M299.9,40.9c-0.5,0-1,0-1.4-0.1c-3.8-0.7-7.7-1.3-11.6-1.9l-0.3,0c-4.3-0.6-7.3-4.5-6.7-8.8
	c0,0,0,0,0,0c0.6-4.3,4.5-7.3,8.8-6.7l0.3,0c4.2,0.6,8.3,1.2,12.4,2c4.3,0.8,7.1,4.9,6.3,9.1C306.9,38.2,303.6,40.9,299.9,40.9z
	 M225.4,38.7c-3.9,0-7.3-2.9-7.8-6.8c-0.6-4.3,2.5-8.2,6.8-8.8c0,0,0,0,0,0c4.2-0.5,8.5-1,12.8-1.3c4.3-0.3,8.1,3,8.4,7.3
	c0.3,4.3-2.9,8-7.2,8.3c-4,0.3-8,0.7-12,1.2C226.1,38.7,225.8,38.7,225.4,38.7L225.4,38.7z"/>
<path class="st5" d="M375.9,209.6c0,19.1,15.5,34.6,34.6,34.6c19.1,0,34.6-15.5,34.6-34.6c0,0,0,0,0,0c0-19.1-15.5-34.6-34.6-34.6
	C391.4,175,375.9,190.5,375.9,209.6C375.9,209.6,375.9,209.6,375.9,209.6z"/>
<path class="st6" d="M380.1,197.6c0,8.4,6.8,15.3,15.3,15.3s15.3-6.8,15.3-15.3s-6.8-15.3-15.3-15.3S380.1,189.2,380.1,197.6z"/>
<path class="st7" d="M445.1,209.6c0,19.1-15.5,34.6-34.6,34.6s-34.6-15.5-34.6-34.6c0-1.3,0.1-2.6,0.2-3.9
	c1.6,12.1,12,21.4,24.5,21.4c13.6,0,24.7-11.1,24.7-24.7c0-13.6-11-24.7-24.7-24.7c-1.5,0-3.1,0.1-4.5,0.4c4.5-2.1,9.5-3.2,14.5-3.2
	C429.6,175,445.1,190.5,445.1,209.6L445.1,209.6z"/>
<path class="st8" d="M72.6,451.7c0,19.1,15.5,34.6,34.6,34.6s34.6-15.5,34.6-34.6c0,0,0,0,0,0c0-19.1-15.5-34.6-34.6-34.6
	S72.6,432.6,72.6,451.7z"/>
<path class="st9" d="M76.7,439.7c0,8.4,6.8,15.3,15.2,15.3c8.4,0,15.3-6.8,15.3-15.2c0,0,0,0,0,0c0-8.4-6.8-15.3-15.2-15.3
	C83.6,424.5,76.7,431.3,76.7,439.7C76.7,439.7,76.7,439.7,76.7,439.7z"/>
<path class="st2" d="M141.8,451.7c0,19.1-15.5,34.6-34.6,34.6s-34.6-15.5-34.6-34.6c0-1.3,0.1-2.6,0.2-3.9
	c1.6,12.1,12,21.4,24.5,21.4c13.6,0,24.7-11.1,24.7-24.7c0-13.6-11-24.7-24.7-24.7c-1.6,0-3.1,0.1-4.5,0.4c4.5-2.1,9.5-3.2,14.5-3.2
	C126.3,417.1,141.8,432.6,141.8,451.7L141.8,451.7z"/>
<path class="st10" d="M318.5,50.2c0,19.1,15.5,34.6,34.6,34.6c19.1,0,34.6-15.5,34.6-34.6c0,0,0,0,0,0c0-19.1-15.5-34.6-34.6-34.6
	C334,15.6,318.5,31.1,318.5,50.2C318.5,50.2,318.5,50.2,318.5,50.2z"/>
<path class="st11" d="M322.6,38.2c0,8.4,6.8,15.3,15.2,15.3c8.4,0,15.3-6.8,15.3-15.2c0,0,0,0,0,0c0-8.4-6.8-15.3-15.3-15.3
	S322.6,29.8,322.6,38.2L322.6,38.2z"/>
<path class="st12" d="M387.7,50.2c0,19.1-15.5,34.6-34.6,34.6s-34.6-15.5-34.6-34.6c0-1.3,0.1-2.6,0.2-3.9
	c1.6,12.1,12,21.4,24.5,21.4c13.6,0,24.7-11.1,24.7-24.7s-11-24.7-24.7-24.7c-1.5,0-3.1,0.1-4.5,0.4c4.5-2.1,9.5-3.2,14.5-3.2
	C372.2,15.6,387.7,31.1,387.7,50.2z"/>
<path class="st13" d="M38.3,399.8c0,12.5,10.1,22.6,22.6,22.6s22.6-10.1,22.6-22.6l0,0c0-12.5-10.1-22.6-22.6-22.6
	C48.4,377.1,38.3,387.2,38.3,399.8C38.3,399.7,38.3,399.7,38.3,399.8z"/>
<path class="st14" d="M41,391.9c0,5.5,4.5,10,10,10c5.5,0,10-4.5,10-10c0,0,0,0,0,0c0-5.5-4.5-10-10-10
	C45.5,381.9,41,386.4,41,391.9C41,391.9,41,391.9,41,391.9z"/>
<path class="st15" d="M83.6,399.8c0,12.5-10.1,22.6-22.6,22.6s-22.6-10.1-22.6-22.6c0-0.9,0-1.7,0.1-2.5c1.1,7.9,7.8,14,16,14
	c8.9,0,16.1-7.2,16.1-16.1s-7.2-16.1-16.1-16.1c-1,0-2,0.1-3,0.3c3-1.4,6.2-2.1,9.5-2.1C73.4,377.1,83.6,387.3,83.6,399.8
	L83.6,399.8z"/>
<path class="st16" d="M285.1,417.1c0,16.1,13,29.1,29.1,29.1c16.1,0,29.1-13,29.1-29.1c0,0,0,0,0,0c0-16.1-13-29.1-29.1-29.1
	C298.1,388,285.1,401,285.1,417.1C285.1,417.1,285.1,417.1,285.1,417.1z"/>
<path class="st17" d="M288.6,407c0,7.1,5.7,12.8,12.8,12.8c7.1,0,12.8-5.7,12.8-12.8c0,0,0,0,0,0c0-7.1-5.7-12.8-12.8-12.8
	C294.3,394.2,288.6,399.9,288.6,407C288.6,407,288.6,407,288.6,407z"/>
<path class="st18" d="M343.3,417.1c0,16.1-13,29.1-29.1,29.1s-29.1-13-29.1-29.1c0-1.1,0.1-2.2,0.2-3.3c1.4,10.2,10.1,18,20.6,18
	c11.5,0,20.8-9.3,20.8-20.8s-9.3-20.8-20.8-20.8c-1.3,0-2.6,0.1-3.8,0.4c3.8-1.8,8-2.7,12.2-2.7C330.3,388,343.3,401,343.3,417.1
	L343.3,417.1z"/>
<path class="st13" d="M85.9,58.7c0,32.4,26.3,58.7,58.7,58.7c32.4,0,58.7-26.3,58.7-58.7c0,0,0,0,0,0C203.3,26.3,177,0,144.6,0
	S85.9,26.3,85.9,58.7z"/>
<path class="st14" d="M93,38.4c0,14.3,11.6,25.9,25.9,25.9c14.3,0,25.9-11.6,25.9-25.9c0,0,0,0,0,0c0-14.3-11.6-25.9-25.9-25.9
	S93,24.1,93,38.4C93,38.3,93,38.3,93,38.4z"/>
<path class="st15" d="M203.3,58.7c0,32.4-26.3,58.7-58.7,58.7S85.9,91.1,85.9,58.7c0-2.2,0.1-4.4,0.4-6.6
	c2.7,20.5,20.3,36.3,41.5,36.3c23.1,0,41.9-18.7,41.9-41.9c0-23.1-18.7-41.9-41.9-41.9c-2.6,0-5.2,0.2-7.7,0.7
	c7.5-3.5,15.8-5.4,24.5-5.4C177,0,203.3,26.3,203.3,58.7L203.3,58.7z"/>
<path class="st19" d="M169.9,114c0,16.1,13,29.1,29.1,29.1s29.1-13,29.1-29.1c0,0,0,0,0,0c0-16.1-13-29.1-29.1-29.1
	C183,84.8,169.9,97.9,169.9,114C169.9,113.9,169.9,114,169.9,114z"/>
<path class="st20" d="M173.4,103.9c0,7.1,5.7,12.8,12.8,12.8c7.1,0,12.8-5.7,12.8-12.8S193.3,91,186.3,91
	C179.2,91,173.4,96.8,173.4,103.9z"/>
<path class="st21" d="M228.1,114c0,16.1-13,29.1-29.1,29.1s-29.1-13-29.1-29.1c0-1.1,0.1-2.2,0.2-3.3c1.4,10.2,10.1,18,20.6,18
	c11.5,0,20.8-9.3,20.8-20.8s-9.3-20.8-20.8-20.8c-1.3,0-2.6,0.1-3.8,0.4c3.8-1.8,8-2.7,12.2-2.7C215.1,84.8,228.1,97.9,228.1,114
	L228.1,114z"/>
</svg>
