<?xml version="1.0" standalone="no"?><!DOCTYPE svg PUBLIC "-//W3C//DTD SVG 1.1//EN" "http://www.w3.org/Graphics/SVG/1.1/DTD/svg11.dtd"><svg t="1642871187803" class="icon" viewBox="0 0 1024 1024" version="1.1" xmlns="http://www.w3.org/2000/svg" p-id="1801" xmlns:xlink="http://www.w3.org/1999/xlink" width="512" height="512"><defs><style type="text/css"></style></defs><path d="M512 113.777778c3.792593 0 7.585185 1.896296 9.481481 5.688889l162.133334 280.651852 162.133333 280.651851c1.896296 3.792593 1.896296 7.585185 0 11.377778s-5.688889 5.688889-9.481481 5.688889H187.733333c-3.792593 0-7.585185-1.896296-9.481481-5.688889s-1.896296-7.585185 0-11.377778l162.133333-280.651851L502.518519 119.466667c1.896296-3.792593 5.688889-5.688889 9.481481-5.688889m0-56.888889c-22.755556 0-45.511111 11.377778-58.785185 34.133333L291.081481 371.674074 128.948148 653.274074c-26.548148 45.511111 6.637037 101.451852 58.785185 101.451852h648.533334c52.148148 0 84.385185-56.888889 58.785185-101.451852L732.918519 371.674074 570.785185 91.022222C557.511111 68.266667 534.755556 56.888889 512 56.888889z" fill="#ff5b00" p-id="1802"></path><path d="M836.266667 326.162963c3.792593 0 7.585185 1.896296 9.481481 5.688889 1.896296 3.792593 1.896296 7.585185 0 11.377778L683.614815 623.881481 521.481481 904.533333c-1.896296 3.792593-5.688889 5.688889-9.481481 5.688889s-7.585185-1.896296-9.481481-5.688889L340.385185 623.881481 178.251852 342.281481c-1.896296-3.792593-1.896296-7.585185 0-11.377777 1.896296-3.792593 5.688889-5.688889 9.481481-5.688889h648.533334m0-55.940741H187.733333c-52.148148 0-84.385185 56.888889-58.785185 101.451852l162.133333 280.651852 162.133334 280.651852c13.274074 22.755556 36.02963 34.133333 58.785185 34.133333s45.511111-11.377778 58.785185-34.133333l162.133334-280.651852 162.133333-280.651852c26.548148-44.562963-6.637037-101.451852-58.785185-101.451852z" fill="#ff5b00" p-id="1803"></path></svg>