<?xml version="1.0" encoding="utf-8"?>
<!-- Generator: Adobe Illustrator 26.0.3, SVG Export Plug-In . SVG Version: 6.00 Build 0)  -->
<svg version="1.1" id="圖層_1" xmlns="http://www.w3.org/2000/svg" xmlns:xlink="http://www.w3.org/1999/xlink" x="0px" y="0px"
	 viewBox="0 0 857 1200" style="enable-background:new 0 0 857 1200;" xml:space="preserve">
<style type="text/css">
	.st0{fill:#B49D5D;}
</style>
<g id="_x23_b49d5dff">
	<path class="st0" d="M36.2,35.2c3.9-0.5,7.9-0.2,11.8-0.3c251.3,0,502.6,0,753.9,0c6.3,0,12.6-0.2,18.8,0.2
		c0.2,299,0,598,0.1,896.9c-0.1,78.8,0.1,157.7-0.1,236.6c-213.6,0.1-427.2,0-640.8,0.1c-47.9-0.1-95.9,0.2-143.8-0.2
		c-0.7-10.5-0.1-21-0.3-31.5c0-363.3,0-726.6,0-1089.9C36,43.1,35.7,39.1,36.2,35.2 M38.2,37.2c0.1,376.5-0.1,752.9,0.1,1129.4
		c260.1-0.1,520.3-0.1,780.4,0c0.1-376.5,0-752.9,0-1129.4C558.5,37.1,298.4,37.1,38.2,37.2z"/>
	<path class="st0" d="M50.4,54.7c1.1-1.5,2.2-3.8,4.6-3.5c3.2,0,5,4.2,2.9,6.6c-1.5,1.9-4,0.9-6.1,0.8C51.3,57.3,50.9,56,50.4,54.7z
		"/>
	<path class="st0" d="M71,51c77.3-0.1,154.6,0,232-0.1c13.9-0.3,30,6.6,34.3,20.8c9.3,0,18.5-0.1,27.8,0.1c0,9.2,4.6,17.8,11.4,23.8
		c12.1,11,28.5,15.8,44.5,17.1c19.6,1.3,40.4-2.4,56.3-14.5c8.3-6.2,14.3-15.9,14.5-26.5c9.2,0,18.5,0,27.7,0
		c4.1-13.3,18.6-20.2,31.6-20.8c78.4,0.1,156.7-0.1,235.1,0.1c1,3.3,1.1,6.9,3.1,9.8c3.2,5.2,9.3,8,15.4,8.1c0.5,24,0.1,48,0.2,72.1
		c0,310.3,0,620.7,0,931c0,20.9,0.1,41.7-0.1,62.6c-4,0.5-8.2,1.1-11.5,3.7c-4,2.7-6,7.4-7,11.9c1.6,0.2,3.3,0.4,4.9,0.8
		c-0.3,1.6-1.9,1.6-3.2,1.6c-79.7-0.1-159.3,0.1-239-0.1c-12.3-1.3-25.8-8-29.4-20.7c-9.3-0.2-18.6,0.1-27.9-0.1
		c-0.1-7.1-2.6-14-7.2-19.4c-8.7-10.4-21.6-16.3-34.6-19.4c-19.4-4.3-40.3-3-58.5,5.2c-9.3,4.4-18.3,10.9-23.1,20.3
		c-2.2,4.1-2.9,8.8-3.3,13.3c-9.2,0.1-18.5-0.1-27.7,0.1c-4.1,12.8-17.7,19.8-30.4,20.7c-78.8,0-157.6,0-236.4,0
		c-0.4-4.5-1.5-9.2-4.8-12.4c-3.4-4-8.7-5.2-13.6-5.7c0-355.2-0.1-710.5,0.1-1065.7c5.4,0,11.1-1.8,14.4-6.3C69.7,59.4,70,55,71,51
		 M72.8,53.2c-0.7,4.5-2.2,9-5.7,12.1c-3.4,3.6-8.2,5.2-12.9,5.8c0.1,353.8,0,707.6,0,1061.5c4.5,0.9,9.2,2.2,12.5,5.7
		c3.5,3.2,5.2,7.8,5.9,12.3c78.1-0.1,156.3,0,234.4,0c12.2-0.9,25.6-8,28.6-20.8c9.1,0,18.2,0.1,27.4,0c0.7-12.4,9.4-22.7,19.6-29.1
		c15.2-9.6,33.7-12.9,51.4-12c15.6,0.9,31.3,5.2,44,14.6c8.4,6.3,15.3,15.6,15.7,26.5c9.2,0.1,18.3,0.1,27.5,0
		c2,9.8,10.7,16.4,19.8,19.1c6.4,2.4,13.3,1.7,19.9,1.8c74.4,0,148.8,0,223.2,0c0.8-4.1,1.9-8.3,5-11.4c3.4-4,8.5-5.8,13.6-6.7
		c-0.2-31.5,0-63-0.1-94.5c0-322.3,0-644.6,0-966.9c-4.7-0.8-9.4-2.4-12.7-6c-3.4-3.1-4.7-7.6-5.5-11.9
		c-78.5,0.1-156.9-0.1-235.4,0.1c-11.8,1.3-25,8-27.7,20.6c-9.1,0.2-18.3,0.1-27.4,0.1c-0.6,9.2-5.5,17.7-12.4,23.7
		c-11.9,10.6-27.8,15.6-43.5,17.2c-19.4,1.7-39.8-1.6-56.4-12.3c-9.7-6.4-17.9-16.5-18.6-28.5c-9.1,0-18.3,0.1-27.4-0.1
		C333.5,64.2,325,57.6,316,55c-6.4-2.5-13.3-1.8-20-1.8C221.6,53.1,147.2,53,72.8,53.2z"/>
	<path class="st0" d="M798.3,52.2c2.3-0.9,5.8-1.7,7.1,1.2c1.8,3.3-2.1,7.2-5.4,5.4C797.3,57.7,797.9,54.5,798.3,52.2z"/>
	<path class="st0" d="M300.6,62.4c0.6,0,1.8,0.1,2.4,0.1c-1.4,4.7-3.3,9.3-5.6,13.6c2.5,0.4,5.1,0.9,7.6,1.3c2-1.6,4-3.2,6-4.6
		c-1.3,1.8-2.7,3.4-4.2,5.1c2.6,0.4,5.1,0.9,7.7,1.4c2-2.6,3.6-5.5,5.4-8.3c-0.6,4-2.5,7.4-5,10.5c-6.4-0.7-12.6-2.2-18.9-3.3
		c-9.2,15.9-25.7,27.2-44,29.7c-6.4,18-18.6,34.2-34.9,44.3c-9,5.6-20,5.5-30.1,3.8c-7.7,12-20.2,20.6-34.1,23.7
		c-11.4,2.8-23.4,1.9-34.6-1.4c-3.5,2.4-7.4,4.1-11,6.4c0.6,5,1.6,10.1,0.7,15.2c-2.1,14.7-12,27.1-23.6,35.9
		c-6,4.2-12.5,8.3-19.9,9c-0.5-5,1.7-9.6,3.7-14.1c0.1,3.9-1.1,7.7-2.4,11.3c3.9-4.6,6.5-10.8,5.3-16.9c-0.5-3.1-2.6-5.5-4-8.2
		c4.5,2.6,6.3,8,5.9,13c0.1,4.2-2.1,8-4,11.5c3.2-1.4,5.9-3.9,7.1-7.3c0.5,1,1,2,1.5,3c2.1-1.6,4.5-3.1,5.5-5.7
		c1.8-3.9,0.4-8.1,0.2-12.1c3.7,2.8,2.9,7.7,2.9,11.8c4.6-3.8,2.3-10,0.8-14.7c3.5,2,3.4,6.5,4.7,9.9c0.6-4.5-0.5-8.9-0.9-13.4
		c2.7,2.3,3.3,6,4,9.3c1.3-2,3.3-3.9,3.8-6.3c-0.1-2.9-1.7-5.6-2.4-8.4c1.8,2,3.2,4.3,4.4,6.6c0.3-1.1,0.7-2.1,1-3.2
		c-0.9-2.4-1.9-4.8-2.5-7.3c1.6,1.4,3.1,3,4.5,4.5c-0.8-2.6-1.7-5.1-2.2-7.7c1.2,1.1,2.5,2.3,3.7,3.4c-0.2-2.7-3-6.4,0.7-7.9
		c0.1-3.5-0.2-6.9-1.1-10.3c-4,1.6-8.2,2.9-12.5,3.7c3.3,1.4,8.4,1.9,9.4,6.1c-4.6-2.5-9.2-6.6-14.8-5.3c-7,1.1-14.1,0.3-21.2-0.4
		c-0.1-1.7-0.3-3.3-0.4-5c3.3,2.9,7.6,3.3,11.8,3.1c-3.7-1.9-7.5-3.9-10.2-7.2c4.6,1,8,4.7,12.5,6c3.7,1.6,7.7,0.8,11.5,0.3
		c-4.4-2.4-9.8-4.4-12.3-9c6.3,3,12.4,9.4,20,7.3c-5.2-3.1-12-4.3-15.6-9.4c5.8,2.9,11.3,6.8,17.8,7.8c1.4,0.1,2.7-0.4,4.1-0.7
		c-6.4-1.4-12.1-4.7-17-8.9c0.3-0.1,1-0.3,1.4-0.4c5.6,4.5,12.5,7.9,19.9,7.2c-3.2-1.1-6.4-2.2-9.3-3.9c5.1-1,10,4.5,14.7,0.8
		c-3-0.9-6.1-1.8-9-3.1c3.7-1.8,7.5,1.1,11.3,0.6c1.7-0.6,3.4-1.3,5.1-2c-0.1-0.4-0.3-1.3-0.4-1.8c1.5-0.6,2.9-1.2,4.4-1.8
		c-3.4-0.5-6.8-0.9-10.1-1.8c3.7-2,7.9-0.4,11.8-0.2c1-0.9,1.9-1.8,2.9-2.7c-3.2-0.6-6.5-1.1-9.4-2.7c3.6,0.1,7.3,0.6,10.9,1
		c0.9-1.1,1.8-2.2,2.7-3.3c-2.9-0.5-5.9-1-8.8-1.5c0.1-0.5,0.3-1.5,0.5-2c3.2,0.5,6.4,1,9.7,1.5c0.8-1.4,1.6-2.8,2.4-4.3
		c-2.9-0.6-6.1-0.6-8.3-2.9c3.1-0.1,6.1,0.2,9.2,0.4c0.3-2,0.7-4.1,1-6.1c-7.7,0-15.9-0.7-22.5-5.1c-3.9-2.4-6.8-6.2-8.4-10.5
		c0.5-0.3,1.4-0.9,1.9-1.2c1.1,1.5,1.9,3.1,2.8,4.8c4.1-2.6,7.1-6.4,10.4-9.9c-1.2,5.1-5.9,8.1-9.9,11c1.1,1,2.2,2,3.4,2.9
		c4.9-2,5.7-8.1,8.8-11.8c-0.6,5.4-3.8,9.9-7.2,14c1.5-0.5,3.3-0.9,4.3-2.3c3.1-3.9,4.6-8.7,5.7-13.4c0.7,6.6-2.9,12.3-6.6,17.4
		c3.5-1.8,5.2-5.6,7.8-8.5c-1,3.3-2.7,6.4-4.2,9.5c6.2-2,7.6-8.9,8.8-14.4c0.2,5.4-2.4,10.2-5.4,14.5c0.9,0.1,2.8,0.1,3.7,0.2
		c4-3.9,6.4-9.1,6.7-14.8c0.1,2.4,0.2,4.9-0.3,7.3c-0.8,2.9-2.7,5.3-4.3,7.7c1.1,0,2.3-0.1,3.4-0.1c2.4-4,3.1-8.7,4.3-13.1
		c0.5,4.6-1.2,8.9-3,13c1.4-0.2,2.8-0.5,4.1-0.7c1.5-3.4,3.4-6.9,3.3-10.7c-0.1-4.4-2.5-8.3-3.7-12.4c2.5,3.3,4.6,7.1,4.9,11.3
		c0.3,4-1.2,7.7-2.3,11.4c1.9-1.1,4.5-1.6,5.3-3.8c1.9-4.8,0.2-9.9-0.7-14.7c3.8,4.1,3.6,10,2.5,15.1c0.9-0.7,1.8-1.4,2.6-2.2
		c0.2-3.6,0.8-7.3-0.5-10.7c-1.4-3.6-4.2-6.2-6.5-9.2c3.1,1.9,5.7,4.5,7.3,7.7c1.8,3.3,1.5,7.2,2.1,10.8c2.6-5.2,0.6-10.9-1.4-15.9
		c2.9,3.4,4.3,7.7,4.4,12.2c0.6-0.9,1.2-1.8,1.8-2.7c-0.8-6.7-5.6-11.4-9.8-16.2c5.6,3.2,9.4,8.6,11.4,14.7c0.3-1.8,1.1-3.6,0.4-5.4
		c-1.7-4.2-5.4-7.2-7.7-11.1c3.9,3.2,7.1,7.2,9.8,11.4c0.1-1.9,1.3-4.1,0-5.8c-2.5-4.5-7.6-6.3-11.5-9.3c5.2,1.6,9.6,4.9,13.3,8.8
		c0.5-3.7-2-8.3,1.1-11.2c2.4,6.2,1.4,13.3-1.3,19.3c-4.8,11-15,19.9-27.1,21.8c-0.4,4.6-1.4,9.2-3.8,13.2
		c-2.3,4.2-5.8,7.6-8.7,11.4c-3.2,2-6.2,4.5-9.2,6.9c5.1,1.4,10.3,2.1,15.6,2.6c-2.4-2.3-4.6-4.7-6.4-7.5c3,2.6,5.8,5.5,9.3,7.4
		c1.7-0.2,3.4-0.3,5.1-0.4c-3.6-3.2-7.4-6.3-10.1-10.4c5.6,3.1,9.4,10.5,16.7,9.8c-4.7-3.8-10-7.3-13.2-12.6
		c6.7,2.4,10.1,11.3,18,10.9c-3.9-2.5-8-4.9-10.9-8.6c5.1,2.8,9.8,6.6,15.8,7.5c-2.3-1.9-4.8-3.5-6.9-5.5c4,0.9,7.5,4.3,11.8,3
		c-2.9-1.6-6-2.8-8.6-4.8c4.2,0.3,8.1,3.1,12.4,2.4c-2.9-1.5-6.1-2.7-8.5-5.1c4.1,0.9,8.2,4.9,12.4,2.3c-3.1-1.3-6.3-2.4-9-4.5
		c4.2,0.4,8.2,2.6,12.5,2.2c-2.3-1.7-5-2.7-7.8-3.6c0.1-0.3,0.2-1,0.2-1.3c3.4,0.6,7.5,4,10.5,0.9c-2.7-0.9-5.9-1.1-7.8-3.5
		c3.7,0.1,7.8,2.8,11.1,0c-2.4-1-4.9-1.9-7.1-3.4c1.9,0.1,3.8,0.4,5.7,0.7c-0.9-0.6-2.6-1.7-3.5-2.3c2.8,0.2,5.8,1.6,8.3-0.2
		c-2.1-0.7-4.2-1.3-6.2-2.2c2.1-0.4,4.2-0.3,6.3-0.1c0.3-0.4,0.9-1.1,1.2-1.4c-1.5-0.5-3.1-1.1-4.1-2.4c1.5,0.1,3.1,0.3,4.6,0.4
		c0.3-0.6,0.6-1.3,1-1.9c-0.8-0.5-2.3-1.5-3.1-2.1c2.6,0.9,4.2-0.5,5.1-2.8c-0.8-0.8-1.5-1.5-2.3-2.3c0.6-0.3,1.8-0.8,2.4-1
		c1.4-3,1.4-6.4,2-9.6c-5-0.5-10.3-0.4-14.3-3.8c4.8,1.4,9.7,2.4,14.7,1.8c0.3-1.6,0.5-3.3,0.7-5c0.6,0,1.9,0,2.5,0
		c-1,11.6-3.4,23.2-8.8,33.6c4.9,0.7,9.8,1,14.8,0.8c-1.3-1.1-2.6-2.2-3.9-3.4c3.6,1.7,7.4,3.4,11.5,1.9c-4.5-2.4-9.2-4.5-13-7.9
		c5.7,2.2,10.9,7.1,17.4,6.1c-2-1.8-4-3.5-5.9-5.4c2.7,0.9,5.2,2.2,7.8,3.5c1.1-0.8,2.2-1.6,3.3-2.4c-5.9-1.6-11.7-4.2-15.6-9.1
		c5.9,3.4,11.9,7.3,18.9,7.6c-1.3-1.1-2.7-2.2-4.1-3.4c1.8,0.4,3.6,0.8,5.4,1.3c0.9-0.8,1.8-1.6,2.7-2.4c-1.9-0.9-3.7-1.9-5.5-2.9
		c3.2,0.4,6.8,1.9,9.7-0.4c-2.2-1.2-4.5-2.2-6.9-3.1c0.2-0.2,0.7-0.7,0.9-1c2.2,0.8,4.5,1.5,6.8,2.2c1.2-1.4,2.3-2.7,3.4-4.1
		c-2.8-0.5-5.5-1.1-8.3-1.7c0.1-0.3,0.3-1,0.4-1.3c3.9,0.6,8.5,2.2,11.7-1c-3.6-0.7-7.2-1.3-10.7-2.5c4.3-1.7,9.9,3,13-1.6
		c-3.7-1-8.1-0.7-11.2-3.2c4,0.3,8,1.1,12,1.4c1-1.9,2-3.9,3.1-5.8c-4.2-0.4-8.4-1-12.5-2c4.5-0.8,9,0.1,13.5-0.5
		c0.7-1.7,1.5-3.3,2.2-5c-5.1,0.2-10.5,0.7-15.2-1.6c-5.3,0.3-10.3-1.9-15-4.2c-6.6-3.4-12.3-8.3-16.8-14.2c0.5-0.2,1.6-0.5,2.1-0.7
		c2.8,2.1,4.9,5.2,7.7,7.3c-2.2-6-6.1-12.2-3.9-18.9c0.5,6.6,2.4,13,5.4,18.9c1.9,3.8,6.3,5,9.7,7.1c-3.1-4.5-5.6-9.6-6.5-15
		c3,4.4,3.9,10.1,7.9,13.9c1.8,2.4,4.7,3.1,7.4,3.8c-3.2-4.8-7.1-9.3-8.9-14.9c4.5,4.1,6.8,10.1,11.5,14.2c1.4,1.5,3.5,1.5,5.3,1.9
		c-4.8-4-9.1-8.8-11.3-14.8c2.9,1.7,4.2,5,6.2,7.6c3,3.7,6.9,7.7,12.1,7.1c-3.1-4.8-7.1-9-9.2-14.3c4,4.3,7.1,9.4,11.3,13.5
		c2.2,0.3,4.4-0.2,6.5-0.3c-4.4-3.8-8.6-7.9-11.1-13.3c4.1,4.5,7.9,9.5,13.4,12.5c2-0.6,4.1-1.2,6.1-1.8c-4.6-3.4-9.5-6.7-12.6-11.6
		c5.2,3,9.2,7.8,14.5,10.7c3.5-1.5,6.8-3.2,10-5.2c-5.3-1.9-10.6-4.2-15.2-7.5c5.3,1.6,10.1,4.5,15.5,5.8c1.7,0.7,3-1,4.3-1.8
		c-4.9-1.9-10.2-3.2-14.1-7c5.1,1.1,9.6,4,14.7,4.9c2.3,0.6,3.5-2.1,5.1-3.3c-5-1.2-10.1-2.5-14.6-5c2.1-1.3,4.2,0.1,6.1,0.8
		c3.1,1.3,6.5,1.9,9.8,2.6c1.9-2.5,3.8-5,5.8-7.4c-4.9-0.7-9.7-1.7-14.3-3.2c0.1-0.4,0.3-1.2,0.4-1.6c4.7,1.8,9.7,2.7,14.7,3.2
		c1-1.9,2.1-3.8,3.1-5.7c-4.9-0.4-10.2-0.3-14.4-3.3c5,0.5,10,1.3,15.1,1.7C299,67,299.8,64.7,300.6,62.4z"/>
	<path class="st0" d="M553.9,62.5c0.6,0,1.7-0.1,2.3-0.2c0.8,2.4,1.6,4.7,2.5,7.1c3.7-0.2,7.9-1.9,11.2,0.5c-3.5,0.5-7,0.8-10.6,1
		c1.1,1.9,1.8,4.1,3.5,5.6c5.4,0.1,10.4-2.1,15.7-2.6c-4.4,3.2-9.9,3.6-15.1,4.4c1.8,2.5,3.6,4.9,5.4,7.4c5.6-0.6,10.7-3.2,16.2-4.1
		c-3.8,3.9-9.6,4.4-14.6,5.8c1.3,1.2,2.6,2.5,3.9,3.7c5.6-1,10.5-4.5,16.2-4.9c-4.4,3.1-9.5,5-14.6,6.7c1.5,0.7,3,2.5,4.8,1.7
		c5.2-1.3,9.9-4.2,15.1-5.8c-4.4,3.5-9.6,5.6-14.8,7.4c3,1.9,6.1,3.7,9.3,5.4c5.7-2.5,9.6-7.7,15-10.7c-3.1,4.9-8,8.1-12.5,11.5
		c1.9,0.6,3.8,1.2,5.7,1.8c5.7-2.7,9.4-8,13.8-12.4c-2.6,5.1-6.7,9.4-11.1,13c2.1,0.3,4.3,0.6,6.5,0.8c3.8-4.4,7.2-9.1,11-13.5
		c-2,5.2-5.9,9.2-8.9,13.8c5.6,0.7,9.5-3.9,12.6-7.8c1.8-2.2,2.7-5.4,5.7-6.5c-2.3,5.7-6.4,10.4-11,14.3c1.2-0.2,2.5-0.4,3.7-0.7
		c5.5-3.8,7.8-10.7,12.9-15c-1.9,5.4-5.7,9.8-8.8,14.5c9.2-1,11.2-11.1,15.2-17.7c-1,5.4-3.5,10.3-6.5,14.9c3.7-1.9,8.2-3.5,10-7.6
		c2.4-5.4,4.9-11.1,4.4-17.1c0.3,0,0.8-0.1,1-0.1c1.4,6.4-2.2,12.1-4,18c2.7-2.4,5.1-5.2,7.5-7.9c0.5,0.4,1.5,1.2,2,1.7
		c-6.7,8.2-15.7,14.8-26.1,17.4c-6.9,1-13.6,3-20.6,2c0.8,1.7,1.5,3.4,2.3,5.1c4.5,0.3,9.1-0.2,13.6,0.1c-4.1,1.4-8.4,1.9-12.6,2.2
		c1,2,2.1,4,3.2,5.9c4-0.5,7.9-1.3,11.9-1.6c-3.1,2.5-7.4,2.2-11,3.1c0.6,0.8,1.2,1.6,1.8,2.4c3.7-0.4,7.3-1.1,11.1-1.3
		c-3.1,1.9-6.7,2.3-10.2,2.8c0.4,0.6,1.3,1.7,1.8,2.3c3.5-0.1,6.9-0.7,10.3-1c-2.3,2.4-5.8,2.3-8.8,2.9c1.1,1.4,2.2,2.8,3.3,4.1
		c2.8-0.9,5.5-1.9,8.5-1.8c-2.3,1.3-4.8,2.4-7.3,3.4c0.9,0.8,1.9,1.5,2.8,2.3c1.8-0.6,3.5-1.2,5.3-1.8c0.2,0.3,0.4,0.8,0.6,1.1
		c-1.7,0.7-3.5,1.5-5.2,2.3c2.3,2.6,5.3,2.2,8.3,1.1c-1.2,1.1-2.5,2.2-3.7,3.4c7.1-0.4,12.9-4.5,18.9-7.7c-4.1,4.8-9.9,7.6-16,9
		c1.1,0.8,2.2,1.6,3.3,2.4c2.6-1.3,5.1-2.5,7.8-3.5c-1.9,1.9-3.8,3.6-5.8,5.4c6.3,0.8,11.5-3.5,16.8-6.2c-3.3,3.9-8.2,5.5-12.5,7.9
		c4,1.7,7.9-0.2,11.5-2c-1.2,1.2-2.5,2.4-3.7,3.6c4.8,0.2,9.7-0.1,14.5-0.9c-5.4-10.5-8.1-22.3-8.7-34.1c3,0.5,2.7,3.6,3.2,5.8
		c4.9-0.2,9.9-0.6,14.7-2c-4.2,3.3-9.7,3.2-14.8,3.9c0.6,3.1,1.2,6.2,1.8,9.2c1.1,0.6,2.2,1.2,3.4,1.8c-0.7,0.2-2,0.6-2.7,0.8
		c0.4,1.4,0.8,2.8,1.2,4.1c1.2-0.2,2.4-0.4,3.5-0.6c-1,0.8-1.9,1.6-2.9,2.3c0.2,0.4,0.5,1.2,0.7,1.7c1.7,0,3.5-0.2,5,0.8
		c-1.6,0.5-3.3,1-4.9,1.5c2.5,1.1,5.4,1.1,8,1.9c-1.9,0.5-3.8,0.8-5.7,1.2c0.5,0.6,1.1,1.3,1.7,1.9c1.9-0.5,3.7-1,5.6-1.6
		c0,0.4,0,1.2,0.1,1.6c0.6,0.3,2,0.8,2.6,1.1c-2,1-4.2,1.6-6.4,2.3c0.4,0.6,1.2,1.7,1.7,2.2c3.1-0.7,6.2-2,9.4-1.1
		c-2.6,1.2-5.3,2-8.1,2.9c0.9,0.5,1.7,1.8,2.9,1.4c2.8-0.6,5.5-1.6,8.3-2c-2.5,2.1-5.7,2.9-8.5,4.7c4.3,0.6,8.3-1.7,12.5-2.1
		c-2.6,2.1-5.7,3.2-8.8,4.4c0.9,0.5,1.9,1,2.8,1.5c3.2-1.3,6.3-2.7,9.6-3.6c-2.3,2.1-5.1,3.3-8,4.3l0.3,1.3
		c3.8-0.9,7.4-2.3,11.2-3.1c-2.5,2.1-5.5,3.4-8.2,5.1c4.3,0.7,7.7-2.4,11.7-3.3c-2.2,2-4.8,3.5-7,5.5c6-0.8,10.8-4.8,15.9-7.6
		c-3.1,3.8-7.3,6.4-11.4,8.9c7.8,0.3,11.7-7.9,17.9-11.2c-2.1,5.9-8.4,8.6-12.5,12.9c7,0.2,10.8-6.7,16.3-9.8
		c-2.6,4.1-6.4,7.2-10.1,10.2c1.8,0.1,3.6,0.3,5.4,0.5c3.4-2.1,6.3-4.9,9.1-7.7c-1.6,2.9-3.8,5.4-6.2,7.8c5.2-0.7,10.5-1.3,15.7-2.3
		c-2.7-2.9-6.4-5-9.5-7.4c-3.2-4.2-7.2-8-9.4-12.9c-1.8-3.6-2.5-7.6-3-11.6c-10.3-1.4-19.2-8.3-24.5-17c-4-6.4-6.1-14.2-4.6-21.7
		c0.1-1.4,0.9-1.8,2.5-1.3c-0.1,3.4-0.5,6.8-0.4,10.2c3.6-3.9,8-7.3,13.3-8.7c-4,2.8-9,4.7-11.6,9.1c-1.2,1.8-0.1,4,0,6
		c2.6-4.3,5.8-8.3,9.8-11.3c-2.5,3.8-6.2,6.8-7.8,11.2c-0.8,1.7,0.3,3.5,0.7,5.1c1.6-6.2,5.6-11.4,11-14.7c-3.3,4.5-8,8.4-9.2,14.2
		c-0.7,1.8,0.7,3.5,1.3,5.1c0.4-4.5,1.4-9.2,4.7-12.5c-2.4,4.9-4.2,10.7-1.5,15.9c0.5-3.4,0.2-7.1,1.7-10.4c1.7-3.4,4.5-6.1,7.4-8.4
		c-2,3.3-4.9,6-6.3,9.6c-1.4,3.4-0.8,7.1-0.4,10.7c0.7,0.5,2,1.6,2.6,2.1c-1.4-5.2-1.2-11,2.5-15.3c-0.9,5.3-3.1,11.2,0.1,16.2
		c1.4,1.1,3,1.7,4.6,2.5c-0.9-3.1-2.1-6.2-2.4-9.4c-0.3-4.9,2.1-9.5,4.8-13.4c-0.8,3.2-2.3,6.1-3.1,9.3c-1.1,4.4,0.3,8.9,2.5,12.7
		c0.9,1.5,3,1.4,4.4,1.9c-1.4-4.2-3.5-8.5-2.8-13.1c0.9,4.4,1.8,8.9,4.2,12.8c0.8,0.1,2.5,0.2,3.3,0.3c-3.3-4.3-5.5-9.5-4.8-15
		c0.9,4.7,1.9,9.7,5.5,13.1c1.2,1.7,3.3,1.6,5.2,1.9c-2.7-4.5-5.7-9.2-5.3-14.7c1,5.3,2.6,12.6,8.7,14.1c-1.5-3-3.3-6-4.1-9.3
		c2.5,3,4.4,6.5,7.7,8.7c-3.2-5.1-6.9-10.3-6.5-16.6c2.1,5.4,3.4,13.2,10.1,14.8c-3.4-4.1-6.7-8.6-7.2-14.1
		c2.8,4.1,4.3,9.2,8.4,12.4c1.3-1.1,2.6-2.2,3.9-3.3c-4.1-2.7-8.1-5.9-10.1-10.5c4,2.7,6.6,7.1,10.9,9.4c0.8-1.7,1.5-3.4,2.2-5.1
		c3.5,1.5,0.5,5.2-0.8,7.3c-6.6,8.2-17.9,10-27.8,9.9c0.3,2,0.7,4,1.1,6c3.1-0.2,6.2-0.5,9.3-0.3c-2.4,2-5.6,2.1-8.5,2.6
		c0.7,1.4,1.4,2.8,2.1,4.3c3.5-0.4,7.1-1.2,10.7-1c-1.5,3.4-6.3,2.2-9.3,3.1c1,1,2,2.1,3.2,3.1c3.5,0.1,7-0.8,10.5-0.8
		c-2.8,1.7-6.1,2.2-9.2,2.8c0.9,0.8,1.8,1.7,2.7,2.5c4-0.1,8.2-1.7,11.9,0.2c-3.3,1-6.7,1.4-10,1.9c4.1,3.3,8.9-1,13.4,0.6
		c-2.9,1.1-5.9,1.9-8.9,2.6c1.5,0.9,2.9,2.2,4.7,2.6c3.8-0.2,7.4-1.8,11.2-1.5c-2.7,2.1-6.1,2.9-9.3,4c5,3.2,9.7-1.9,14.8-0.9
		c-2.9,1.6-6,2.6-9.1,3.9c2.8-0.1,5.7-0.1,8.4-0.9c4.7-1.3,8.4-4.5,12.8-6.6c-4.2,5.3-10.6,7.9-16.9,9.6c8,2.3,14.8-4.3,21.8-7
		c-3.7,4.9-10.1,6.3-15.3,9.1c1.5,0.4,3,1.1,4.5,0.6c5.2-1.3,9.7-4.4,14-7.4c0.2,0.2,0.7,0.8,1,1c-3.7,3-7.7,5.7-12.1,7.7
		c3.4,0.6,7,1.3,10.4,0c4.9-1.2,8.7-4.6,13.2-6.6c-2.1,3.8-6.2,5.5-9.8,7.6c4.1,0,8.4-0.4,11.7-3.1c-0.1,1.6-0.3,3.3-0.4,4.9
		c-8.3,0.9-16.7,1.3-25-0.1c-4,1.5-7.5,4.1-11.5,5.4c2-3.6,6.2-4.4,9.8-5.8c-4.2-0.9-8.4-2.1-12.4-3.7c-0.8,3.4-1.1,6.9-0.9,10.4
		c0.5,0.5,1.6,1.4,2.1,1.9c-1.2,2-2.5,4.2-1.8,6.7c1.7-1,2.7-3,4-4.4c-0.6,2.7-1.6,5.3-2.5,7.8c1.5-1.5,3-3,4.8-4.3
		c-0.7,2.5-1.6,4.8-2.6,7.2c0.4,1,0.9,2,1.3,3c1.1-2.3,2.3-4.6,4.3-6.3c-0.8,2.8-2.4,5.4-2.5,8.4c0.7,2.4,2.5,4.1,3.9,6.1
		c0.8-3.2,1-7.1,4.2-9c-0.8,4.4-1.7,8.8-1,13.3c0.8-3.6,1.2-7.7,4.2-10.3c-0.9,4.1-2.3,8.2-1.5,12.4c0.9,0.8,1.8,1.5,2.7,2.3
		c-0.4-3.6-1-9.2,2.7-11.1c0,3.9-1.6,7.9,0.3,11.6c1,3,4,4.5,6.4,6.2c-1-4.1-3.9-9.9-0.2-13.4c0.4,4-0.4,8.4,1.8,12.1
		c1.2,2.4,3.8,3.8,6.1,5c-5.1-7.2-6.3-19.1,1.7-24.6c-1.5,3-3.7,5.8-4.1,9.2c-0.7,5.8,1.9,11.6,5.5,16c-1.3-3.7-2.5-7.4-2.5-11.3
		c2,4.4,4.3,8.9,3.9,14c-8.3-0.6-15.4-5.5-21.8-10.4c-11.1-8.7-20.3-21.1-22-35.4c-0.8-4.8,0.1-9.6,0.9-14.3c-3.8-1.9-7.5-4-11-6.4
		c-14.3,4.4-30.2,4.4-44.1-1.6c-10.2-4.1-18.8-11.6-24.7-20.7c-9.8,1.7-20.5,2-29.3-3.2c-16.8-9.9-29-26.4-35.7-44.4
		c-4.6-1.5-9.5-2.1-13.9-4c-12.7-4.9-23-14.6-30.3-26c-6.2,1.2-12.4,2.6-18.7,3.3c-2.4-3.1-4.4-6.5-5.1-10.4
		c1.9,2.5,3.1,5.5,5.5,7.6c2.6,0.1,5.2-0.4,7.8-0.8c-1.4-1.7-2.8-3.3-4.2-5.1c2.1,1.5,4.1,3,6.1,4.6c2.4-0.5,4.8-1,7.3-1.4
		C557.1,71.7,555.2,67.2,553.9,62.5z"/>
	<path class="st0" d="M428.4,61.8c1.8,4.3,3.4,8.7,5,13c4.4,1.7,8.7,3.2,13.1,4.9c-4.2,1.8-8.6,3.4-13,4.9
		c-1.8,4.4-3.6,8.8-5.2,13.2c-1.5-4.4-2.9-8.8-5.1-12.9c-4.2-2.1-8.9-3.2-13.2-5.1c4.5-1.7,9-3.3,13.5-5
		C425,70.5,426.6,66.1,428.4,61.8z"/>
	<path class="st0" d="M570.3,67.5c1.4-0.7,2.1-0.4,2.4,1c-0.6,0.2-1.7,0.7-2.2,0.9C570.4,69,570.3,68,570.3,67.5z"/>
	<path class="st0" d="M272.4,70.3c1.4-0.6,4.1,0.9,3.6,2.6C274.5,73.4,271.9,71.9,272.4,70.3z"/>
	<path class="st0" d="M583.5,70.4c2.2,0.8-2.2,3.8-2.6,1.7C581.4,71,582.2,70.4,583.5,70.4z"/>
	<path class="st0" d="M256.8,72.1c3.4,1.6,6.5,3.7,9.7,5.5c1.2,0.8,3,1.5,3.2,3.2C264.8,79.1,260.5,75.9,256.8,72.1z"/>
	<path class="st0" d="M586.5,80.1c4.4-2.9,8.9-5.6,13.5-8.1c-2.9,3.2-6.5,5.7-10.3,7.8C588.8,80.6,587.5,80.2,586.5,80.1z"/>
	<path class="st0" d="M224.2,74.5c1.4,4.8,2.7,9.5,4.5,14.2C224.3,85.5,224.1,79.3,224.2,74.5z"/>
	<path class="st0" d="M628.2,88.7c1.7-4.8,3-9.6,4.6-14.4C632.7,79.3,632.4,85.3,628.2,88.7z"/>
	<path class="st0" d="M244.7,79.6c2.3,2.9,4.3,6,6,9.2C247.4,86.7,245.8,83.1,244.7,79.6z"/>
	<path class="st0" d="M606.4,87.7c2-2.7,3.7-5.7,5.9-8.2c-1.2,3.1-2.9,6-4.6,8.9C607.4,88.2,606.7,87.8,606.4,87.7z"/>
	<path class="st0" d="M259.4,81.2c1.2-0.4,2.4,0.8,3.4,1.3c1.1,0.3,1.1,2.2-0.3,1.6C261.3,83.6,259.1,82.8,259.4,81.2z"/>
	<path class="st0" d="M596.6,81.2c1.4-0.6,1.3,1.2,0.3,1.5c-1,0.6-2.2,2-3.5,1.3C593.2,82.5,595.3,81.7,596.6,81.2z"/>
	<path class="st0" d="M536.1,96.1c1.6-0.5,2.2,0,1.7,1.6C536.1,98.3,535.6,97.8,536.1,96.1z"/>
	<path class="st0" d="M218.5,114.3c3.9,1.4,7.8,3,10.9,5.7C225.3,119.2,221.4,117.3,218.5,114.3z"/>
	<path class="st0" d="M627.5,120c3.1-2.7,7-4.2,10.8-5.6C635.5,117.4,631.6,119.3,627.5,120z"/>
	<path class="st0" d="M210,118.7c5.3,3,10.8,5.8,15.6,9.6C219.6,127.2,213.6,123.7,210,118.7z"/>
	<path class="st0" d="M631.3,128.4c4.7-4.1,10.4-6.9,16-9.6C643,123.3,637.5,127.2,631.3,128.4z"/>
	<path class="st0" d="M323.2,126.5c1.4-1.1,3.3,1.2,1.7,2.2C323.5,129.9,321.6,127.6,323.2,126.5z"/>
	<path class="st0" d="M404.3,126.5c1.6-0.6,2.2,0,1.7,1.6C404.4,128.7,403.8,128.1,404.3,126.5z"/>
	<path class="st0" d="M205.8,128.7c5.3,2.1,10.2,5.1,14.7,8.5C215,135.8,209.7,133,205.8,128.7z"/>
	<path class="st0" d="M633.8,133.1c1.8-1.9,4.2-3,6.7-3.7C638.6,131.3,636.4,132.6,633.8,133.1z"/>
	<path class="st0" d="M636.4,137.2c4.6-3.4,9.4-6.6,14.8-8.5C647.2,132.8,642,135.8,636.4,137.2z"/>
	<path class="st0" d="M216.4,129.6c2.4,0.6,5,1.3,6.3,3.6C220.3,132.4,218.2,131.2,216.4,129.6z"/>
	<path class="st0" d="M175.1,131.5c3.9,2.2,8.5,3.3,11.8,6.4C182.4,137,178.1,135,175.1,131.5z"/>
	<path class="st0" d="M519.9,132.2c1.6-0.5,2.2,0,1.7,1.6C519.9,134.4,519.4,133.8,519.9,132.2z"/>
	<path class="st0" d="M670.3,136.6c4-1.2,7.7-3.3,11.4-5.1c-2.7,3.3-6.7,4.9-10.5,6.4C670.9,137.6,670.5,136.9,670.3,136.6z"/>
	<path class="st0" d="M104.2,135.8c0-0.4-0.1-1.3-0.1-1.7c3.1,4.9,8,8.1,12.3,11.9C111.3,143.9,107.5,140,104.2,135.8z"/>
	<path class="st0" d="M740.7,145.9c4.5-3.8,9-7.4,12.6-12C750.8,139.3,746,143.4,740.7,145.9z"/>
	<path class="st0" d="M366.5,135.9c1.4-0.5,1.9,0,1.5,1.4C366.6,137.8,366.1,137.4,366.5,135.9z"/>
	<path class="st0" d="M563.4,136.3c1.6-0.6,2.2,0,1.7,1.6C563.5,138.4,562.9,137.9,563.4,136.3z"/>
	<path class="st0" d="M169.4,138.7c4.4,2,8.9,4.1,12.7,7C177.1,145.9,173,141.9,169.4,138.7z"/>
	<path class="st0" d="M460.3,139.4c1-1.6,3.3,0.2,2.3,1.6C461.6,142.6,459.2,140.8,460.3,139.4z"/>
	<path class="st0" d="M678.9,142.9c2.9-1.5,5.6-3.1,8.6-4.3c-3.4,3.6-7.8,6.1-12.3,8C675.2,144.4,677.4,143.8,678.9,142.9z"/>
	<path class="st0" d="M171,144c2.8,1.6,5.5,3.4,8.1,5.3C175.4,149.6,173.1,146.4,171,144z"/>
	<path class="st0" d="M678.2,148.7c2.5-1.5,4.9-3.1,7.5-4.6c-1.6,2.2-3.7,4-5.9,5.6C679.4,149.4,678.6,148.9,678.2,148.7z"/>
	<path class="st0" d="M104,145.9c3.2,1.5,6.7,2.9,8.6,6.1C109.3,150.6,106.5,148.3,104,145.9z"/>
	<path class="st0" d="M118.3,146.5c3.4,0.8,6.6,2,9.8,3.5C124.5,151.1,120.9,148.7,118.3,146.5z"/>
	<path class="st0" d="M165.9,145.7c3.8,1.5,7.9,2.9,10.6,6.2C172.4,150.9,168.7,148.8,165.9,145.7z"/>
	<path class="st0" d="M680.3,151.5c3-2.6,6.6-4.8,10.7-5.3c-2,1.6-4.1,2.9-6.5,3.9c0.6,0.5,1.2,0.9,1.8,1.4c0.8-0.3,2.4-1,3.2-1.3
		c-2,1.6-4.3,2.8-6.7,3.9c0.2-0.8,0.7-2.3,0.9-3L680.3,151.5z"/>
	<path class="st0" d="M744.7,152.1c1.3-3.3,5.1-4.6,7.9-6.3C750.3,148.3,747.7,150.5,744.7,152.1z"/>
	<path class="st0" d="M728.6,150.7c2.7-2.6,6.6-3.4,10.2-4C735.8,148.9,732.3,150.5,728.6,150.7z"/>
	<path class="st0" d="M416.5,148c1.6-0.6,2.2,0,1.7,1.6C416.6,150.2,416,149.6,416.5,148z"/>
	<path class="st0" d="M167.2,149.9c2.5,0.9,5.1,2,6.9,4C171.6,153,169.3,151.6,167.2,149.9z"/>
	<path class="st0" d="M161.1,150.8c3.4,1.5,6.8,3.2,9.2,6.1C166.7,155.8,163.7,153.5,161.1,150.8z"/>
	<path class="st0" d="M686.6,156.9c2.3-3,5.8-4.5,9-6.3C693.2,153.5,690.2,155.8,686.6,156.9z"/>
	<path class="st0" d="M115.2,152.3c2.5,1.4,6.5,1.5,7.6,4.4c-3-0.1-5.6-1.6-8.3-2.7C114.7,153.6,115.1,152.8,115.2,152.3z"/>
	<path class="st0" d="M693.3,161.5c3.6-3.6,7.9-6.5,12.1-9.3C702.2,156.1,698.4,160.2,693.3,161.5z"/>
	<path class="st0" d="M734.1,155.4c2.9-0.7,5.8-3.5,8.8-2c-2.5,1.4-5.2,2.6-7.9,3.7C734.8,156.7,734.3,155.8,734.1,155.4z"/>
	<path class="st0" d="M151.5,152.4c4,2.4,7.6,5.5,11.4,8.1c-0.2,0.3-0.8,0.9-1,1.2C158.2,158.9,154.3,156.2,151.5,152.4z"/>
	<path class="st0" d="M158.9,152.9c2.8,1.9,5.5,4.1,7.9,6.6C163.4,158.4,161.1,155.6,158.9,152.9z"/>
	<path class="st0" d="M689.9,159.4c2.4-2.5,5.2-4.6,8.1-6.5C695.8,155.6,693.4,158.4,689.9,159.4z"/>
	<path class="st0" d="M95.9,154.9c3,1.4,5.9,3.1,8,5.7C100.8,159.4,98.3,157.2,95.9,154.9z"/>
	<path class="st0" d="M752.6,160.4c2.4-2.2,5.1-3.9,8-5.4C758.3,157.3,755.9,159.7,752.6,160.4z"/>
	<path class="st0" d="M374.3,156.3c1.3,0.6,1.3,1.3,0.1,2C373,157.6,373,157,374.3,156.3z"/>
	<path class="st0" d="M92.6,157.5c2.8,1.6,5.6,3.5,7.7,6C96.9,162.9,94.6,160.1,92.6,157.5z"/>
	<path class="st0" d="M756.5,163.4c2.3-2.4,5-4.3,7.9-5.9C762.3,159.9,760,162.9,756.5,163.4z"/>
	<path class="st0" d="M153.5,159.8c2.3,0.9,4.5,2.3,6,4.4C157.1,163.3,155.1,161.7,153.5,159.8z"/>
	<path class="st0" d="M697.2,164.2c1.6-2.1,3.8-3.5,6.2-4.5C701.7,161.7,699.6,163.3,697.2,164.2z"/>
	<path class="st0" d="M89.7,161.6c2,1.6,3.7,3.5,4.8,5.7C92.1,166.2,90.6,164.1,89.7,161.6z"/>
	<path class="st0" d="M105.4,161.7c3.1,0.8,5.9,2.4,8.6,4C110.6,167.3,107.7,163.8,105.4,161.7z"/>
	<path class="st0" d="M150.4,161.9c2.1,1.3,4.1,2.7,5.9,4.5C153.8,165.8,151.9,164,150.4,161.9z"/>
	<path class="st0" d="M596.4,162.1c1.6-0.6,2.2,0,1.7,1.6C596.5,164.3,595.9,163.7,596.4,162.1z"/>
	<path class="st0" d="M700.6,166.5c1.7-1.8,3.7-3.3,5.8-4.6C705,164,703,165.7,700.6,166.5z"/>
	<path class="st0" d="M742.9,165.4c2.8-1.5,5.6-3.1,8.7-3.8c-2,2.1-4.5,3.6-7,5C744,166.2,743.5,165.8,742.9,165.4z"/>
	<path class="st0" d="M762.4,167.4c0.8-2.4,2.6-4.2,4.6-5.7C766.2,164.1,764.6,166.1,762.4,167.4z"/>
	<path class="st0" d="M103.2,164.4c2.4,1.2,4.8,2.3,7.2,3.6c-2.9,2.1-5.9-1.3-8.6-2.3C102.2,165.4,102.9,164.7,103.2,164.4z"/>
	<path class="st0" d="M746.3,169.1c2.1-2.7,5.5-4.5,9-4C752.7,167.1,749.7,168.7,746.3,169.1z"/>
	<path class="st0" d="M766.7,170c1.1-1.7,2.6-3,4.3-4C770.2,167.9,768.7,169.3,766.7,170z"/>
	<path class="st0" d="M86.3,166.8c1.4-0.7,3.8,1.2,3.2,2.8C88.1,170.4,85.8,168.4,86.3,166.8z"/>
	<path class="st0" d="M96.2,168c2.7,0.9,5.2,2.2,7.8,3.5c-0.7,0.4-1.4,0.8-2,1.3C99.8,171.6,97.3,170.5,96.2,168z"/>
	<path class="st0" d="M752.5,172c2.3-1.4,4.6-2.8,7.2-3.6c0.2,0.2,0.6,0.8,0.8,1C758.2,171,755.5,173.1,752.5,172z"/>
	<path class="st0" d="M112.5,170.2c3-1,6.1,0.3,9.2,0.8c-0.7,0.6-1.4,1.1-2.1,1.6C117.2,171.9,114.8,171.2,112.5,170.2z"/>
	<path class="st0" d="M70.8,170.9c2.5,1.5,4.8,3.5,6.5,5.9C74.5,175.7,72.2,173.5,70.8,170.9z"/>
	<path class="st0" d="M91.6,170.8c2.2,0.9,4.2,2.1,6.2,3.4c-0.3,0.4-0.8,1.1-1.1,1.5C94.6,174.4,92.4,173.1,91.6,170.8z"/>
	<path class="st0" d="M758.5,175.2c2-1.9,4.3-3.4,6.9-4.4C764.2,173.5,761.6,175.5,758.5,175.2z"/>
	<path class="st0" d="M779.5,176.6c1.8-2.2,3.9-4.1,6.1-5.8C784.7,173.7,782.4,175.8,779.5,176.6z"/>
	<path class="st0" d="M78.5,172.3c1.1-0.7,3.2,0.9,2.4,2.1C79.8,175.1,77.7,173.5,78.5,172.3z"/>
	<path class="st0" d="M777.2,172.2c2.5-0.8,1.1,2.8-0.7,2.4C774.9,174.3,776.2,172.3,777.2,172.2z"/>
	<path class="st0" d="M248.1,173.4c1.4-1.1,3.2,1.3,1.6,2.3C248.3,176.9,246.5,174.4,248.1,173.4z"/>
	<path class="st0" d="M606,176c1.4-1.7,3.4-2.4,5.5-1.7c0,1.1,0,2.3,0,3.5C609.2,178.8,607.3,177.8,606,176z"/>
	<path class="st0" d="M627.2,178.5c1.7-0.4,2.2,0.1,1.6,1.7C627.1,180.7,626.5,180.1,627.2,178.5z"/>
	<path class="st0" d="M620.5,189.4c0.6-2.8,1.3-5.5,2.1-8.2c0.7,2.7,1.4,5.5,2,8.3c2.2-1.3,4.5-2.6,6.7-3.9
		c-1.2,2.3-2.5,4.5-3.8,6.7c2.4,0.6,4.8,1.3,7.2,1.9c-2.4,0.7-4.8,1.3-7.3,1.9c1.4,2.4,2.8,4.7,4.3,7c-2.4-1.3-4.8-2.7-7.2-4
		c-0.6,2.8-1.2,5.6-2,8.3c-0.7-2.8-1.4-5.5-2-8.3c-2.4,1.4-4.8,2.8-7.3,4.2c1.4-2.4,2.9-4.7,4.3-7c-2.4-0.6-4.8-1.3-7.1-2
		c2.3-0.7,4.7-1.4,7-2c-1.4-2.4-2.8-4.8-4.1-7.2C615.8,186.5,618.1,188,620.5,189.4z"/>
	<path class="st0" d="M248.1,183.4c1.6-0.5,2.2,0.1,1.6,1.7C248.1,185.6,247.5,185.1,248.1,183.4z"/>
	<path class="st0" d="M475.1,186c0.1-2.1,2.6-2.7,4-3.8c1.4,1.5,2.6,3.1,3.7,4.8c-1.2,1.1-2,3.3-3.8,3.4
		C476.5,191,474.6,188.3,475.1,186z"/>
	<path class="st0" d="M360.2,184.6c2.2-0.5,3.6,3.1,1.6,4.1c-1.2,1.3-2.9,0.3-3.8-0.8C358,186.5,358.5,184.7,360.2,184.6z"/>
	<path class="st0" d="M505.9,189.9c1.6-0.5,2.2,0.1,1.6,1.7C505.9,192.1,505.3,191.6,505.9,189.9z"/>
	<path class="st0" d="M92.7,193.9c2.9,1.1,5.9,2.4,7.5,5.2C97.4,197.9,94.9,196,92.7,193.9z"/>
	<path class="st0" d="M756.5,199.2c1.7-2.9,4.8-4.2,7.8-5.3C762,196,759.4,197.9,756.5,199.2z"/>
	<path class="st0" d="M83.3,195.2c5.4,0.3,12.3,2.2,14.3,7.8C93.3,199.6,88.4,197.3,83.3,195.2z"/>
	<path class="st0" d="M208.5,195c1.6-0.5,2.2,0,1.7,1.7C208.5,197.2,208,196.6,208.5,195z"/>
	<path class="st0" d="M763.2,198.2c3-2,6.5-2.9,10.1-2.9c-5,1.9-9.7,4.4-14.1,7.5C759.2,200.4,761.6,199.4,763.2,198.2z"/>
	<path class="st0" d="M635.5,200.1c0.8-1.2,2.9,0,2,1.3C636.7,202.6,634.5,201.4,635.5,200.1z"/>
	<path class="st0" d="M77,201.2c5.3,2.1,10.4,5.4,13.3,10.4C85.5,208.5,81.5,204.6,77,201.2z"/>
	<path class="st0" d="M761.7,206.4c1.5-2.2,3.7-3.7,6.1-4.7C766,203.5,764,205.2,761.7,206.4z"/>
	<path class="st0" d="M766.5,211.6c3.1-4.7,7.9-8.3,13.2-10.2C775.2,204.6,771.2,208.7,766.5,211.6z"/>
	<path class="st0" d="M696.2,203.1c1.4-1.1,3.2,1.4,1.6,2.3C696.3,206.6,694.6,204.1,696.2,203.1z"/>
	<path class="st0" d="M770.6,215.2c1.7-4.8,6.7-7.4,11.2-9.1C778.2,209.3,774.5,212.3,770.6,215.2z"/>
	<path class="st0" d="M75.1,206.4c4.5,1.5,9.6,4.1,11.2,8.9C82.5,212.4,78.8,209.4,75.1,206.4z"/>
	<path class="st0" d="M70.4,209.4c4.8,0.7,8.7,3.6,11.9,7.1c-0.2,0.3-0.6,1-0.8,1.4C78.6,214.1,74.3,211.9,70.4,209.4z"/>
	<path class="st0" d="M774.4,218.2c1.8-4.9,7-8.2,12.1-8.4C781.8,211.6,778,214.9,774.4,218.2z"/>
	<path class="st0" d="M178.7,216.4c1.6-0.5,2.2,0,1.7,1.7C178.8,218.6,178.2,218,178.7,216.4z"/>
	<path class="st0" d="M75.2,219c1.3-1,2.7,1.4,1.6,2.4C75.4,222.4,74.1,220,75.2,219z"/>
	<path class="st0" d="M251.5,219.1c1.6-0.5,2.2,0.1,1.6,1.7C251.5,221.3,250.9,220.8,251.5,219.1z"/>
	<path class="st0" d="M781,222.6c-1.7-0.4-1.8-3.5-0.1-4C782.5,219,782.4,222,781,222.6z"/>
	<path class="st0" d="M380.2,222.6c1.6-0.6,2.2-0.1,1.8,1.6C380.4,224.8,379.8,224.2,380.2,222.6z"/>
	<path class="st0" d="M338.3,224.2c1.6-0.5,2.2,0.1,1.6,1.7C338.3,226.4,337.8,225.8,338.3,224.2z"/>
	<path class="st0" d="M457.3,224.2c1.6-0.5,2.2,0.1,1.6,1.7C457.2,226.4,456.7,225.8,457.3,224.2z"/>
	<path class="st0" d="M77.1,224.1c2.9,3,1.1,7.4,0.8,10.9C75.7,231.8,77,227.7,77.1,224.1z"/>
	<path class="st0" d="M427.3,230.6c1.6-0.6,2.2,0,1.7,1.6C427.4,232.7,426.8,232.2,427.3,230.6z"/>
	<path class="st0" d="M224.2,231.8c1.6-0.5,2.2,0.1,1.7,1.7C224.3,234,223.7,233.4,224.2,231.8z"/>
	<path class="st0" d="M279.2,234.9c-0.3-2.1,2.1-1.6,3.4-1.6c-0.1,1.2-0.3,2.4-0.4,3.6C281.3,236.2,278.9,236.5,279.2,234.9z"/>
	<path class="st0" d="M702.1,232.8c1.6-0.5,2.2,0,1.7,1.6C702.1,235,701.6,234.4,702.1,232.8z"/>
	<path class="st0" d="M215,235.8c1.4-0.7,2.9-2.3,4.6-1.4c1.7,1.5,0.7,4.4-1.6,4.6C216.8,238.2,216,236.9,215,235.8z"/>
	<path class="st0" d="M121.4,235.2c0.9-1.6,3.4,0.2,2.3,1.6C122.7,238.5,120.3,236.7,121.4,235.2z"/>
	<path class="st0" d="M260.1,236.2c1.6-0.6,2.2,0,1.7,1.6C260.2,238.4,259.6,237.8,260.1,236.2z"/>
	<path class="st0" d="M574.6,236.5c0.9,0,1.9,0.1,2.8,0.1c0.1,1,0.1,2,0.2,3c-1.1,0-2.1,0-3.2-0.1
		C574.5,238.6,574.5,237.6,574.6,236.5z"/>
	<path class="st0" d="M233.2,242.3c1.6-0.6,2.3,2.1,0.6,2.4C232.2,245.3,231.6,242.6,233.2,242.3z"/>
	<path class="st0" d="M479.3,244.4c1.4,0,1.5,2.5,0,2.4C477.9,246.8,477.8,244.3,479.3,244.4z"/>
	<path class="st0" d="M679.4,244.6c2.4-2.3,6.3,0.3,5.5,3.4c0.5,2.6-3,3.9-5,2.9C677.6,249.8,677.4,246.1,679.4,244.6z"/>
	<path class="st0" d="M616.4,250.3c1.7,0,1.6,2.7-0.1,2.7C614.7,252.9,614.8,250.2,616.4,250.3z"/>
	<path class="st0" d="M151.5,250.9c1.6-0.5,2.2,0,1.7,1.6C151.6,253.1,151,252.6,151.5,250.9z"/>
	<path class="st0" d="M490.1,254.2c1.7-0.4,2.2,0.1,1.6,1.7C490.1,256.4,489.5,255.8,490.1,254.2z"/>
	<path class="st0" d="M131.2,254.9c1.6-0.5,2.2,0,1.7,1.6C131.2,257.1,130.7,256.5,131.2,254.9z"/>
	<path class="st0" d="M361.5,268.1c1-1.6,3.4,0.3,2.2,1.7C362.7,271.4,360.3,269.5,361.5,268.1z"/>
	<path class="st0" d="M298.1,270.5c1.6-0.5,2.2,0,1.7,1.6C298.2,272.6,297.6,272.1,298.1,270.5z"/>
	<path class="st0" d="M411.2,270.5c1.6-0.5,2.2,0.1,1.6,1.7C411.2,272.6,410.7,272.1,411.2,270.5z"/>
	<path class="st0" d="M124.9,273.3c1.6-0.5,2.2,0.1,1.6,1.7C124.8,275.5,124.3,275,124.9,273.3z"/>
	<path class="st0" d="M502.8,274.2c1.6-0.5,2.2,0,1.7,1.7C502.9,276.4,502.3,275.8,502.8,274.2z"/>
	<path class="st0" d="M705.1,275.4c1.6-0.5,2.2,0,1.7,1.6C705.2,277.5,704.6,277,705.1,275.4z"/>
	<path class="st0" d="M226.1,280.4c1.4-1.1,3.4,1.1,1.8,2.2C226.5,283.7,224.5,281.5,226.1,280.4z"/>
	<path class="st0" d="M334.7,285.4c1.6-0.6,2.2,0,1.7,1.6C334.8,287.6,334.2,287,334.7,285.4z"/>
	<path class="st0" d="M124,286.6c1.4-0.5,1.9,0,1.5,1.4C124.1,288.5,123.6,288,124,286.6z"/>
	<path class="st0" d="M709.8,286.4c1.6-0.6,2.2,0,1.7,1.6C709.9,288.5,709.3,288,709.8,286.4z"/>
	<path class="st0" d="M358.1,290.5c1.6-0.6,2.2,0,1.7,1.6C358.2,292.7,357.6,292.1,358.1,290.5z"/>
	<path class="st0" d="M726.5,290.2c1.3-1.6,3.4,1,2.1,2.3C727.2,294,725.2,291.5,726.5,290.2z"/>
	<path class="st0" d="M746.5,294.9c1.6-0.5,2.2,0,1.7,1.7C746.5,297.1,746,296.6,746.5,294.9z"/>
	<path class="st0" d="M681.6,298.3c1.6-0.5,2.2,0.1,1.6,1.7C681.5,300.5,681,299.9,681.6,298.3z"/>
	<path class="st0" d="M654.2,307.3c1.6-0.6,2.3,2.1,0.7,2.5C653.3,310.2,652.5,307.6,654.2,307.3z"/>
	<path class="st0" d="M81.2,307.9c1.6-0.6,2.2,0,1.7,1.6C81.3,310,80.7,309.5,81.2,307.9z"/>
	<path class="st0" d="M162.2,308.1c1.6-0.5,2.2,0.1,1.7,1.7C162.2,310.3,161.7,309.8,162.2,308.1z"/>
	<path class="st0" d="M145.8,315.2c-0.4-2.3,1.7-3.6,3-5c1.5,1,4.1,1.6,4.1,3.9c0.6,2.7-2.3,3.8-4.1,4.9
		C147.7,317.7,146.4,316.7,145.8,315.2z"/>
	<path class="st0" d="M773.9,315.2c1.6-0.6,2.2-0.1,1.8,1.6C774.1,317.4,773.5,316.9,773.9,315.2z"/>
	<path class="st0" d="M707,315.7c1.9,1.6,5.8,2.2,5.2,5.4c-0.9,0.9-2.1,1.7-3.4,1.2C707.5,320.4,707.6,317.9,707,315.7z"/>
	<path class="st0" d="M458.4,317.4c1.6-0.5,2.2,0.1,1.6,1.7C458.4,319.6,457.9,319,458.4,317.4z"/>
	<path class="st0" d="M553.1,317c1.6-0.5,2.2,0.1,1.6,1.7C553,319.2,552.5,318.6,553.1,317z"/>
	<path class="st0" d="M94.1,318.3c1.4-1.1,3.3,1.2,1.8,2.3C94.5,321.6,92.5,319.3,94.1,318.3z"/>
	<path class="st0" d="M649.1,317.9c1.6-0.6,2.2-0.1,1.8,1.5C649.2,320.1,648.7,319.6,649.1,317.9z"/>
	<path class="st0" d="M371.2,319.4c1.6-0.6,2.2,0,1.7,1.6C371.2,321.6,370.7,321,371.2,319.4z"/>
	<path class="st0" d="M563.5,319.2c1.6-0.5,2.2,0,1.6,1.7C563.5,321.3,563,320.8,563.5,319.2z"/>
	<path class="st0" d="M187.1,328.5c1.4-1.1,3.4,1.2,1.7,2.2C187.5,331.8,185.5,329.5,187.1,328.5z"/>
	<path class="st0" d="M347.2,329c1.6-0.5,2.2,0,1.6,1.7C347.2,331.1,346.7,330.6,347.2,329z"/>
	<path class="st0" d="M728.9,329.5c1.6-0.6,2.2,0,1.7,1.6C729,331.6,728.5,331.1,728.9,329.5z"/>
	<path class="st0" d="M502.5,335c1.6-0.5,2.2,0,1.6,1.7C502.5,337.2,502,336.6,502.5,335z"/>
	<path class="st0" d="M223,338.3c1.4-1.1,3.3,1.2,1.7,2.2C223.4,341.7,221.4,339.3,223,338.3z"/>
	<path class="st0" d="M107.6,339.1c1.6-0.5,2.2,0,1.6,1.7C107.6,341.4,107.1,340.8,107.6,339.1z"/>
	<path class="st0" d="M393.4,342.4c1.6-0.5,2.2,0,1.6,1.7C393.4,344.6,392.9,344,393.4,342.4z"/>
	<path class="st0" d="M293,348.4c1.6-0.5,2.2,0.1,1.6,1.7C293,350.5,292.4,350,293,348.4z"/>
	<path class="st0" d="M613.5,349.9c1.6-0.6,2.2,0,1.7,1.6C613.6,352,613,351.5,613.5,349.9z"/>
	<path class="st0" d="M373.1,356.9c-1.4-2.4,2.9-4,4-1.9c0.3,1.1,0.4,2.3,0.6,3.5C376,358.2,373.4,359.2,373.1,356.9z"/>
	<path class="st0" d="M484.5,355.2c1.6-0.5,2.2,0,1.7,1.7C484.5,357.3,484,356.8,484.5,355.2z"/>
	<path class="st0" d="M491.1,358.7c1.6-0.6,2.2,0,1.7,1.6C491.2,360.9,490.6,360.4,491.1,358.7z"/>
	<path class="st0" d="M514.2,360.1c1.5-0.7,2.5,1.9,0.9,2.4C513.5,363.1,512.5,360.5,514.2,360.1z"/>
	<path class="st0" d="M380.1,361.6c1.6-0.6,2.2-0.1,1.7,1.6C380.2,363.7,379.6,363.2,380.1,361.6z"/>
	<path class="st0" d="M285.9,362.5c1.6-0.5,2.2,0,1.7,1.6C285.9,364.7,285.4,364.1,285.9,362.5z"/>
	<path class="st0" d="M546.6,363.6c1.4-0.3,2.9-0.3,4.3-0.4c-0.3,1.5,0.2,4.3-2.1,4.4C546.5,368,545.8,365.3,546.6,363.6z"/>
	<path class="st0" d="M137.5,370.4c1.6-0.5,2.2,0.1,1.6,1.7C137.5,372.6,136.9,372,137.5,370.4z"/>
	<path class="st0" d="M267.1,371.6c1.6-0.5,2.2,0,1.7,1.6C267.2,373.7,266.6,373.2,267.1,371.6z"/>
	<path class="st0" d="M639.2,373.6c1.6-0.6,2.2-0.1,1.7,1.6C639.3,375.8,638.8,375.2,639.2,373.6z"/>
	<path class="st0" d="M690.6,373.3c1.6-0.5,2.2,0.1,1.6,1.7C690.6,375.5,690,374.9,690.6,373.3z"/>
	<path class="st0" d="M765.2,372.9c1.6-0.5,2.2,0,1.7,1.7C765.2,375,764.7,374.5,765.2,372.9z"/>
	<path class="st0" d="M325.1,374c1.6-0.5,2.2,0.1,1.6,1.7C325.1,376.1,324.5,375.6,325.1,374z"/>
	<path class="st0" d="M538.5,382.9c1.6-0.6,2.2,0,1.7,1.6C538.5,385,538,384.5,538.5,382.9z"/>
	<path class="st0" d="M122.8,390.8c0.7-2.6,1.3-5.1,2.3-7.6c0.8,2.6,1.3,5.2,1.9,7.8c2.3-1.4,4.6-2.8,6.9-4.1
		c-1.3,2.3-2.7,4.6-4.1,6.9c2.6,0.7,5.3,1.5,7.9,2.1c-2.7,0.5-5.4,1.1-8.1,1.7c1.5,2.5,3,4.9,4.5,7.2c-2.4-1.5-4.8-2.9-7.3-4.3
		c-0.6,2.7-1.1,5.4-1.8,8c-0.9-2.6-1.6-5.2-2.2-7.8c-2.4,1.4-4.8,2.8-7.2,4.1c1.4-2.4,2.9-4.8,4.3-7.2c-2.6-0.6-5.2-1.2-7.8-1.8
		c2.6-0.7,5.2-1.5,7.8-2.2c-1.5-2.4-2.9-4.7-4.3-7.1C118.1,388,120.5,389.4,122.8,390.8z"/>
	<path class="st0" d="M279.5,386.5c0.9-1.9,3.6-0.6,2.9,1.2C282.9,391,277.4,388.2,279.5,386.5z"/>
	<path class="st0" d="M293,387.4c1.4-1.1,3.3,1.3,1.7,2.3C293.3,390.8,291.4,388.4,293,387.4z"/>
	<path class="st0" d="M229.4,389.4c1.3-1,2.9,1.2,1.5,2.1C229.6,392.5,228,390.3,229.4,389.4z"/>
	<path class="st0" d="M574.3,389.4c1.1,0,2.2,0.1,3.3,0.1c-0.1,0.9-0.2,1.9-0.2,2.8c-1,0.1-1.9,0.1-2.8,0.2
		C574.5,391.4,574.4,390.4,574.3,389.4z"/>
	<path class="st0" d="M743.9,402.3c2,0.5,4.1,2.1,2.7,4.4c-1.7,1.9-3.8-0.3-4.6-1.9C742.4,404.1,743.4,402.9,743.9,402.3z"/>
	<path class="st0" d="M716.1,406.6c1.4-0.4,1.9,0.1,1.4,1.5C716,408.5,715.6,408,716.1,406.6z"/>
	<path class="st0" d="M171.5,414.6c-2.1-1.4,0.8-3.4,1.5-4.8c1,1.3,2.9,2.4,2.5,4.4C174.4,415.4,172.6,416,171.5,414.6z"/>
	<path class="st0" d="M222.4,418.2c1.3,0.7,1.3,1.4,0,2C221,419.5,221,418.9,222.4,418.2z"/>
	<path class="st0" d="M563.3,425.1c1.6-0.5,2.2,0,1.7,1.6C563.3,427.3,562.7,426.8,563.3,425.1z"/>
	<path class="st0" d="M727.4,427.1c1-1.6,3.3,0.3,2.2,1.7C728.5,430.5,726.2,428.5,727.4,427.1z"/>
	<path class="st0" d="M467.4,432c1-1.6,3.4,0.3,2.2,1.7C468.5,435.4,466.2,433.4,467.4,432z"/>
	<path class="st0" d="M695.9,434.4c1.6-0.5,2.1,0.1,1.6,1.7C695.9,436.6,695.3,436,695.9,434.4z"/>
	<path class="st0" d="M770.1,438.4c1.6-0.5,2.2,0,1.7,1.7C770.1,440.6,769.5,440,770.1,438.4z"/>
	<path class="st0" d="M237.8,447.6c1.6-0.6,2.2,0,1.7,1.6C237.9,449.7,237.3,449.2,237.8,447.6z"/>
	<path class="st0" d="M273.9,454.4c1.6-0.5,2.2,0.1,1.6,1.7C273.9,456.6,273.4,456,273.9,454.4z"/>
	<path class="st0" d="M304.5,458.8c1-1.3,3.2,0.4,2.1,1.7C305.6,461.7,303.4,460,304.5,458.8z"/>
	<path class="st0" d="M709.6,460.2c2-0.8,4.2-0.4,6.2,0.1c-0.1,1.7,0.3,3.4-0.4,5c-1.3,1.8-3.6,1.1-5.5,1.2
		c-0.4-1.2-0.8-2.3-1.2-3.5C708.9,462.4,709.3,461,709.6,460.2z"/>
	<path class="st0" d="M110.2,462.3c1.5-0.4,4.3-0.5,4.2,1.7c0.3,2.7-3.6,3.4-4.9,1.2C109.7,464.4,110,463,110.2,462.3z"/>
	<path class="st0" d="M168.4,495.2c1.1-1.6,3.3,0.4,2.2,1.8C169.5,498.6,167.2,496.6,168.4,495.2z"/>
	<path class="st0" d="M690.4,500.1c1-1.6,3.3,0.4,2.2,1.8C691.5,503.5,689.3,501.5,690.4,500.1z"/>
	<path class="st0" d="M756.4,502c1.6-0.5,2.2,0,1.7,1.6C756.5,504.1,755.9,503.6,756.4,502z"/>
	<path class="st0" d="M574.4,509.2c1.6-0.6,2.2,0,1.7,1.6C574.5,511.4,573.9,510.9,574.4,509.2z"/>
	<path class="st0" d="M159.9,549.1c1.6-0.5,2.1,0,1.6,1.7C159.9,551.3,159.3,550.8,159.9,549.1z"/>
	<path class="st0" d="M751.4,552.5c1.6-0.5,2.2,0,1.6,1.7C751.4,554.7,750.9,554.2,751.4,552.5z"/>
	<path class="st0" d="M199.2,553.4c1.4-1.1,3.3,1.2,1.7,2.2C199.5,556.7,197.6,554.4,199.2,553.4z"/>
	<path class="st0" d="M148.2,557c1.6-0.5,2.2,0,1.7,1.7C148.2,559.2,147.6,558.6,148.2,557z"/>
	<path class="st0" d="M156.2,565.4c1.5-0.1,1.5,2.4,0.1,2.4C154.8,567.8,154.8,565.3,156.2,565.4z"/>
	<path class="st0" d="M744.4,572.5c1.1,0.1,2.2,0.1,3.3,0.2c0.5,2.2,0,4-2.3,4.9c-0.6-0.5-1.7-1.6-2.2-2.2
		C743.6,574.5,744,573.5,744.4,572.5z"/>
	<path class="st0" d="M622.5,580.2c1.6-0.5,2.2,0,1.6,1.7C622.5,582.4,622,581.8,622.5,580.2z"/>
	<path class="st0" d="M699.8,582.4c1.6-0.6,2.2,0,1.7,1.6C699.9,584.6,699.3,584,699.8,582.4z"/>
	<path class="st0" d="M108.7,587.8c0.9-0.2,2.8-0.4,3.7-0.6c1.3,1.5,3,3.3,2.1,5.4c-0.8,2.8-5.5,3-6.5,0.3
		C107.1,591.2,108.3,589.5,108.7,587.8z"/>
	<path class="st0" d="M193.2,600.4c1.6-0.5,2.2,0.1,1.7,1.7C193.2,602.5,192.7,602,193.2,600.4z"/>
	<path class="st0" d="M751.4,600c1.6-0.5,2.2,0,1.7,1.7C751.5,602.2,750.9,601.6,751.4,600z"/>
	<path class="st0" d="M104.1,606.5c1.6-0.5,2.2,0.1,1.6,1.7C104.1,608.6,103.5,608.1,104.1,606.5z"/>
	<path class="st0" d="M174.8,607.9c1.6-0.5,2.2,0.1,1.6,1.7C174.8,610,174.2,609.5,174.8,607.9z"/>
	<path class="st0" d="M533.1,615.8c1.6-0.6,2.2-0.1,1.7,1.6C533.2,618,532.6,617.5,533.1,615.8z"/>
	<path class="st0" d="M251.4,639.3c1.5-0.2,1.6,2.3,0.1,2.3C249.9,641.7,249.9,639.2,251.4,639.3z"/>
	<path class="st0" d="M746.4,660.5c1.6-0.6,2.2-0.1,1.7,1.6C746.5,662.6,745.9,662.1,746.4,660.5z"/>
	<path class="st0" d="M643.1,666.3c1.4-1.1,3.4,1.2,1.7,2.2C643.3,669.7,641.4,667.3,643.1,666.3z"/>
	<path class="st0" d="M224.4,675.2c3-2.8,3,4.4,0,1.8C224.4,676.5,224.4,675.7,224.4,675.2z"/>
	<path class="st0" d="M628.3,676c1.1-1.6,3.3,0.4,2.2,1.8C629.5,679.3,627.2,677.3,628.3,676z"/>
	<path class="st0" d="M133,692.4c1.4-1.1,3.2,1.3,1.6,2.3C133.1,695.8,131.4,693.3,133,692.4z"/>
	<path class="st0" d="M115.8,709.4c1.6-0.6,2.2,0,1.7,1.6C115.8,711.6,115.3,711,115.8,709.4z"/>
	<path class="st0" d="M744.2,730.1c0.6-2.8,1.3-5.6,2.1-8.3c0.7,2.7,1.4,5.5,2,8.2c2.4-1.4,4.9-2.8,7.3-4.1
		c-1.6,2.3-3.1,4.6-4.6,6.9c2.5,0.7,4.9,1.3,7.4,2c-2.5,0.7-4.9,1.3-7.3,2c1.5,2.3,2.9,4.6,4.3,6.9c-2.4-1.4-4.7-2.7-7-4.1
		c-0.7,2.8-1.4,5.5-2.1,8.3c-0.8-2.7-1.4-5.5-2-8.2c-2.4,1.4-4.8,2.9-7.2,4.2c1.3-2.4,2.8-4.8,4.2-7.2c-2.5-0.7-5-1.3-7.5-1.9
		c2.5-0.7,5-1.4,7.5-2.1c-1.5-2.3-2.9-4.7-4.3-7C739.4,727.1,741.8,728.6,744.2,730.1z"/>
	<path class="st0" d="M631.3,731.3c1.6-0.6,2.2,0,1.7,1.6C631.4,733.5,630.8,733,631.3,731.3z"/>
	<path class="st0" d="M228.4,734.1c1.6-0.5,2.2,0,1.6,1.7C228.4,736.3,227.9,735.7,228.4,734.1z"/>
	<path class="st0" d="M688.5,739.3c1.6-0.5,2.1,0.1,1.6,1.7C688.5,741.5,688,740.9,688.5,739.3z"/>
	<path class="st0" d="M763.9,740.8c0.9-0.6,1.9-1.1,2.9-1.6c1.4,0.5,2.1,1.9,3.1,2.9c-1.5,0.9-3.1,1.6-4.8,2.2
		C764.8,743.2,764.3,742,763.9,740.8z"/>
	<path class="st0" d="M709.2,750.3c1.6-0.6,2.2,0,1.7,1.6C709.3,752.4,708.7,751.9,709.2,750.3z"/>
	<path class="st0" d="M173.4,751.4c1.6-0.5,2.2,0,1.7,1.6C173.5,753.6,172.9,753,173.4,751.4z"/>
	<path class="st0" d="M157.6,759.9c1.6-0.5,2.2,0.1,1.6,1.7C157.5,762.1,157,761.5,157.6,759.9z"/>
	<path class="st0" d="M567.4,759.9c0.9-1.4,3.2,0.1,2.1,1.5C568.6,762.8,566.3,761.2,567.4,759.9z"/>
	<path class="st0" d="M288.3,766c1.1-1.5,3.4,0.5,2.2,1.8C289.4,769.3,287.1,767.3,288.3,766z"/>
	<path class="st0" d="M165.2,771.5c1.5-0.1,3-0.2,4.6-0.2c0,1.2-0.1,2.4-0.2,3.5c-1.1,1-2.5,1-3.7,0.4
		C165.6,774,165.4,772.7,165.2,771.5z"/>
	<path class="st0" d="M102.7,779.8c0.7,2.8,1.4,5.6,2,8.4c2.4-1.4,4.8-2.8,7.2-4.2c-1.5,2.3-3,4.7-4.5,7c2.8,0.8,5.6,1.5,8.5,2.1
		c-2.8,0.5-5.7,1.1-8.5,1.8c1.4,2.4,2.9,4.7,4.4,7.1c-2.4-1.4-4.8-2.8-7.2-4.2c-0.6,2.7-1.2,5.5-1.9,8.2c-0.8-2.7-1.5-5.4-2.1-8.1
		c-2.4,1.4-4.8,2.9-7.3,4.2c1.4-2.4,2.9-4.7,4.5-7.1c-2.6-0.7-5.3-1.4-7.9-2c2.6-0.7,5.3-1.4,7.9-2.1c-1.5-2.3-3-4.7-4.4-7.1
		c2.5,1.4,4.9,2.8,7.4,4.3C101.3,785.3,101.9,782.6,102.7,779.8z"/>
	<path class="st0" d="M553.7,780.1c1.6-0.5,2.2,0.1,1.6,1.7C553.6,782.3,553.1,781.8,553.7,780.1z"/>
	<path class="st0" d="M721.3,782.7c1.7-0.5,2.2,0.1,1.7,1.7C721.3,784.9,720.7,784.3,721.3,782.7z"/>
	<path class="st0" d="M678.7,786c0.4-2.2,2.9-1.5,4.5-1.8c0,1.3,0.1,2.6-0.1,3.9C681.3,789.3,678.2,788.7,678.7,786z"/>
	<path class="st0" d="M174.9,791.3c1.6-0.6,2.1-0.1,1.7,1.6C175,793.5,174.4,793,174.9,791.3z"/>
	<path class="st0" d="M662.2,796.9c-0.9-2.7,2-4.3,3.8-5.5c1.6,1.7,4.7,3.9,2.7,6.4C667.5,800.8,662.8,799.9,662.2,796.9z"/>
	<path class="st0" d="M140.3,797.3c1.5-0.1,1.6,2.4,0.1,2.4C138.9,799.8,138.8,797.3,140.3,797.3z"/>
	<path class="st0" d="M263.6,804c-0.6-3.1,3.4-5.4,5.8-3.4c2.3,1.8,0.8,4.9-0.2,7C267,807.3,263.8,806.9,263.6,804z"/>
	<path class="st0" d="M324.3,799.9c1.6-0.5,2.2,0,1.7,1.6C324.4,802,323.8,801.5,324.3,799.9z"/>
	<path class="st0" d="M122,801.1c1.6-0.5,2.2,0,1.7,1.7C122.1,803.3,121.5,802.7,122,801.1z"/>
	<path class="st0" d="M348.3,806.3c1.3,0.6,1.3,1.3,0,2C347,807.7,347,807,348.3,806.3z"/>
	<path class="st0" d="M294.4,818.1c2.3,0.4,4.3,1.5,4.4,4.1c-0.9,0.4-2.6,1.2-3.5,1.5C294,822.1,294.1,820.1,294.4,818.1z"/>
	<path class="st0" d="M388.5,837.9c1.4-0.4,1.9,0,1.4,1.5C388.5,839.8,388.1,839.3,388.5,837.9z"/>
	<path class="st0" d="M741.3,839.4c3.2-1.2,6,3.2,3.9,5.8c-1.1,1.9-4.2,2.2-5.5,0.4C737.9,843.7,738.8,840,741.3,839.4z"/>
	<path class="st0" d="M118.8,840.8c0.9-1.5,4.3-0.8,4.1,1.3c0.3,2.1-2.2,2.3-3.5,2.9C119,843.7,117.3,842,118.8,840.8z"/>
	<path class="st0" d="M467.6,840c1.6-0.5,2.2,0,1.7,1.6C467.6,842.2,467.1,841.6,467.6,840z"/>
	<path class="st0" d="M279.6,842.5c2-0.3,2.9,1.2,3.3,3c-0.9,0.2-2.6,0.6-3.5,0.8C279.4,845,279.5,843.7,279.6,842.5z"/>
	<path class="st0" d="M591.2,844.3c1.4-1.2,3.3,1.1,1.7,2.1C591.6,847.7,589.6,845.4,591.2,844.3z"/>
	<path class="st0" d="M574.3,846.3c1.1,0,2.2,0,3.3,0c-0.1,1-0.2,2-0.3,3.1c-0.9,0-1.8,0-2.7,0C574.5,848.3,574.4,847.3,574.3,846.3
		z"/>
	<path class="st0" d="M355.9,846.9c1.6-0.6,2.2,0,1.7,1.6C356,849.1,355.4,848.5,355.9,846.9z"/>
	<path class="st0" d="M238.1,849.8c1.6-0.5,2.2,0,1.7,1.6C238.2,852,237.6,851.5,238.1,849.8z"/>
	<path class="st0" d="M741.9,852.3c1.3-1.1,2.8,1.2,1.4,2.1C742,855.5,740.5,853.2,741.9,852.3z"/>
	<path class="st0" d="M181.2,853.1c1.6-0.5,2.2,0,1.7,1.6C181.3,855.3,180.7,854.8,181.2,853.1z"/>
	<path class="st0" d="M725.8,856c1.6-0.5,2.2,0,1.7,1.7C725.8,858.1,725.2,857.6,725.8,856z"/>
	<path class="st0" d="M622.6,863.4c1.6-0.5,2.2,0.1,1.7,1.7C622.7,865.6,622.1,865,622.6,863.4z"/>
	<path class="st0" d="M507.5,866.2c1.6-0.6,2.1,0,1.6,1.7C507.6,868.4,507,867.9,507.5,866.2z"/>
	<path class="st0" d="M272.1,869.3c1.6-0.5,2.2,0,1.7,1.6C272.2,871.5,271.6,871,272.1,869.3z"/>
	<path class="st0" d="M620.5,871c0.8-1.4,3.2,0,2.2,1.4C621.9,873.7,619.5,872.3,620.5,871z"/>
	<path class="st0" d="M186.3,881.2c1.6-0.5,2.2,0.1,1.6,1.7C186.2,883.4,185.7,882.8,186.3,881.2z"/>
	<path class="st0" d="M751.9,881c1.6-0.5,2.1,0.1,1.6,1.7C751.8,883.2,751.3,882.6,751.9,881z"/>
	<path class="st0" d="M299.6,893.3c1.3-1.1,2.9,1.2,1.5,2.1C299.7,896.5,298.2,894.2,299.6,893.3z"/>
	<path class="st0" d="M694.1,895.2c1.4-1.1,3.3,1.3,1.6,2.3C694.3,898.6,692.5,896.1,694.1,895.2z"/>
	<path class="st0" d="M117.3,897.3c1-1.7,3.3,0.3,2.3,1.7C118.6,900.6,116.2,898.7,117.3,897.3z"/>
	<path class="st0" d="M716.4,899.1c1.6-0.5,2.2,0,1.7,1.6C716.5,901.3,715.9,900.7,716.4,899.1z"/>
	<path class="st0" d="M397.1,900.4c1.6-0.5,2.2,0.1,1.6,1.7C397,902.5,396.5,902,397.1,900.4z"/>
	<path class="st0" d="M301.9,908c1.6-0.5,2.1,0.1,1.6,1.7C301.8,910.1,301.3,909.5,301.9,908z"/>
	<path class="st0" d="M194.4,914.2c0.9-1.7,3.4,0.2,2.3,1.6C195.7,917.5,193.3,915.6,194.4,914.2z"/>
	<path class="st0" d="M472,927.3c1.6-0.6,2.2,0,1.7,1.6C472.1,929.5,471.5,928.9,472,927.3z"/>
	<path class="st0" d="M117.5,929c0.7-1.3,2.8,0,1.9,1.3C118.7,931.6,116.6,930.2,117.5,929z"/>
	<path class="st0" d="M161,934.4c0.3-2,0.5-4.6,3-4.9c3.6-1.3,5.8,4.6,3,6.5c-1.2,1-2.8,0.6-4.2,0.7
		C162.4,936.2,161.5,935,161,934.4z"/>
	<path class="st0" d="M654.3,931.4c1.6-0.5,2.2,0,1.6,1.7C654.3,933.6,653.8,933.1,654.3,931.4z"/>
	<path class="st0" d="M548.2,934.5c1.6-0.5,2.2,0,1.7,1.6C548.2,936.6,547.6,936,548.2,934.5z"/>
	<path class="st0" d="M758.2,938.5c1.6-0.6,2.2-0.1,1.7,1.6C758.2,940.7,757.7,940.2,758.2,938.5z"/>
	<path class="st0" d="M629,941.5c1.6-0.6,2.2,0,1.7,1.6C629,943.7,628.5,943.1,629,941.5z"/>
	<path class="st0" d="M570.4,949.2c1.8-0.6,2.6,2.3,0.7,2.6C569.3,952.3,568.5,949.4,570.4,949.2z"/>
	<path class="st0" d="M234.6,952c0.9-1.4,3.2,0.1,2.2,1.4C235.9,954.7,233.5,953.3,234.6,952z"/>
	<path class="st0" d="M702,954.8c0.8-0.3,2.4-1,3.2-1.3c0.8,0.9,1.6,1.9,2.4,2.8c-1.2,0.7-2.2,3.1-3.9,2
		C702.3,957.9,702.6,956,702,954.8z"/>
	<path class="st0" d="M401.5,956.2c1-1.6,3.3,0.3,2.2,1.7C402.6,959.5,400.3,957.6,401.5,956.2z"/>
	<path class="st0" d="M544.2,956.3c1.4-1.1,3.3,1.2,1.7,2.3C544.5,959.7,542.6,957.3,544.2,956.3z"/>
	<path class="st0" d="M64.5,958.9c3.6,0.4,7.2,1.3,10.4,3c13.3,7,25,18.1,30.7,32.2c3.2,7.8,3.6,16.5,1.7,24.7
		c3.8,2.1,7.6,4.4,11.4,6.6c14.3-4.6,30.3-4.2,44.2,1.7c9.9,4.2,18.5,11.5,24.3,20.6c9.4-1.7,19.7-2,28.4,2.7
		c12.3,6.8,22,17.6,29.3,29.5c3.1,4.8,4.9,10.3,7.3,15.4c10.6,2,20.9,6,29.3,12.9c5.9,4.7,10.7,10.6,14.7,17
		c6.3-1.1,12.5-2.6,18.8-3.3c2.7,3.1,4.7,6.9,4.9,11.1c-1.6-2.9-2.8-6.1-5.2-8.5c-2.6-0.1-5.2,0.6-7.8,1.1c1.5,1.7,3,3.3,4.4,5.1
		c-2.2-1.5-4.3-3.1-6.5-4.6c-2.5,0.4-4.9,0.9-7.4,1.4c2.3,4.3,4.2,8.8,5.5,13.5c-0.6,0.1-1.7,0.2-2.3,0.3c-0.8-2.4-1.7-4.7-2.5-7.1
		c-5,0.1-10,0.9-15,1.5c4.1-3.1,9.5-2.7,14.4-3.5c-1.1-1.8-2.1-3.7-3.5-5.3c-5.4-0.2-10.3,2.1-15.6,2.6c4.2-3.4,9.9-3.5,15-4.4
		c-1.7-2.6-3.6-5.1-5.5-7.6c-5.4,0.7-10.4,3-15.6,4.2c3.4-4.2,9.3-4.4,14.2-5.7c-1.4-1.4-2.7-2.7-4.1-4.1
		c-5.4,1.5-10.4,4.1-15.8,5.5c3.8-3.9,9.3-5.2,14.2-7.3c-1.2-0.7-2.4-1.4-3.6-2.1c-5.6,1.8-10.8,4.4-16.3,6.5
		c4.5-3.8,10-5.8,15.4-7.8c-3.3-1.7-6.4-4-10-4.8c-5.7,2.2-9.1,7.7-14.5,10.3c3.2-4.8,8-8.2,12.6-11.5c-2.1-0.5-4.2-1.2-6.3-1.4
		c-5.7,2.4-8.9,7.9-13.2,12c2.5-5.2,6.5-9.6,11.1-13c-2.2-0.2-4.4-0.8-6.6-0.5c-4.1,3.9-7,9-11.1,13c2.3-5.1,6.2-9.2,9.1-13.9
		c-4.9-0.5-8.5,3.2-11.5,6.5c-2.4,2.8-3.9,6.2-6.8,8.6c1.9-6.2,6.5-10.8,11-15.1c-8.7,1.1-10.6,11.4-16.7,16.1
		c2.1-5.5,5.8-10.1,9.1-15c-2.8,0.9-5.8,1.7-7.7,4.1c-3.8,3.9-4.8,9.5-7.6,14c0.7-5.6,3.6-10.6,6.5-15.3c-3.3,2-7.4,3.2-9.4,6.7
		c-3.3,6-5.2,12.6-5.6,19.4c-2.4-6.7,1.6-13,3.8-19.1c-2.7,2.3-5.2,5-7.4,7.8c-0.6-0.3-1.7-0.8-2.3-1.1c6.7-8.7,16.1-15.1,26.7-18
		c1.7-0.6,3.5-0.3,5.2-0.1c0.7-0.5,1.4-1,2.1-1.5c4.3-0.3,8.6-0.3,12.9-0.1c-0.7-1.6-1.4-3.3-2.1-4.9c-4.5-0.8-9.1-0.2-13.6-0.4
		c3.9-1.5,8.2-2,12.3-2.4c-1-1.9-2-3.8-3.1-5.8c-4-0.1-8.1,2.2-12,0.8c3.7-1.3,7.6-1.8,11.4-2.4c-2.9-4.1-8.1-1.2-12.1-0.8
		c0-0.3-0.1-0.9-0.2-1.2c2.9-0.7,5.8-1.2,8.8-1.7c-0.1-0.6-0.3-1.7-0.4-2.2c-3.8-0.2-7.5,0.4-11.2,0.7c2.5-2.3,6.1-2.3,9.2-3
		c-1.2-1.3-2.3-2.7-3.7-3.8c-2.8,0.5-5.4,1.4-8.2,1.8c2.2-1.5,4.6-2.6,7-3.6c-0.8-0.7-1.5-1.4-2.3-2c-2.3,0.5-4.6,1-6.9,1.4
		c1.7-1.2,3.5-2.2,5.3-3.2c-0.9-0.8-1.9-1.5-2.8-2.3c-1.7,0.4-3.4,0.8-5.1,1.3c1.3-1.1,2.7-2.2,4-3.3c-6.9,0.3-12.9,4-18.6,7.5
		c3.7-5.1,9.8-7.2,15.5-9.2c-1.2-0.7-2.3-1.4-3.5-2.1c-2.5,1.3-5,2.5-7.7,3.6c1.9-1.9,3.9-3.6,5.9-5.4c-6.3-1.3-11.5,3.5-16.8,5.9
		c3.4-3.5,8-5.6,12.4-7.6c-3.9-1.9-7.8-0.2-11.3,1.7c1.4-1.2,2.8-2.4,4.2-3.6c-5.1-0.1-10.1,0.2-15.1,1.1
		c5.6,10.4,7.9,22.2,8.8,33.8c-3.3,0-2.7-3.3-3.1-5.6c-4.9,0.3-9.9,0.4-14.6,2.2c3.9-3.7,9.4-3.4,14.4-3.9c-0.4-3.2-1-6.4-1.8-9.6
		c-0.7-0.3-2-0.8-2.7-1.1c0.5-0.4,1.5-1.3,2-1.7c-0.2-1.2-0.5-2.4-0.7-3.6c-0.6-1.1-1.2-2.3-1.8-3.4c-1.6-0.1-3.1-0.2-4.7-0.4
		c1.5-1,3-1.8,4.5-2.9c-2.6-0.2-5.1-0.2-7.7-0.4c1.9-0.9,3.9-1.7,5.9-2.5c-2.4-1.3-5-0.3-7.5,0.1l-0.2-1.3c1.6-0.5,3.2-0.9,4.8-1.4
		l-2.9,0.2c0.6-1.2,1.3-2.3,2-3.4c-3.5-1.7-7.2,0.9-10.9,0.6c2.3-1.8,5.2-2.6,7.9-3.3c-0.4-0.4-1.2-1.3-1.6-1.8
		c-3.2,0.9-6.5,2.1-9.9,2.1c2.8-1.5,5.9-2.6,8.8-3.9c-4.3-1.3-8.2,1.3-12.4,2c2.3-2.5,5.6-3.4,8.7-4.5c-0.9-0.5-1.8-1.1-2.7-1.6
		c-3.2,1.2-6.3,2.7-9.5,3.7c2.5-2.3,5.8-3.6,8.5-5.6c-4.3,0.3-8.2,2.2-12.4,3.1c2.3-2.3,5.5-3.5,8.3-5.1c-4.3-1.2-7.7,2.1-11.6,3.2
		c1.8-2.4,4.6-3.6,7-5.3c-6.2,0.1-10.9,4.6-16.2,7.3c3.1-3.9,7.6-6.3,11.6-9.2c-8.1,0.1-11.6,8.6-18.4,11.4
		c3.2-5.3,8.3-8.8,13.1-12.5c-7.3-0.9-10.9,6.7-16.8,9.6c2.9-4,6.8-7,10.3-10.4c-2,0-3.9-0.1-5.9,0.2c-3.3,1.7-5.7,4.7-8.6,7
		c1.6-2.8,3.8-5.2,6.1-7.4c-5.2,0.4-10.4,1.1-15.4,2.5c3.1,2.4,6.1,4.8,9.3,7c2.7,3.6,6,6.7,8.3,10.7c2.6,4.1,3.6,9,4.1,13.8
		c17,2.7,31.2,19.6,29.4,37c0.1,1.9-0.9,3.2-2.9,3.3c0.3-3.5,0.6-7,0.7-10.6c-3.7,3.8-7.9,7.6-13.4,8.4c4.9-2.7,10.3-5.3,12.7-10.8
		c-0.5-1.2-1-2.4-1.5-3.6c-2.2,4.2-5.4,7.8-9.2,10.6c3.1-4.9,9.9-9.5,7.2-16.1c-2,5.9-5.6,11.4-11.3,14.4c3.4-4.3,8.1-8.1,9.1-13.8
		c0.7-1.8-0.6-3.4-1.2-5c-0.3,4.9-2,9.6-5.5,13.2c2.8-5,5.1-11.1,2.3-16.7c-0.6,3.7-0.3,7.6-2.2,11c-1.7,3.2-4.6,5.6-7.5,7.8
		c2.3-3.2,5.2-6,6.7-9.7c1.3-3.6,0.7-7.4,0.2-11.1c-0.8-0.5-1.6-1-2.5-1.5c1.4,5,1.2,10.8-2.4,14.9c0.8-4.7,2.5-9.7,0.7-14.4
		c-0.7-2.6-3.5-3-5.5-4.1c1.1,3.5,2.7,7.1,2.5,10.9c-0.2,4.4-2.3,8.4-4.9,11.9c1-4,3.3-7.7,3.6-11.9c0.2-4-1.7-7.7-3.3-11.3
		c-1-0.1-3-0.3-4-0.5c1.9,4.1,3.4,8.5,2.9,13.1c-1-4.4-1.8-9-4.1-13c-1.2-0.2-2.3-0.3-3.5-0.4c3.3,4.2,5.4,9.2,4.6,14.7
		c-0.3-5.5-2.9-10.4-6.6-14.3c-1,0-2.8,0-3.8,0.1c2.9,4.2,5.4,8.9,5.6,14.2c-1.4-5.4-2.9-12-8.9-14c1.5,3.2,3.2,6.3,4.2,9.7
		c-2.6-2.9-4.3-7-8.1-8.7c3.9,4.8,7.1,10.5,7,17c-1.7-4.6-3-9.6-6.2-13.3c-1-1.3-2.7-1.5-4.1-1.7c3.7,3.9,6.8,8.6,7.4,14.1
		c-3-4.1-4.2-9.6-8.8-12.4c-1.2,1-2.3,2-3.5,3.1c3.8,3.1,8.9,5.8,9.7,11.2c-3.3-3.4-6-7.7-10.4-9.7c-0.8,1.4-1.5,2.9-2.2,4.3
		c-0.6-0.2-1.9-0.5-2.6-0.7c2.2-6.3,7.4-11.3,13.7-13.4c5.5-2.2,11.5-2.5,17.4-2.4c-0.3-2.1-0.6-4.2-1-6.2c-3-0.1-6.7,1.7-9-0.8
		c2.7-0.7,5.4-1.2,8.2-1.6c-0.8-1.4-1.6-2.9-2.4-4.3c-3.6,0.1-7.7,2.4-11,0c3.2-1,6.6-1.5,9.9-2.1c-1-1.1-2-2.2-3.2-3
		c-3.6-0.2-7.1,1.3-10.6,0.4c3-1.1,6.2-1.8,9.4-2.3c-0.9-0.9-1.8-1.7-2.6-2.6c-3.9-0.4-8.6,2.4-11.8-0.5c3.1-0.6,6.2-1,9.2-1.5
		c-3.6-3.5-8.6,0.7-13-0.1c2.6-1.9,5.9-2.4,9-3.2c-1.4-0.9-2.8-1.9-4.3-2.5c-3.9-0.4-7.8,2.7-11.6,0.8c2.9-1.2,5.8-2.2,8.8-3.1
		c-3.9-3.2-8.5,0.2-12.5,1.3c-0.6-0.4-1.2-0.9-1.8-1.3c3-1,6-2,8.9-3.3c-3,0-6.1,0.2-9,1.2c-4.5,1.4-8.1,4.5-12.3,6.4
		c4.3-5.3,10.9-7.5,16.9-10.2c-8.1-1.2-14.6,4.7-21.7,7.4c4.2-4.8,10.5-6.6,16.1-9.3c-8-2-13.9,4.6-20.7,7.2c3.2-4.2,8-6.5,12.5-8.9
		c-3.7-0.4-7.5-1.1-11.1,0.3c-4.5,1.3-8.1,4.4-12.3,6.4c1.9-4.2,6.5-5.8,10.2-7.8c-2.8,0.3-5.6,0.5-8.5,0.7
		c-1.3,0.9-2.6,1.9-3.9,2.8c0.1-1.7,0.2-3.4,0.3-5.1c7.4-0.9,14.9-1.4,22.4-0.4c5.2,0.9,9.3-3.2,13.5-5.4c-0.6,4.3-6,4.5-9.1,6.1
		c4.2,0.9,8.3,2.1,12.3,3.6c1-3.5,1.2-7.1,1-10.7c-2.5-0.8-2.2-2.6-1-4.4c0-0.7,0.1-2.2,0.1-2.9c-1.1,1.2-2.2,2.4-3.4,3.5
		c0.5-2.7,1.3-5.2,2.1-7.8c-1.3,1.5-2.7,2.9-4,4.3c-0.3-2.7,1.2-5,2.1-7.4c-0.4-1-0.9-2-1.3-3c-1.1,2.3-2.4,4.6-4.1,6.6
		c0.7-3,1.8-6,2.5-9c-1.4-2-2.8-3.9-4.2-5.8c-0.6,3.4-1.1,7.1-4,9.4c0.6-4.5,1.7-9.1,1-13.7c-0.9,3.2-1.3,6.7-3.3,9.5
		c-0.3,0.1-0.9,0.2-1.2,0.3c1.3-4.7,3.5-10.6-0.9-14.3c0,3.3,0.3,6.9-1.2,10c-0.3,0.9-0.9,1.2-1.9,1.1c0.3-3.6,1.5-7.4,0.1-11
		c-1-3.1-4-4.8-6.3-6.7c1.3,4.2,1.8,8.7,1.5,13.1c-0.6-0.4-1.3-0.8-1.9-1.1c0.3-3.7,0.3-7.6-1.6-10.9c-1.3-2.3-3.7-3.5-5.8-4.9
		c3.4,5.6,5.3,12.6,2.8,19c-0.8,2.5-2.8,4.2-4.9,5.5c1.6-2.8,4.1-5.2,4.2-8.6c0.8-5.9-1.5-11.9-5.5-16.3c1.3,3.7,2.8,7.5,2.4,11.5
		C66.5,968.5,64.2,964,64.5,958.9z"/>
	<path class="st0" d="M777.4,964.5c4.6-2.9,9.7-5.3,15.2-5.6c-2.9,4.8-7,9.2-7.3,15.1c-0.9,4.7,1.9,8.8,4.1,12.7
		c-4.3-2.7-6-7.8-5.7-12.7c-0.2-4.3,2-8.2,4-11.9c-2.3,1.4-4.9,2.8-6.1,5.4c-1.9,3.2-1.5,7.1-1.5,10.8c-0.5,0.1-1.4,0.4-1.8,0.6
		c-0.5-4.4,0.2-8.7,1.7-12.8c-2.5,1.7-5.4,3.4-6.4,6.4c-1.8,3.9-0.2,8.1-0.3,12.2c-3.1-3.3-3-7.9-2.9-12.1c-4.7,4-1.7,10.2-1,15.1
		c-2.7-2.8-3.4-6.7-4.2-10.3c-1,4.5,1.2,9.1,0,13.5c-1.5-2.9-2.5-6.1-3.4-9.2c-1.3,1.8-2.7,3.7-4,5.6c0.6,2.9,1.7,5.7,2.6,8.5
		c-2.2-1.7-3.3-4.2-4.3-6.7c-1.8,3.7,0.6,7.2,1.3,10.9c-1.6-1.5-3-3.1-4.5-4.7c0.8,2.6,1.7,5.2,2.4,7.9c-1.2-1.1-2.4-2.2-3.6-3.4
		c0.4,2.4,0.9,4.7,1.4,7c-0.5-0.1-1.6-0.2-2.2-0.2c-0.2,3.8,0,7.6,0.9,11.2c4-1.5,8.1-2.7,12.3-3.5c-3.3-1.6-8.3-2-9.3-6.2
		c4.5,2.1,8.7,6.5,14,5.5c7.4-1.1,14.8-0.6,22.2,0.4c0.1,1.6,0.1,3.3,0.2,4.9c-3.4-3-8-3.2-12.3-3.4c3.8,2,8.2,3.7,10.4,7.7
		c-4.4-2-8.2-5.3-12.9-6.5c-3.4-1.2-7.1-0.6-10.6-0.1c4.2,2.7,9.7,4.3,12.1,9.1c-6.3-3.4-12.6-9.2-20.3-7.4
		c5.5,2.8,11.8,4.6,16.2,9.3c-7.3-2.6-13.9-8.9-22.2-7.2c6.3,2.1,12.8,4.6,17.1,9.9c-6.5-3.7-13.1-8.3-21-7.6c3,1.3,6.4,2.1,8.8,4.5
		c-5-0.2-9.9-4.6-14.6-1.2c3.1,0.9,6.2,1.8,9.2,3.1c-4,1.6-8-0.9-12.1-1.1c-1.3,0.9-2.5,1.9-3.8,2.8c3,0.7,5.9,1.4,8.8,2.5
		c-3.5,1.4-7.2-0.6-10.7-1.1c-0.6,0.4-1.9,1.2-2.5,1.6c3.2,0.5,6.5,1,9.7,1.8c-3.4,2.5-7.9,0.1-11.8,0.3c-0.9,0.9-1.8,1.7-2.7,2.6
		c3.1,0.5,6.5,0.9,9.2,2.7c-3.6-0.1-7.2-0.7-10.8-1c-0.9,1.1-1.8,2.1-2.7,3.2c3,0.5,6.1,1.1,9.2,1.6c-0.2,0.5-0.7,1.4-0.9,1.9
		c-3.1-0.5-6.2-1-9.3-1.5c-0.8,1.4-1.6,2.8-2.4,4.3c2.3,1.1,7.1-0.2,7.6,2.9c-2.9,0.1-5.7-0.2-8.5-0.5c-0.3,2.1-0.7,4.1-0.9,6.2
		c8.7-0.3,18.2,1,25.1,6.8c3,2.3,4.6,5.8,5.8,9.2c-0.7,0-2,0.1-2.7,0.2c-0.6-1.5-1.2-2.9-1.9-4.3c-4.3,2.4-7.2,6.5-10.7,9.8
		c1.4-5,5.9-8.1,10-10.8c-1.2-1.1-2.4-2.2-3.6-3.3c-4.6,2.9-5.7,8.4-8.8,12.5c0.8-5.4,3.5-10.2,7.4-13.9c-0.9,0.1-2.8,0.3-3.7,0.4
		c0.2-0.7,0.7-2.2,1-2.9c-4,1.9-6,5.9-8.6,9.2c0.9-3.5,2.6-6.6,4.1-9.9c-5.4,2-7.4,7.9-8.5,13.1c-0.2,0.1-0.6,0.4-0.8,0.5
		c1.1-4.8,3-9.5,6.1-13.5c-1.2-0.1-2.5-0.2-3.7-0.3c-4,4-6.9,9.3-6.8,15.1c-1.4-5.7,1.5-11,4.5-15.7c-6.6,0.7-6,9-7.2,13.8
		c-0.8-4.7,0.8-9.3,2.6-13.6c-1.5,0.7-3.9,0.4-4.6,2.2c-1.8,3.3-3.1,7.1-2.7,10.9c0.5,3.8,2.5,7.1,3.5,10.8
		c-2.5-3.1-4.3-6.7-4.8-10.7c-0.4-4.1,1.3-8,2.2-11.9c-1.8,1.1-4.5,1.6-5.2,3.9c-2.1,4.8-0.2,9.8,0.6,14.6
		c-3.9-4.2-3.5-10.2-2.6-15.4c-3.2,2.5-3.2,6.9-2.7,10.6c0.7,4.9,4.7,8.3,7.3,12.2c-3.1-2.3-6-5-7.7-8.5c-1.5-3.3-1.2-7.1-1.7-10.6
		c-2.8,5.3-0.7,11.2,1.5,16.2c-3.2-3.5-4.3-8.1-4.8-12.7c-2.5,3.4-0.8,7.7,1.2,10.9c2,3,4.8,5.3,7,8.1c-5.8-2.8-9.5-8.4-11.5-14.4
		c-2.9,6.6,4.2,11.1,7.1,16.1c-4-3-7.1-7-9.6-11.3c-0.2,2.1-1.3,4.4,0,6.4c2.7,4.2,7.5,6.1,11.6,8.6c-5.5-1-9.7-4.6-13.5-8.4
		c0,3.5,0.2,6.9,0.6,10.4c-3.8,0.1-2.9-4.5-3.1-7c0.5-16.1,13.8-30.7,29.6-33.3c0.5-3.8,1-7.7,2.8-11.1c2.3-5,6.3-9,9.7-13.3
		c3.2-2.2,6.2-4.7,9.2-7.1c-5.1-1.2-10.3-2.1-15.5-2.4c2.4,2.2,4.7,4.6,6.3,7.4c-2.8-2.3-5.2-5.2-8.5-6.8c-1.9-0.6-4-0.3-5.9-0.4
		c3.5,3.3,7.4,6.4,10.2,10.4c-5.7-2.9-9.3-10.3-16.5-9.6c4.6,3.8,9.9,7.2,13,12.5c-6.8-2.6-10.4-11.3-18.5-11.3
		c4.1,2.8,8.5,5.2,11.6,9.3c-5.2-2.9-9.9-7.3-16.2-7.5c2.4,1.6,5.2,2.9,7.1,5.2c-3.9-1.1-7.5-4.3-11.8-3.1c2.9,1.5,6.1,2.6,8.3,5.1
		c-4.1-1-8-2.9-12.3-3.1c2.5,2,5.5,3.2,8.3,4.6c-0.1,0.2-0.4,0.7-0.6,1c-2.9-1.3-5.9-2.5-9-3.6c-0.8,0.5-1.6,1.1-2.4,1.7
		c2.7,1.3,6.7,1.4,8.1,4.4c-3.4-0.8-6.7-2-10.1-2.8c-0.3,0.3-0.9,1-1.2,1.4c2.8,1,5.6,2.1,8.2,3.6c-3.5-0.2-6.8-1.3-10-2.3
		c-0.3,0.5-0.9,1.4-1.2,1.9c2.7,0.8,5.4,1.6,7.6,3.3c-3.6-0.1-7.2-1.8-10.8-0.8c0.7,1.2,1.4,2.4,2.1,3.6c-0.9-0.1-2.8-0.4-3.8-0.6
		c2.2,0.7,4.3,1.5,6.2,2.8c-2.8-0.1-5.7-1.3-8.3,0c1.9,0.8,4,1.6,5.9,2.5c-2.6,0.4-5.5-0.2-7.8,1.4c1.6,0.6,3.2,1.1,4.7,1.7
		c-1.8,0.3-3.6,0.6-5.4,0.9c0,0.4-0.1,1.3-0.1,1.7c0.6,0.5,1.9,1.5,2.5,2c-0.8-0.1-2.5-0.3-3.4-0.4c-0.5,1.3-0.9,2.7-1.3,4.1
		c0.6,0.1,1.8,0.4,2.4,0.5c-4.5,1.9-3.8,7.3-4.8,11.3c5,0.5,10.6,0.5,14.6,4.1c-4.7-1.8-9.8-2-14.8-2.2c-0.2,1.8-0.3,3.5-0.5,5.3
		c-0.7-0.1-2-0.1-2.6-0.2c1-11.5,3.4-23,8.7-33.4c-4.9-0.9-10-1.2-15-0.9c1.6,1.2,3.2,2.4,4.8,3.7c-3.8-1.7-7.8-3.9-11.9-1.9
		c4.4,2,8.9,3.9,12.2,7.5c-5.4-2.2-10.6-7.5-16.8-5.7c2.1,1.7,4.3,3.3,6.4,5.1c-2.9-0.8-5.6-2.1-8.1-3.6c-1.2,0.8-2.4,1.5-3.5,2.3
		c5.9,1.7,11.7,4.4,15.8,9.1c-6-3.3-11.9-7.1-18.9-7.6c1.3,1.1,2.7,2.3,4,3.5c-1.8-0.4-3.6-0.9-5.4-1.3c-0.9,0.7-1.8,1.5-2.7,2.3
		c1.8,1,3.6,2,5.4,3.1c-3.2-0.4-6.8-1.9-9.5,0.6c2.5,1.1,5,2,7.1,3.9c-2.7-0.5-5.4-1.3-8-2.2c-1.2,1.3-2.3,2.7-3.5,4.1
		c3.1,0.6,6.4,1,9,2.9c-4.3,0.1-9.2-2.4-12.7,1.1c3.6,0.9,7.3,1.4,10.7,2.8c-3.6,0.4-7.1-0.8-10.7-0.7c-0.9,0.6-1.6,1.4-2.4,2.2
		c3.7,0.9,8,0.7,11.2,3.2c-4-0.4-8-1.4-12.1-1.3c-0.9,1.8-1.9,3.7-2.8,5.6c4.2,0.3,8.4,1,12.5,2.3c-4,0.4-8.1-0.4-12.1,0.2
		c-2.4,0.3-2.7,3.3-3.9,5c5.2,0.1,10.9-1,15.6,1.7c2-0.3,4-0.3,5.9,0.4c8.2,2.6,15.7,7.1,21.7,13.1c1.5,1.6,3.1,3.2,3.5,5.4
		c-1.1,0.1-2.1-0.2-2.8-0.9c-2.2-2.2-4.2-4.5-6.5-6.5c2.2,5.8,5.5,11.8,4.3,18.2l-1-0.2c0.4-6.2-2.1-12.1-4.7-17.6
		c-1.9-4.1-6.5-5.5-10.1-7.6c3.2,4.5,5.8,9.6,6.9,15.2c-3-4.3-3.9-9.8-7.6-13.6c-1.9-2.6-5.1-3.4-8-4.3c3.3,4.8,7.2,9.4,9.2,15
		c-4.8-4.5-7.6-10.8-12.5-15.3c-1.6-0.3-3.2-0.5-4.7-0.8c5.1,3.6,9,8.7,11.6,14.4c-0.5-0.2-1.5-0.5-2-0.6
		c-3.6-6.2-8.5-13.9-16.5-13.9c3.1,4.8,7.1,9,9.3,14.3c-3.9-4.4-7.3-9.3-11.1-13.7c-2.2,0.3-4.5,0.6-6.7,0.9
		c4.8,3.3,8.6,7.7,11.3,12.9c-4.3-4.5-8.1-9.7-13.9-12.4c-1.8,0.6-3.5,1.3-5.3,1.9c4.3,3.5,9.1,6.7,12.4,11.3
		c-5.6-2.4-9.1-8.4-15.1-10.2c-3.4,1.1-6.3,3.2-9.4,5c5.5,1.7,10.8,4.1,15.4,7.6c-5.8-2-11.2-5-17.1-6.6c-1,0.8-2,1.6-3,2.5
		c4.9,1.8,10.3,3.2,14.2,6.9c-5.6-1.1-10.5-4.7-16.1-5c-1.4,1.1-2.6,2.3-3.9,3.6c4.9,1.3,10.9,1.5,14.4,5.7
		c-5.3-1.2-10.3-3.4-15.7-4.2c-2,2.5-3.8,5-5.6,7.6c4.9,0.5,9.7,1.6,14.4,3.3l-0.5,1.4c-4.9-1.8-10-3.1-15.3-2.8
		c-0.8,1.7-1.7,3.5-2.6,5.2c4.6,0.8,10.1,0.1,13.9,3.4c-4.9-0.4-9.8-1.3-14.7-1.4c-1.2,2.5-1.1,6.3-4,7.5c-0.7-5.2,3-9.6,4.6-14.3
		c-2.4-0.5-4.7-1-7.1-1.5c-2.2,1.6-4.3,3.2-6.5,4.8c1.3-1.8,2.8-3.5,4.2-5.2c-2.6-0.4-5.3-0.8-7.9-1.2c-1.8,2.6-3.4,5.4-5.2,8.1
		c0.8-3.8,2.2-7.8,5.3-10.3c6.2,0.2,12.3,2.1,18.4,3.2c8.8-14.3,23-25.6,39.6-28.9c1.8-0.7,4.8-0.2,5.3-2.6
		c5.9-16.3,17-30.7,31.1-40.7c9.4-7,21.9-7.8,33.1-5.5c4.6-7,10.6-13.2,18-17.4c15.1-8.9,34.1-10.4,50.7-5c3.6-2.3,7.3-4.4,11.2-6.4
		c-1.9-8.7-1.4-18,2.3-26.2C756.9,980.9,766.4,971.2,777.4,964.5z"/>
	<path class="st0" d="M715,961.6c1.1-0.9,2.7,1,1.4,1.8C715.3,964.3,713.7,962.4,715,961.6z"/>
	<path class="st0" d="M791,962.2c0.5,0.7,0.9,1.3,1.3,2c-1.4,2.4-2.4,5-3.2,7.6c-0.3,0-0.8-0.1-1-0.2
		C788.7,968.4,789.6,965.2,791,962.2z"/>
	<path class="st0" d="M677.3,963.9c1.6-0.5,2.2,0.1,1.6,1.7C677.3,966.1,676.8,965.5,677.3,963.9z"/>
	<path class="st0" d="M150.3,966.3c1.3,0.7,1.3,1.3,0,2C149,967.6,149,967,150.3,966.3z"/>
	<path class="st0" d="M487.9,968c1.4-0.4,1.9,0,1.4,1.4C487.9,969.9,487.4,969.4,487.9,968z"/>
	<path class="st0" d="M607.4,968.1c1.6-0.5,2.2,0,1.7,1.7C607.5,970.3,607,969.7,607.4,968.1z"/>
	<path class="st0" d="M673.6,968c1.4-0.6,1.9-0.1,1.5,1.3C673.8,969.8,673.2,969.4,673.6,968z"/>
	<path class="st0" d="M75.4,982.4c1.5-1.3,2.5,1.4,1.2,2.2C75.1,985.8,74,983.1,75.4,982.4z"/>
	<path class="st0" d="M780,982.2c1.5-1,2.9,1.6,1.8,2.7C780.2,985.8,778.8,983.2,780,982.2z"/>
	<path class="st0" d="M365.1,983.1c1.6-0.6,2.2-0.1,1.8,1.6C365.3,985.3,364.7,984.7,365.1,983.1z"/>
	<path class="st0" d="M70.5,994.1c4.4-2.4,8.2-5.6,12.2-8.6C80.6,990.3,75.6,993.3,70.5,994.1z"/>
	<path class="st0" d="M191.4,986.3c1.6-0.5,2.2,0,1.7,1.7C191.4,988.5,190.9,988,191.4,986.3z"/>
	<path class="st0" d="M774.2,985.5c3.9,3.1,7.8,6.2,12.2,8.7C781.3,993.2,776.3,990.4,774.2,985.5z"/>
	<path class="st0" d="M75.2,997.4c3.5-3.2,7.1-6.4,11.2-8.8C84.3,993.1,79.7,995.8,75.2,997.4z"/>
	<path class="st0" d="M770.1,989.2c1.2,0.2,2.5,0.4,3.3,1.3c2.7,2.3,5.7,4.4,8.3,6.9C777.1,996,773.2,992.9,770.1,989.2z"/>
	<path class="st0" d="M76.9,1002.1c4.7-3.1,8.8-6.8,13.3-10.2C87.5,997,82.3,1000.5,76.9,1002.1z"/>
	<path class="st0" d="M321.3,992.5c1.6-0.5,2.2,0,1.7,1.6C321.4,994.7,320.8,994.2,321.3,992.5z"/>
	<path class="st0" d="M766.5,992.2c2.1,0.3,3.4,2.1,4.9,3.4c2.6,2.5,5.7,4.4,8.6,6.5C774.5,1000.7,769.8,996.8,766.5,992.2z"/>
	<path class="st0" d="M561.1,994.5c1.6-0.5,2.2,0,1.7,1.7C561.2,996.7,560.6,996.1,561.1,994.5z"/>
	<path class="st0" d="M279.8,995c0.7,0.2,2.1,0.6,2.8,0.8c-0.1,1-0.2,2-0.2,3.1c-1-0.3-2.2-0.4-3.1-1
		C279.4,996.9,279.5,995.9,279.8,995z"/>
	<path class="st0" d="M555.2,997.3c1.6-0.5,2.2,2.1,0.7,2.5C554.2,1000.3,553.6,997.7,555.2,997.3z"/>
	<path class="st0" d="M574.7,998.7c0.9,0,1.8,0,2.6,0.1c0.1,1,0.2,2,0.4,3c-1.2,0-2.3,0-3.5,0C574.4,1000.7,574.5,999.7,574.7,998.7
		z"/>
	<path class="st0" d="M584,999.4c1.3-1,2.9,1.2,1.5,2.1C584.2,1002.6,582.6,1000.3,584,999.4z"/>
	<path class="st0" d="M92.8,1003.8c1.7-1,3.1-2.6,5.2-2.4c-3.3,4.5-8.9,6.9-14.4,7C86.7,1006.9,90,1005.8,92.8,1003.8z"/>
	<path class="st0" d="M758.9,1002.3c0.3-0.3,0.8-1,1-1.3c3.8,3.5,8.7,5.3,13.3,7.5C767.8,1008.5,763,1005.6,758.9,1002.3z"/>
	<path class="st0" d="M632.4,1004.4c1.6-0.5,2.2,0,1.7,1.7C632.4,1006.5,631.8,1006,632.4,1004.4z"/>
	<path class="st0" d="M92.7,1009.3c2.4-1.8,4.8-3.7,7.7-4.7C98.5,1007.1,95.7,1008.6,92.7,1009.3z"/>
	<path class="st0" d="M756.5,1004.6c2.9,1.1,5.5,3,7.9,5C761.3,1008.6,758.3,1007.3,756.5,1004.6z"/>
	<path class="st0" d="M374.9,1009.1c1.6-0.5,2.2,0.1,1.6,1.7C374.9,1011.3,374.4,1010.7,374.9,1009.1z"/>
	<path class="st0" d="M641.5,1013.4c1.6-0.5,2.2,0,1.7,1.6C641.6,1015.6,641,1015,641.5,1013.4z"/>
	<path class="st0" d="M594.1,1016.8c1.6-0.5,2.2,0,1.7,1.6C594.1,1018.9,593.6,1018.4,594.1,1016.8z"/>
	<path class="st0" d="M311.4,1024c1.6-0.6,2.2,0,1.7,1.6C311.5,1026.2,310.9,1025.6,311.4,1024z"/>
	<path class="st0" d="M383.9,1026.3c1.6-0.5,2.2,0,1.7,1.7C383.9,1028.5,383.4,1027.9,383.9,1026.3z"/>
	<path class="st0" d="M70.8,1032.4c1.7-2.3,3.7-4.4,6.4-5.5C75.6,1029.2,73.5,1031.3,70.8,1032.4z"/>
	<path class="st0" d="M244.5,1027.1c1-1.7,3.3,0.3,2.2,1.7C245.6,1030.5,243.3,1028.5,244.5,1027.1z"/>
	<path class="st0" d="M779.7,1026.7c2.6,1.3,4.7,3.5,6.4,5.9C783.3,1031.3,781.1,1029.2,779.7,1026.7z"/>
	<path class="st0" d="M91.2,1032.4c1.9-1.9,4.1-4.8,7.2-3.5C96.2,1030.5,93.9,1032.1,91.2,1032.4z"/>
	<path class="st0" d="M563.4,1028.4c2.8-2.8,7.4,1.3,5.5,4.5c-0.6,2.6-3.6,2.1-5.5,1.5C561.9,1032.9,561.6,1029.9,563.4,1028.4z"/>
	<path class="st0" d="M760.1,1027.9c2,1.3,4,2.7,5.8,4.2c-2.6,0.2-4.7-1.4-6.8-2.6C759.3,1029.1,759.9,1028.3,760.1,1027.9z"/>
	<path class="st0" d="M79.6,1029.1c2.8-0.9,1.1,3.1-0.8,2.8C77.2,1031.5,78.6,1029.3,79.6,1029.1z"/>
	<path class="st0" d="M775.9,1029.2c1.3-0.8,3.5,1,2.7,2.4C777.3,1032.4,775,1030.7,775.9,1029.2z"/>
	<path class="st0" d="M95.8,1035.1c2.3-2.2,5.1-4.6,8.5-3.7C101.8,1033.2,99,1034.9,95.8,1035.1z"/>
	<path class="st0" d="M752.9,1031.4c3.3-1,6,1.7,8,4C758.1,1034.6,755,1033.7,752.9,1031.4z"/>
	<path class="st0" d="M86.3,1036.9c-0.3-1.5,1.7-3.4,3.1-2.8C89.9,1035.6,87.7,1037.3,86.3,1036.9z"/>
	<path class="st0" d="M767.5,1034.1c1.4-0.6,3.4,1.3,3,2.7C769.1,1037.4,767,1035.6,767.5,1034.1z"/>
	<path class="st0" d="M102.2,1037.7c2.5-1.6,5.3-3,8.4-2.9c-2.3,1.9-4.9,3.4-7.7,4.3C102.7,1038.8,102.4,1038.1,102.2,1037.7z"/>
	<path class="st0" d="M746.8,1034.8c3.2,0,6.1,1.7,8.4,3.9C752.1,1038.9,748.4,1037.5,746.8,1034.8z"/>
	<path class="st0" d="M92.8,1037.2c1.4-0.9,1.2,1.2,0.4,1.7c-0.8,0.8-1.6,2.5-2.9,2.2C90.1,1039.4,91.6,1038,92.8,1037.2z"/>
	<path class="st0" d="M105.6,1042.1c1.7-2.5,4.4-4.1,7.3-4.9l0.9,0.9C111.2,1039.8,108.5,1041.2,105.6,1042.1z"/>
	<path class="st0" d="M150.7,1041.7c1.3-2.1,3.1-3.7,5.4-4.7C154.6,1038.9,152.7,1040.5,150.7,1041.7z"/>
	<path class="st0" d="M517.4,1037.8c0.7-0.3,2.1-1,2.8-1.3c0.7,0.8,1.4,1.7,2.1,2.5c-0.3,0.6-1,1.7-1.3,2.3c-1.1,0-2.2,0-3.3,0
		C517.6,1040.1,517.5,1038.9,517.4,1037.8z"/>
	<path class="st0" d="M701.1,1038.3c0.2-0.3,0.7-0.8,0.9-1.1c1.4,1.3,2.9,2.7,4.2,4.1C704.5,1040.4,702.8,1039.3,701.1,1038.3z"/>
	<path class="st0" d="M744.3,1037c2.6,1.3,5.3,2.8,7.2,5.1c-3-0.8-5.7-2.3-8.4-3.6C743.4,1038.1,744,1037.3,744.3,1037z"/>
	<path class="st0" d="M763.1,1037.2c1.3-0.4,2.2,1.2,3,2.1c0.7,0.4,0.9,2.6-0.4,1.7C764.6,1040,762.8,1038.8,763.1,1037.2z"/>
	<path class="st0" d="M92.3,1046.3c2.1-2.7,4.6-5.3,8-6.2C98.3,1042.9,95.2,1044.6,92.3,1046.3z"/>
	<path class="st0" d="M157.6,1040.1c1.4-0.7,1.4,1.2,0.3,1.6c-1,0.6-2.3,1.8-3.5,1.3C154.5,1041.5,156.4,1040.7,157.6,1040.1z"/>
	<path class="st0" d="M530,1041.6c1.4-0.4,2.8-1.8,4.2-0.8c2.1,0.7,1,4.7-1.3,4.1C531.1,1044.9,530.8,1042.8,530,1041.6z"/>
	<path class="st0" d="M697,1039.6c2.7,0.6,4.7,2.4,6.5,4.3C701.1,1042.9,698.9,1041.5,697,1039.6z"/>
	<path class="st0" d="M756.8,1039.9c3.1,1.2,5.6,3.5,7.7,6.1C761.5,1044.5,758.4,1042.9,756.8,1039.9z"/>
	<path class="st0" d="M151.4,1051.3c3.2-4,7.1-7.7,12-9.4C160.1,1045.8,155.7,1048.6,151.4,1051.3z"/>
	<path class="st0" d="M693.5,1041.8c4.7,1.9,8.7,5.4,11.7,9.5C701.2,1048.4,696.5,1045.9,693.5,1041.8z"/>
	<path class="st0" d="M96.4,1048.4c2.1-2.2,4.6-4.3,7.3-5.7C102.3,1045.7,99.2,1047,96.4,1048.4z"/>
	<path class="st0" d="M752.8,1043.1c3,0.9,5.5,3.1,7.6,5.4C757.5,1047.1,754.9,1045.3,752.8,1043.1z"/>
	<path class="st0" d="M158.7,1050.8c2.1-2.7,4.7-5.1,7.8-6.8C164.5,1046.9,161.5,1048.9,158.7,1050.8z"/>
	<path class="st0" d="M690.2,1044.2c3.1,1.3,5.5,3.7,7.6,6.2C695,1048.7,692.3,1046.7,690.2,1044.2z"/>
	<path class="st0" d="M114.1,1051.3c1.6-2.9,5-3.6,7.8-4.8c0.2,0.5,0.7,1.3,0.9,1.8C119.9,1049.3,117.1,1050.5,114.1,1051.3z"/>
	<path class="st0" d="M161.2,1052.9c2.3-2.7,5.1-5.2,8.6-6c0.3,1.5-1.6,1.8-2.5,2.6C165.3,1050.7,163.3,1051.9,161.2,1052.9z"/>
	<path class="st0" d="M686.5,1046.7c3.6,1,6.7,3.4,9.1,6.2C692.3,1051.2,689,1049.5,686.5,1046.7z"/>
	<path class="st0" d="M734,1048.3c0.2-0.5,0.6-1.4,0.9-1.8c2.8,1.2,6,2.1,7.8,4.7C739.8,1050.5,736.9,1049.3,734,1048.3z"/>
	<path class="st0" d="M179,1049.1c-1.2-2.2,3.1-1.4,1.7,0.3C180.2,1049.3,179.4,1049.2,179,1049.1z"/>
	<path class="st0" d="M676.2,1048.2c1.3-0.9,2-0.7,2,0.8C677.1,1049.8,676.4,1049.5,676.2,1048.2z"/>
	<path class="st0" d="M359.7,1051.8c0.9-0.9,2.2-1.2,3.3-1.6c0.4,0.7,1.2,2.2,1.6,2.9c-0.9,0.9-1.9,1.8-2.9,2.8
		C360.8,1054.7,359.1,1053.6,359.7,1051.8z"/>
	<path class="st0" d="M104,1058.2c2.3-2.8,5.1-5.3,8.6-6.5C110.3,1054.5,107.1,1056.3,104,1058.2z"/>
	<path class="st0" d="M166,1057.9c2.8-3.1,6.5-5.4,10.6-6.1C173.8,1054.8,169.9,1056.5,166,1057.9z"/>
	<path class="st0" d="M680.3,1051.7c4.1,1,7.9,3.2,10.9,6.3C687.2,1056.5,683.1,1055,680.3,1051.7z"/>
	<path class="st0" d="M744.4,1051.5c3.2,1.5,6,3.8,8.2,6.5C749.6,1056.3,746.4,1054.5,744.4,1051.5z"/>
	<path class="st0" d="M118.3,1057.1c2.3-2.1,5.2-3.2,8-4.3c0.5,0.4,1.1,0.9,1.6,1.4C124.7,1055.2,121.6,1056.3,118.3,1057.1z"/>
	<path class="st0" d="M376.8,1053.3c1.6-0.7,2.2-0.1,1.8,1.5C377,1055.4,376.4,1054.9,376.8,1053.3z"/>
	<path class="st0" d="M729.4,1054.1c-0.5-1.5,1.5-1.1,2.3-0.8c2.6,0.8,5,2.1,7.2,3.8C735.6,1056.4,732.4,1055.5,729.4,1054.1z"/>
	<path class="st0" d="M170.9,1059.6c1.9-2.6,4.5-4.7,7.6-5.8C176.8,1056.6,173.6,1057.9,170.9,1059.6z"/>
	<path class="st0" d="M466.8,1054.8c1.1-0.4,2.1-0.8,3.2-1.2c0.6,0.3,1.9,1,2.6,1.3c0.1,1.9,0.1,3.7,0,5.6c-2.8,1.2-5.4,0.3-7.2-2.1
		C465.9,1057.2,466.3,1056,466.8,1054.8z"/>
	<path class="st0" d="M677.7,1054.4c3.5-0.2,6.1,2.4,8,5.1C682.9,1057.9,680.2,1056.2,677.7,1054.4z"/>
	<path class="st0" d="M546.9,1057.6c1.6-0.5,2.2,0,1.7,1.7C546.9,1059.7,546.4,1059.2,546.9,1057.6z"/>
	<path class="st0" d="M103.5,1069.4c2.8-5.2,7.5-9.4,12.9-11.7C111.8,1061.2,107.5,1065.2,103.5,1069.4z"/>
	<path class="st0" d="M169,1065.1c3.8-3.2,8-7.4,13.2-7C178,1060.6,173.7,1063.2,169,1065.1z"/>
	<path class="st0" d="M674.5,1057.7c5.1,0.3,9.5,3.6,12.9,7.3C682.9,1062.9,678.5,1060.6,674.5,1057.7z"/>
	<path class="st0" d="M740.7,1057.8c5.4,2.3,9.7,6.7,12.7,11.6C749.3,1065.3,745.2,1061.4,740.7,1057.8z"/>
	<path class="st0" d="M187.9,1059.8c1.9-1.6,1.2,3.1-0.2,1L187.9,1059.8z"/>
	<path class="st0" d="M296.4,1063.5c1.6-0.5,2.2,0,1.7,1.6C296.5,1065.6,296,1065.1,296.4,1063.5z"/>
	<path class="st0" d="M731.9,1064.5c0.5,0.4,1,0.9,1.5,1.4c-3.5,3.7-5.1,8.6-6.3,13.4C726.6,1073.9,729,1069,731.9,1064.5z"/>
	<path class="st0" d="M174.8,1072.2c3.2-3.4,7.5-5.9,12.2-6.4C183.4,1068.7,178.8,1070.1,174.8,1072.2z"/>
	<path class="st0" d="M205.7,1074.9c3.6-4.2,8.8-6.4,13.8-8.7c0.1,0.3,0.3,0.8,0.4,1.1C215.1,1069.7,210.8,1073.2,205.7,1074.9z"/>
	<path class="st0" d="M637.5,1066.3c4.8,2.4,10.3,4.2,13.4,8.9c-4.8-2.3-9.1-5.4-13.8-7.7C637.1,1067.2,637.4,1066.6,637.5,1066.3z"
		/>
	<path class="st0" d="M670.3,1067.2c0.2-0.4,0.6-1.1,0.8-1.5c4,1.5,8,3.3,10.8,6.6C678.2,1070.4,674.5,1068.1,670.3,1067.2z"/>
	<path class="st0" d="M220.7,1071.1c1.5-0.7,1.7,1.2,0.3,1.5c-1.1,0.5-2.4,1.5-3.7,1.1C217.3,1072.1,219.5,1071.5,220.7,1071.1z"/>
	<path class="st0" d="M633.6,1070.7c2.6,0.3,5.1,1.5,6.8,3.4C637.9,1073.5,635.6,1072.3,633.6,1070.7z"/>
	<path class="st0" d="M222.1,1076.1c1.1-0.7,2.4-0.4,3.6-0.2c-5.3,2.9-10.2,6.4-15.7,8.9C213,1080.8,217.5,1078.2,222.1,1076.1z"/>
	<path class="st0" d="M631.5,1075c5.9,1.9,11.7,5.1,15.5,10.1c-4.2-2-8.1-4.8-12.2-7C633.4,1077.4,632.3,1076.3,631.5,1075z"/>
	<path class="st0" d="M218.5,1089.2c3-2.8,6.8-5.1,11-5.4C226.2,1086.2,222.4,1087.8,218.5,1089.2z"/>
	<path class="st0" d="M627.4,1083.7c4.1,0.5,7.9,2.6,11,5.4C634.4,1087.9,630.6,1086.3,627.4,1083.7z"/>
	<path class="st0" d="M428.3,1102c1.7,4.2,3.4,8.4,5,12.7c4.4,1.7,8.9,3.2,13.2,5.1c-4.3,1.7-8.7,3.3-13.1,4.9
		c-1.6,4.4-3.2,8.9-5.1,13.2c-1.8-4.3-3-8.8-5.1-13c-4.3-2.1-9-3.2-13.3-5.2c4.5-1.6,9-3.3,13.5-5
		C425.1,1110.4,426.8,1106.3,428.3,1102z"/>
	<path class="st0" d="M226.8,1115.8c0.5-0.1,1.4-0.3,1.9-0.4c-2.1,4.4-3.2,9.1-4.5,13.8C223.7,1124.5,225.1,1120.1,226.8,1115.8z"/>
	<path class="st0" d="M244.6,1124.4c1.2-3.7,2.8-7.5,6.2-9.7C249,1118.1,246.9,1121.4,244.6,1124.4z"/>
	<path class="st0" d="M606.2,1114.8c3.3,2.1,4.8,6,6,9.5C609.9,1121.4,607.8,1118.2,606.2,1114.8z"/>
	<path class="st0" d="M628.2,1114.7c3.9,3.7,4.6,9.4,4.5,14.5C631.2,1124.3,629.7,1119.5,628.2,1114.7z"/>
	<path class="st0" d="M640.2,1119.5c1.6,0.6,1.5,3.6,0.9,5C639.7,1123.7,639.5,1120.9,640.2,1119.5z"/>
	<path class="st0" d="M256.7,1131.2c4.2-3.2,8.3-7.7,13.8-8.1C266.2,1126.3,261.6,1129.3,256.7,1131.2z"/>
	<path class="st0" d="M586.4,1123c5.5,1,9.9,5,13.9,8.6C595.5,1129.1,590.5,1126.6,586.4,1123z"/>
	<path class="st0" d="M272.1,1133c0.5-1.4,2.4-2.8,3.8-2C276.5,1132.6,273,1134.6,272.1,1133z"/>
	<path class="st0" d="M581.3,1131.2c1-0.8,2.9,0.5,2.3,1.7C582.7,1133.7,580.8,1132.3,581.3,1131.2z"/>
	<path class="st0" d="M53.4,1143.4c2.6-1.1,6.1,1.6,5.3,4.5c-0.3,3.7-6.1,4.4-7.5,1.1C49.8,1147,51.2,1144.1,53.4,1143.4z"/>
	<path class="st0" d="M800.5,1143.5c2.6-1.3,6.2,1.5,5.2,4.4c-0.3,3.1-4.7,4.4-6.7,2.2C796.8,1148.3,797.7,1144.1,800.5,1143.5z"/>
</g>
</svg>
