<?xml version="1.0" encoding="utf-8"?>
<!-- Generator: Adobe Illustrator 26.0.1, SVG Export Plug-In . SVG Version: 6.00 Build 0)  -->
<svg version="1.1" id="图层_1" xmlns="http://www.w3.org/2000/svg" xmlns:xlink="http://www.w3.org/1999/xlink" x="0px" y="0px"
	 viewBox="0 0 1024 1024" style="enable-background:new 0 0 1024 1024;" xml:space="preserve">
<style type="text/css">
	.st0{opacity:0.6;fill:#FFFFFF;enable-background:new    ;}
	.st1{fill:#FFFFFF;}
</style>
<g>
	<path class="st0" d="M436.6,321.9h-29.8V109.1H13.6c-7.5,0-13.6,6.1-13.6,13.6v300l0,0l0,0c0,7.5,6.1,13.6,13.6,13.6h150.1v545.6
		l0,0l0,0c0,7.5,6.1,13.6,13.6,13.6l0,0l0,0h245.6c7.5,0,13.6-6.1,13.6-13.6l0,0l0,0L436.6,321.9L436.6,321.9z"/>
	<path class="st1" d="M696.7,28.3h-94.4l0,0H343.1l0,0c-7.5,0-13.6,6.1-13.6,13.6v859.4l0,0l0,0c0,7.5,6.1,13.6,13.6,13.6l0,0h245.6
		l0,0c7.5,0,13.6-6.1,13.6-13.6V683h94.4c180.8,0,327.3-146.5,327.3-327.3S877.5,28.3,696.7,28.3z"/>
</g>
</svg>
