<?xml version="1.0" encoding="utf-8"?>
<!-- Generator: Adobe Illustrator 26.0.1, SVG Export Plug-In . SVG Version: 6.00 Build 0)  -->
<svg version="1.1" id="圖層_1" xmlns="http://www.w3.org/2000/svg" xmlns:xlink="http://www.w3.org/1999/xlink" x="0px" y="0px"
	 viewBox="0 0 300 185" style="enable-background:new 0 0 300 185;" xml:space="preserve">
<style type="text/css">
	.st0{fill:#FFFFFF;}
</style>
<desc>Created with Sketch.</desc>
<g id="Page-1">
	<g id="walletconnect-logo-alt">
		<path id="WalletConnect" class="st0" d="M61.4,36.3c48.9-47.9,128.2-47.9,177.1,0l5.9,5.8c2.4,2.4,2.4,6.3,0,8.7l-20.1,19.7
			c-1.2,1.2-3.2,1.2-4.4,0l-8.1-7.9c-34.1-33.4-89.4-33.4-123.6,0L79.5,71c-1.2,1.2-3.2,1.2-4.4,0L55,51.3c-2.4-2.4-2.4-6.3,0-8.7
			L61.4,36.3z M280.2,77l17.9,17.5c2.4,2.4,2.4,6.3,0,8.7l-80.8,79.1c-2.4,2.4-6.4,2.4-8.9,0c0,0,0,0,0,0l-57.4-56.2
			c-0.6-0.6-1.6-0.6-2.2,0l0,0l-57.4,56.2c-2.4,2.4-6.4,2.4-8.9,0c0,0,0,0,0,0L1.9,103.2c-2.4-2.4-2.4-6.3,0-8.7L19.8,77
			c2.4-2.4,6.4-2.4,8.9,0L86,133.2c0.6,0.6,1.6,0.6,2.2,0c0,0,0,0,0,0L145.6,77c2.4-2.4,6.4-2.4,8.9,0c0,0,0,0,0,0l57.4,56.2
			c0.6,0.6,1.6,0.6,2.2,0L271.4,77C273.8,74.6,277.8,74.6,280.2,77z"/>
	</g>
</g>
</svg>
