<svg xmlns="http://www.w3.org/2000/svg" version="1.1" width="1200" height="1200" id="astro">
    <defs>
        <radialGradient id="darkLight">
            <stop offset="0%" stop-color="#707070" />
            <stop offset="3%" stop-color="#1b1b1b" />
            <stop offset="8%" stop-color="#000000" />
        </radialGradient>
        <linearGradient id="goldBody" gradientTransform="rotate(60)">
            <stop offset="0%" stop-color="#e3d8ab" />
            <stop offset="100%" stop-color="#ab6e13" />
        </linearGradient>
    </defs>
    <circle cx="300" cy="300" r="1300" fill="url(#darkLight)">
        <animateTransform attributeType="xml" attributeName="transform" type="rotate" from="0 600 600" to="360 600 600" begin="0" dur="5s" repeatCount="indefinite" />
    </circle>
    <g fill="url(#goldBody)" stroke="url(#goldBody)">
        <circle cx="600" cy="600" r="450" stroke-width="15" fill="none">
            <animateTransform attributeType="xml" attributeName="transform" type="rotate" from="0 600 600" to="360 600 600" begin="0" dur="5s" repeatCount="indefinite" />
        </circle>
        <circle cx="600" cy="600" r="430" stroke-width="3" fill="none" />
        <circle cx="600" cy="600" r="420" stroke-width="3" fill="none" />
        <circle cx="600" cy="600" r="410" stroke-width="3" fill="none" />
        <circle cx="600" cy="600" r="400" stroke-width="10" fill="none" stroke-dasharray="1 62">
            <animateTransform attributeType="xml" attributeName="transform" type="rotate" from="0 600 600" to="360 600 600" begin="0" dur="20s" repeatCount="indefinite" />
        </circle>
        <circle cx="0" cy="0" r="800" stroke-width="10" fill="none" stroke-dasharray="15 82" opacity="0.3">
            <animateTransform attributeType="xml" attributeName="transform" type="rotate" from="0 0 0" to="360 0 0" begin="0" dur="40s" repeatCount="indefinite" />
        </circle>
        <circle cx="600" cy="600" r="355" stroke-width="4" fill="none" />
        <circle cx="600" cy="600" r="230" stroke-width="4" fill="none" />
        <line x1="942.9036683326192" y1="691.8807610113948" x2="996.029588778518" y2="706.1158084920335" stroke-width="4" />
        <line x1="942.9036683326192" y1="508.11923898860516" x2="996.029588778518" y2="493.8841915079665" stroke-width="4" />
        <line x1="851.0229073212244" y1="348.97709267877565" x2="889.9137802864846" y2="310.08621971351556" stroke-width="4" />
        <line x1="691.8807610113948" y1="257.09633166738075" x2="706.1158084920335" y2="203.97041122148198" stroke-width="4" />
        <line x1="508.1192389886051" y1="257.09633166738075" x2="493.8841915079664" y2="203.97041122148198" stroke-width="4" />
        <line x1="348.97709267877565" y1="348.97709267877562" x2="310.08621971351556" y2="310.0862197135155" stroke-width="4" />
        <line x1="257.0963316673808" y1="508.11923898860505" x2="203.97041122148204" y2="493.88419150796636" stroke-width="4" />
        <line x1="257.09633166738075" y1="691.8807610113948" x2="203.97041122148198" y2="706.1158084920335" stroke-width="4" />
        <line x1="348.97709267877556" y1="851.0229073212244" x2="310.08621971351545" y2="889.9137802864844" stroke-width="4" />
        <line x1="691.8807610113947" y1="942.9036683326193" x2="706.1158084920334" y2="996.029588778518" stroke-width="4" />
        <line x1="851.0229073212244" y1="851.0229073212245" x2="889.9137802864844" y2="889.9137802864846" stroke-width="4" />
        <line x1="508.11923898860516" y1="942.9036683326192" x2="493.88419150796653" y2="996.029588778518" stroke-width="4" />
        <text font-size="25" transform="translate(990, 635) rotate(-90)" fill="#ac303e" font-weight="bold" stroke="none">ARIES</text>
        <text font-size="25" transform="translate(895, 370) rotate(60)" fill="#e8cc5e" font-weight="bold" stroke="none">TAURUS</text>
        <text font-size="25" transform="translate(750, 255) rotate(30)" fill="#026d49" font-weight="bold" stroke="none">GEMINI</text>
        <text font-size="25" transform="translate(545, 230) rotate(0)" fill="#2478d2" font-weight="bold" stroke="none">CANCER</text>
        <text font-size="25" transform="translate(395, 290) rotate(-30)" fill="#b9353b" font-weight="bold" stroke="none">LEO</text>
        <text font-size="25" transform="translate(260, 445) rotate(-60)" fill="#e4be2f" font-weight="bold" stroke="none">VIRGO</text>
        <text font-size="25" transform="translate(210, 565) rotate(90)" fill="#086e46" font-weight="bold" stroke="none">LIBRA</text>
        <text font-size="25" transform="translate(235, 750) rotate(60)" fill="#1d81d9" font-weight="bold" stroke="none">SCORPIO</text>
        <text font-size="25" transform="translate(335, 895) rotate(30)" fill="#b41718" font-weight="bold" stroke="none">SAGITTARIUS</text>
        <text font-size="25" transform="translate(525, 990) rotate(0)" fill="#cdba52" font-weight="bold" stroke="none">CAPRICORN</text>
        <text font-size="25" transform="translate(740, 970) rotate(-30)" fill="#0e6b4c" font-weight="bold" stroke="none">AQUARIUS</text>
        <text font-size="25" transform="translate(920, 830) rotate(-60)" fill="#2465b7" font-weight="bold" stroke="none">PISCES</text>
        <line x1="662.0948" y1="821.3504" x2="695.8420" y2="941.6496" stroke-width="2.0000" />
        <line x1="400.2164" y1="485.8470" x2="291.6384" y2="423.8074" stroke-width="2.0000" />
        <line x1="377.9053" y1="659.1874" x2="257.2017" y2="691.3544" stroke-width="2.0000" />
        <line x1="487.9004" y1="801.1315" x2="426.9768" y2="910.4422" stroke-width="2.0000" />
        <line x1="715.6738" y1="797.4885" x2="778.5401" y2="904.8192" stroke-width="2.0000" />
        <line x1="762.0603" y1="761.0091" x2="850.1366" y2="848.5141" stroke-width="2.0000" />
        <line x1="798.2627" y1="714.3837" x2="906.0142" y2="776.5488" stroke-width="2.0000" />
        <line x1="823.2162" y1="540.4306" x2="944.5294" y2="508.0559" stroke-width="2.0000" />
        <line x1="711.8241" y1="400.3943" x2="772.5980" y2="291.9130" stroke-width="2.0000" />
        <line x1="538.3409" y1="377.4913" x2="504.8306" y2="256.5626" stroke-width="2.0000" />
        <line x1="484.5337" y1="400.9918" x2="421.7803" y2="292.8352" stroke-width="2.0000" />
        <line x1="436.9899" y1="438.0978" x2="348.3975" y2="350.1075" stroke-width="2.0000" />
        <text text-anchor="middle" x="417.7134" y="343.2884" font-size="30">♃</text>
        <circle cx="394.5659" cy="310.6901" r="3"/>
        <text text-anchor="middle" x="286.8109" y="640.9195" font-size="30">☿</text>
        <circle cx="247.0409" cy="646.1156" r="3"/>
        <text text-anchor="middle" x="316.7845" y="734.5997" font-size="30">☉</text>
        <circle cx="280.8206" cy="751.6918" r="3"/>
        <text text-anchor="middle" x="337.3526" y="770.7306" font-size="30">♀</text>
        <circle cx="287.3378" cy="764.3416" r="3"/>
        <text text-anchor="middle" x="362.2490" y="804.2773" font-size="30">♄</text>
        <circle cx="326.1249" cy="822.9922" r="3"/>
        <text text-anchor="middle" x="550.1387" y="912.5561" font-size="30">♂</text>
        <circle cx="543.8071" cy="952.2457" r="3"/>
        <text text-anchor="middle" x="590.3896" y="916.1746" font-size="30">♇</text>
        <circle cx="578.0992" cy="955.9008" r="3"/>
        <text text-anchor="middle" x="685.0429" y="903.1538" font-size="30">ASC</text>
        <circle cx="695.8420" cy="941.6496" r="3"/>
        <text text-anchor="middle" x="839.3842" y="801.5602" font-size="30">♆</text>
        <circle cx="869.7822" cy="827.1552" r="3"/>
        <text text-anchor="middle" x="889.6911" y="721.4698" font-size="30">☽</text>
        <circle cx="926.4773" cy="736.8946" r="3"/>
        <text text-anchor="middle" x="916.0320" y="608.1786" font-size="25">♅</text>
        <circle cx="956.1630" cy="609.2172" r="3"/>
        <text text-anchor="middle" x="600" y="600" font-size="2.5rem">「Gen 0」</text>
        <text text-anchor="middle" x="600" y="650" font-size="1.5rem">✦ 11.3 ✦</text>
    </g>
</svg>