<!-- Fire: 纯色, 发光
Earth: 非同系颜色渐变
Water: 纯色, 半透明外圈
Wind: 同系颜色渐变, 光圈动画 -->
<svg xmlns="http://www.w3.org/2000/svg" version="1.1" width="1200" height="1200" id="astro">
    <style>
        .f1 {
            animation: fc1 2s 0.14s cubic-bezier(0.5, 0.07, 0.64, 1) infinite;
        }
        
        .f2 {
            animation: fc2 2s 0.28s cubic-bezier(0.5, 0.07, 0.64, 1) infinite;
        }
        
        .f3 {
            animation: fc3 2s 0.42s cubic-bezier(0.5, 0.07, 0.64, 1) infinite;
        }
        
        .f4 {
            animation: fc4 2s 0.56s cubic-bezier(0.5, 0.07, 0.64, 1) infinite;
        }
        
        .f5 {
            animation: fc5 2s 0.7s cubic-bezier(0.5, 0.07, 0.64, 1) infinite;
        }
        
        .f6 {
            animation: fc6 2s 0.84s cubic-bezier(0.5, 0.07, 0.64, 1) infinite;
        }
        
        .f7 {
            animation: fc7 2s 0.98s cubic-bezier(0.5, 0.07, 0.64, 1) infinite;
        }
        
        .f8 {
            animation: fc8 2s 1.12s cubic-bezier(0.5, 0.07, 0.64, 1) infinite;
        }
        
        .f9 {
            animation: fc9 2s 1.26s cubic-bezier(0.5, 0.07, 0.64, 1) infinite;
        }
        
        .f10 {
            animation: fc10 2s 1.4s cubic-bezier(0.5, 0.07, 0.64, 1) infinite;
        }
        
        .f11 {
            animation: fc11 2s 1.54s cubic-bezier(0.5, 0.07, 0.64, 1) infinite;
        }
        
        .f12 {
            animation: fc12 2s 1.68s cubic-bezier(0.5, 0.07, 0.64, 1) infinite;
        }
        
        .f13 {
            animation: fc13 2s 1.82s cubic-bezier(0.5, 0.07, 0.64, 1) infinite;
        }
        
        .f14 {
            animation: fc14 2s 1.96s cubic-bezier(0.5, 0.07, 0.64, 1) infinite;
        }
        
        .f15 {
            animation: fc15 2s 2.1s cubic-bezier(0.5, 0.07, 0.64, 1) infinite;
        }
        
        .r1 {
            animation: fr1 2s 0.5s cubic-bezier(0.5, 0.07, 0.64, 1) infinite;
        }
        
        .r2 {
            animation: fr2 2s 1s cubic-bezier(0.5, 0.07, 0.64, 1) infinite;
        }
        
        .r3 {
            animation: fr3 2s 1.5s cubic-bezier(0.5, 0.07, 0.64, 1) infinite;
        }
        
        .r4 {
            animation: fr4 2s 2s cubic-bezier(0.5, 0.07, 0.64, 1) infinite;
        }
        
        .r5 {
            animation: fr5 1.5s 0.5s cubic-bezier(0.5, 0.07, 0.64, 1) infinite;
        }
        
        .r6 {
            animation: fr6 1.5s 1s cubic-bezier(0.5, 0.07, 0.64, 1) infinite;
        }
        
        .r7 {
            animation: fr7 1.5s 1.5s cubic-bezier(0.5, 0.07, 0.64, 1) infinite;
        }
        
        .r8 {
            animation: fr8 1.5s 2s cubic-bezier(0.5, 0.07, 0.64, 1) infinite;
        }
        
        @keyframes fc1 {
            0% {
                transform: translate(0, 0) scale(1);
            }
        
            100% {
                transform: translate(552px, 350px) scale(0);
            }
        }
        
        @keyframes fc2 {
            0% {
                transform: translate(0, 0) scale(1);
            }
        
            100% {
                transform: translate(652px, 350px) scale(0);
            }
        }
        
        @keyframes fc3 {
            0% {
                transform: translate(0, 0) scale(1);
            }
        
            100% {
                transform: translate(564px, 350px) scale(0);
            }
        }
        
        @keyframes fc4 {
            0% {
                transform: translate(0, 0) scale(1);
            }
        
            100% {
                transform: translate(577px, 350px) scale(0);
            }
        }
        
        @keyframes fc5 {
            0% {
                transform: translate(0, 0) scale(1);
            }
        
            100% {
                transform: translate(679px, 350px) scale(0);
            }
        }
        
        @keyframes fc6 {
            0% {
                transform: translate(0, 0) scale(1);
            }
        
            100% {
                transform: translate(563px, 350px) scale(0);
            }
        }
        
        @keyframes fc7 {
            0% {
                transform: translate(0, 0) scale(1);
            }
        
            100% {
                transform: translate(591px, 350px) scale(0);
            }
        }
        
        @keyframes fc8 {
            0% {
                transform: translate(0, 0) scale(1);
            }
        
            100% {
                transform: translate(668px, 350px) scale(0);
            }
        }
        
        @keyframes fc9 {
            0% {
                transform: translate(0, 0) scale(1);
            }
        
            100% {
                transform: translate(546px, 350px) scale(0);
            }
        }
        
        @keyframes fc10 {
            0% {
                transform: translate(0, 0) scale(1);
            }
        
            100% {
                transform: translate(586px, 350px) scale(0);
            }
        }
        
        @keyframes fc11 {
            0% {
                transform: translate(0, 0) scale(1);
            }
        
            100% {
                transform: translate(604px, 350px) scale(0);
            }
        }
        
        @keyframes fc12 {
            0% {
                transform: translate(0, 0) scale(1);
            }
        
            100% {
                transform: translate(641px, 350px) scale(0);
            }
        }
        
        @keyframes fc13 {
            0% {
                transform: translate(0, 0) scale(1);
            }
        
            100% {
                transform: translate(549px, 350px) scale(0);
            }
        }
        
        @keyframes fc14 {
            0% {
                transform: translate(0, 0) scale(1);
            }
        
            100% {
                transform: translate(638px, 350px) scale(0);
            }
        }
        
        @keyframes fc15 {
            0% {
                transform: translate(0, 0) scale(1);
            }
        
            100% {
                transform: translate(629px, 350px) scale(0);
            }
        }
        
        @keyframes fr1 {
            0% {
                transform: translate(288px, 631px) scale(0.3);
            }
        
            100% {
                transform: translate(0px, -450px) scale(1);
            }
        }
        
        @keyframes fr2 {
            0% {
                transform: translate(264px, 599px) scale(0.3);
            }
        
            100% {
                transform: translate(0px, -450px) scale(1);
            }
        }
        
        @keyframes fr3 {
            0% {
                transform: translate(257px, 576px) scale(0.3);
            }
        
            100% {
                transform: translate(0px, -450px) scale(1);
            }
        }
        
        @keyframes fr4 {
            0% {
                transform: translate(295px, 614px) scale(0.3);
            }
        
            100% {
                transform: translate(0px, -450px) scale(1);
            }
        }
        
        @keyframes fr5 {
            0% {
                transform: translate(585px, 611px) scale(0.3);
            }
        
            100% {
                transform: translate(0px, -450px) scale(1);
            }
        }
        
        @keyframes fr6 {
            0% {
                transform: translate(611px, 601px) scale(0.3);
            }
        
            100% {
                transform: translate(0px, -450px) scale(1);
            }
        }
        
        @keyframes fr7 {
            0% {
                transform: translate(607px, 591px) scale(0.3);
            }
        
            100% {
                transform: translate(0px, -450px) scale(1);
            }
        }
        
        @keyframes fr8 {
            0% {
                transform: translate(597px, 626px) scale(0.3);
            }
        
            100% {
                transform: translate(0px, -450px) scale(1);
            }
        }
    </style>
    <defs>
        <radialGradient id="darkLight">
            <stop offset="0%" stop-color="#484848" />
            <stop offset="3%" stop-color="#1b1b1b" />
            <stop offset="8%" stop-color="#000000" />
        </radialGradient>
        <linearGradient id="goldBody" gradientTransform="rotate(60)">
            <stop offset="0%" stop-color="#e3d8ab" />
            <stop offset="100%" stop-color="#ab6e13" />
        </linearGradient>
        <filter id="light0">
            <feDropShadow dx="0" dy="0" stdDeviation="2" flood-color="#e37da2" />
        </filter>
        <filter id="light1">
            <feDropShadow dx="0" dy="0" stdDeviation="2" flood-color="#e37da2" />
        </filter>
        <filter id="light2">
            <feGaussianBlur in="SourceGraphic" stdDeviation="1" />
            <feDropShadow dx="0" dy="0" stdDeviation="6" flood-color="#e37da2" />
        </filter>
        <filter id="light3">
            <feDropShadow dx="0" dy="0" stdDeviation="10" flood-color="#e37da2" />
        </filter>
        <filter id="light4">
            <feGaussianBlur in="SourceGraphic" stdDeviation="1" />
            <feDropShadow dx="0" dy="0" stdDeviation="40" flood-color="#e37da2" />
        </filter>
        <filter id="goo">
            <feGaussianBlur in="SourceGraphic" stdDeviation="10" result="blur" />
            <feColorMatrix in="blur" mode="matrix" values="1 0 0 0 0  0 1 0 0 0  0 0 1 0 0  0 0 0 18 -8" result="goo" />
            <feBlend in="SourceGraphic" in2="goo" />
        </filter>
        <clipPath id="centerCut">
            <circle cy="600" cx="600" r="140" stroke-width="120" />
        </clipPath>
        <clipPath id="lineCut1">
            <circle cx="600" cy="600" r="408" stroke-width="10" />
        </clipPath>
        <clipPath id="lineCut2">
            <circle cx="600" cy="600" r="408" stroke-width="10" />
        </clipPath>
    </defs>
    <!-- <circle cx="300" cy="300" r="1300" fill="url(#darkLight)">
        <animateTransform attributeType="xml" attributeName="transform" type="rotate" from="0 600 600" to="360 600 600" begin="0" dur="5s" repeatCount="indefinite" />
    </circle> -->
    <g stroke="#e37da2" stroke-width="4" filter="url(#light0)">
        <rect width="1180" height="1180" x="10" y="10" stroke-width="4" fill="none" rx="18" />
        <line x1="29.999" y1="30" x2="29.999" y2="1170" stroke-linecap="round" stroke-linejoin="round" />
        <line x1="1169.999" y1="30" x2="1169.999" y2="1170" stroke-linecap="round" stroke-linejoin="round" />
        <line x1="600.499" y1="-555.5" x2="600.499" y2="583.5" stroke-linecap="round" stroke-linejoin="round" transform="translate(600.499000, 30.000000) scale(1, -1) rotate(90.000000) translate(-600.499000, -14.000000) " />
        <line x1="599.999" y1="600" x2="599.999" y2="1740" stroke-linecap="round" stroke-linejoin="round" transform="translate(599.999000, 1170.000000) scale(1, -1) rotate(90.000000) translate(-600.999000, -1170.000000) " />
        <g transform="translate(53.499000, 54.000000) rotate(-225.000000) translate(-53.499000, -54.000000) translate(31.999000, 20.000000)">
            <path d="M21.9097997,3.90608266 C26.170933,11.4659076 29.3361359,16.8171723 31.4028127,19.9615071 C32.9627669,22.3348914 34.7148315,24.4510487 36.3239968,26.389261 C38.7190073,29.2740105 41,31.6442511 41,34.0392981 C41,41.2737911 34.4771874,51.5925095 21.975433,65.1048441 C8.85845251,51.5900759 2,41.2762436 2,34.0392981 C2,31.7153744 4.5038242,29.0498098 6.98866431,26.00804 C8.54822997,24.0989273 10.194636,22.0782507 11.5931101,19.9677281 C13.7720223,16.679399 17.2108112,11.3245551 21.9097997,3.90608266 Z" />
            <path d="M21.4337465,24.2580374 C28.7435807,32.3258207 32.6464466,38.4941032 32.6464466,42.8636851 C32.6464466,47.2328868 28.7426179,53.3864682 21.431484,61.425663 C13.7581494,53.3849828 9.64644661,47.2355107 9.64644661,42.8636851 C9.64644661,38.4909332 13.7581469,32.3256763 21.4337465,24.2580374 Z" />
        </g>
        <g transform="translate(1146.499000, 54.000000) scale(-1, 1) rotate(-225.000000) translate(-1146.499000, -54.000000) translate(1124.999000, 20.000000)">
            <path d="M21.9097997,3.90608266 C26.170933,11.4659076 29.3361359,16.8171723 31.4028127,19.9615071 C32.9627669,22.3348914 34.7148315,24.4510487 36.3239968,26.389261 C38.7190073,29.2740105 41,31.6442511 41,34.0392981 C41,41.2737911 34.4771874,51.5925095 21.975433,65.1048441 C8.85845251,51.5900759 2,41.2762436 2,34.0392981 C2,31.7153744 4.5038242,29.0498098 6.98866431,26.00804 C8.54822997,24.0989273 10.194636,22.0782507 11.5931101,19.9677281 C13.7720223,16.679399 17.2108112,11.3245551 21.9097997,3.90608266 Z" />
            <path d="M21.4337465,24.2580374 C28.7435807,32.3258207 32.6464466,38.4941032 32.6464466,42.8636851 C32.6464466,47.2328868 28.7426179,53.3864682 21.431484,61.425663 C13.7581494,53.3849828 9.64644661,47.2355107 9.64644661,42.8636851 C9.64644661,38.4909332 13.7581469,32.3256763 21.4337465,24.2580374 Z" />
        </g>
        <g transform="translate(1146.499000, 1146.000000) scale(-1, -1) rotate(-225.000000) translate(-1146.499000, -1146.000000) translate(1124.999000, 1112.000000)">
            <path d="M21.9097997,3.90608266 C26.170933,11.4659076 29.3361359,16.8171723 31.4028127,19.9615071 C32.9627669,22.3348914 34.7148315,24.4510487 36.3239968,26.389261 C38.7190073,29.2740105 41,31.6442511 41,34.0392981 C41,41.2737911 34.4771874,51.5925095 21.975433,65.1048441 C8.85845251,51.5900759 2,41.2762436 2,34.0392981 C2,31.7153744 4.5038242,29.0498098 6.98866431,26.00804 C8.54822997,24.0989273 10.194636,22.0782507 11.5931101,19.9677281 C13.7720223,16.679399 17.2108112,11.3245551 21.9097997,3.90608266 Z" />
            <path d="M21.4337465,24.2580374 C28.7435807,32.3258207 32.6464466,38.4941032 32.6464466,42.8636851 C32.6464466,47.2328868 28.7426179,53.3864682 21.431484,61.425663 C13.7581494,53.3849828 9.64644661,47.2355107 9.64644661,42.8636851 C9.64644661,38.4909332 13.7581469,32.3256763 21.4337465,24.2580374 Z" />
        </g>
        <g transform="translate(53.499000, 1146.000000) scale(1, -1) rotate(-225.000000) translate(-45.499000, -1138.000000) translate(23.999000, 1104.000000)">
            <path d="M21.9097997,3.90608266 C26.170933,11.4659076 29.3361359,16.8171723 31.4028127,19.9615071 C32.9627669,22.3348914 34.7148315,24.4510487 36.3239968,26.389261 C38.7190073,29.2740105 41,31.6442511 41,34.0392981 C41,41.2737911 34.4771874,51.5925095 21.975433,65.1048441 C8.85845251,51.5900759 2,41.2762436 2,34.0392981 C2,31.7153744 4.5038242,29.0498098 6.98866431,26.00804 C8.54822997,24.0989273 10.194636,22.0782507 11.5931101,19.9677281 C13.7720223,16.679399 17.2108112,11.3245551 21.9097997,3.90608266 Z" />
            <path d="M21.4337465,24.2580374 C28.7435807,32.3258207 32.6464466,38.4941032 32.6464466,42.8636851 C32.6464466,47.2328868 28.7426179,53.3864682 21.431484,61.425663 C13.7581494,53.3849828 9.64644661,47.2355107 9.64644661,42.8636851 C9.64644661,38.4909332 13.7581469,32.3256763 21.4337465,24.2580374 Z" />
        </g>
    </g>

    <circle cy="600" cx="600" r="457" fill="#000" filter="url(#light4)">
        <animate attributeName="opacity" values="0.3;1;0.3" dur="2s" repeatCount="indefinite" filter="url(#light4)" />
    </circle>
    <circle cy="600" cx="600" r="457" fill="#000" filter="url(#light4)">
        <animate attributeName="opacity" values="0.3;1;0.3" dur="2s" repeatCount="indefinite" filter="url(#light4)" />
    </circle>
    <circle cy="600" cx="600" r="457" fill="#000" filter="url(#light4)">
        <animate attributeName="opacity" values="0.3;1;0.3" dur="2s" repeatCount="indefinite" filter="url(#light4)" />
    </circle>
    <g stroke="#e37da2" fill="#e37da2">
        <g filter="url(#light3)">
            <g filter="url(#light2)">
                <line x1="942.9036" y1="691.8807" x2="996.0295" y2="706.1158" stroke-width="1" filter="url(#light0)" />
                <line x1="942.9036" y1="508.1192" x2="996.0295" y2="493.8841" stroke-width="1" filter="url(#light0)" />
                <line x1="851.0229" y1="348.9770" x2="889.9137" y2="310.0862" stroke-width="1" filter="url(#light0)" />
                <line x1="691.8807" y1="257.0963" x2="706.1158" y2="203.9704" stroke-width="1" filter="url(#light0)" />
                <line x1="508.1192" y1="257.0963" x2="493.8841" y2="203.9704" stroke-width="1" filter="url(#light0)" />
                <line x1="348.9770" y1="348.9770" x2="310.0862" y2="310.0862" stroke-width="1" filter="url(#light0)" />
                <line x1="257.0963" y1="508.1192" x2="203.9704" y2="493.8841" stroke-width="1" filter="url(#light0)" />
                <line x1="257.0963" y1="691.8807" x2="203.9704" y2="706.1158" stroke-width="1" filter="url(#light0)" />
                <line x1="348.9770" y1="851.0229" x2="310.0862" y2="889.9137" stroke-width="1" filter="url(#light0)" />
                <line x1="691.8807" y1="942.9036" x2="706.1158" y2="996.0295" stroke-width="1" filter="url(#light0)" />
                <line x1="851.0229" y1="851.0229" x2="889.9137" y2="889.9137" stroke-width="1" filter="url(#light0)" />
                <line x1="508.1192" y1="942.9036" x2="493.8841" y2="996.0295" stroke-width="1" filter="url(#light0)" />
            </g>
            <g>
                <text font-size="25" transform="translate(990, 635) rotate(-90)" fill="#ac303e" font-weight="bold" stroke="none">ARIES</text>
                <text font-size="25" transform="translate(895, 370) rotate(60)" fill="#e8cc5e" font-weight="bold" stroke="none">TAURUS</text>
                <text font-size="25" transform="translate(750, 255) rotate(30)" fill="#026d49" font-weight="bold" stroke="none">GEMINI</text>
                <text font-size="25" transform="translate(545, 230) rotate(0)" fill="#2478d2" font-weight="bold" stroke="none">CANCER</text>
                <text font-size="25" transform="translate(395, 290) rotate(-30)" fill="#ac303e" font-weight="bold" stroke="none">LEO</text>
                <text font-size="25" transform="translate(260, 445) rotate(-60)" fill="#e8cc5e" font-weight="bold" stroke="none">VIRGO</text>
                <text font-size="25" transform="translate(210, 565) rotate(90)" fill="#026d49" font-weight="bold" stroke="none">LIBRA</text>
                <text font-size="25" transform="translate(235, 750) rotate(60)" fill="#1d81d9" font-weight="bold" stroke="none">SCORPIO</text>
                <text font-size="25" transform="translate(335, 895) rotate(30)" fill="#ac303e" font-weight="bold" stroke="none">SAGITTARIUS</text>
                <text font-size="25" transform="translate(525, 990) rotate(0)" fill="#e8cc5e" font-weight="bold" stroke="none">CAPRICORN</text>
                <text font-size="25" transform="translate(740, 970) rotate(-30)" fill="#026d49" font-weight="bold" stroke="none">AQUARIUS</text>
                <text font-size="25" transform="translate(920, 830) rotate(-60)" fill="#2478d2" font-weight="bold" stroke="none">PISCES</text>
            </g>
            <g filter="url(#light2)">
                <line x1="466.3496" y1="786.8886" x2="393.7135" y2="888.4586" stroke-width="1" />
                <line x1="380.3850" y1="529.1732" x2="261.0291" y2="490.6804" stroke-width="1" />
                <line x1="373.8910" y1="643.6122" x2="251.0057" y2="667.3145" stroke-width="1" />
                <line x1="410.6268" y1="728.2764" x2="307.7066" y2="797.9918" stroke-width="1" />
                <line x1="588.6693" y1="830.7212" x2="582.5113" y2="956.1132" stroke-width="1" />
                <line x1="731.9176" y1="786.7464" x2="803.6120" y2="888.2391" stroke-width="1" />
                <line x1="818.3351" y1="671.3864" x2="936.9955" y2="710.1834" stroke-width="1" />
                <line x1="826.9687" y1="556.5167" x2="950.3213" y2="532.8845" stroke-width="1" />
                <line x1="790.8278" y1="471.7997" x2="894.5386" y2="402.1257" stroke-width="1" />
                <line x1="733.8608" y1="414.5159" x2="806.6112" y2="313.7094" stroke-width="1" />
                <line x1="613.7119" y1="369.5141" x2="621.1640" y2="244.2500" stroke-width="1" />
                <line x1="467.9178" y1="411.8313" x2="396.1340" y2="309.5658" stroke-width="1" />
            </g>
            <g filter="url(#light2)">
                <line x1="722.4033" y1="409.1335" x2="510.6838" y2="389.7427" stroke-width="1" stroke="#E3CD6F" />
                <line x1="722.4033" y1="409.1335" x2="372.2778" y2="574.0268" stroke-width="1" stroke="#3069ce" />
                <line x1="722.4033" y1="409.1335" x2="467.5118" y2="785.2635" stroke-width="1" stroke="#3069ce" />
                <line x1="510.6838" y1="389.7427" x2="372.2778" y2="574.0268" stroke-width="1" stroke="#E3CD6F" />
                <line x1="510.6838" y1="389.7427" x2="467.5118" y2="785.2635" stroke-width="1" stroke="#3069ce" />
                <line x1="386.0736" y1="519.4696" x2="614.7903" y2="828.2313" stroke-width="1" stroke="#3069ce" />
                <line x1="377.7435" y1="544.9524" x2="563.6874" y2="826.1955" stroke-width="1" stroke="#b41718" />
                <line x1="372.2778" y1="574.0268" x2="467.5118" y2="785.2635" stroke-width="1" stroke="#E3CD6F" />
                <line x1="372.2778" y1="574.0268" x2="563.6874" y2="826.1955" stroke-width="1" stroke="#b41718" />
                <line x1="372.2778" y1="574.0268" x2="587.4857" y2="828.6578" stroke-width="1" stroke="#b41718" />
                <line x1="405.6730" y1="716.8709" x2="587.4857" y2="828.6578" stroke-width="1" stroke="#E3CD6F" />
                <line x1="405.6730" y1="716.8709" x2="614.7903" y2="828.2313" stroke-width="1" stroke="#E3CD6F" />
                <line x1="467.5118" y1="785.2635" x2="780.3849" y2="737.1161" stroke-width="1" stroke="#b41718" />
                <line x1="563.6874" y1="826.1955" x2="780.3849" y2="737.1161" stroke-width="1" stroke="#E3CD6F" />
                <line x1="587.4857" y1="828.6578" x2="780.3849" y2="737.1161" stroke-width="1" stroke="#E3CD6F" />
            </g>
        </g>
        <g filter="url(#light2)">
            <circle cx="600" cy="600" r="450" stroke-width="15" fill="none">
                <animate attributeName="opacity" values="0.5;1;0.5" dur="2s" repeatCount="indefinite" filter="url(#light2)" />
            </circle>
            <circle cx="600" cy="600" r="450" stroke-width="15" fill="none" />
            <circle cx="600" cy="600" r="430" stroke-width="1" fill="none" />
            <circle cx="600" cy="600" r="420" stroke-width="1" fill="none" />
            <circle cx="600" cy="600" r="410" stroke-width="1" fill="none" />
            <circle cx="600" cy="600" r="400" stroke-width="10" fill="none" stroke-dasharray="1 62">
                <animateTransform attributeType="xml" attributeName="transform" type="rotate" from="0 600 600" to="360 600 600" begin="0" dur="60s" repeatCount="indefinite" />
            </circle>
            <circle cx="600" cy="600" r="355" stroke-width="2" fill="none" />
            <circle cx="600" cy="600" r="230" stroke-width="2" fill="none" />
        </g>
        <g filter="url(#goo)" clip-path="url(#centerCut)" stroke="none" transform="translate(240, 240) scale(0.6)">
            <circle cy="600" cx="600" r="200" fill="black" />
            <circle class="f1" cy="753" cx="579" r="80" fill="#89d7f3" />
            <circle class="f2" cy="751" cx="622" r="80" fill="#89d7f3" />
            <circle class="f3" cy="770" cx="648" r="80" fill="#89d7f3" />
            <circle class="f4" cy="755" cx="614" r="80" fill="#89d7f3" />
            <circle class="f5" cy="744" cx="591" r="80" fill="#89d7f3" />
            <circle class="f6" cy="748" cx="572" r="80" fill="#89d7f3" />
            <circle class="f7" cy="746" cx="651" r="80" fill="#89d7f3" />
            <circle class="f8" cy="751" cx="604" r="80" fill="#89d7f3" />
            <circle class="f9" cy="734" cx="595" r="80" fill="#89d7f3" />
            <circle class="f10" cy="743" cx="569" r="80" fill="#89d7f3" />
            <circle class="f11" cy="758" cx="559" r="80" fill="#89d7f3" />
            <circle class="f12" cy="731" cx="632" r="80" fill="#89d7f3" />
            <circle class="f13" cy="737" cx="585" r="80" fill="#89d7f3" />
            <circle class="f14" cy="760" cx="616" r="80" fill="#89d7f3" />
            <circle class="f15" cy="752" cx="630" r="80" fill="#89d7f3" />
            <circle class="r1" cy="850" cx="600" r="90" fill="black" />
            <circle class="r2" cy="850" cx="600" r="80" fill="black" />
            <circle class="r3" cy="850" cx="600" r="80" fill="black" />
            <circle class="r4" cy="850" cx="600" r="70" fill="black" />
            <circle class="r5" cy="850" cx="600" r="60" fill="black" />
            <circle class="r6" cy="850" cx="600" r="80" fill="black" />
            <circle class="r7" cy="850" cx="600" r="70" fill="black" />
            <circle class="r8" cy="850" cx="600" r="80" fill="black" />
        </g>
        <g filter="url(#light2)">
            <circle cy="600" cx="600" r="85" fill="none" stroke-width="8" />
            <circle cy="600" cx="600" r="95" fill="none" stroke-width="2" />
            <text text-anchor="middle" x="769.1099" y="336.3029" font-size="30">♂</text>
            <circle cx="790.5841" cy="302.8175" r="3" fill="#000" />
            <text text-anchor="middle" x="476.6026" y="309.5130" font-size="30">♃</text>
            <circle cx="460.9331" cy="272.6257" r="3" fill="#000" />
            <text text-anchor="middle" x="304.4439" y="488.7409" font-size="30">☿</text>
            <circle cx="266.9129" cy="474.6127" r="3" fill="#000" />
            <text text-anchor="middle" x="292.1739" y="526.9191" font-size="30">♀</text>
            <circle cx="253.9428" cy="514.2900" r="3" fill="#000" />
            <text text-anchor="middle" x="285.3839" y="564.1159" font-size="30">☉</text>
            <circle cx="245.4326" cy="559.5592" r="3" fill="#000" />
            <text text-anchor="middle" x="331.5220" y="761.4663" font-size="30">♇</text>
            <circle cx="297.4296" cy="781.9700" r="3" fill="#000" />
            <text text-anchor="middle" x="416.9571" y="855.9562" font-size="30">ASC</text>
            <circle cx="393.7135" cy="888.4586" r="3" fill="#000" />
            <text text-anchor="middle" x="549.8313" y="912.5070" font-size="30">♅</text>
            <circle cx="543.4607" cy="952.1904" r="3" fill="#000" />
            <text text-anchor="middle" x="590.0786" y="916.1676" font-size="30">♆</text>
            <circle cx="580.5150" cy="956.0243" r="3" fill="#000" />
            <text text-anchor="middle" x="630.4839" y="914.3613" font-size="30">♄</text>
            <circle cx="623.0288" cy="955.3602" r="3" fill="#000" />
            <text text-anchor="middle" x="849.2160" y="789.4368" font-size="25">☽</text>
            <circle cx="880.8625" cy="813.4922" r="3" fill="#000" />
        </g>
        <g filter="drop-shadow(0 1px 1px #000)">
            <text text-anchor="middle" x="600" y="600" font-size="2rem">「Gen 1」</text>
            <text text-anchor="middle" x="600" y="650" font-size="1.5rem">✦ 12.31 ✦</text>
        </g>
    </g>
</svg>