<svg xmlns="http://www.w3.org/2000/svg" version="1.1" width="1200" height="1200" id="astro">
    <defs>
        <radialGradient id="darkLight">
            <stop offset="0%" stop-color="#484848" />
            <stop offset="12%" stop-color="#1b1b1b" />
            <stop offset="50%" stop-color="#000000" />
        </radialGradient>
        <linearGradient id="goldBody" gradientTransform="rotate(60)">
            <stop offset="0%" stop-color="#e3d8ab" />
            <stop offset="100%" stop-color="#ab6e13" />
        </linearGradient>
    </defs>
    <circle cx="300" cy="300" r="1300" fill="url(#darkLight)">
        <animateTransform attributeType="xml" attributeName="transform" type="rotate" from="0 600 600" to="360 600 600" begin="0" dur="5s" repeatCount="indefinite" />
    </circle>
    <rect width="1180" height="1180" x="10" y="10" stroke="#b49d5d" stroke-width="4" fill="none" />
    <g>
        <path d="M30,30 H60 V80 H30 V1120 H60 V1170 H30 V1140 H80 V1170 H1120 V1140 H1170 V1170 H1140 V1120 H1170 V80 H1140 V30 H1170 V60 H1120 V30 H80 V60 H30 V30" stroke="#b49d5d" stroke-width="4" fill="none" />
    </g>
    <g fill="url(#goldBody)" stroke="url(#goldBody)">
        <circle cx="600" cy="600" r="450" stroke-width="15" fill="none">
            <animateTransform attributeType="xml" attributeName="transform" type="rotate" from="0 600 600" to="360 600 600" begin="0" dur="5s" repeatCount="indefinite" />
        </circle>
        <circle cx="600" cy="600" r="430" stroke-width="3" fill="none" />
        <circle cx="600" cy="600" r="420" stroke-width="3" fill="none" />
        <circle cx="600" cy="600" r="410" stroke-width="3" fill="none" />
        <circle cx="600" cy="600" r="400" stroke-width="10" fill="none" stroke-dasharray="1 62">
            <animateTransform attributeType="xml" attributeName="transform" type="rotate" from="0 600 600" to="360 600 600" begin="0" dur="20s" repeatCount="indefinite" />
        </circle>
        <circle cx="0" cy="0" r="800" stroke-width="10" fill="none" stroke-dasharray="15 82" opacity="0.3">
            <animateTransform attributeType="xml" attributeName="transform" type="rotate" from="0 0 0" to="360 0 0" begin="0" dur="40s" repeatCount="indefinite" />
        </circle>
        <circle cx="600" cy="600" r="355" stroke-width="4" fill="none" />
        <circle cx="600" cy="600" r="230" stroke-width="4" fill="none" />
        <line x1="942.9036683326192" y1="691.8807610113948" x2="996.029588778518" y2="706.1158084920335" stroke-width="4" />
        <line x1="942.9036683326192" y1="508.11923898860516" x2="996.029588778518" y2="493.8841915079665" stroke-width="4" />
        <line x1="851.0229073212244" y1="348.97709267877565" x2="889.9137802864846" y2="310.08621971351556" stroke-width="4" />
        <line x1="691.8807610113948" y1="257.09633166738075" x2="706.1158084920335" y2="203.97041122148198" stroke-width="4" />
        <line x1="508.1192389886051" y1="257.09633166738075" x2="493.8841915079664" y2="203.97041122148198" stroke-width="4" />
        <line x1="348.97709267877565" y1="348.97709267877562" x2="310.08621971351556" y2="310.0862197135155" stroke-width="4" />
        <line x1="257.0963316673808" y1="508.11923898860505" x2="203.97041122148204" y2="493.88419150796636" stroke-width="4" />
        <line x1="257.09633166738075" y1="691.8807610113948" x2="203.97041122148198" y2="706.1158084920335" stroke-width="4" />
        <line x1="348.97709267877556" y1="851.0229073212244" x2="310.08621971351545" y2="889.9137802864844" stroke-width="4" />
        <line x1="691.8807610113947" y1="942.9036683326193" x2="706.1158084920334" y2="996.029588778518" stroke-width="4" />
        <line x1="851.0229073212244" y1="851.0229073212245" x2="889.9137802864844" y2="889.9137802864846" stroke-width="4" />
        <line x1="508.11923898860516" y1="942.9036683326192" x2="493.88419150796653" y2="996.029588778518" stroke-width="4" />
        <text font-size="25" transform="translate(990, 635) rotate(-90)" fill="#ac303e" font-weight="bold" stroke="none">ARIES</text>
        <text font-size="25" transform="translate(895, 370) rotate(60)" fill="#e8cc5e" font-weight="bold" stroke="none">TAURUS</text>
        <text font-size="25" transform="translate(750, 255) rotate(30)" fill="#026d49" font-weight="bold" stroke="none">GEMINI</text>
        <text font-size="25" transform="translate(545, 230) rotate(0)" fill="#2478d2" font-weight="bold" stroke="none">CANCER</text>
        <text font-size="25" transform="translate(395, 290) rotate(-30)" fill="#b9353b" font-weight="bold" stroke="none">LEO</text>
        <text font-size="25" transform="translate(260, 445) rotate(-60)" fill="#e4be2f" font-weight="bold" stroke="none">VIRGO</text>
        <text font-size="25" transform="translate(210, 565) rotate(90)" fill="#086e46" font-weight="bold" stroke="none">LIBRA</text>
        <text font-size="25" transform="translate(235, 750) rotate(60)" fill="#1d81d9" font-weight="bold" stroke="none">SCORPIO</text>
        <text font-size="25" transform="translate(335, 895) rotate(30)" fill="#b41718" font-weight="bold" stroke="none">SAGITTARIUS</text>
        <text font-size="25" transform="translate(525, 990) rotate(0)" fill="#cdba52" font-weight="bold" stroke="none">CAPRICORN</text>
        <text font-size="25" transform="translate(740, 970) rotate(-30)" fill="#0e6b4c" font-weight="bold" stroke="none">AQUARIUS</text>
        <text font-size="25" transform="translate(920, 830) rotate(-60)" fill="#2465b7" font-weight="bold" stroke="none">PISCES</text>
        <line x1="376.1658" y1="652.8618" x2="254.5167" y2="681.5910" stroke-width="2.0000" />
        <line x1="528.1073" y1="381.5293" x2="489.0352" y2="262.7953" stroke-width="2.0000" />
        <line x1="420.3933" y1="456.3287" x2="322.7810" y2="378.2465" stroke-width="2.0000" />
        <line x1="373.6216" y1="559.4132" x2="250.5899" y2="537.3552" stroke-width="2.0000" />
        <line x1="427.5722" y1="752.2122" x2="333.8614" y2="834.9362" stroke-width="2.0000" />
        <line x1="534.9170" y1="820.5936" x2="499.5459" y2="940.4815" stroke-width="2.0000" />
        <line x1="671.8942" y1="818.4700" x2="710.9671" y2="937.2038" stroke-width="2.0000" />
        <line x1="779.6076" y1="743.6699" x2="877.2205" y2="821.7514" stroke-width="2.0000" />
        <line x1="826.3786" y1="640.5851" x2="949.4104" y2="662.6422" stroke-width="2.0000" />
        <line x1="823.8345" y1="547.1397" x2="945.4837" y2="518.4113" stroke-width="2.0000" />
        <line x1="772.4288" y1="447.7890" x2="866.1401" y2="365.0656" stroke-width="2.0000" />
        <line x1="665.0844" y1="379.4067" x2="700.4564" y2="259.5191" stroke-width="2.0000" />
        <text text-anchor="middle" x="759.5949" y="328.4236" font-size="30">♂</text>
        <circle cx="779.8609" cy="293.9377" r="3" fill="#000"/>
        <text text-anchor="middle" x="461.4832" y="317.0920" font-size="30">♃</text>
        <circle cx="443.8937" cy="281.1672" r="3" fill="#000"/>
        <text text-anchor="middle" x="289.1485" y="650.8403" font-size="30">♀</text>
        <circle cx="249.6753" cy="657.2962" r="3" fill="#000"/>
        <text text-anchor="middle" x="298.3515" y="690.7107" font-size="30">☿</text>
        <circle cx="252.0581" cy="670.3560" r="3" fill="#000"/>
        <text text-anchor="middle" x="312.6513" y="729.0502" font-size="30">☉</text>
        <circle cx="253.1360" cy="675.4979" r="3" fill="#000"/>
        <text text-anchor="middle" x="331.8034" y="765.2119" font-size="30">ASC</text>
        <circle cx="254.5167" cy="681.5910" r="3" fill="#000"/>
        <text text-anchor="middle" x="355.4829" y="798.5854" font-size="30">♇</text>
        <circle cx="298.5876" cy="787.5494" r="3" fill="#000"/>
        <text text-anchor="middle" x="383.2894" y="828.6074" font-size="30">☽</text>
        <circle cx="319.4896" cy="817.5742" r="3" fill="#000"/>
        <text text-anchor="middle" x="551.5294" y="911.2288" font-size="30">♅</text>
        <circle cx="545.3745" cy="950.7500" r="3" fill="#000"/>
        <text text-anchor="middle" x="592.2869" y="914.8626" font-size="30">♆</text>
        <circle cx="581.4106" cy="954.4718" r="3" fill="#000"/>
        <text text-anchor="middle" x="633.1745" y="913.2217" font-size="25">♄</text>
        <circle cx="626.8165" cy="953.9499" r="3" fill="#000"/>
        <text text-anchor="middle" x="600" y="600" font-size="2.5rem">「Gen 1」</text>
        <text text-anchor="middle" x="600" y="650" font-size="1.5rem">✦ 12.1 ✦</text>
    </g>
</svg>