<svg xmlns="http://www.w3.org/2000/svg" version="1.1" width="1024" height="1024" id="astro"><circle cx="500" cy="500" r="355" stroke="#000" stroke-width="4" fill="none"/><circle cx="500" cy="500" r="410" stroke="#000" stroke-width="6" fill="none"/><circle cx="500" cy="500" r="345" stroke="#000" stroke-width="2.5" fill="none"/><circle cx="500" cy="500" r="230" stroke="#000" stroke-width="4" fill="none"/><text transform="matrix(1 0 0 1 500 500)" font-size="2.5rem" text-anchor="middle">Gen 1</text><text transform="matrix(1 0 0 1 500 550)" font-size="1.5rem" text-anchor="middle">#2233</text><line x1="842.9036683326192" y1="591.8807610113948" x2="896.029588778518" y2="606.1158084920335" stroke="#000" stroke-width="4" /><line x1="842.9036683326192" y1="408.11923898860516" x2="896.029588778518" y2="393.8841915079665" stroke="#000" stroke-width="4" /><line x1="751.0229073212244" y1="248.97709267877565" x2="789.9137802864846" y2="210.08621971351556" stroke="#000" stroke-width="4" /><line x1="591.8807610113948" y1="157.09633166738075" x2="606.1158084920335" y2="103.97041122148198" stroke="#000" stroke-width="4" /><line x1="408.1192389886051" y1="157.09633166738075" x2="393.8841915079664" y2="103.97041122148198" stroke="#000" stroke-width="4" /><line x1="248.97709267877565" y1="248.97709267877562" x2="210.08621971351556" y2="210.0862197135155" stroke="#000" stroke-width="4" /><line x1="157.0963316673808" y1="408.11923898860505" x2="103.97041122148204" y2="393.88419150796636" stroke="#000" stroke-width="4" /><line x1="157.09633166738075" y1="591.8807610113948" x2="103.97041122148198" y2="606.1158084920335" stroke="#000" stroke-width="4" /><line x1="248.97709267877556" y1="751.0229073212244" x2="210.08621971351545" y2="789.9137802864844" stroke="#000" stroke-width="4" /><line x1="591.8807610113947" y1="842.9036683326193" x2="606.1158084920334" y2="896.029588778518" stroke="#000" stroke-width="4"/><line x1="751.0229073212244" y1="751.0229073212245" x2="789.9137802864844" y2="789.9137802864846" stroke="#000" stroke-width="4"/><line x1="408.11923898860516" y1="842.9036683326192" x2="393.88419150796653" y2="896.029588778518" stroke="#000" stroke-width="4" /><text x="905" y="500" rotate="180" font-size="40">♈</text><text x="850.7402885326976" y="297.5" rotate="150" font-size="40">♉</text><text x="702.5" y="149.2597114673024" rotate="120" font-size="40">♊</text><text x="500" y="95" rotate="90" font-size="40">♋</text><text x="297.5000000000001" y="149.25971146730234" rotate="60" font-size="40">♌</text><text x="149.25971146730234" y="297.5" rotate="30" font-size="40">♍</text><text x="95" y="499.99999999999994" rotate="0" font-size="40">♎</text><text x="149.2597114673024" y="702.5" rotate="-30" font-size="40">♏</text><text x="297.49999999999983" y="850.7402885326976" rotate="-60" font-size="40">♐</text><text x="499.99999999999994" y="905" rotate="-90" font-size="40">♑</text><text x="702.5" y="850.7402885326976" rotate="-120" font-size="40">♒</text><text x="850.7402885326976" y="702.5000000000002" rotate="-150" font-size="40">♓</text><line x1="549.7870" y1="725.6522" x2="573.5982" y2="833.5728" stroke="#000" stroke-width="2.0000" /><line x1="720.6576" y1="568.2044" x2="826.1895" y2="600.8239" stroke="#000" stroke-width="2.0000" /><line x1="645.2385" y1="676.8255" x2="714.7004" y2="761.3942" stroke="#000" stroke-width="2.0000" /><line x1="542.9026" y1="726.2642" x2="563.4213" y2="834.4775" stroke="#000" stroke-width="2.0000" /><line x1="649.0874" y1="674.3252" x2="720.3901" y2="757.6982" stroke="#000" stroke-width="2.0000" /><line x1="719.8194" y1="566.4675" x2="824.9505" y2="598.2563" stroke="#000" stroke-width="2.0000" /><line x1="720.6293" y1="568.2928" x2="826.1477" y2="600.9546" stroke="#000" stroke-width="2.0000" /><line x1="645.3468" y1="676.7380" x2="714.8605" y2="761.2648" stroke="#000" stroke-width="2.0000" /><line x1="542.7760" y1="726.2916" x2="563.2341" y2="834.5180" stroke="#000" stroke-width="2.0000" /><line x1="549.9186" y1="725.6226" x2="573.7928" y2="833.5291" stroke="#000" stroke-width="2.0000" /><line x1="649.0163" y1="674.3882" x2="720.2850" y2="757.7913" stroke="#000" stroke-width="2.0000" /><line x1="719.7906" y1="566.5549" x2="824.9078" y2="598.3855" stroke="#000" stroke-width="2.0000" /><text text-anchor="middle" x="763.9414" y="668.7297" font-size="30">☉</text><circle cx="692.7191" cy="623.1995" r="3" fill="#FFF"/><line x1="692.7191" y1="623.1995" x2="763.9414" y2="668.7297" stroke="#777" stroke-dasharray="2,2" stroke-width="1.0000" /><text text-anchor="middle" x="784.7449" y="636.3411" font-size="30">☽</text><circle cx="707.9090" cy="599.5506" r="3" fill="#FFF"/><line x1="707.9090" y1="599.5506" x2="784.7449" y2="636.3411" stroke="#777" stroke-dasharray="2,2" stroke-width="1.0000" /><text text-anchor="middle" x="543.3733" y="813.5149" font-size="30">☿</text><circle cx="531.6694" cy="728.9156" r="3" fill="#FFF"/><line x1="531.6694" y1="728.9156" x2="543.3733" y2="813.5149" stroke="#777" stroke-dasharray="2,2" stroke-width="1.0000" /><text text-anchor="middle" x="583.0018" y="805.3171" font-size="30">♀</text><circle cx="538.4085" cy="727.8874" r="3" fill="#FFF"/><line x1="538.4085" y1="727.8874" x2="583.0018" y2="805.3171" stroke="#777" stroke-dasharray="2,2" stroke-width="1.0000" /><text text-anchor="middle" x="621.3052" y="791.7467" font-size="30">♂</text><circle cx="544.4460" cy="726.7803" r="3" fill="#FFF"/><line x1="544.4460" y1="726.7803" x2="621.3052" y2="791.7467" stroke="#777" stroke-dasharray="2,2" stroke-width="1.0000" /><text text-anchor="middle" x="657.6662" y="773.0108" font-size="30">♃</text><circle cx="549.7870" cy="725.6522" r="3" fill="#FFF"/><line x1="549.7870" y1="725.6522" x2="657.6662" y2="773.0108" stroke="#777" stroke-dasharray="2,2" stroke-width="1.0000" /><text text-anchor="middle" x="691.4916" y="749.4367" font-size="30">♄</text><circle cx="598.9753" cy="708.1951" r="3" fill="#FFF"/><line x1="598.9753" y1="708.1951" x2="691.4916" y2="749.4367" stroke="#777" stroke-dasharray="2,2" stroke-width="1.0000" /><text text-anchor="middle" x="722.2206" y="721.4794" font-size="30">♅</text><circle cx="620.2225" cy="696.1720" r="3" fill="#FFF"/><line x1="620.2225" y1="696.1720" x2="722.2206" y2="721.4794" stroke="#777" stroke-dasharray="2,2" stroke-width="1.0000" /><text text-anchor="middle" x="811.8716" y="548.7850" font-size="30">♆</text><circle cx="727.7158" cy="535.6208" r="3" fill="#FFF"/><line x1="727.7158" y1="535.6208" x2="811.8716" y2="548.7850" stroke="#777" stroke-dasharray="2,2" stroke-width="1.0000" /><text text-anchor="middle" x="816.0470" y="511.8670" font-size="30">♇</text><circle cx="730.4411" cy="514.3417" r="3" fill="#FFF"/><line x1="730.4411" y1="514.3417" x2="816.0470" y2="511.8670" stroke="#777" stroke-dasharray="2,2" stroke-width="1.0000" /><text text-anchor="middle" x="785.5264" y="520.8213" font-size="15">ASC</text></svg>