<?xml version="1.0" encoding="utf-8"?>
<!-- Generator: Adobe Illustrator 26.0.3, SVG Export Plug-In . SVG Version: 6.00 Build 0)  -->
<svg version="1.1" id="圖層_1" xmlns="http://www.w3.org/2000/svg" xmlns:xlink="http://www.w3.org/1999/xlink" x="0px" y="0px"
	 viewBox="0 0 100 100" style="enable-background:new 0 0 100 100;" xml:space="preserve">
<style type="text/css">
	.st0{fill-rule:evenodd;clip-rule:evenodd;}
	
		.st1{opacity:0.5997;fill-rule:evenodd;clip-rule:evenodd;fill:url(#形状结合_00000117678175918787051520000007518284041532935090_);enable-background:new    ;}
	.st2{fill-rule:evenodd;clip-rule:evenodd;fill:url(#形状结合_00000136403482193911303860000017279272840074142113_);}
	.st3{fill-rule:evenodd;clip-rule:evenodd;fill:url(#形状结合_00000090985767470289733360000007703198635718187954_);}
	.st4{fill:#FFFFFF;}
</style>
<circle class="st0" cx="48.7" cy="51.4" r="31.5"/>
<g id="logo备份">
	<g id="group" transform="translate(0.000000, -1.000000)">
		
			<linearGradient id="形状结合_00000030455088540135003160000017615736058831608192_" gradientUnits="userSpaceOnUse" x1="-243.1734" y1="465.6962" x2="-243.1734" y2="466.6962" gradientTransform="matrix(74.2501 0 0 -71.4331 18104.0996 33351.0508)">
			<stop  offset="0" style="stop-color:#01FFAC;stop-opacity:0.9949"/>
			<stop  offset="0.9997" style="stop-color:#CE07FF;stop-opacity:0.5022"/>
		</linearGradient>
		
			<path id="形状结合" style="opacity:0.5997;fill-rule:evenodd;clip-rule:evenodd;fill:url(#形状结合_00000030455088540135003160000017615736058831608192_);enable-background:new    ;" d="
			M53.2,15l29,21.1c2.8,2.1,4,5.7,2.9,9L74.1,79.3c-1.1,3.3-4.2,5.6-7.7,5.6H30.5c-3.5,0-6.6-2.3-7.7-5.6L11.7,45.2
			c-1.1-3.3,0.1-7,2.9-9l29-21.1C46.5,13,50.4,13,53.2,15z M48.5,20.6C31.1,20.6,17,34.8,17,52.2s14.1,31.5,31.5,31.5
			S80,69.6,80,52.2S65.9,20.6,48.5,20.6z"/>
		
			<linearGradient id="形状结合_00000098192663590104892440000002427582374718725518_" gradientUnits="userSpaceOnUse" x1="-241.9935" y1="466.7681" x2="-241.9935" y2="467.7655" gradientTransform="matrix(71.72 19.2173 18.4883 -68.9991 8766.2412 36941.0391)">
			<stop  offset="0" style="stop-color:#01FFAC;stop-opacity:0.5032"/>
			<stop  offset="0.9997" style="stop-color:#CE07FF"/>
		</linearGradient>
		
			<path id="形状结合_00000166674332201449621400000001525060176690710972_" style="fill-rule:evenodd;clip-rule:evenodd;fill:url(#形状结合_00000098192663590104892440000002427582374718725518_);" d="
			M62.9,17.7l22.6,27.9c2.2,2.7,2.4,6.6,0.5,9.5L66.4,85.2c-1.9,2.9-5.5,4.3-8.9,3.4l-34.7-9.3c-3.4-0.9-5.8-3.9-6-7.4L15,36.1
			c-0.2-3.5,1.9-6.7,5.2-8l33.5-12.9C56.9,14,60.7,15,62.9,17.7z M56.8,21.9C40,17.4,22.8,27.4,18.3,44.2s5.5,34.1,22.3,38.6
			s34.1-5.5,38.6-22.3C83.6,43.7,73.6,26.4,56.8,21.9z"/>
		
			<linearGradient id="形状结合_00000095328321559350812900000009520159246886552237_" gradientUnits="userSpaceOnUse" x1="-241.1208" y1="468.1209" x2="-241.1208" y2="469.1209" gradientTransform="matrix(64.3024 37.125 35.7166 -61.8629 -1182.8704 37991.3555)">
			<stop  offset="0" style="stop-color:#01FFAC;stop-opacity:0.9949"/>
			<stop  offset="1" style="stop-color:#CE07FF;stop-opacity:0.5025"/>
		</linearGradient>
		
			<path id="形状结合_00000169544523951481356480000003857368965531783830_" style="fill-rule:evenodd;clip-rule:evenodd;fill:url(#形状结合_00000095328321559350812900000009520159246886552237_);" d="
			M71.2,22.3l14.6,32.8c1.4,3.2,0.6,7-2,9.3l-26.7,24c-2.6,2.3-6.4,2.7-9.5,1L16.6,71.5c-3-1.8-4.6-5.3-3.9-8.7l7.5-35.1
			c0.7-3.4,3.6-6,7.1-6.4L63,17.5C66.5,17.2,69.8,19.1,71.2,22.3z M64.3,24.8c-15.1-8.7-34.3-3.5-43,11.5s-3.5,34.3,11.5,43
			s34.3,3.5,43-11.5S79.4,33.5,64.3,24.8z"/>
	</g>
	<path id="_x31_Sol" class="st4" d="M36.3,58v-1.7L33.9,56V43.8l-5.3,1v1.6H31V56l-2.4,0.3V58H36.3z M44.2,58.2c1.1,0,2-0.2,2.8-0.5
		s1.4-0.8,1.8-1.4s0.7-1.3,0.7-2.1c0-1.2-0.4-2.1-1.2-2.8s-2-1.3-3.6-1.7c-0.7-0.2-1.3-0.5-1.7-0.7s-0.7-0.4-0.9-0.7
		s-0.3-0.5-0.3-0.8c0-0.4,0.1-0.7,0.3-0.9s0.5-0.5,0.8-0.6s0.8-0.2,1.2-0.2c0.5,0,1,0.1,1.4,0.2s0.8,0.3,1,0.4l0,0l0.4,2h2.1v-3.2
		c-0.6-0.5-1.3-0.9-2.2-1.1s-1.8-0.4-2.9-0.4c-1,0-1.9,0.2-2.6,0.5s-1.3,0.8-1.8,1.4s-0.6,1.3-0.6,2c0,0.8,0.2,1.4,0.6,2
		s0.9,1,1.7,1.4s1.7,0.8,2.8,1.1c0.7,0.2,1.2,0.4,1.5,0.6s0.7,0.5,0.8,0.7s0.2,0.6,0.2,0.9c0,0.4-0.1,0.7-0.3,0.9s-0.5,0.5-0.8,0.6
		S44.7,56,44.2,56c-0.6,0-1.2-0.1-1.7-0.2s-0.9-0.4-1.2-0.6l0,0l-0.3-2h-2.2v3.4c0.8,0.6,1.7,1,2.5,1.2S43.1,58.2,44.2,58.2z
		 M56.7,58.2c1,0,1.9-0.2,2.7-0.7s1.3-1.1,1.7-1.9s0.6-1.7,0.6-2.8l0,0v-0.2c0-1.1-0.2-2-0.6-2.8s-1-1.4-1.7-1.9s-1.6-0.7-2.7-0.7
		c-1,0-1.9,0.2-2.7,0.7s-1.3,1.1-1.7,1.9s-0.6,1.7-0.6,2.8l0,0v0.2c0,1.1,0.2,2,0.6,2.8s1,1.4,1.7,1.9S55.6,58.2,56.7,58.2z
		 M56.7,56c-0.5,0-0.9-0.1-1.2-0.4s-0.6-0.6-0.7-1.1s-0.2-1-0.2-1.7l0,0v-0.2c0-0.6,0.1-1.2,0.2-1.7s0.4-0.9,0.7-1.1
		s0.7-0.4,1.2-0.4c0.5,0,0.9,0.1,1.2,0.4s0.5,0.6,0.7,1.1s0.2,1,0.2,1.7l0,0v0.2c0,0.6-0.1,1.2-0.2,1.7s-0.4,0.9-0.7,1.1
		S57.2,56,56.7,56z M69.2,58v-1.7L67.8,56V42.8h-4.4v1.7l1.5,0.3V56l-1.4,0.3V58H69.2z"/>
</g>
</svg>
