<?xml version="1.0" encoding="UTF-8" ?>
<!DOCTYPE svg PUBLIC "-//W3C//DTD SVG 1.1//EN" "http://www.w3.org/Graphics/SVG/1.1/DTD/svg11.dtd">
<svg width="274pt" height="269pt" viewBox="0 0 274 269" version="1.1" xmlns="http://www.w3.org/2000/svg">
<g id="#00daccff">
<path fill="#00dacc" opacity="1.00" d=" M 129.48 0.00 L 144.52 0.00 C 171.96 1.58 198.89 11.46 220.58 28.38 C 245.54 47.59 263.51 75.69 270.30 106.45 C 277.00 136.52 273.44 168.88 259.75 196.53 C 243.95 229.09 214.63 254.81 180.23 266.09 C 177.70 266.97 174.99 267.49 172.74 269.00 L 172.23 269.00 C 169.57 265.97 164.95 263.55 165.01 259.00 C 166.21 251.79 170.33 245.55 173.10 238.89 C 177.50 228.50 182.11 218.05 184.25 206.91 C 185.07 202.52 187.49 198.70 190.25 195.28 C 200.55 194.73 210.90 194.63 221.13 193.12 C 223.86 192.64 227.18 192.25 228.70 189.56 C 231.68 184.54 230.28 178.44 229.51 173.02 C 231.32 170.70 233.17 168.42 234.88 166.03 C 233.58 164.11 230.77 162.66 231.04 160.05 C 232.26 158.27 233.98 156.88 235.07 155.01 C 234.52 151.82 232.53 149.12 231.52 146.07 C 236.14 143.19 241.95 140.93 243.89 135.34 C 235.12 128.47 225.32 122.02 219.85 112.00 C 218.69 106.52 221.19 101.08 222.95 95.98 C 218.67 88.42 213.92 81.12 209.91 73.42 C 208.16 66.52 204.43 60.39 200.28 54.69 C 197.55 50.94 193.14 48.98 188.91 47.44 C 177.98 43.69 166.37 42.74 154.93 41.84 C 145.30 40.46 135.73 36.78 125.88 38.39 C 117.44 39.79 108.94 42.07 101.63 46.67 C 97.97 48.91 95.05 52.15 91.36 54.35 C 84.00 58.82 78.89 65.94 72.53 71.58 C 69.93 73.99 66.32 74.31 63.02 74.95 C 60.58 75.05 60.04 77.73 59.04 79.44 C 53.74 79.66 50.78 84.30 49.11 88.75 C 46.94 89.20 44.77 89.69 42.61 90.19 C 43.97 90.79 45.33 91.39 46.70 91.99 C 41.84 96.03 36.66 100.18 34.07 106.13 C 32.26 109.90 32.68 114.19 33.42 118.17 C 32.66 118.92 31.91 119.67 31.15 120.42 C 32.27 120.81 33.39 121.19 34.50 121.58 C 32.62 126.31 29.30 130.65 29.55 135.99 C 30.20 135.83 31.51 135.51 32.16 135.35 C 32.79 141.44 33.43 148.35 38.40 152.63 C 41.49 155.74 47.36 156.24 48.43 161.11 C 49.21 166.65 50.70 172.17 53.94 176.83 C 55.86 177.53 58.16 177.74 59.74 179.08 C 64.28 186.45 65.00 196.14 71.94 201.97 C 75.55 205.29 80.82 205.34 84.67 208.22 C 89.12 211.42 94.23 213.53 99.46 215.10 C 100.54 207.71 102.17 200.42 104.26 193.26 C 96.50 186.87 91.76 177.64 88.75 168.22 C 88.21 166.05 87.51 162.71 90.08 161.58 C 92.91 160.82 95.01 163.48 96.37 165.56 C 100.37 172.25 103.95 179.28 105.96 186.84 L 104.35 187.48 C 105.43 187.52 106.51 187.52 107.59 187.50 L 106.34 186.65 C 108.15 181.83 110.08 177.06 112.12 172.34 C 108.90 160.86 107.85 148.91 107.59 137.03 C 107.64 134.25 108.17 129.74 111.92 129.96 C 114.22 131.09 114.86 133.80 115.47 136.07 C 117.18 144.66 117.89 153.46 117.35 162.21 C 120.08 156.53 123.55 151.26 126.97 145.99 C 125.81 135.99 125.89 125.80 127.28 115.83 C 127.92 110.76 130.51 106.17 134.11 102.60 C 134.93 103.61 136.45 104.35 136.44 105.85 C 137.60 116.70 136.43 127.82 132.68 138.09 C 136.28 133.57 139.96 129.13 143.94 124.94 C 146.39 122.83 145.71 119.28 146.59 116.47 C 149.88 102.60 158.05 90.17 168.32 80.43 C 169.05 81.87 169.73 83.40 169.13 85.02 C 167.11 95.51 161.69 104.91 155.60 113.54 C 164.85 104.94 174.50 96.44 185.95 90.89 C 189.44 89.30 193.08 87.84 196.92 87.43 C 198.29 87.03 199.34 88.04 200.43 88.67 C 188.04 101.49 170.89 107.76 156.56 117.96 C 166.10 114.96 176.04 113.17 186.06 113.25 C 187.58 112.99 188.38 114.41 189.31 115.32 C 177.98 123.25 163.59 126.76 149.91 124.47 C 144.56 130.14 139.26 135.88 134.60 142.13 C 145.28 136.96 157.15 134.57 168.99 134.76 C 169.22 135.30 169.69 136.36 169.92 136.89 C 158.61 145.91 143.87 150.44 129.44 149.02 C 125.25 155.28 121.32 161.72 117.97 168.48 C 128.75 164.94 139.96 162.99 151.23 161.81 C 151.47 162.35 151.97 163.43 152.21 163.97 C 142.65 173.37 128.32 174.84 115.62 173.21 C 112.68 179.55 110.10 186.05 107.81 192.65 C 116.27 188.34 124.58 183.13 134.12 181.61 C 136.44 181.34 140.01 181.07 140.73 183.97 C 139.27 188.66 134.74 191.35 130.55 193.31 C 122.92 196.42 114.47 198.90 106.19 197.31 C 104.07 203.94 102.39 210.69 100.50 217.37 C 97.43 226.89 93.76 236.26 88.87 244.99 C 85.94 250.39 81.46 254.69 78.18 259.86 C 50.62 246.67 27.63 224.08 14.27 196.57 C 0.58 168.95 -3.00 136.62 3.67 106.57 C 10.34 76.23 27.88 48.46 52.29 29.26 C 74.17 11.81 101.56 1.59 129.48 0.00 Z" />
</g>
</svg>
