<?xml version="1.0" encoding="UTF-8" ?>
<!DOCTYPE svg PUBLIC "-//W3C//DTD SVG 1.1//EN" "http://www.w3.org/Graphics/SVG/1.1/DTD/svg11.dtd">
<svg width="256pt" height="256pt" viewBox="0 0 256 256" version="1.1" xmlns="http://www.w3.org/2000/svg">
<g id="#5452ffff">
<path fill="#5452ff" opacity="1.00" d=" M 120.60 0.00 L 135.39 0.00 C 159.23 1.85 182.82 9.58 202.18 23.80 C 225.81 40.64 243.64 65.62 251.31 93.65 C 253.87 102.43 255.03 111.54 256.00 120.61 L 256.00 134.40 C 254.99 146.98 252.81 159.53 248.42 171.40 C 238.07 200.34 216.74 225.12 189.87 239.97 C 193.64 230.77 196.62 221.01 195.90 210.94 C 195.29 197.99 189.58 185.57 181.24 175.77 C 162.36 154.07 135.78 141.79 112.88 125.11 C 110.18 123.05 107.23 120.59 106.80 116.99 C 105.97 110.39 108.46 103.97 111.03 98.02 C 114.21 91.33 117.45 84.56 122.14 78.77 C 120.24 85.04 116.64 91.23 117.76 98.00 C 118.51 103.67 123.51 107.57 128.57 109.42 C 137.37 112.77 146.98 111.25 156.11 112.77 C 164.94 114.00 173.27 118.15 179.75 124.25 C 182.28 126.39 184.94 129.74 188.70 128.61 C 195.33 127.02 201.69 123.10 205.28 117.18 C 199.05 114.49 192.21 113.24 186.38 109.64 C 173.17 102.07 163.67 89.44 157.07 75.97 C 154.04 70.01 152.22 63.53 149.00 57.66 C 129.68 56.51 109.84 62.46 94.84 74.80 C 87.98 80.64 81.47 87.13 76.98 95.01 C 70.26 106.41 64.87 119.45 66.16 132.94 C 66.91 142.35 71.93 150.91 78.53 157.45 C 84.70 163.55 92.42 167.68 99.71 172.23 C 112.27 179.77 124.39 188.04 136.08 196.87 C 142.66 201.89 149.40 206.90 154.50 213.50 C 160.09 220.46 164.67 228.87 164.71 238.01 C 164.76 242.43 163.83 246.76 163.05 251.09 C 154.05 253.77 144.71 255.00 135.39 256.00 L 120.62 256.00 C 113.26 255.20 105.87 254.33 98.67 252.55 C 98.26 247.35 97.79 241.57 101.14 237.14 C 105.24 230.83 112.51 228.10 119.07 225.18 C 113.70 222.86 107.74 222.88 102.00 222.83 C 92.25 222.83 82.25 225.50 74.50 231.57 C 71.35 233.93 69.41 237.43 67.71 240.90 C 39.68 225.80 17.39 200.08 7.05 169.91 C 2.98 158.49 0.98 146.46 0.00 134.40 L 0.00 120.61 C 0.97 111.54 2.12 102.43 4.69 93.65 C 12.36 65.61 30.19 40.63 53.82 23.80 C 73.18 9.59 96.77 1.83 120.60 0.00 M 134.69 42.67 C 130.87 44.83 125.84 44.21 122.47 41.47 C 118.74 38.67 117.45 33.99 115.28 30.07 C 113.78 34.61 112.71 39.32 110.58 43.63 C 108.54 48.05 105.12 52.53 99.94 53.20 C 95.44 54.20 91.72 50.94 88.01 48.98 C 87.06 53.96 86.64 59.10 84.79 63.87 C 82.24 70.51 77.66 76.08 74.59 82.46 C 72.46 86.74 70.94 91.30 69.99 95.99 C 72.40 92.68 74.38 89.10 76.70 85.73 C 82.99 76.78 91.17 69.16 100.58 63.58 C 114.91 55.14 131.71 52.13 148.15 51.95 C 147.58 44.27 147.53 36.57 148.01 28.88 C 144.09 33.91 140.49 39.59 134.69 42.67 M 185.70 51.75 C 176.04 55.57 166.02 58.53 156.58 62.89 C 158.11 66.97 159.96 70.92 162.11 74.71 C 173.07 66.80 184.10 59.00 195.05 51.07 C 196.80 49.78 198.44 48.36 200.05 46.89 C 195.13 48.06 190.44 50.00 185.70 51.75 M 34.98 142.28 C 35.22 147.16 38.54 151.00 41.18 154.84 C 43.23 157.44 45.13 160.47 48.20 161.95 C 52.41 161.80 56.24 159.67 60.33 158.84 C 57.98 161.27 55.44 163.51 52.95 165.80 C 58.80 169.41 65.23 172.08 71.88 173.85 C 74.36 170.44 75.54 166.34 75.99 162.18 C 72.87 158.89 69.28 155.91 67.14 151.83 C 65.52 148.96 64.69 145.74 63.10 142.86 C 60.73 141.39 57.77 141.51 55.08 141.32 C 48.37 141.27 41.59 140.91 34.98 142.28 Z" />
</g>
<g id="#eef3ffff">
<path fill="#eef3ff" opacity="1.00" d=" M 134.69 42.67 C 140.49 39.59 144.09 33.91 148.01 28.88 C 147.53 36.57 147.58 44.27 148.15 51.95 C 131.71 52.13 114.91 55.14 100.58 63.58 C 91.17 69.16 82.99 76.78 76.70 85.73 C 74.38 89.10 72.40 92.68 69.99 95.99 C 70.94 91.30 72.46 86.74 74.59 82.46 C 77.66 76.08 82.24 70.51 84.79 63.87 C 86.64 59.10 87.06 53.96 88.01 48.98 C 91.72 50.94 95.44 54.20 99.94 53.20 C 105.12 52.53 108.54 48.05 110.58 43.63 C 112.71 39.32 113.78 34.61 115.28 30.07 C 117.45 33.99 118.74 38.67 122.47 41.47 C 125.84 44.21 130.87 44.83 134.69 42.67 Z" />
<path fill="#eef3ff" opacity="1.00" d=" M 185.70 51.75 C 190.44 50.00 195.13 48.06 200.05 46.89 C 198.44 48.36 196.80 49.78 195.05 51.07 C 184.10 59.00 173.07 66.80 162.11 74.71 C 159.96 70.92 158.11 66.97 156.58 62.89 C 166.02 58.53 176.04 55.57 185.70 51.75 Z" />
<path fill="#eef3ff" opacity="1.00" d=" M 94.84 74.80 C 109.84 62.46 129.68 56.51 149.00 57.66 C 152.22 63.53 154.04 70.01 157.07 75.97 C 163.67 89.44 173.17 102.07 186.38 109.64 C 192.21 113.24 199.05 114.49 205.28 117.18 C 201.69 123.10 195.33 127.02 188.70 128.61 C 184.94 129.74 182.28 126.39 179.75 124.25 C 173.27 118.15 164.94 114.00 156.11 112.77 C 146.98 111.25 137.37 112.77 128.57 109.42 C 123.51 107.57 118.51 103.67 117.76 98.00 C 116.64 91.23 120.24 85.04 122.14 78.77 C 117.45 84.56 114.21 91.33 111.03 98.02 C 108.46 103.97 105.97 110.39 106.80 116.99 C 107.23 120.59 110.18 123.05 112.88 125.11 C 135.78 141.79 162.36 154.07 181.24 175.77 C 189.58 185.57 195.29 197.99 195.90 210.94 C 196.62 221.01 193.64 230.77 189.87 239.97 C 181.41 244.72 172.37 248.40 163.05 251.09 C 163.83 246.76 164.76 242.43 164.71 238.01 C 164.67 228.87 160.09 220.46 154.50 213.50 C 149.40 206.90 142.66 201.89 136.08 196.87 C 124.39 188.04 112.27 179.77 99.71 172.23 C 92.42 167.68 84.70 163.55 78.53 157.45 C 71.93 150.91 66.91 142.35 66.16 132.94 C 64.87 119.45 70.26 106.41 76.98 95.01 C 81.47 87.13 87.98 80.64 94.84 74.80 Z" />
<path fill="#eef3ff" opacity="1.00" d=" M 34.98 142.28 C 41.59 140.91 48.37 141.27 55.08 141.32 C 57.77 141.51 60.73 141.39 63.10 142.86 C 64.69 145.74 65.52 148.96 67.14 151.83 C 69.28 155.91 72.87 158.89 75.99 162.18 C 75.54 166.34 74.36 170.44 71.88 173.85 C 65.23 172.08 58.80 169.41 52.95 165.80 C 55.44 163.51 57.98 161.27 60.33 158.84 C 56.24 159.67 52.41 161.80 48.20 161.95 C 45.13 160.47 43.23 157.44 41.18 154.84 C 38.54 151.00 35.22 147.16 34.98 142.28 Z" />
<path fill="#eef3ff" opacity="1.00" d=" M 74.50 231.57 C 82.25 225.50 92.25 222.83 102.00 222.83 C 107.74 222.88 113.70 222.86 119.07 225.18 C 112.51 228.10 105.24 230.83 101.14 237.14 C 97.79 241.57 98.26 247.35 98.67 252.55 C 87.90 250.02 77.44 246.16 67.71 240.90 C 69.41 237.43 71.35 233.93 74.50 231.57 Z" />
</g>
</svg>
