<?xml version="1.0" encoding="UTF-8" ?>
<!DOCTYPE svg PUBLIC "-//W3C//DTD SVG 1.1//EN" "http://www.w3.org/Graphics/SVG/1.1/DTD/svg11.dtd">
<svg width="1024pt" height="1024pt" viewBox="0 0 1024 1024" version="1.1" xmlns="http://www.w3.org/2000/svg">
<g id="#cdddffff">
<path fill="#cdddff" opacity="1.00" d=" M 504.79 0.00 L 519.64 0.00 C 595.29 1.15 670.68 19.07 738.49 52.70 C 801.08 83.58 857.18 127.46 902.34 180.67 C 941.52 226.74 972.48 279.80 993.17 336.63 C 1012.85 390.42 1023.12 447.56 1024.00 504.81 L 1024.00 519.01 C 1022.97 594.60 1005.16 669.95 971.66 737.75 C 940.89 800.38 897.10 856.54 843.99 901.79 C 790.56 947.39 727.66 981.87 660.40 1002.16 C 614.41 1016.11 566.43 1023.33 518.39 1024.00 L 505.71 1024.00 C 444.31 1023.21 383.04 1011.50 325.84 989.10 C 268.46 966.72 215.23 933.79 169.48 892.55 C 117.18 845.50 74.67 787.59 45.60 723.51 C 16.33 659.30 0.89 588.94 0.00 518.40 L 0.00 504.99 C 0.70 461.31 6.72 417.69 18.38 375.57 C 37.15 307.31 70.46 243.13 115.27 188.34 C 164.99 127.37 228.90 78.04 300.57 45.56 C 364.52 16.43 434.55 1.02 504.79 0.00 M 207.02 336.36 C 206.98 445.61 207.00 554.86 207.01 664.12 C 301.66 718.75 396.32 773.37 490.99 827.98 C 585.73 773.38 680.40 718.66 775.14 664.06 C 775.15 662.55 773.43 662.26 772.49 661.53 C 678.64 607.48 584.84 553.32 490.99 499.25 C 585.37 444.79 679.83 390.46 774.16 335.91 C 679.80 281.41 585.40 226.98 491.01 172.51 C 396.33 227.11 301.70 281.77 207.02 336.36 Z" />
</g>
<g id="#28293dff">
<path fill="#28293d" opacity="1.00" d=" M 207.02 336.36 C 301.70 281.77 396.33 227.11 491.01 172.51 C 585.40 226.98 679.80 281.41 774.16 335.91 C 679.83 390.46 585.37 444.79 490.99 499.25 C 584.84 553.32 678.64 607.48 772.49 661.53 C 773.43 662.26 775.15 662.55 775.14 664.06 C 680.40 718.66 585.73 773.38 490.99 827.98 C 396.32 773.37 301.66 718.75 207.01 664.12 C 207.00 554.86 206.98 445.61 207.02 336.36 Z" />
</g>
</svg>
