<?xml version="1.0" encoding="UTF-8" ?>
<!DOCTYPE svg PUBLIC "-//W3C//DTD SVG 1.1//EN" "http://www.w3.org/Graphics/SVG/1.1/DTD/svg11.dtd">
<svg width="192pt" height="192pt" viewBox="0 0 192 192" version="1.1" xmlns="http://www.w3.org/2000/svg">
<g id="#ee2a76ff">
<path fill="#ee2a76" opacity="1.00" d=" M 90.58 0.00 L 101.41 0.00 C 119.97 1.31 138.24 7.64 153.16 18.85 C 172.00 32.77 185.54 53.78 190.07 76.79 C 190.89 81.03 191.55 85.32 192.00 89.62 L 192.00 102.38 C 190.18 125.35 180.33 147.66 163.86 163.87 C 147.42 180.55 124.69 190.38 101.40 192.00 L 90.60 192.00 C 67.57 190.34 45.03 180.77 28.68 164.32 C 11.69 147.87 1.63 124.92 0.00 101.40 L 0.00 89.63 C 1.91 66.92 11.45 44.80 27.62 28.62 C 44.10 11.67 67.03 1.51 90.58 0.00 M 73.22 58.62 C 74.10 62.10 74.79 65.62 75.34 69.17 C 70.68 67.58 66.04 65.39 61.02 65.50 C 50.95 65.65 41.09 71.29 36.03 80.02 C 29.71 90.13 30.81 103.84 37.64 113.40 C 45.55 124.20 61.05 129.11 73.46 123.49 C 81.96 120.10 87.48 112.39 92.12 104.89 C 88.14 105.02 82.73 103.06 80.10 107.10 C 77.17 110.90 73.68 114.56 68.95 115.99 C 61.01 118.87 51.48 116.44 45.95 110.04 C 41.72 105.52 39.89 99.09 40.59 92.99 C 41.49 82.51 51.44 73.64 61.97 74.11 C 65.41 74.07 68.45 75.82 71.28 77.56 C 67.05 78.39 62.79 79.01 58.55 79.80 C 58.77 82.51 59.01 85.21 59.25 87.93 C 68.64 87.03 78.01 85.81 87.29 84.11 C 85.66 74.98 83.41 65.98 81.78 56.85 C 78.88 57.18 76.01 57.76 73.22 58.62 M 111.81 68.80 C 103.62 73.01 98.72 81.20 93.83 88.64 C 97.26 88.58 100.92 89.30 104.22 88.12 C 106.97 85.53 108.62 81.99 111.46 79.47 C 118.76 72.84 130.78 72.32 138.61 78.35 C 144.18 82.36 147.40 89.20 147.36 96.01 C 147.18 104.76 141.29 113.16 132.94 115.96 C 127.71 117.96 121.90 117.48 116.72 115.57 C 120.51 113.35 124.83 112.46 129.07 111.55 C 128.62 108.67 127.94 105.83 127.05 103.06 C 118.02 105.56 108.96 107.97 100.07 110.91 C 103.25 119.61 106.45 128.30 109.36 137.10 C 112.15 136.43 114.84 135.44 117.46 134.27 C 116.25 130.88 115.10 127.48 114.03 124.05 C 117.98 124.87 121.96 125.82 126.02 125.74 C 137.20 125.79 148.03 118.85 152.77 108.75 C 155.84 102.65 156.49 95.50 155.09 88.86 C 152.85 79.59 146.09 71.46 137.28 67.76 C 129.17 64.50 119.58 64.67 111.81 68.80 M 54.82 92.28 C 54.75 95.15 54.72 98.02 54.72 100.89 C 80.75 100.64 106.78 101.49 132.80 100.88 C 132.78 98.02 132.78 95.16 132.79 92.29 C 106.80 92.36 80.81 92.36 54.82 92.28 Z" />
</g>
<g id="#fefefeff">
<path fill="#fefefe" opacity="1.00" d=" M 73.22 58.62 C 76.01 57.76 78.88 57.18 81.78 56.85 C 83.41 65.98 85.66 74.98 87.29 84.11 C 78.01 85.81 68.64 87.03 59.25 87.93 C 59.01 85.21 58.77 82.51 58.55 79.80 C 62.79 79.01 67.05 78.39 71.28 77.56 C 68.45 75.82 65.41 74.07 61.97 74.11 C 51.44 73.64 41.49 82.51 40.59 92.99 C 39.89 99.09 41.72 105.52 45.95 110.04 C 51.48 116.44 61.01 118.87 68.95 115.99 C 73.68 114.56 77.17 110.90 80.10 107.10 C 82.73 103.06 88.14 105.02 92.12 104.89 C 87.48 112.39 81.96 120.10 73.46 123.49 C 61.05 129.11 45.55 124.20 37.64 113.40 C 30.81 103.84 29.71 90.13 36.03 80.02 C 41.09 71.29 50.95 65.65 61.02 65.50 C 66.04 65.39 70.68 67.58 75.34 69.17 C 74.79 65.62 74.10 62.10 73.22 58.62 Z" />
<path fill="#fefefe" opacity="1.00" d=" M 111.81 68.80 C 119.58 64.67 129.17 64.50 137.28 67.76 C 146.09 71.46 152.85 79.59 155.09 88.86 C 156.49 95.50 155.84 102.65 152.77 108.75 C 148.03 118.85 137.20 125.79 126.02 125.74 C 121.96 125.82 117.98 124.87 114.03 124.05 C 115.10 127.48 116.25 130.88 117.46 134.27 C 114.84 135.44 112.15 136.43 109.36 137.10 C 106.45 128.30 103.25 119.61 100.07 110.91 C 108.96 107.97 118.02 105.56 127.05 103.06 C 127.94 105.83 128.62 108.67 129.07 111.55 C 124.83 112.46 120.51 113.35 116.72 115.57 C 121.90 117.48 127.71 117.96 132.94 115.96 C 141.29 113.16 147.18 104.76 147.36 96.01 C 147.40 89.20 144.18 82.36 138.61 78.35 C 130.78 72.32 118.76 72.84 111.46 79.47 C 108.62 81.99 106.97 85.53 104.22 88.12 C 100.92 89.30 97.26 88.58 93.83 88.64 C 98.72 81.20 103.62 73.01 111.81 68.80 Z" />
<path fill="#fefefe" opacity="1.00" d=" M 54.82 92.28 C 80.81 92.36 106.80 92.36 132.79 92.29 C 132.78 95.16 132.78 98.02 132.80 100.88 C 106.78 101.49 80.75 100.64 54.72 100.89 C 54.72 98.02 54.75 95.15 54.82 92.28 Z" />
</g>
</svg>
