<?xml version="1.0" encoding="utf-8"?>
<!-- Generator: Adobe Illustrator 26.0.3, SVG Export Plug-In . SVG Version: 6.00 Build 0)  -->
<svg version="1.1" id="YIN_Logo" xmlns="http://www.w3.org/2000/svg" xmlns:xlink="http://www.w3.org/1999/xlink" x="0px" y="0px"
	 viewBox="0 0 77 75.8" style="enable-background:new 0 0 77 75.8;" xml:space="preserve">
<style type="text/css">
	.st0{fill-rule:evenodd;clip-rule:evenodd;}
</style>
<path id="YIN_Words" class="st0" d="M48.1,75.8V61.4l15.2-15.2c4.1-3.3,4.9-9.3,1.6-13.4c-3.3-4.1-9.3-4.9-13.4-1.6
	c-0.7,0.5-1.3,1.2-1.8,1.9L37.5,45.2c0-0.1,0.1-0.2,0.1-0.2c-3.1,3.3-5.5,7.1-7.1,11.3c-1,2.4-1.5,5-1.6,7.7l0,0v11.8
	C8.3,70.4-4.1,49.5,1.2,28.9C6.6,8.3,27.6-4.1,48.1,1.2c20.6,5.3,33,26.3,27.6,46.9C72.3,61.7,61.7,72.3,48.1,75.8z M38.5,1.5
	C18,1.4,1.2,18,1.1,38.5c0,1.4,0.1,2.8,0.2,4.1c2.1,10.2,12,16.7,22.2,14.7c0.4-0.1,0.8-0.2,1.1-0.3L24.6,57l-11-11
	c-0.4-0.3-0.7-0.7-1-1l-0.1-0.1l0,0c-3.4-4-2.9-10.1,1.2-13.5c1.7-1.5,3.9-2.2,6.2-2.2c2.2,0,4.4,0.8,6.2,2.2l0,0l0.1,0.1
	c0.4,0.3,0.7,0.7,1,1L38,43.4c0.4-1.5,0.6-3.1,0.6-4.6c0-10.3,8.3-18.7,18.6-18.7c9.7,0,17.8,7.3,18.6,17
	C74.9,17.1,58.5,1.4,38.5,1.5z M57.2,33.8c2.9,0,5.3,2.4,5.3,5.3c0,2.9-2.4,5.3-5.3,5.3c-2.9,0-5.3-2.4-5.3-5.3
	C51.9,36.2,54.3,33.8,57.2,33.8z M20.1,33.8c2.9,0,5.3,2.4,5.3,5.4s-2.4,5.3-5.4,5.3c-2.9,0-5.3-2.4-5.3-5.3
	C14.7,36.2,17.1,33.8,20.1,33.8C20.1,33.8,20.1,33.8,20.1,33.8z"/>
</svg>
