<?xml version="1.0" encoding="UTF-8" ?>
<!DOCTYPE svg PUBLIC "-//W3C//DTD SVG 1.1//EN" "http://www.w3.org/Graphics/SVG/1.1/DTD/svg11.dtd">
<svg width="440pt" height="128pt" viewBox="0 0 440 128" version="1.1" xmlns="http://www.w3.org/2000/svg">
<g id="#1f47b3ff">
<path fill="#1f47b3" opacity="1.00" d=" M 60.84 0.00 L 65.68 0.00 C 87.93 0.51 109.33 13.48 119.88 33.09 C 127.57 46.93 129.69 63.69 125.88 79.05 C 121.96 95.14 111.44 109.53 97.24 118.06 C 92.44 108.55 87.31 99.18 82.96 89.46 C 90.27 89.56 97.58 89.46 104.89 89.52 C 90.27 59.65 75.35 29.92 60.84 0.00 Z" />
<path fill="#1f47b3" opacity="1.00" d=" M 11.19 28.19 C 20.64 14.12 35.89 3.94 52.64 1.15 C 65.58 28.26 79.36 54.98 92.51 81.99 C 88.04 82.16 83.58 82.38 79.12 82.44 C 71.12 66.24 62.84 50.18 54.80 34.00 C 54.40 33.17 53.88 32.43 53.23 31.77 C 44.65 48.67 35.98 65.53 27.38 82.41 C 26.20 84.79 24.78 87.07 23.98 89.63 C 41.03 89.42 58.09 89.75 75.14 89.46 C 80.96 99.83 85.96 110.66 91.46 121.21 C 78.36 127.59 63.01 129.07 48.87 125.61 C 35.57 122.40 23.42 114.71 14.77 104.11 C 5.76 93.19 0.59 79.19 0.38 65.04 C 0.07 52.03 3.89 38.96 11.19 28.19 Z" />
<path fill="#1f47b3" opacity="1.00" d=" M 155.35 6.25 C 158.59 6.13 161.84 6.17 165.08 6.17 C 170.61 20.40 175.82 34.76 181.20 49.06 C 177.83 49.10 174.46 49.10 171.09 49.06 C 169.85 45.92 169.34 42.44 167.49 39.59 C 162.39 39.97 157.28 39.55 152.18 39.84 C 151.13 42.93 150.01 45.99 148.93 49.07 C 145.67 49.09 142.42 49.10 139.16 49.07 C 144.43 34.75 149.95 20.52 155.35 6.25 M 154.89 32.29 C 158.30 32.37 161.72 32.35 165.13 32.31 C 163.97 27.17 161.58 22.40 160.37 17.26 C 158.27 22.16 156.64 27.25 154.89 32.29 Z" />
<path fill="#1f47b3" opacity="1.00" d=" M 207.86 6.15 C 210.64 6.18 213.43 6.19 216.21 6.13 C 216.63 13.70 216.38 21.30 216.33 28.88 C 219.95 25.33 223.42 21.63 226.96 18.00 C 230.35 18.02 233.74 17.95 237.14 18.04 C 233.65 22.25 229.20 25.53 225.66 29.69 C 229.94 36.12 234.35 42.48 238.41 49.04 C 234.93 49.12 231.45 49.07 227.98 49.10 C 225.06 44.66 222.38 40.07 219.59 35.55 C 218.53 36.48 217.49 37.43 216.46 38.39 C 216.38 41.95 216.42 45.52 216.39 49.08 C 213.51 49.09 210.63 49.09 207.76 49.07 C 207.82 34.77 207.60 20.46 207.86 6.15 Z" />
<path fill="#1f47b3" opacity="1.00" d=" M 245.13 8.99 C 251.25 4.29 260.08 4.16 266.94 7.28 C 271.49 9.27 274.44 14.20 274.07 19.16 C 271.03 19.18 268.00 19.18 264.97 19.14 C 264.48 16.49 263.02 13.77 260.16 13.18 C 256.98 12.86 252.55 12.18 250.67 15.49 C 249.27 17.33 250.33 19.92 252.35 20.73 C 258.57 23.43 265.92 23.44 271.52 27.57 C 276.06 30.84 276.49 37.45 274.29 42.21 C 272.03 46.85 266.90 49.11 262.06 49.91 C 256.65 50.37 250.83 50.30 246.07 47.32 C 241.75 44.79 239.09 39.82 239.38 34.82 C 242.49 34.84 245.60 34.83 248.71 34.84 C 248.59 43.40 261.52 45.17 266.02 39.27 C 266.02 38.41 266.02 36.68 266.02 35.82 C 260.43 29.77 250.56 32.01 244.48 26.53 C 239.14 22.20 239.80 13.07 245.13 8.99 Z" />
<path fill="#1f47b3" opacity="1.00" d=" M 281.99 8.87 C 284.89 8.82 287.80 8.83 290.71 8.80 C 290.90 11.86 290.82 14.93 290.83 17.99 C 292.88 17.99 294.93 17.99 296.99 18.03 C 297.00 20.01 297.00 22.00 296.98 23.98 C 294.93 24.01 292.88 24.01 290.83 24.01 C 290.93 29.97 290.58 35.94 291.06 41.89 C 292.96 42.62 294.99 42.61 297.00 42.49 C 297.01 44.72 297.01 46.96 296.98 49.20 C 293.16 49.64 289.13 49.88 285.46 48.50 C 283.32 47.67 282.02 45.41 282.00 43.17 C 281.98 36.78 282.01 30.39 282.00 24.00 C 280.30 24.00 278.61 24.00 276.93 24.00 C 276.92 22.00 276.92 20.00 276.93 18.00 C 278.61 18.00 280.30 18.00 281.99 18.00 C 282.00 14.96 282.00 11.91 281.99 8.87 Z" />
<path fill="#1f47b3" opacity="1.00" d=" M 327.07 21.13 C 332.38 16.38 341.04 15.69 346.85 19.93 C 351.71 23.55 353.54 30.03 352.97 35.86 C 345.57 35.99 338.18 35.83 330.79 35.95 C 330.76 38.52 331.81 41.17 334.13 42.49 C 337.95 44.26 342.89 43.09 345.00 39.28 C 347.39 39.26 349.78 39.25 352.17 39.20 C 351.77 43.26 348.77 46.87 345.13 48.59 C 339.68 51.00 332.88 50.52 328.00 47.02 C 320.09 40.99 319.93 27.83 327.07 21.13 M 330.80 29.99 C 335.24 30.02 339.68 30.02 344.12 29.99 C 343.83 27.90 342.86 25.83 341.05 24.65 C 336.96 22.34 330.87 24.96 330.80 29.99 Z" />
<path fill="#1f47b3" opacity="1.00" d=" M 361.15 20.11 C 366.34 16.58 373.19 16.49 379.08 18.04 C 382.05 18.71 384.92 20.95 385.49 24.07 C 386.45 32.36 384.71 40.89 386.62 49.09 C 383.63 49.09 380.65 49.10 377.66 49.05 C 377.68 48.36 377.72 46.99 377.74 46.31 C 373.17 50.04 366.48 51.33 361.06 48.76 C 355.22 46.07 354.55 36.40 360.16 33.12 C 364.66 30.50 370.09 31.26 374.94 29.76 C 376.99 29.11 377.79 26.41 376.25 24.84 C 374.06 22.19 370.04 22.86 367.30 24.22 C 366.77 25.44 366.26 26.67 365.77 27.90 C 362.91 27.94 360.05 27.99 357.20 27.71 C 357.63 24.83 358.59 21.80 361.15 20.11 M 368.22 36.33 C 366.22 36.83 364.67 38.84 365.11 40.94 C 367.00 45.30 374.00 44.95 376.02 40.87 C 377.23 38.95 376.96 36.58 377.00 34.41 C 374.15 35.40 371.13 35.61 368.22 36.33 Z" />
<path fill="#1f47b3" opacity="1.00" d=" M 400.43 21.84 C 404.71 15.83 414.96 15.29 419.05 21.75 C 422.92 16.69 430.50 15.68 435.76 19.08 C 438.95 21.28 439.72 25.40 439.74 29.02 C 439.73 35.71 439.78 42.40 439.70 49.08 C 436.80 49.09 433.90 49.08 431.00 49.08 C 430.99 43.03 431.02 36.99 430.98 30.94 C 431.06 28.98 430.36 27.14 429.69 25.34 C 426.70 23.06 421.61 23.99 420.81 28.03 C 419.60 34.95 420.56 42.07 420.24 49.08 C 417.36 49.09 414.48 49.09 411.60 49.08 C 411.41 42.08 411.95 35.05 411.29 28.08 C 411.24 25.07 407.57 23.21 404.96 24.39 C 402.71 25.20 401.09 27.53 401.05 29.90 C 400.94 36.29 401.03 42.68 401.00 49.07 C 398.03 49.09 395.06 49.09 392.09 49.06 C 392.11 38.73 392.04 28.39 392.13 18.06 C 394.89 17.96 397.65 17.99 400.42 17.99 C 400.41 19.28 400.45 20.56 400.43 21.84 Z" />
<path fill="#1f47b3" opacity="1.00" d=" M 183.78 18.00 C 186.52 18.00 189.26 18.00 192.00 18.00 C 192.00 19.63 192.01 21.26 192.04 22.90 C 194.45 18.99 199.35 16.02 203.98 17.54 C 204.02 20.23 204.08 22.92 203.81 25.60 C 200.69 25.14 196.85 25.05 194.65 27.72 C 192.57 29.95 192.54 33.20 192.41 36.06 C 192.38 40.40 192.44 44.73 192.40 49.07 C 189.52 49.09 186.64 49.09 183.76 49.08 C 183.75 38.72 183.72 28.36 183.78 18.00 Z" />
<path fill="#1f47b3" opacity="1.00" d=" M 300.78 18.00 C 303.52 18.00 306.26 18.00 309.00 18.00 C 308.99 19.62 309.01 21.23 309.07 22.85 C 311.50 18.99 316.36 16.02 320.98 17.53 C 321.02 20.22 321.06 22.91 320.84 25.59 C 317.74 25.16 313.92 25.04 311.71 27.66 C 309.58 29.89 309.56 33.16 309.42 36.03 C 309.37 40.38 309.44 44.72 309.40 49.07 C 306.52 49.09 303.64 49.09 300.76 49.08 C 300.76 38.72 300.71 28.36 300.78 18.00 Z" />
<path fill="#1f47b3" opacity="1.00" d=" M 35.50 82.44 C 41.50 70.31 47.28 58.05 53.52 46.04 C 59.46 58.29 65.95 70.28 71.87 82.54 C 59.75 82.41 47.62 82.59 35.50 82.44 Z" />
<path fill="#1f47b3" opacity="1.00" d=" M 151.00 68.63 C 157.28 64.47 165.76 64.02 172.50 67.37 C 177.49 69.95 181.41 75.25 181.29 81.00 C 178.30 80.99 175.31 81.03 172.32 80.94 C 171.21 75.58 165.26 72.14 160.05 73.72 C 155.65 74.56 152.72 78.76 152.00 82.97 C 151.06 88.10 151.25 94.04 154.69 98.26 C 158.15 102.65 165.44 103.43 169.53 99.49 C 171.33 97.59 172.04 95.01 172.47 92.50 C 175.57 92.39 178.68 92.40 181.79 92.43 C 181.52 98.52 178.42 104.75 172.94 107.73 C 163.54 112.83 149.94 109.88 144.79 100.09 C 139.43 90.01 141.10 75.35 151.00 68.63 Z" />
<path fill="#1f47b3" opacity="1.00" d=" M 257.25 66.21 C 260.15 66.05 263.06 66.06 265.97 66.12 C 266.00 68.45 266.10 70.79 265.97 73.12 C 263.35 74.11 260.13 73.19 257.29 73.48 C 257.13 71.06 257.13 68.63 257.25 66.21 Z" />
<path fill="#1f47b3" opacity="1.00" d=" M 328.02 66.12 C 330.94 66.06 333.86 66.04 336.77 66.23 C 336.91 80.48 336.76 94.73 336.85 108.99 C 333.90 109.03 330.95 109.00 328.00 109.00 C 328.02 94.71 327.96 80.41 328.02 66.12 Z" />
<path fill="#1f47b3" opacity="1.00" d=" M 274.76 68.85 C 277.70 68.87 280.66 68.63 283.59 69.09 C 283.45 72.05 283.48 75.01 283.49 77.98 C 285.58 77.96 287.67 77.97 289.76 78.12 C 289.74 80.03 289.73 81.95 289.73 83.86 C 287.62 83.98 285.51 84.04 283.41 84.14 C 283.86 90.06 282.84 96.10 284.04 101.94 C 285.86 102.56 287.79 102.54 289.70 102.42 C 289.73 104.61 289.75 106.80 289.80 108.99 C 284.90 109.72 277.35 110.62 275.07 104.97 C 274.38 98.03 274.91 91.01 274.76 84.04 C 273.04 84.03 271.32 83.99 269.61 83.96 C 269.60 81.97 269.60 79.99 269.62 78.00 C 271.33 77.99 273.05 77.97 274.77 77.96 C 274.73 74.92 274.75 71.89 274.76 68.85 Z" />
<path fill="#1f47b3" opacity="1.00" d=" M 192.07 78.71 C 197.45 76.50 203.63 76.55 209.09 78.46 C 211.23 79.26 213.11 80.90 213.91 83.09 C 215.07 91.67 213.10 100.52 215.21 109.00 C 212.25 108.94 209.28 109.17 206.34 108.90 C 206.20 108.31 205.92 107.13 205.78 106.54 C 201.40 110.29 194.71 111.18 189.52 108.66 C 184.31 106.11 183.39 98.22 187.29 94.15 C 191.88 90.33 198.22 91.36 203.60 89.70 C 205.98 88.81 205.70 86.07 204.78 84.21 C 201.23 81.97 194.85 82.68 194.63 87.80 C 191.74 87.96 188.85 87.94 185.97 87.88 C 185.77 83.89 188.45 80.21 192.07 78.71 M 195.28 97.15 C 193.51 98.00 193.78 100.21 194.11 101.81 C 196.34 104.60 200.88 104.84 203.41 102.33 C 205.79 100.43 205.43 97.13 205.61 94.43 C 202.28 95.78 198.33 95.16 195.28 97.15 Z" />
<path fill="#1f47b3" opacity="1.00" d=" M 229.02 81.20 C 232.19 77.51 237.56 76.07 242.16 77.68 C 248.45 79.25 252.17 85.90 252.13 92.09 C 252.48 97.02 251.65 102.48 247.96 106.09 C 243.22 111.35 233.44 111.62 229.30 105.49 C 229.35 110.33 229.34 115.16 229.30 120.00 C 226.40 120.01 223.51 120.00 220.62 120.00 C 220.59 106.00 220.54 92.00 220.64 78.00 C 223.42 77.99 226.19 77.98 228.97 78.02 C 228.98 78.82 229.01 80.40 229.02 81.20 M 232.50 84.85 C 228.26 88.31 228.17 94.99 230.29 99.66 C 232.36 104.49 240.39 104.49 242.39 99.57 C 243.88 95.63 243.95 90.94 242.02 87.13 C 240.33 83.70 235.54 83.01 232.50 84.85 Z" />
<path fill="#1f47b3" opacity="1.00" d=" M 298.36 79.13 C 303.88 76.45 310.45 76.48 316.20 78.43 C 318.62 79.34 320.88 81.40 321.22 84.08 C 322.00 92.36 320.48 100.82 322.32 109.00 C 319.46 108.99 316.61 109.00 313.76 109.04 C 313.53 108.48 313.08 107.35 312.86 106.78 C 308.27 110.17 301.76 111.24 296.57 108.61 C 291.51 106.03 290.58 98.40 294.30 94.31 C 298.85 90.29 305.32 91.38 310.76 89.71 C 313.20 88.80 312.95 86.05 311.85 84.19 C 308.25 81.89 302.01 82.80 301.67 87.85 C 298.78 87.96 295.88 87.95 293.00 87.79 C 293.17 84.20 295.13 80.80 298.36 79.13 M 301.20 98.34 C 299.40 102.88 305.65 105.43 309.04 103.41 C 312.54 101.90 312.94 97.65 312.84 94.33 C 309.11 96.12 304.03 94.83 301.20 98.34 Z" />
<path fill="#1f47b3" opacity="1.00" d=" M 257.17 78.12 C 260.10 77.91 263.05 78.00 266.00 78.00 C 266.00 88.33 266.00 98.67 266.00 109.00 C 263.05 109.01 260.11 109.01 257.16 109.00 C 257.18 98.71 257.17 88.41 257.17 78.12 Z" />
</g>
</svg>
