<?xml version="1.0" encoding="UTF-8" ?>
<!DOCTYPE svg PUBLIC "-//W3C//DTD SVG 1.1//EN" "http://www.w3.org/Graphics/SVG/1.1/DTD/svg11.dtd">
<svg width="1320pt" height="446pt" viewBox="0 0 1320 446" version="1.1" xmlns="http://www.w3.org/2000/svg">
<g id="#000000ff">
<path fill="#000000" opacity="1.00" d=" M 514.72 172.70 C 539.30 115.19 563.92 57.69 588.46 0.16 C 590.43 0.16 592.40 0.16 594.39 0.16 C 622.43 67.23 650.53 134.28 678.65 201.33 C 683.35 211.73 687.90 222.79 696.37 230.75 C 702.58 236.05 710.84 238.08 718.83 238.53 C 718.83 240.64 718.84 242.75 718.86 244.86 C 687.45 244.81 656.04 244.84 624.63 244.84 C 624.65 242.73 624.65 240.62 624.67 238.52 C 632.02 237.98 640.61 237.74 645.97 231.90 C 649.30 228.50 649.34 223.36 648.49 218.97 C 646.80 210.32 643.17 202.22 639.81 194.12 C 635.68 184.36 631.75 174.52 627.51 164.80 C 596.54 164.88 565.58 164.81 534.61 164.83 C 529.69 176.46 524.69 188.05 519.68 199.64 C 516.63 206.86 513.31 214.18 512.48 222.07 C 511.79 227.44 515.37 232.64 520.23 234.72 C 526.49 237.45 533.43 237.96 540.16 238.53 C 540.15 240.63 540.16 242.73 540.17 244.83 C 515.06 244.84 489.94 244.84 464.83 244.83 C 464.83 242.74 464.84 240.65 464.84 238.56 C 470.79 237.39 476.98 236.36 482.26 233.21 C 488.10 228.96 491.67 222.44 495.22 216.30 C 502.71 202.24 508.30 187.27 514.72 172.70 M 581.70 55.75 C 567.58 87.78 554.01 120.07 540.05 152.17 C 567.52 152.15 595.00 152.18 622.47 152.16 C 609.99 122.11 597.32 92.13 584.81 62.09 C 583.86 59.94 583.20 57.60 581.70 55.75 Z" />
<path fill="#000000" opacity="1.00" d=" M 1015.80 23.91 C 1025.18 12.09 1039.05 4.04 1053.94 1.62 C 1071.09 -1.05 1089.54 1.26 1104.42 10.64 C 1118.01 19.30 1129.09 32.65 1133.14 48.44 C 1136.75 62.73 1134.85 77.96 1129.86 91.69 C 1120.89 115.38 1105.55 136.04 1089.02 154.98 C 1069.54 176.30 1050.22 197.80 1029.69 218.13 C 1055.13 218.10 1080.58 218.44 1106.02 217.80 C 1113.36 217.48 1121.01 217.10 1127.71 213.74 C 1134.47 210.68 1139.61 204.97 1143.31 198.66 C 1145.40 198.65 1147.49 198.65 1149.61 198.63 C 1144.05 214.04 1138.49 229.45 1132.91 244.85 C 1085.85 244.82 1038.79 244.84 991.72 244.84 C 991.73 242.70 991.73 240.56 991.74 238.43 C 1010.93 221.12 1029.49 203.11 1047.28 184.38 C 1065.69 164.36 1083.82 143.41 1095.47 118.60 C 1103.01 102.32 1107.34 83.78 1103.49 65.94 C 1099.37 45.29 1080.55 27.50 1059.00 27.54 C 1044.08 26.83 1028.97 32.86 1018.80 43.82 C 1012.37 50.40 1008.13 58.76 1005.04 67.33 C 1002.90 67.34 1000.76 67.34 998.63 67.34 C 1000.89 51.84 1005.69 36.17 1015.80 23.91 Z" />
<path fill="#000000" opacity="1.00" d=" M 1262.68 1.73 C 1265.15 0.29 1268.09 0.69 1270.84 0.60 C 1270.83 58.40 1270.84 116.20 1270.84 174.00 C 1270.98 189.34 1270.44 204.70 1271.35 220.03 C 1271.56 225.36 1272.58 231.51 1277.59 234.47 C 1284.61 238.63 1293.18 238.04 1301.05 238.53 C 1301.04 240.63 1301.04 242.73 1301.07 244.83 C 1271.09 244.85 1241.12 244.81 1211.14 244.86 C 1211.14 242.72 1211.15 240.60 1211.17 238.47 C 1219.43 238.01 1228.71 238.89 1235.85 233.93 C 1241.90 229.67 1241.18 221.55 1241.68 215.05 C 1242.05 188.02 1241.74 161.00 1241.84 133.97 C 1241.77 108.99 1242.00 84.01 1241.71 59.03 C 1241.33 51.80 1241.51 44.39 1239.42 37.39 C 1238.10 32.84 1233.87 29.28 1229.10 29.08 C 1222.20 28.69 1215.74 31.65 1209.58 34.36 C 1208.69 32.57 1207.82 30.79 1206.95 29.00 C 1225.54 19.95 1244.15 10.91 1262.68 1.73 Z" />
<path fill="#000000" opacity="1.00" d=" M 182.34 4.31 C 186.90 2.39 192.58 3.34 196.13 6.83 C 254.29 65.01 312.48 123.18 370.64 181.36 C 375.39 185.76 375.73 193.73 371.67 198.70 C 367.24 204.96 357.13 205.82 351.84 200.20 C 297.13 145.37 242.23 90.73 187.60 35.82 C 185.07 37.86 182.82 40.20 180.55 42.51 C 128.04 95.02 75.54 147.53 23.03 200.03 C 18.11 205.24 8.90 205.30 4.03 200.00 C -1.22 195.06 -1.11 185.91 4.11 181.00 C 60.56 124.50 117.06 68.05 173.52 11.56 C 176.25 8.92 178.72 5.77 182.34 4.31 Z" />
<path fill="#000000" opacity="1.00" d=" M 724.94 5.67 C 759.41 5.65 793.87 5.68 828.34 5.65 C 828.33 7.71 828.34 9.78 828.37 11.84 C 821.26 11.94 813.82 11.32 807.09 14.01 C 801.62 16.16 797.08 20.82 795.66 26.59 C 793.14 36.19 793.67 46.20 793.55 56.02 C 793.56 87.67 793.55 119.32 793.56 150.97 C 793.53 163.32 794.73 175.65 796.67 187.83 C 798.54 198.72 801.99 209.98 809.88 218.08 C 818.77 227.48 831.15 233.27 843.95 234.81 C 860.21 236.64 877.15 235.01 892.15 228.16 C 903.90 222.84 914.93 214.67 921.19 203.15 C 925.84 194.58 927.35 184.76 928.50 175.19 C 930.32 159.53 929.76 143.74 929.84 128.01 C 929.84 100.33 929.84 72.66 929.85 44.99 C 929.80 38.20 929.45 31.31 927.57 24.75 C 925.85 18.52 919.77 14.67 913.87 13.03 C 907.84 11.58 901.58 11.86 895.43 11.83 C 895.43 9.77 895.44 7.72 895.45 5.66 C 923.69 5.67 951.92 5.66 980.16 5.66 C 980.15 7.72 980.15 9.78 980.17 11.84 C 973.00 11.92 965.32 11.22 958.81 14.81 C 953.05 17.91 948.33 23.44 947.17 29.98 C 945.51 37.88 945.76 45.99 945.66 54.01 C 945.66 77.67 945.66 101.33 945.66 124.99 C 945.56 143.00 946.28 161.10 943.82 179.00 C 942.10 192.06 938.98 205.44 931.19 216.32 C 923.05 227.85 911.57 236.99 898.66 242.65 C 883.93 248.72 867.80 250.64 851.96 250.35 C 834.44 250.33 816.37 248.29 800.45 240.49 C 782.92 231.44 769.35 214.96 764.08 195.93 C 761.72 186.49 760.99 176.74 760.38 167.07 C 759.26 144.73 759.92 122.36 759.75 100.00 C 759.66 80.36 759.92 60.71 759.61 41.07 C 758.88 32.80 758.54 23.11 751.97 17.12 C 744.42 10.97 734.04 11.97 724.94 11.83 C 724.93 9.78 724.93 7.72 724.94 5.67 Z" />
<path fill="#000000" opacity="1.00" d=" M 177.87 89.83 C 182.62 84.67 191.61 84.43 196.46 89.56 C 254.46 147.55 312.44 205.55 370.45 263.53 C 374.55 267.44 375.72 274.02 373.06 279.06 C 370.31 284.79 363.16 287.92 357.11 285.82 C 352.84 284.62 350.08 280.90 347.01 277.97 C 293.77 224.76 240.61 171.46 187.30 118.32 C 133.94 171.64 80.62 224.98 27.29 278.32 C 23.80 281.78 20.25 286.03 14.97 286.38 C 7.02 287.51 -0.77 280.02 0.16 272.02 C 0.13 266.72 4.43 263.22 7.86 259.84 C 64.54 203.18 121.21 146.51 177.87 89.83 Z" />
<path fill="#000000" opacity="1.00" d=" M 178.05 172.04 C 181.42 168.75 186.59 167.38 191.10 168.85 C 195.60 170.16 198.56 174.05 201.80 177.16 C 256.46 231.84 311.13 286.50 365.81 341.17 C 369.14 344.61 373.38 347.86 374.23 352.88 C 376.11 360.81 369.06 369.26 360.95 368.87 C 357.04 368.97 353.38 367.01 350.80 364.17 C 296.45 309.65 241.84 255.40 187.59 200.78 C 186.71 201.47 185.82 202.17 184.99 202.93 C 130.98 256.91 76.99 310.92 23.00 364.91 C 18.12 370.20 8.97 370.15 4.04 364.97 C -1.18 360.08 -1.17 350.91 4.06 346.03 C 62.06 288.03 120.06 230.04 178.05 172.04 Z" />
<path fill="#000000" opacity="1.00" d=" M 182.11 268.19 C 187.07 266.16 193.15 267.31 196.97 271.09 C 251.65 325.67 306.19 380.38 360.89 434.93 C 306.26 435.23 251.61 434.97 196.97 435.06 C 135.90 435.06 74.82 435.06 13.74 435.06 C 66.97 381.84 120.20 328.61 173.42 275.38 C 176.13 272.79 178.50 269.58 182.11 268.19 Z" />
<path fill="#000000" opacity="1.00" d=" M 485.21 323.34 C 503.87 302.87 535.71 295.63 561.17 306.85 C 565.30 308.28 569.19 311.82 573.82 310.72 C 577.88 309.56 579.11 305.09 580.52 301.62 C 581.33 301.63 582.95 301.65 583.76 301.66 C 584.82 317.40 585.90 333.14 586.89 348.89 C 586.14 348.87 584.63 348.83 583.88 348.81 C 580.16 336.53 574.48 323.89 563.68 316.26 C 544.46 302.76 514.04 306.83 500.91 326.97 C 490.49 342.43 488.40 361.79 488.82 379.98 C 489.38 395.75 493.56 412.49 505.17 423.84 C 518.02 436.09 537.39 439.52 554.30 435.37 C 568.70 431.96 578.63 419.97 587.02 408.60 C 588.02 409.08 589.04 409.56 590.06 410.04 C 583.41 421.82 574.52 432.90 562.34 439.27 C 547.51 446.92 529.83 447.41 513.83 443.70 C 496.20 439.49 481.58 426.56 473.51 410.55 C 459.64 382.71 464.08 346.40 485.21 323.34 Z" />
<path fill="#000000" opacity="1.00" d=" M 620.00 420.03 C 636.84 380.56 653.76 341.13 670.57 301.65 C 671.44 301.65 673.19 301.67 674.07 301.67 C 690.59 340.96 706.99 380.30 723.47 419.61 C 725.94 425.12 728.41 430.90 732.80 435.20 C 736.34 438.61 741.35 439.62 746.06 440.20 C 746.06 440.86 746.06 442.17 746.07 442.83 C 727.84 442.83 709.61 442.85 691.38 442.82 C 691.42 442.14 691.50 440.77 691.54 440.08 C 696.45 439.64 703.01 439.30 705.14 433.93 C 706.58 429.03 704.17 424.01 702.67 419.40 C 699.69 411.82 696.42 404.38 693.39 396.83 C 675.40 396.82 657.41 396.88 639.43 396.80 C 635.62 405.62 631.65 414.37 628.22 423.35 C 626.99 427.22 625.34 432.12 628.35 435.61 C 631.94 439.50 637.77 439.43 642.64 440.04 C 642.65 440.74 642.68 442.14 642.69 442.84 C 628.19 442.83 613.69 442.83 599.19 442.84 C 599.22 442.14 599.26 440.74 599.28 440.04 C 603.42 439.10 608.13 438.53 611.13 435.18 C 615.09 430.80 617.49 425.30 620.00 420.03 M 666.77 333.60 C 658.51 352.21 650.66 371.01 642.41 389.63 C 658.43 389.70 674.46 389.66 690.48 389.64 C 682.51 370.99 674.88 352.19 666.77 333.60 Z" />
<path fill="#000000" opacity="1.00" d=" M 1071.61 411.58 C 1087.24 374.92 1102.97 338.31 1118.56 301.65 C 1119.44 301.65 1121.19 301.66 1122.07 301.67 C 1138.69 341.19 1155.18 380.77 1171.77 420.31 C 1174.17 425.60 1176.60 431.12 1180.84 435.23 C 1184.38 438.62 1189.37 439.62 1194.06 440.20 C 1194.06 440.86 1194.06 442.17 1194.07 442.83 C 1175.84 442.83 1157.61 442.85 1139.38 442.82 C 1139.42 442.14 1139.50 440.77 1139.54 440.09 C 1143.99 439.57 1149.50 439.54 1152.34 435.43 C 1154.89 431.72 1153.07 427.12 1152.02 423.22 C 1148.91 414.25 1144.86 405.66 1141.40 396.83 C 1123.41 396.82 1105.42 396.88 1087.43 396.80 C 1083.63 405.60 1079.66 414.35 1076.23 423.31 C 1074.99 427.20 1073.33 432.13 1076.37 435.62 C 1079.95 439.51 1085.77 439.43 1090.64 440.04 C 1090.65 440.74 1090.68 442.14 1090.69 442.84 C 1076.19 442.83 1061.69 442.83 1047.20 442.84 C 1047.22 442.14 1047.26 440.74 1047.28 440.05 C 1051.68 439.09 1056.71 438.37 1059.68 434.58 C 1065.14 427.79 1068.16 419.48 1071.61 411.58 M 1114.77 333.59 C 1106.51 352.21 1098.65 371.01 1090.41 389.63 C 1106.44 389.69 1122.46 389.67 1138.48 389.64 C 1130.50 370.99 1122.88 352.19 1114.77 333.59 Z" />
<path fill="#000000" opacity="1.00" d=" M 751.94 304.67 C 767.28 304.66 782.63 304.66 797.97 304.66 C 810.52 304.55 823.62 304.60 835.30 309.79 C 846.10 314.84 855.07 324.92 856.84 336.94 C 858.31 346.79 856.50 357.40 850.62 365.59 C 845.44 372.97 837.29 378.06 828.51 379.94 C 816.21 382.77 803.43 381.09 791.26 378.45 C 791.32 393.31 791.10 408.18 791.38 423.03 C 791.83 427.67 791.56 433.19 795.32 436.59 C 799.59 440.61 805.88 440.05 811.29 440.21 C 811.28 441.08 811.27 441.95 811.28 442.84 C 791.50 442.83 771.72 442.84 751.94 442.83 C 751.94 442.18 751.94 440.86 751.94 440.21 C 757.06 440.03 762.90 440.62 767.12 437.08 C 771.85 433.66 771.44 427.21 771.78 422.02 C 771.93 391.01 771.81 360.01 771.84 329.01 C 771.62 323.49 772.00 317.57 769.39 312.53 C 765.41 307.06 757.98 307.35 751.94 307.29 C 751.94 306.63 751.94 305.32 751.94 304.67 M 791.26 314.84 C 791.24 334.09 791.28 353.33 791.23 372.57 C 798.08 373.69 805.02 375.04 811.98 374.23 C 821.01 373.01 828.65 366.12 831.94 357.78 C 835.20 349.10 834.85 339.23 831.54 330.62 C 829.12 324.26 824.52 318.56 818.21 315.78 C 809.79 311.72 800.06 312.79 791.26 314.84 Z" />
<path fill="#000000" opacity="1.00" d=" M 870.24 304.64 C 889.94 304.68 909.65 304.67 929.35 304.65 C 929.35 305.31 929.35 306.64 929.35 307.30 C 923.86 307.41 917.45 307.07 913.26 311.29 C 909.50 315.15 909.92 321.05 909.60 326.03 C 909.49 356.33 909.59 386.64 909.55 416.94 C 909.80 422.54 909.08 428.48 911.25 433.78 C 915.04 439.77 922.97 440.35 929.38 440.21 C 929.38 440.86 929.38 442.18 929.38 442.84 C 909.66 442.84 889.94 442.83 870.22 442.84 C 870.22 442.18 870.22 440.86 870.22 440.20 C 875.30 440.07 880.92 440.45 885.26 437.29 C 888.40 435.35 889.17 431.44 889.58 428.05 C 890.21 421.05 890.19 414.01 890.16 406.99 C 890.16 387.66 890.16 368.33 890.17 349.00 C 890.13 339.28 890.35 329.55 889.71 319.84 C 889.48 316.62 888.83 312.97 886.01 310.98 C 881.61 307.33 875.64 307.32 870.24 307.30 C 870.24 306.63 870.24 305.31 870.24 304.64 Z" />
<path fill="#000000" opacity="1.00" d=" M 940.84 336.75 C 941.43 326.05 941.97 315.35 942.47 304.66 C 980.09 304.66 1017.71 304.68 1055.34 304.65 C 1055.91 315.36 1056.42 326.08 1056.87 336.80 C 1055.60 336.76 1054.35 336.72 1053.11 336.69 C 1052.42 330.29 1050.90 323.54 1046.04 318.94 C 1042.34 315.29 1037.16 313.52 1032.06 313.17 C 1024.14 312.54 1016.19 312.97 1008.25 312.81 C 1008.25 348.88 1008.26 384.94 1008.25 421.01 C 1008.45 425.77 1008.33 430.93 1010.72 435.21 C 1014.70 440.43 1021.87 440.14 1027.78 440.20 C 1027.78 440.86 1027.78 442.18 1027.78 442.84 C 1008.23 442.83 988.68 442.82 969.14 442.85 C 969.14 442.19 969.13 440.85 969.13 440.19 C 974.41 440.08 980.49 440.51 984.66 436.63 C 988.61 432.93 988.38 427.03 988.71 422.05 C 988.79 385.64 988.72 349.23 988.75 312.81 C 979.80 312.93 970.82 312.54 961.92 313.52 C 956.58 314.12 951.73 317.43 948.99 322.01 C 946.08 326.38 945.14 331.64 944.55 336.75 C 943.30 336.75 942.06 336.75 940.84 336.75 Z" />
<path fill="#000000" opacity="1.00" d=" M 1200.74 304.66 C 1221.58 304.67 1242.42 304.66 1263.26 304.66 C 1263.26 305.32 1263.27 306.65 1263.27 307.31 C 1256.73 307.77 1249.20 307.16 1244.06 312.02 C 1240.30 315.19 1240.58 320.51 1240.24 324.97 C 1240.05 356.31 1240.22 387.65 1240.15 419.00 C 1240.33 422.89 1240.00 427.25 1242.30 430.63 C 1243.96 433.10 1247.13 433.58 1249.89 433.74 C 1261.92 434.22 1274.00 434.44 1286.01 433.38 C 1292.28 432.86 1298.52 430.56 1303.09 426.11 C 1309.55 420.40 1312.78 412.23 1316.53 404.69 C 1317.30 404.81 1318.83 405.05 1319.59 405.17 C 1315.68 417.72 1311.69 430.25 1307.82 442.81 C 1272.12 442.86 1236.42 442.82 1200.72 442.84 C 1200.70 441.95 1200.70 441.08 1200.71 440.21 C 1206.09 440.06 1212.34 440.53 1216.58 436.53 C 1220.83 432.62 1220.23 426.31 1220.64 421.05 C 1220.68 389.67 1220.67 358.28 1220.64 326.90 C 1220.29 321.97 1220.61 316.57 1217.91 312.23 C 1213.90 307.01 1206.63 307.39 1200.73 307.30 C 1200.73 306.64 1200.73 305.32 1200.74 304.66 Z" />
</g>
</svg>
