<?xml version="1.0" encoding="utf-8"?>
<!-- Generator: Adobe Illustrator 26.0.3, SVG Export Plug-In . SVG Version: 6.00 Build 0)  -->
<svg version="1.1" id="圖層_1" xmlns="http://www.w3.org/2000/svg" xmlns:xlink="http://www.w3.org/1999/xlink" x="0px" y="0px"
	 viewBox="0 0 1137 372.1" style="enable-background:new 0 0 1137 372.1;" xml:space="preserve">
<style type="text/css">
	.st0{fill:#222222;}
</style>
<g id="_x23_222222ff">
	<path class="st0" d="M1035.7,7.3c17.1-8.9,38.1-9.7,55.9-2.4c13.2,5.3,24.7,15.2,31.2,27.9c6.3,12,7.8,26.5,3.9,39.5
		c-3.3,11.4-10.7,21.2-19.7,28.7c4.2,3.3,8.6,6.5,12.3,10.3c10,10.2,16.2,23.7,17.8,37.9v9.7c-1.3,11.1-5.1,21.9-11.7,30.9
		c-9.2,12.7-22.9,21.8-37.9,26.1c-19.9,5.7-42.2,3-59.9-7.8c-13.3-8-23.9-20.5-28.8-35.2c-5.1-15-3.7-32,3.6-46.1
		c5.3-10.6,13.9-19.1,23.5-25.8c-7.8-6.4-14.5-14.5-18.2-24c-5.2-12.8-5-27.7,0.5-40.4C1013.4,23.9,1023.6,13.6,1035.7,7.3
		 M1058.4,26c-14.3,2.5-27.6,14.4-28.4,29.5c-1.1,14,9.2,26.7,21.9,31.3c16,6.3,36.4,1.2,46-13.4c6.4-9.3,6.5-22.5,0.2-31.9
		C1089.8,28.7,1073,23,1058.4,26 M1059.4,115.1c-11.4,1.6-22.4,7.2-29.6,16.3c-5.7,7-8.8,16.1-8.1,25.2c0.6,9.5,5.4,18.5,12.3,24.9
		c9.6,8.8,23,13.1,36,12c13.6-0.9,27-7.8,34.7-19.2c5.6-8.2,7.7-18.8,5.2-28.5c-2.2-9.1-8.1-17.1-15.8-22.4
		C1084.2,116.2,1071.5,113.4,1059.4,115.1z"/>
	<path class="st0" d="M77.3,4.8c9.4,0.1,18.8,0,28.2,0.1c23.4,55.9,46.8,111.8,70.2,167.7c5.6,13.7,11.7,27.3,17,41.2
		c-10.6,0.1-21.2,0.3-31.7-0.1c-2-1.6-2.3-4.7-3.5-6.9C130.9,139.5,104.1,72.2,77.3,4.8z"/>
	<path class="st0" d="M797.1,4.9c9.4,0.1,18.8-0.1,28.2,0.1c16.2,38.8,32.5,77.7,48.7,116.5c12.8,30.8,25.9,61.4,38.5,92.3
		c-10.8,0.2-21.6,0.2-32.4,0C852.5,144.2,824.6,74.6,797.1,4.9z"/>
	<path class="st0" d="M275.7,5.3c12.4-0.2,24.7-0.2,37.1,0c18,25.7,35.6,51.7,53.8,77.2c16-22.9,31.8-45.8,47.7-68.7
		c2-2.8,3.7-5.7,6-8.3c2.2-0.6,4.5-0.4,6.7-0.4c10.1,0.2,20.2-0.1,30.4,0.2c-9.7,14.7-20.1,28.9-30.1,43.4
		c-14,20.2-28.4,40.2-42.2,60.5c16.3,23.5,32.6,46.9,48.9,70.4c7.8,11.4,16,22.5,23.5,34.2c-11.1,0.3-22.3,0.1-33.4,0.1
		c-1.9,0.4-3.2-0.9-4.1-2.4C377.8,151.3,335.6,91.2,293.5,31C287.6,22.4,281.4,14.1,275.7,5.3z"/>
	<path class="st0" d="M577.1,5.3c11-0.1,22-0.1,33,0c0.1,69.5,0.1,139,0,208.6c-11,0.1-22,0.1-33,0
		C577.1,144.3,577.1,74.8,577.1,5.3z"/>
	<path class="st0" d="M48.3,107.7c1.4-0.8,3.1-0.4,4.6-0.6c11.3,0.1,22.7-0.1,34,0.1c1.9-0.2,2.3,2,3,3.3c3.6,8.6,7.4,17.2,11,25.8
		c-11.9,0.2-23.9-0.2-35.8,0.2c-10.7,25.8-21.2,51.7-32.1,77.4c-11,0-22,0.1-32.9-0.1c1.6-4.3,3.6-8.4,5.5-12.6
		c12.9-28.4,25.8-56.8,38.7-85.3C45.7,113.2,46.8,110.3,48.3,107.7z"/>
	<path class="st0" d="M768.1,107.3c13.3-0.2,26.7,0,40-0.1c4.4,9.6,8.4,19.4,12.7,29.2c-11.9,0.1-23.8-0.1-35.7,0.1
		c-10.8,25.7-21.3,51.6-32.1,77.4c-11,0.1-22.1,0.2-33.1,0C735.7,178.2,752,142.8,768.1,107.3z"/>
	<path class="st0" d="M315.1,156.7c1.3-1.6,2.4-4.3,4.9-3.9c11.4,0,22.8,0,34.1,0c-13.4,19.8-27.4,39.2-41,58.8
		c-1.2,2.9-4.6,2.2-7.2,2.3c-10.1-0.2-20.2,0.1-30.3-0.2C288.6,194.6,302.1,175.8,315.1,156.7z"/>
	<path class="st0" d="M1078.3,314.9c3.5-4.7,9.2-7,14.8-7.9c8.1-1.2,17.3,0,23.4,5.9c3.7,3.4,5.4,8.4,5.6,13.3
		c-4.3,0.1-8.5,0.1-12.8,0c-0.9-2.8-1.6-6.2-4.4-7.7c-4-2.1-9.1-2.1-13.1-0.1c-3.3,1.6-4.8,6.4-2.3,9.3c2.5,2.9,6.3,4,9.8,5.2
		c6.4,2.1,13.1,4.3,17.9,9.1c5,4.8,6.1,12.8,3.5,19.1c-2.6,5.8-8.8,9.2-14.9,10.2c-9.2,1.6-19.5,0.2-26.6-6.2c-4-3.5-6-8.8-6-14.1
		c4.2-0.1,8.5-0.1,12.8,0c0.9,3.1,1.5,7,4.7,8.7c4.3,2.3,9.7,2.5,14.3,0.7c4.6-1.8,5.3-8.6,1.5-11.6c-8.7-5.7-20.6-5.9-27.6-14.4
		C1074.2,329.2,1074,320.6,1078.3,314.9z"/>
	<path class="st0" d="M0,307.3c5,0.1,9.9,0.1,14.9,0.2c5,15.7,9.1,31.6,14.4,47.2c4.9-15.6,9.5-31.3,14.2-47
		c4.9-0.3,9.8-0.4,14.6-0.2c-7.1,21.2-14.7,42.3-21.9,63.5c-4.6,0.3-9.2,0.3-13.8,0.1c-5.2-14.8-10.3-29.7-15.5-44.5
		C4.7,320.4,2.9,314,0,308V307.3z"/>
	<path class="st0" d="M161.4,307.6c14.2-0.4,28.4-0.1,42.6-0.1c0.1,3.6,0.1,7.1-0.1,10.6c-9.7,0-19.5-0.1-29.2,0
		c-0.1,5-0.2,10.1,0.1,15.1c8.3,0,16.7-0.1,25,0.1c0,3.4,0,6.8,0,10.1c-8.4,0.2-16.7,0-25.1,0.1c-0.1,5.7-0.1,11.3,0,17
		c9.8,0.1,19.6,0,29.4,0.1c0.1,3.5,0.1,7.1-0.1,10.6c-14.2,0-28.4,0-42.6,0C161.4,350,161.5,328.8,161.4,307.6z"/>
	<path class="st0" d="M309.8,307.5c4.4-0.1,8.7-0.1,13.1,0c8.7,13.6,16.5,27.8,25.5,41.2c0.2-13.8-0.1-27.5,0.2-41.3
		c4.4-0.1,8.7-0.1,13.1,0.1c-0.1,21.2,0,42.4,0,63.5c-4.4,0.1-8.8,0.1-13.2,0c-8.5-13.6-16.5-27.7-25.3-41.1
		c-0.4,13.7,0.1,27.5-0.2,41.2c-4.3,0-8.6,0-12.9,0C309.6,349.9,309.8,328.7,309.8,307.5z"/>
	<path class="st0" d="M465.5,307.6c17.3-0.4,34.6-0.1,51.9-0.2c-0.2,3.5,1,7.5-0.6,10.5c-6.2,0.3-12.5-0.1-18.8,0.2
		c-0.2,17.7,0.1,35.4-0.1,53c-4.3,0-8.6,0-12.9,0c-0.4-17.6-0.1-35.3-0.2-53c-6.4-0.3-12.9-0.1-19.3-0.1
		C465.5,314.6,465.5,311.1,465.5,307.6z"/>
	<path class="st0" d="M621.1,307.5c4.3-0.1,8.7-0.1,13.1,0c0.2,14.4-0.1,28.7,0.1,43.1c0,3.8,1.5,7.9,5.1,9.6c4,1.9,9,1.8,12.8-0.3
		c3.5-2.1,4.5-6.4,4.5-10.2c0.1-14-0.1-28.1,0.1-42.1c4.4-0.1,8.8-0.1,13.1,0c0,14.7,0.2,29.4-0.1,44.1c-0.2,8.7-6.3,16.7-14.6,19.1
		c-8.1,2.3-17.5,2-24.8-2.5c-6-3.7-9.3-10.6-9.3-17.6C621,336.2,621,321.8,621.1,307.5z"/>
	<path class="st0" d="M778.2,307.5c8.6-0.1,17.2-0.2,25.9,0c6.9,0.2,14.5,2.5,18.5,8.6c3.6,5.6,3.7,13.1,1.3,19.2
		c-1.7,4.4-5.8,7.1-9.6,9.4c4.5,8.9,9.4,17.5,13.8,26.4c-4.8,0.1-9.6,0.1-14.4-0.1c-3.9-7.8-7.8-15.5-11.9-23.2c-3.5,0-6.9,0-10.4,0
		c-0.1,7.8,0.2,15.6-0.2,23.3c-4.3,0-8.6,0-12.9,0C778.1,349.9,778.2,328.7,778.2,307.5 M791.3,318.3c0,6.3,0,12.6,0,18.9
		c5.2-0.2,10.5,0.7,15.5-0.8c7.3-2.6,7.2-15-0.2-17.5C801.7,317.5,796.4,318.1,791.3,318.3z"/>
	<path class="st0" d="M932.2,307.5c14.2-0.2,28.4-0.1,42.7,0c0,3.5,0,7.1-0.1,10.6c-9.8,0.1-19.7-0.3-29.5,0.2c0,5,0,9.9,0,14.9
		c8.4,0.2,16.8-0.2,25.2,0.2c0,3.3,0,6.6,0,10c-8.4,0.3-16.9,0-25.3,0.2c0,5.6,0,11.2,0,16.8c9.8,0.3,19.7,0,29.6,0.2
		c0,3.5,0,7.1-0.1,10.6c-14.2,0-28.4,0-42.6,0C932.1,350,932.2,328.7,932.2,307.5z"/>
</g>
</svg>
