<svg version="1.1" id="Layer_1" xmlns="http://www.w3.org/2000/svg" x="0" y="0" viewBox="0 0 1292.6 400" style="enable-background:new 0 0 1292.6 400" xml:space="preserve"><style>.st2{fill:#142654}</style><path d="M130.2 129.3H263c15.5 0 30.4 2.5 44.3 7.2C307.9 61 246.4 0 170.3 0H37.4C16.8 0 0 16.8 0 37.4v195.8c0 20.7 16.8 37.4 37.4 37.4h55.3v-104c0-20.6 16.8-37.3 37.5-37.3z" style="fill:#00cba8"/><path d="M307.3 136.5c0 1.6 0 3.2-.1 4.8-3.1 72-62.5 129.5-135.2 129.5H92.7v91.9c0 20.7 16.8 37.4 37.4 37.4h134.5c72.8 0 132.1-57.4 135.2-129.5 2.7-62.2-36.8-115.4-92.5-134.1z" style="fill:#0db1f9"/><path class="st2" d="M597 129.8c-24.2-1.1-46.6 6.5-64.4 20v-38.2c0-21.8-17.6-39.4-39.4-39.4v156.6c0 32.2 15.5 60.9 39.4 79 16.6 12.6 37.3 20.1 59.7 20.1 56.2 0 101.6-47 99-103.8-2.4-50.8-43.6-91.9-94.3-94.3zm56 99c0 33.5-27.2 60.7-60.7 60.7-1 0-2 0-3-.1-.3 0-.6 0-.9-.1-.7 0-1.3-.1-2-.2-.4 0-.7-.1-1.1-.1-.6-.1-1.2-.1-1.8-.2-.4-.1-.8-.1-1.2-.2-.6-.1-1.1-.2-1.7-.3-.4-.1-.8-.2-1.2-.2-.5-.1-1.1-.2-1.6-.4l-1.2-.3c-.5-.1-1.1-.3-1.6-.5-.4-.1-.8-.2-1.1-.3-.6-.2-1.1-.4-1.6-.6-.3-.1-.7-.2-1-.4-.8-.3-1.5-.6-2.3-.9-.4-.2-.8-.4-1.2-.5-.5-.2-1-.5-1.6-.7l-1.2-.6-1.2-.6c-.4-.2-.9-.5-1.3-.7-.4-.2-.7-.4-1.1-.6-.4-.3-.9-.5-1.3-.8-.3-.2-.7-.4-1-.6-.4-.3-.9-.6-1.3-.9l-.9-.6c-.5-.3-.9-.7-1.4-1-.2-.2-.5-.4-.7-.6-.5-.4-1-.8-1.4-1.2-.1-.1-.3-.2-.4-.3-2.5-2.1-4.7-4.4-6.8-6.8-.1-.1-.1-.2-.2-.2-.5-.6-1-1.2-1.4-1.7l-.3-.3c-.5-.6-.9-1.2-1.3-1.8-.1-.1-.2-.2-.2-.3-.4-.6-.9-1.3-1.3-1.9 0-.1-.1-.1-.1-.2-3.3-5-5.8-10.6-7.4-16.5-.2-.8-.4-1.7-.6-2.5v-.1c-.4-1.7-.7-3.5-1-5.3v-.1l-.3-2.7v-.7c-.1-.7-.1-1.4-.2-2.1 0-.9-.1-1.8-.1-2.8v-.2c0-.9 0-1.9.1-2.8 0-.7.1-1.4.2-2.1v-.6l.3-2.7c.3-1.8.6-3.6 1-5.3v-.1c.2-.9.4-1.7.7-2.5 1.7-5.9 4.2-11.5 7.4-16.5 0-.1.1-.1.1-.2.4-.6.9-1.3 1.3-1.9.1-.1.1-.2.2-.3.4-.6.9-1.2 1.3-1.8.1-.1.2-.2.2-.3.5-.6.9-1.2 1.4-1.8l.2-.2c2.1-2.5 4.4-4.8 6.9-6.9l.3-.3 1.5-1.2c.2-.2.5-.4.7-.5.5-.3.9-.7 1.4-1l.9-.6c.4-.3.9-.6 1.3-.9.3-.2.6-.4 1-.6.4-.3.9-.6 1.3-.8.4-.2.7-.4 1.1-.6.4-.2.9-.5 1.3-.7l1.2-.6c.4-.2.8-.4 1.3-.6.5-.2 1-.4 1.5-.7l1.5-.6c.7-.3 1.4-.6 2.1-.8.4-.1.7-.3 1.1-.4.5-.2 1.1-.4 1.6-.5l1.2-.3c.5-.2 1-.3 1.6-.4l1.2-.3c.5-.1 1.1-.3 1.6-.4.4-.1.8-.2 1.2-.2.5-.1 1.1-.2 1.6-.3.4-.1.8-.1 1.2-.2.6-.1 1.1-.2 1.7-.2.4 0 .8-.1 1.2-.1.6-.1 1.3-.1 1.9-.1.3 0 .7-.1 1-.1 1 0 1.9-.1 2.9-.1h.1c33.1-.7 60.4 26.6 60.4 60.1zM944.7 288.5c0 21.8 17.6 39.4 39.4 39.4V72.1h-39.4v216.4zM1024.4 288.5c0 21.8 17.6 39.4 39.4 39.4V72.1h-39.4v216.4zM1253.2 149.7c-17.8-13.5-40.2-21.1-64.4-20-50.7 2.4-91.9 43.5-94.3 94.3-2.6 56.8 42.8 103.8 99 103.8 22.4 0 43.1-7.5 59.7-20.1 0 11.1 9 20.1 20.1 20.1h19.3v-99.1c0-32.2-15.5-60.8-39.4-79zm0 90.2c-5.2 28.2-30 49.6-59.7 49.6-33.5 0-60.7-27.2-60.7-60.7s27.2-60.7 60.7-60.7c29.7 0 54.5 21.4 59.7 49.6.7 3.6 1 7.3 1 11.1s-.4 7.5-1 11.1zM813.8 289.5c-27.6 0-51-18.6-58.3-43.9h153c1.7 0 3.2-1.4 3.4-3 .6-4.5 1-9.2 1-13.9 0-6.3-.6-12.5-1.7-18.4-8.7-45.9-49-80.6-97.3-80.6s-88.7 34.8-97.3 80.6c-1.1 6-1.7 12.1-1.7 18.4 0 5.7.5 11.4 1.5 16.9 8 46.6 48.7 82.2 97.6 82.2 38.1 0 71.1-21.6 87.7-53.2.9-1.8-.4-4-2.4-4h-39.8c-1.1 0-2.1.4-2.9 1.2-11.1 11-26.2 17.7-42.8 17.7zm0-121.5c27.1 0 50 17.8 57.9 42.3H755.9c7.8-24.5 30.8-42.3 57.9-42.3z"/></svg>