<?xml version="1.0" encoding="utf-8"?>
<!-- Generator: Adobe Illustrator 26.0.3, SVG Export Plug-In . SVG Version: 6.00 Build 0)  -->
<svg version="1.1" id="圖層_1" xmlns="http://www.w3.org/2000/svg" xmlns:xlink="http://www.w3.org/1999/xlink" x="0px" y="0px"
	 viewBox="0 0 4209.9 1577.4" style="enable-background:new 0 0 4209.9 1577.4;" xml:space="preserve">
<g>
	<path d="M1578.5,672.3c-63.4,11.1-125.1,13.4-186.3-3.3c-72.8-19.8-141.7-47.1-197.9-100.2c-41.5-39.2-76.7-83.3-107.6-131
		c-33-51.1-61.5-104.5-81.6-162.2c-3.8-10.8-11.9-14.5-22.8-11.1c-5.7,1.8-11.7,3.6-17.5,3.6c-118.9,0.2-237.9,0.2-356.8,0.2h-13.7
		v17.8c18.9,4.6,38.1,8.4,56.8,13.9c58.1,17,101.6,51.1,121.6,109.9c10.2,29.9,11.8,60.2,1.5,91.4
		C726.8,645,636.4,752.1,502.9,822.9c-70.8,37.5-146.4,55.4-226.4,54.7c-97-0.8-187.1-25.7-268.7-79.3c-5-3.3-7.9-6.3-7.8-13
		c4.4-201.8,72.7-378.8,209.1-527.7C336.2,118.9,493.8,34.5,680.4,8.6c223.8-31.1,426.8,22.4,604.6,162
		c156.7,123.1,252.8,284.5,289.8,480.7C1576.1,657.7,1577.1,664.2,1578.5,672.3L1578.5,672.3z"/>
	<path d="M2.5,873.2c62.3,16.8,122.1,26.3,182.8,30.5c151.7,10.6,298.6-7.6,436.9-74.9c21.9-10.6,42.4-24.2,63.5-36.4
		c13.8-8,17.1-8.9,28.1,2.7c19.6,20.6,36.6,43.8,57.1,63.5c12.7,12.2,12.7,25.5,12.4,40.3c-2.4,112.2-4.6,224.4-7.3,336.5
		c-1.5,64.8-5,129.6-19.9,193c-11.3,47.7-29,92.3-64.8,128c-15.3,15.3-29.9,20.9-52.8,16.4c-304.6-60.2-552.4-301.1-618.4-603.5
		C13.2,938.2,8.5,906.8,2.5,873.2L2.5,873.2z M1277.6,1423.1c-55.4,42.5-112.5,75.6-173.7,101.6c-59.2,25.1-120.5,42.7-184.1,52.6
		c-4.5,0.7-10.3-1-14.2-3.5c-43.2-27.8-64.9-69.7-76-118.2c-10.9-47.6-12.8-96.2-13.1-144.6c-0.8-149.7-0.9-299.4-0.5-449.1
		c0.4-153.4,1.9-306.8,2.9-460.1c0-2,0.2-4,0.3-6c1-0.3,1.9-0.5,2.9-0.8C973.8,737.5,1125.6,1080.1,1277.6,1423.1L1277.6,1423.1z
		 M3573.1,443.3c0.3,2.5,0.6,3.9,0.6,5.3s-0.3,2.9-0.5,4.5c-8.7,1.1-17.2,1.6-25.5,3.2c-42.2,8.2-66.5,35.9-69.3,81.6
		c-2.9,47.7-5.1,95.4-5.5,143.1c-0.8,91.2-0.5,182.3-0.1,273.5c0.1,32.2,1.9,64.4,2.7,96.6c0.8,30.8,16.7,52.1,43.2,64.7
		c16.1,7.6,34.1,11.4,51.5,15.7c6.4,1.6,10.7,2.3,8.3,10.6h-331.9c-0.2-2.9-0.5-6-0.8-9.3c13.3-2.2,26.2-3.5,38.6-6.6
		c52.6-13,76.6-41.9,80.2-97.5c2-32.1,3.3-64.4,3.3-96.6c0.4-141.2,0.1-282.4,0.1-423.6v-8.7l-1.8-0.6c-1.2,2.2-2.7,4.4-3.7,6.7
		c-71.8,160-143.8,319.9-215.3,480c-19.1,42.9-36.5,86.5-54.9,129.7c-1.7,4-5.1,7.3-7.7,10.9c-2.4-3.5-5.4-6.7-7-10.5
		c-68.9-156.8-137.7-313.6-206.6-470.4c-18.2-41.3-36.8-82.4-55.2-123.6c-1.1-2.5-2.3-5-4.8-10.5c-0.6,6.1-1,8.8-1,11.6
		c-0.5,73.7-1.1,147.5-1.5,221.2c-0.4,66.7-0.9,133.4-0.6,200.1c0.1,27.4,1.3,54.8,3.5,82.1c4.8,59.4,33.6,90.2,94.2,102.5
		c4.4,0.9,8.7,1.6,13.1,2.4c7.2,1.4,7.2,1.4,6.8,10.6h-251.8c-1.7-6.3-1.2-10.6,6.4-11.2c3.3-0.2,6.4-1.6,9.7-2.4
		c47.3-11.6,76.7-41.7,85.4-89c6.4-34.8,10.6-70.4,11.4-105.7c2.6-114.1,3.2-228.2,4.5-342.2c0.2-15.9-0.3-31.9-1.2-47.7
		c-2.3-43-26.5-72.4-68.3-83.8c-6.8-1.8-13.6-3.5-20.5-4.7c-6.7-1.1-9.1-4.2-5.9-12h10.3c61.5,0,123,0.2,184.6-0.2
		c8.2,0,12.1,2.4,15.5,10.2c73.8,168.8,148,337.4,222.1,506c1.3,3,2.8,6,5,10.7c2.3-4.6,4.2-7.9,5.7-11.3
		c74.6-168,149.2-336,223.4-504.2c3.7-8.4,7.6-11.4,16.9-11.4C3443,443.5,3507.5,443.3,3573.1,443.3L3573.1,443.3z M1435,1262.6
		c-87.9-200.1-174.9-398.1-262.7-598c134.3,45.8,271.1,51.9,411.1,41.7C1602.9,910,1554.4,1094.4,1435,1262.6L1435,1262.6z
		 M3731.2,1143.7V948.8c7-3.3,9.1,2,11.4,7.9c17.9,46.5,43.3,88.4,78.9,123.5c59.4,58.6,159.7,72.3,228.2,31.8
		c65.3-38.6,87.7-128.1,47.4-188.5c-14.9-22.4-35.9-37.8-60.3-47.4c-44.4-17.5-89.7-32.5-134.1-49.7c-27.5-10.7-56.4-20.1-80.5-36.3
		c-67.9-45.4-98.8-110.1-85.2-192c13.6-81.8,65.3-131.3,142.8-153c77.2-21.7,153.8-17.5,227.4,17.2c7,3.3,13.9,7.2,19.9,12
		c7,5.6,11.6,4.3,16.4-2.3c5.2-7.2,10.3-14.6,16.3-21c3.4-3.6,8.5-5.6,15-9.7v182.1c-7.9,3-11.3-0.1-14.2-7.3
		c-19.8-49.4-46.5-94.1-88.3-128.5c-67.7-55.9-150.3-44-195.7-13.2c-40.4,27.5-55,67.8-54.7,115.1c0.4,53,29.5,88.2,74,109.7
		c39.1,18.9,80.9,32.1,121.7,47.6c25.9,9.9,52.7,17.6,77.8,29.3c59.8,27.7,101.7,71.4,111.8,139.1c15.6,105-37.9,189.8-140.3,218.8
		c-89.7,25.4-179.3,22.5-266.9-11.7c-6.5-2.5-12.8-6-18.6-9.8c-8.1-5.4-14.1-4.2-19.7,3.6c-5.2,7.2-10.7,14.2-16.8,20.6
		C3742.3,1139.4,3737.8,1140.5,3731.2,1143.7L3731.2,1143.7z M2540.2,913.8v211.6c-9.5,3.6-14.3,0.6-19.2-5.9
		c-8.3-10.8-18-20.6-27.1-30.8c-4.8-5.3-9.7-5.3-15.6-1.4c-49.9,33-105.5,50.3-164.4,56.1c-105.2,10.5-206.5-2.2-298-59.9
		c-84.7-53.5-132.2-132.1-147.1-230.1c-15.8-103.6,7.5-198.6,69.8-283.2c53.3-72.4,126.8-113.8,213.4-131.4
		c99.8-20.3,197.4-12.2,290.5,32c12.6,6,24.6,13.6,36.3,21.3c6.7,4.4,12,5,17.5-1.2c10.2-11.2,20.2-22.6,30.7-33.5
		c3.5-3.6,8.6-5.8,15.4-10.1v220.8c-3.7,0.3-7.2,0.6-8.3,0.7c-13.1-28.1-23.4-56-38.2-81.3c-41.8-71.2-101.4-121-184.1-136.5
		c-101.7-19.1-184.7,15.7-247.8,96.3c-48.2,61.5-71.2,133.2-78,210.4c-6.6,74.5,3.2,146.6,36.3,214
		c42.9,87.5,110.9,143.8,209.4,156.5c91.1,11.8,167.3-20.6,229.8-86.4c32.4-34.1,55.1-74.2,66.4-120.1
		C2529.8,913.1,2533.7,912,2540.2,913.8L2540.2,913.8z"/>
</g>
</svg>
