<?xml version="1.0" encoding="UTF-8" ?>
<!DOCTYPE svg PUBLIC "-//W3C//DTD SVG 1.1//EN" "http://www.w3.org/Graphics/SVG/1.1/DTD/svg11.dtd">
<svg width="1175pt" height="426pt" viewBox="0 0 1175 426" version="1.1" xmlns="http://www.w3.org/2000/svg">
<g id="#122981ff">
<path fill="#122981" opacity="1.00" d=" M 213.32 0.00 L 213.66 0.00 C 215.38 2.67 217.79 4.79 219.98 7.06 C 227.78 15.06 235.53 23.09 243.35 31.06 C 182.69 91.56 121.94 151.98 61.25 212.46 C 121.82 273.30 182.38 334.15 242.93 395.01 C 233.68 404.04 224.62 413.27 215.41 422.35 C 214.35 423.45 213.23 424.55 212.64 426.00 L 212.33 426.00 C 210.08 422.54 206.86 419.91 204.02 416.97 C 136.99 349.68 70.02 282.33 3.01 215.02 C 2.10 214.12 1.15 213.23 0.00 212.64 L 0.00 212.32 C 8.48 204.73 16.12 196.23 24.38 188.39 C 85.51 127.51 146.69 66.68 207.81 5.79 C 209.73 3.95 211.72 2.15 213.32 0.00 Z" />
<path fill="#122981" opacity="1.00" d=" M 303.78 91.12 C 344.31 131.89 384.99 172.53 425.40 213.43 C 384.77 253.68 344.32 294.11 303.76 334.43 C 293.58 324.27 283.50 314.01 273.30 303.87 C 303.76 273.72 334.07 243.41 364.47 213.20 C 344.39 192.78 324.11 172.57 303.96 152.22 C 304.08 131.86 303.74 111.49 303.78 91.12 Z" />
<path fill="#122981" opacity="1.00" d=" M 516.13 93.88 C 542.10 93.86 568.07 94.09 594.04 94.00 C 607.02 94.42 620.06 93.52 632.99 94.99 C 649.66 96.73 666.13 101.27 680.98 109.13 C 698.29 118.22 713.25 131.85 723.55 148.50 C 733.40 164.28 738.86 182.57 740.33 201.05 C 742.05 222.75 739.08 245.10 729.77 264.90 C 718.01 290.42 695.81 310.50 669.87 320.96 C 658.44 325.62 646.36 328.60 634.12 330.08 C 619.16 331.97 604.05 331.02 589.02 331.25 C 564.52 331.01 540.01 331.26 515.51 330.99 C 515.77 317.92 515.54 304.84 515.63 291.76 C 549.75 291.68 583.86 291.88 617.98 291.88 C 634.95 291.84 652.03 286.10 665.02 275.06 C 678.26 263.99 686.70 247.89 689.92 231.06 C 693.68 211.33 691.41 190.11 681.81 172.30 C 672.45 154.58 655.44 141.20 636.04 136.21 C 622.68 132.40 608.68 133.74 594.98 133.50 C 584.70 133.29 574.41 133.40 564.13 133.37 C 564.08 173.13 563.91 212.89 563.87 252.65 C 547.83 252.35 531.79 252.58 515.76 252.49 C 515.85 199.62 516.00 146.75 516.13 93.88 Z" />
<path fill="#122981" opacity="1.00" d=" M 777.13 94.51 C 833.26 94.60 889.39 94.74 945.52 94.92 C 945.38 107.83 945.48 120.76 945.01 133.66 C 905.05 133.32 865.09 133.57 825.13 133.23 C 824.96 199.40 824.94 265.58 824.60 331.75 C 808.60 331.76 792.61 331.79 776.62 331.61 C 776.68 252.58 776.99 173.54 777.13 94.51 Z" />
<path fill="#122981" opacity="1.00" d=" M 982.53 94.50 C 1046.60 94.58 1110.67 94.80 1174.74 94.88 C 1174.76 107.79 1174.53 120.70 1174.41 133.61 C 1123.36 133.38 1072.30 133.53 1021.25 133.24 C 1021.17 186.41 1021.04 239.58 1020.88 292.75 C 1058.87 292.84 1096.86 292.85 1134.85 293.00 C 1135.12 268.36 1135.17 243.71 1135.38 219.07 C 1148.57 213.06 1161.77 207.08 1175.00 201.14 L 1175.00 312.74 L 1174.18 307.89 C 1174.34 315.84 1174.22 323.80 1174.25 331.76 C 1141.51 331.80 1108.78 331.54 1076.05 331.62 C 1044.66 331.10 1013.27 332.06 981.89 331.61 C 982.13 252.58 982.15 173.54 982.53 94.50 Z" />
<path fill="#122981" opacity="1.00" d=" M 864.25 200.38 C 887.91 200.45 911.58 200.54 935.24 200.51 C 935.13 213.55 935.15 226.59 935.07 239.63 C 911.42 239.43 887.77 239.62 864.13 239.39 C 864.05 226.39 864.21 213.38 864.25 200.38 Z" />
</g>
<g id="#fabe00ff">
<path fill="#fabe00" opacity="1.00" d=" M 121.71 212.66 C 162.31 172.20 202.88 131.71 243.61 91.39 C 253.53 101.73 263.93 111.61 273.86 121.95 C 243.51 152.25 213.05 182.44 182.70 212.74 C 212.83 243.18 243.15 273.45 273.30 303.87 C 283.50 314.01 293.58 324.27 303.76 334.43 C 293.63 344.60 283.34 354.61 273.26 364.82 C 222.67 314.18 172.29 263.32 121.71 212.66 Z" />
<path fill="#fabe00" opacity="1.00" d=" M 250.24 193.31 C 255.88 187.51 263.92 183.92 272.07 184.37 C 285.16 184.86 296.70 194.76 301.06 206.80 C 304.44 216.15 302.07 227.12 295.27 234.34 C 290.20 239.55 285.06 244.71 279.80 249.74 C 265.43 235.40 251.18 220.93 236.81 206.60 C 241.32 202.21 245.81 197.79 250.24 193.31 Z" />
</g>
</svg>
