<?xml version="1.0" encoding="utf-8"?>
<!-- Generator: Adobe Illustrator 26.0.3, SVG Export Plug-In . SVG Version: 6.00 Build 0)  -->
<svg version="1.1" id="圖層_1" xmlns="http://www.w3.org/2000/svg" xmlns:xlink="http://www.w3.org/1999/xlink" x="0px" y="0px"
	 viewBox="0 0 1417.8 353.8" style="enable-background:new 0 0 1417.8 353.8;" xml:space="preserve">
<g id="_x23_000000ff">
	<path d="M62.9,1.9C64.6,0.1,67.2,0,69.5,0c36,0.1,71.9-0.1,107.9,0.1c25.3,0.1,50.4,8.6,70.4,24.2c22.2,17,37.8,42.3,43.1,69.7
		c3.8,20.3,2.4,41.6-4.6,61c-10.3,29.5-33.3,54.3-61.9,66.9c-3,1.4-7.1,0.5-8.5-2.7c-1.8-3.3,0.2-7.7,3.7-8.9
		c25.8-11.4,46.3-33.9,55.4-60.6c7.8-22.2,7.6-47.1-0.5-69.1c-11.6-32.4-40.4-58-74.1-65.5c-8.7-2-17.6-2.8-26.5-2.7
		c-31.8,0-63.7,0-95.5,0c62.1,110.7,124.5,221.2,186.6,331.9c2.6,3.7-0.5,9.5-5,9.3c-64,0-128.1,0-192.1,0c-3.5,0.4-6.7-2.9-6.5-6.4
		c0-29.6,0-59.1,0-88.7c-0.2-3.9,3.7-7.1,7.5-6.2c2.8,0.5,5.1,3.1,5,6c0,27.6,0,55.2,0,82.8c58.3-0.1,116.6,0,174.9,0
		c-58.3-103.7-116.6-207.4-175-311c0,54.1,0,108.3,0,162.4c0.1,4.4-5.4,7.4-9.2,5.1c-2.4-1.1-3.4-3.8-3.3-6.3c0-60.3,0-120.7,0-181
		C61.1,7.6,60.5,4.1,62.9,1.9z"/>
	<path d="M0,7.5c-0.3-3.4,1.9-7,5.5-7.3c3.7-0.7,7.3,2.6,7,6.3c0,71,0,142,0,213c48,0,96.1,0,144.1,0c3.9,0,6.8,4.1,5.8,7.8
		c-0.6,2.7-3.3,4.8-6.1,4.7c-49.9,0-99.8,0-149.7,0c-3.6,0.2-6.8-3-6.6-6.6C0,152.8,0,80.1,0,7.5z"/>
	<path d="M536.2,74.3c12-8.3,27.4-9.9,41.5-7.4c10.6,1.9,20.8,7.6,27.1,16.5c3.6,4.9,5.7,10.7,6.9,16.7c-8.6,0-17.1,0.1-25.7,0
		c-6.9-14.7-29.7-15.5-39.2-3.1c-5.8,7.1-6.7,16.8-5.7,25.6c0.8,6.9,3.8,13.8,9.5,18c6.6,4.9,15.5,6.1,23.4,4.7
		c8.7-1.7,15.9-8.7,18.3-17.2c-10.1,0-20.2,0-30.3,0c0-5.9,0-11.8,0-17.7c16.9,0,33.8,0,50.7,0c-0.1,8.1,0.2,16.2-0.1,24.2
		c-3.4,10.9-11,20.5-21,26.2c-11.1,6.7-24.7,7.9-37.3,5.6c-11.8-2.1-23-8.9-29.7-19c-7.9-11.5-10-26.2-8.1-39.8
		C518.3,94.4,525.1,81.7,536.2,74.3z"/>
	<path d="M354.3,66.8c13.4,0,26.8-0.1,40.2,0.1c13.5,0.3,27.4,4.9,36.9,14.9c8.7,9.3,12.8,22.2,12.5,34.8
		c0.3,12.6-3.8,25.5-12.6,34.7c-10.7,11.8-27.3,15.7-42.8,15.3c-11.4,0-22.8,0-34.2,0C354.3,133.3,354.2,100,354.3,66.8 M378.5,88
		c0,18.9,0,37.8,0,56.7c9.5-0.1,19.6,0.8,28.2-4c7.7-4.2,12.1-12.7,12.5-21.3c0.8-9.2-1.7-19.5-9.4-25.3
		C401.1,87,389.1,88.1,378.5,88z"/>
	<path d="M467.8,66.8c8.1,0,16.2,0,24.3,0c0,33.2,0,66.5,0,99.7c-8.1,0-16.2,0-24.3,0C467.8,133.3,467.8,100,467.8,66.8z"/>
	<path d="M636.5,66.8c8.1,0,16.1,0,24.2,0c0.1,33.2,0,66.5,0,99.7c-8.1,0-16.2,0-24.2,0C636.5,133.3,636.5,100,636.5,66.8z"/>
	<path d="M681.3,66.8c26,0,52,0,78,0c0,6.5,0,13,0,19.5c-9,0-18,0-27,0c0,26.7,0,53.5,0,80.2c-8.1,0-16.2,0-24.3,0
		c0-26.7,0-53.5,0-80.2c-8.9,0-17.8,0-26.7,0C681.3,79.8,681.3,73.3,681.3,66.8z"/>
	<path d="M892.8,66.8c8.2,0,16.3,0,24.5,0c0,27,0,54,0,81c10.7,0,21.3,0,32,0c0,6.2,0,12.5,0,18.7c-18.8,0-37.7,0-56.5,0
		C892.8,133.3,892.8,100,892.8,66.8z"/>
	<path d="M808.9,67.6c9.3-0.3,18.7,0,28-0.2c12.3,33,24.4,66,36.5,99c-8.6,0.1-17.2,0-25.8,0c-2.2-6-4.2-12.1-6.3-18.2
		c-12.3-0.1-24.7,0-37,0c-2,6.1-4.2,12.1-6.2,18.2c-8.6,0-17.1,0-25.7,0C784.6,133.5,796.9,100.6,808.9,67.6 M822.9,93.7
		c-4.1,12-8.3,24-12.3,36c8.1-0.1,16.2,0,24.4,0C831.1,117.7,826.8,105.8,822.9,93.7z"/>
	<path d="M832.6,190c9-4.2,19.4-4.7,29.1-3.2c7.9,1.2,15.5,4.7,20.8,10.9c4.5,4.9,6.7,11.6,7.2,18.1c-8.7,0-17.4,0-26.1,0
		c-0.8-4.4-3.2-9.1-8-10.2c-4.8-1.6-11.6,0.5-12.5,6.1c-1.2,4.5,1.8,8.8,5.6,10.9c10.9,5.8,23.9,7.3,33.6,15.4
		c12.2,10,12.2,30.7,0.8,41.3c-7,6.6-17,9.2-26.5,9c-11.3,0.2-23.2-3-31.2-11.4c-5.2-5.2-7.7-12.5-8.2-19.6
		c8.6-0.2,17.2-0.1,25.7-0.1c0.6,2.8,1.3,5.8,3.3,8c3.6,4.1,10,5.2,14.9,2.9c5.2-2.6,6-10.7,1.7-14.5c-4.9-4.4-11.6-5.9-17.7-8.2
		c-7.8-3-16.4-5.5-21.9-12.2c-6.1-6.5-7.3-16.2-5.6-24.7C819.1,200.1,825.2,193.4,832.6,190z"/>
	<path d="M921.3,194.2c7.8-6.6,18.3-8.6,28.2-8.2c9.3,0.3,19.2,2.7,26.1,9.4c5.7,5.2,8.9,12.7,9.3,20.4c-8.7,0-17.4,0-26.2,0
		c-0.7-4.5-3.4-9.3-8.2-10.3c-4.7-1.4-11.3,0.7-12.2,6.1c-1.3,4.4,1.6,8.7,5.4,10.8c11,6,24.5,7.5,34.2,15.8
		c12.1,10.3,11.7,31.2-0.2,41.5c-7.1,6.3-16.8,8.7-26.1,8.4c-11.1,0.2-22.7-3-30.7-11c-5.4-5.2-8.1-12.7-8.5-20.1
		c8.6,0,17.2,0,25.7,0c0.5,2.4,1,5,2.5,7.1c3.3,4.8,10.1,6.2,15.3,3.9c4.1-1.9,5.8-7.3,4.2-11.4c-1.1-3-3.9-4.9-6.5-6.3
		c-10.2-5-22-6.9-31.4-13.7C909,226.9,908.6,204.6,921.3,194.2z"/>
	<path d="M1272.1,187.8c15.7-3.2,33.6-0.8,45.7,10.4c7.5,6.6,12.2,15.9,14.2,25.5c-8.6,0-17.1,0-25.7,0c-2.9-7.1-9.2-12.7-16.7-14.1
		c-7.7-1.8-16.4,0.2-21.8,6.2c-6.3,6.9-7.9,16.8-7,25.8c0.5,6.8,3.2,13.6,8.3,18.3c9.1,8.2,24.7,7,32.7-2.1c2-2,3.3-4.6,4.6-7.1
		c8.5,0.2,17.1,0,25.6,0.1c-1.9,8.4-5.5,16.5-11.5,22.8c-7,7.7-16.8,12.5-27,13.8c-11.5,1.6-23.6,0.4-33.9-5.3
		c-9.8-5.2-17.1-14.5-20.7-25c-5.5-16.9-4.2-36.9,6.2-51.8C1251.5,196.3,1261.4,190.1,1272.1,187.8z"/>
	<path d="M354.3,187.5c13.8,0,27.5,0,41.2,0c8.5,0,17.4,1.6,24.4,6.7c13,9,15.5,28.8,7.2,41.7c-4.1,6.4-11.2,10.3-18.5,12.2
		c7.8,13.1,15.8,26.1,23.6,39.1c-9,0-18,0.1-27-0.1c-7-12.5-14.3-24.9-21.3-37.4c-1.8,0-3.6,0-5.3,0c0,12.5,0,25,0,37.5
		c-8.1,0-16.2,0-24.2,0C354.3,254,354.3,220.8,354.3,187.5 M378.5,208c0,8.3,0,16.6,0,25c6.9-0.3,14,0.8,20.9-0.8
		c10.5-2.7,10.3-20.3,0-23.2C392.6,207.2,385.5,208.4,378.5,208z"/>
	<path d="M454.3,187.5c20.7,0,41.3,0,62,0c0,6.5,0,13,0,19.5c-12.6,0-25.2,0-37.8,0c0,6.8,0,13.7,0,20.5c11.2,0,22.3,0,33.5,0
		c0,6.1,0,12.2,0,18.2c-11.2,0-22.3,0-33.5,0c0,7.3,0,14.7,0,22c12.6,0,25.2,0,37.8,0c0,6.5,0,13,0,19.5c-20.7,0-41.3,0-62,0
		C454.3,254,454.3,220.8,454.3,187.5z"/>
	<path d="M540.3,187.5c8.1,0,16.1,0,24.2,0c13.3,20.5,26.7,40.9,40,61.3c0-20.4,0-40.9,0-61.3c8.1,0,16.2,0,24.2,0
		c0,33.3,0,66.5,0,99.8c-8,0-16.1-0.1-24.2,0.1c-13.4-20.1-26.6-40.5-40-60.6c-0.1,20.2,0,40.4-0.1,60.6c-8.1,0-16.1,0-24.2,0
		C540.2,254,540.3,220.8,540.3,187.5z"/>
	<path d="M768.8,187.5c8.1,0,16.2,0,24.2,0c0,33.3,0.1,66.5,0,99.8c-8.1-0.1-16.1,0-24.2,0C768.8,254,768.8,220.8,768.8,187.5z"/>
	<path d="M1123.5,187.5c8.1,0,16.1,0,24.2,0c13.4,20.4,26.6,40.8,40,61.1c0.1-20.4,0-40.7,0-61.1c8.1,0,16.2,0,24.2,0
		c0,33.2,0,66.5,0,99.8c-8.1,0-16.2,0-24.2,0c-13.4-20.2-26.6-40.5-40-60.6c-0.1,20.2,0,40.4,0,60.6c-8.1,0-16.2,0-24.2,0
		C1123.5,254,1123.5,220.8,1123.5,187.5z"/>
	<path d="M1355.8,187.5c20.7,0,41.3,0,62,0c0,6.5,0,13,0,19.5c-12.6,0-25.2,0-37.7,0c0,6.8,0,13.7,0,20.5c11.2,0,22.3,0,33.5,0
		c0,6.1,0,12.2,0,18.2c-11.2,0.1-22.4-0.2-33.6,0.2c0.2,7.3,0,14.6,0.1,21.8c12.6,0,25.1,0,37.7,0c0.1,6.5,0,13,0,19.5
		c-20.7,0-41.3,0-62,0C1355.8,254,1355.8,220.8,1355.8,187.5z"/>
	<path d="M684.7,188.3c9.3-0.1,18.6,0,27.9,0c12.2,33,24.4,66,36.5,99c-8.7,0-17.4,0.2-26-0.1c-1.9-6.1-4-12.1-6.2-18.1
		c-12.3,0-24.5,0-36.8,0c-2.2,6-4.2,12.2-6.3,18.3c-8.6,0.1-17.1,0-25.7,0C660.4,254.3,672.6,221.3,684.7,188.3 M686.4,250.5
		c8.1,0,16.2,0,24.4,0c-4-12-8.1-23.9-12.1-35.9C694.5,226.6,690.4,238.5,686.4,250.5z"/>
	<path d="M1039.6,188.3c9.3,0,18.6,0,27.9,0c12.2,33,24.4,66,36.5,99c-8.6,0-17.3,0-25.9,0c-2.1-6.1-4.1-12.2-6.3-18.2
		c-12.4,0.1-24.7-0.1-37,0.1c-1.8,6.1-4.2,11.9-5.9,18c-8.6,0.4-17.2,0.1-25.8,0.2C1015.2,254.2,1027.5,221.3,1039.6,188.3
		 M1041.2,250.5c8.1,0,16.2,0,24.4,0c-4-12-8.1-23.9-12.1-35.8C1049.4,226.6,1045.3,238.5,1041.2,250.5z"/>
</g>
</svg>
