<?xml version="1.0" encoding="UTF-8" ?>
<!DOCTYPE svg PUBLIC "-//W3C//DTD SVG 1.1//EN" "http://www.w3.org/Graphics/SVG/1.1/DTD/svg11.dtd">
<svg width="584pt" height="151pt" viewBox="0 0 584 151" version="1.1" xmlns="http://www.w3.org/2000/svg">
<g id="#000000ff">
<path fill="#000000" opacity="1.00" d=" M 35.67 0.00 L 101.16 0.00 C 98.73 7.54 96.51 15.15 94.17 22.72 C 76.09 22.81 58.00 22.70 39.92 22.77 C 36.72 22.59 33.76 24.99 33.25 28.14 C 29.80 43.85 26.58 59.61 23.16 75.32 C 22.54 77.73 22.58 80.57 24.52 82.41 C 26.36 84.61 29.39 84.55 32.00 84.54 C 42.67 84.39 53.35 84.62 64.02 84.45 C 70.00 84.39 74.83 79.75 76.56 74.26 C 84.54 74.23 92.52 74.25 100.51 74.25 C 99.75 81.12 97.75 88.04 93.45 93.56 C 86.64 102.56 75.18 107.38 64.04 107.27 C 51.69 107.19 39.33 107.34 26.98 107.21 C 13.24 106.65 1.32 94.91 0.00 81.30 L 0.00 74.63 C 3.16 58.74 6.74 42.94 10.01 27.07 C 10.86 22.88 11.77 18.62 13.94 14.89 C 18.36 6.88 26.69 1.42 35.67 0.00 Z" />
<path fill="#000000" opacity="1.00" d=" M 211.94 43.97 C 217.15 34.96 228.32 32.33 238.00 32.03 C 260.01 31.94 282.03 32.05 304.05 31.98 C 305.45 32.03 307.13 31.77 308.05 33.12 C 308.42 38.07 308.33 43.08 308.14 48.04 C 307.95 50.12 305.58 49.95 304.06 50.02 C 283.38 49.97 262.70 50.02 242.02 49.99 C 237.36 50.02 231.73 50.66 229.05 55.03 C 226.52 59.55 226.83 64.97 226.74 69.98 C 226.88 76.33 226.47 82.70 227.01 89.04 C 227.39 92.58 228.22 96.56 231.27 98.79 C 234.93 101.39 239.67 101.38 243.98 101.51 C 257.34 101.46 270.71 101.56 284.07 101.46 C 286.50 101.54 289.30 100.42 289.79 97.77 C 290.76 92.80 290.06 87.68 290.18 82.64 C 277.46 82.25 264.71 82.72 251.99 82.41 C 249.55 82.61 249.66 79.67 249.72 78.03 C 249.78 75.01 249.59 71.98 249.86 68.97 C 250.09 66.84 252.50 67.35 254.00 67.22 C 271.03 67.30 288.07 67.19 305.10 67.27 C 307.64 67.15 308.38 70.01 308.23 72.05 C 308.28 81.02 308.26 89.99 308.23 98.96 C 308.04 104.06 307.95 109.64 304.83 113.95 C 302.16 117.64 297.44 119.15 293.03 119.01 C 276.36 118.99 259.68 118.99 243.01 119.01 C 232.92 119.07 221.12 118.26 214.02 110.08 C 206.73 101.13 207.55 88.81 207.50 77.96 C 207.78 66.61 206.11 54.28 211.94 43.97 Z" />
<path fill="#000000" opacity="1.00" d=" M 329.75 35.93 C 329.43 34.05 330.83 31.90 332.87 32.02 C 357.23 31.95 381.60 32.04 405.96 31.98 C 411.30 31.98 416.91 32.63 421.54 35.50 C 426.59 38.82 428.74 45.13 428.75 50.95 C 428.63 56.39 429.50 62.13 427.11 67.23 C 425.92 70.11 423.65 72.32 421.26 74.23 C 426.37 77.38 429.44 83.12 429.45 89.10 C 429.46 96.54 430.33 104.75 426.19 111.36 C 422.52 117.02 415.43 119.03 409.03 119.01 C 383.66 118.98 358.29 119.03 332.92 118.98 C 330.84 119.13 329.42 116.95 329.75 115.05 C 329.75 88.67 329.74 62.30 329.75 35.93 M 348.94 49.77 C 349.07 55.85 348.97 61.92 349.00 68.00 C 366.34 67.99 383.68 68.01 401.03 67.99 C 404.52 68.05 409.33 67.09 410.04 62.98 C 410.35 59.76 410.64 56.36 409.71 53.23 C 408.40 49.83 404.27 49.33 401.10 49.26 C 385.06 49.22 369.01 49.30 352.97 49.22 C 351.59 49.18 350.26 49.45 348.94 49.77 M 349.01 81.75 C 348.96 88.24 349.07 94.74 348.94 101.23 C 350.27 101.55 351.63 101.82 353.02 101.78 C 369.32 101.69 385.63 101.81 401.94 101.72 C 405.23 101.74 409.38 100.63 410.14 96.91 C 410.66 93.41 410.91 89.68 409.87 86.25 C 408.43 82.27 403.56 81.93 399.97 81.79 C 382.98 81.70 365.99 81.78 349.01 81.75 Z" />
<path fill="#000000" opacity="1.00" d=" M 450.85 32.06 C 456.54 32.06 462.26 31.79 467.95 32.15 C 469.55 32.78 469.13 34.62 469.26 35.99 C 469.22 62.70 469.29 89.42 469.23 116.14 C 469.41 117.44 468.66 119.15 467.12 118.98 C 461.82 118.97 456.50 119.20 451.22 118.84 C 449.89 118.03 450.03 116.40 449.98 115.06 C 450.02 88.69 450.00 62.32 449.99 35.95 C 449.94 34.60 450.46 33.33 450.85 32.06 Z" />
<path fill="#000000" opacity="1.00" d=" M 503.19 36.25 C 512.33 31.35 523.01 31.97 533.04 32.00 C 550.02 32.10 567.02 31.78 584.00 32.17 L 584.00 49.54 C 582.00 49.86 579.98 50.03 577.97 50.04 C 560.29 49.95 542.61 50.02 524.94 49.99 C 520.54 50.06 515.29 50.63 512.59 54.58 C 509.66 59.13 510.10 64.81 509.98 69.98 C 510.22 77.18 509.45 84.45 510.65 91.58 C 511.25 95.43 513.76 99.18 517.71 100.16 C 524.32 101.92 531.24 101.05 537.99 101.24 C 553.33 101.42 568.68 100.89 584.00 101.52 L 584.00 118.67 C 580.67 119.09 577.30 119.05 573.96 119.01 C 556.30 118.95 538.65 119.07 521.00 118.96 C 512.26 118.58 502.38 116.75 496.71 109.41 C 490.77 101.66 490.73 91.31 490.74 81.99 C 491.01 72.30 490.01 62.49 491.85 52.90 C 493.13 46.13 496.88 39.47 503.19 36.25 Z" />
<path fill="#000000" opacity="1.00" d=" M 58.23 66.51 C 59.73 58.92 61.25 51.33 62.79 43.75 C 77.20 43.74 91.61 43.75 106.03 43.75 C 111.32 43.75 116.82 43.32 121.86 45.26 C 135.45 49.73 144.17 65.05 140.87 79.02 C 137.37 95.54 133.87 112.07 130.32 128.59 C 127.73 140.38 117.16 149.61 105.23 151.00 L 40.20 151.00 C 42.16 143.44 43.87 135.82 45.80 128.25 C 64.23 128.24 82.66 128.26 101.09 128.25 C 104.36 128.53 107.55 126.21 108.08 122.93 C 111.49 107.57 114.59 92.13 117.98 76.76 C 118.51 74.17 119.20 71.04 117.11 68.93 C 115.45 66.71 112.54 66.41 109.98 66.47 C 92.73 66.54 75.48 66.48 58.23 66.51 Z" />
</g>
</svg>
