<?xml version="1.0" encoding="utf-8"?>
<!-- Generator: Adobe Illustrator 26.0.3, SVG Export Plug-In . SVG Version: 6.00 Build 0)  -->
<svg version="1.1" id="圖層_1" xmlns="http://www.w3.org/2000/svg" xmlns:xlink="http://www.w3.org/1999/xlink" x="0px" y="0px"
	 viewBox="0 0 934.4 454.8" style="enable-background:new 0 0 934.4 454.8;" xml:space="preserve">
<style type="text/css">
	.st0{fill:#F1D050;}
</style>
<g id="_x23_f1d050ff">
	<path class="st0" d="M221.5,0.8c2.1-1.4,4.8-0.8,6.8,0.5c36,21,72.1,42,108.2,63c3.6,1.9,2.8,6.4,2.7,9.7c0,39,0,78,0,116.9
		c-0.3,1.4,1.2,1.9,2.1,2.5c34.6,20.1,69.1,40.2,103.6,60.4c1.8,0.9,3.1,2.4,3.6,4.3c-0.1,42.6,0,85.2,0,127.8
		c0,2.2-1.3,4.2-3.2,5.2c-34.5,19.9-69,39.7-103.6,59.6c-2.6,1.4-5,3.4-7.9,4c-2.8-0.2-5-2.2-7.3-3.5c-34-19.8-68-39.6-102-59.4
		c-35.8,20.5-71.5,41.1-107.2,61.6c-3.4,1.6-6.3-1.3-9-2.9c-34.8-20.3-69.6-40.5-104.4-60.8c-2.2-1.1-3.6-3.4-3.6-5.9
		C0.2,342.4,0.3,300.7,0,259c-0.1-2.5,1-5.2,3.4-6.4c35.3-20.4,70.6-40.6,105.9-61c0.1-40.9,0-81.8,0-122.6c0-2.5,1.3-4.8,3.6-5.8
		C149.2,42.4,185.3,21.6,221.5,0.8 M126.6,69c32.5,19.2,65.3,37.8,97.7,57.1c32.8-18.7,65.4-37.6,98.1-56.4
		c-32.7-18.9-65.3-38-98-57C191.8,31.6,159.2,50.2,126.6,69 M120.8,79c0,37.7,0,75.3,0,113c32.6,19.3,65.4,38.1,98,57.2
		c0-37.7,0-75.4,0-113.1C186.2,117,153.4,98.1,120.8,79 M232.4,134.7c-0.9,0.6-2.5,1-2.2,2.4c0,37.4,0,74.7,0,112.1
		c32.5-18.8,65.2-37.4,97.7-56.2c0-37.7,0-75.4,0-113.1C296.1,98.1,264.3,116.4,232.4,134.7 M17.3,258.3c32.6,19,65.3,37.8,97.8,57
		c32.7-18.6,65.2-37.4,97.8-56.2c-32.5-19.2-65.2-37.9-97.7-57C82.5,220.7,49.9,239.5,17.3,258.3 M331.2,204.3
		c-31.7,18.4-63.5,36.4-95.1,54.9c32.5,19,65.1,37.8,97.6,56.9c32.6-18.8,65.4-37.6,98-56.4C399.2,241,367,222,334.6,203.3
		C333.4,202.4,332.3,203.9,331.2,204.3 M11.8,268.4c0,37.5,0,74.9,0,112.4c32.5,19,65.2,37.9,97.7,56.9c-0.1-37.5,0-75,0-112.6
		C76.9,306.3,44.4,287.2,11.8,268.4 M120.8,325.3c0,37.5,0,75,0,112.5c32.7-18.8,65.3-37.6,98-56.3c0-37.5,0-75,0-112.6
		C186.2,287.8,153.5,306.6,120.8,325.3 M230.2,269.1c0.2,37.5,0,75,0.1,112.5c32.5,19,65.1,37.9,97.6,56.8c0-37.5,0-74.9,0-112.4
		C295.4,306.9,262.8,288,230.2,269.1 M339.4,326c0,37.5,0,75,0,112.5c32.5-18.8,65.1-37.5,97.7-56.3c-0.1-37.5,0-75,0-112.5
		C404.6,288.6,371.9,307.2,339.4,326z"/>
	<path class="st0" d="M554.8,180c0.2-9.8,9.2-18.1,18.9-18.2c23.4-0.1,46.7,0,70.1,0c9.8-0.2,18.9,7.8,19.6,17.6
		c0.2,6.6,0,13.2,0.1,19.9c-6.9,0-13.8,0-20.8,0c0-5.5,0-11,0-16.5c-22.4,0-44.8,0-67.2,0c0,29.7,0,59.3,0,89c22.4,0,44.8,0,67.2,0
		c0-9.5,0-19,0-28.5c-11.7,0-23.3,0-35,0c0-7,0-14,0-21c18.6,0,37.2,0,55.8,0c0,17.3,0,34.5,0,51.8c-0.2,9.8-8.8,18.4-18.6,18.7
		c-23.7,0.1-47.4,0.1-71.1,0c-9.9,0-19-8.7-19-18.7C554.8,242.7,554.8,211.4,554.8,180z"/>
	<path class="st0" d="M694.1,161.8c22.9,0,45.9,0,68.8,0c8.2,0.2,17.1,2,23.1,8c5.9,5.7,8,14.2,8.3,22.2c0.2,7.8,0,15.9-3.5,23
		c-1.9,3.9-5,7-8.5,9.4c5.7,2.4,10.3,6.9,12.7,12.6c3.5,8.2,3.3,17.3,3,26c-0.3,8.1-2.6,16.7-8.8,22.3c-6.2,5.7-15,7.4-23.2,7.5
		c-23.9,0-47.9,0-71.8,0C694.1,249.1,694.1,205.5,694.1,161.8 M714.6,182.3c0,11.3,0,22.7,0,34c15.1,0,30.2,0,45.2,0
		c3.6,0.1,7.8,0.1,10.7-2.5c3.2-3,3.4-7.7,3.4-11.8c-0.2-5.2,0.8-11-2.2-15.7c-2.4-3.5-7-4-10.8-4
		C745.4,182.3,730,182.3,714.6,182.3 M714.6,236.8c0,11.8,0,23.7,0,35.5c16.8,0,33.5,0,50.3,0c3.9-0.1,8.5-0.8,10.8-4.4
		c2.4-4.5,1.8-9.8,2-14.8c-0.1-4.4,0.1-9.4-2.7-13c-3.1-3.3-7.9-3.3-12.1-3.2C746.7,236.8,730.6,236.8,714.6,236.8z"/>
	<path class="st0" d="M811.3,161.8c7.5,0,15,0,22.5,0c13,34.4,26,68.8,39,103.2c13.2-34.4,26.1-68.8,39.2-103.2c7.4,0,14.9,0,22.4,0
		c-16.9,43.7-33.7,87.3-50.5,131c-7.3,0-14.7,0-22,0C845,249.1,828.1,205.5,811.3,161.8z"/>
</g>
</svg>
