<svg xmlns="http://www.w3.org/2000/svg" width="164" height="41" fill="none" viewBox="0 0 164 41">
  <path fill="url(#paint0_linear_0_3)" fill-rule="evenodd" d="M18.186.584L4.599 8.428a1.278 1.278 0 00.64 2.388h.001c.217 0 .437-.055.639-.171L18.826 3.17l12.948 7.475a1.28 1.28 0 001.28-2.216L19.465.583a1.276 1.276 0 00-1.28 0" clip-rule="evenodd"/>
  <path fill="url(#paint1_radial_0_3)" fill-rule="evenodd" d="M35.806 11.664L20.99 20.195a1.279 1.279 0 00-.642 1.109v17.132a1.28 1.28 0 001.92 1.108l14.816-8.555a1.28 1.28 0 00-1.28-2.216L22.908 36.22V22.044l14.174-8.161a1.278 1.278 0 00-.64-2.389c-.216 0-.435.054-.636.17" clip-rule="evenodd"/>
  <path fill="url(#paint2_linear_0_3)" fill-rule="evenodd" d="M.64 11.666c-.397.228-.64.65-.64 1.107v17.109c0 .457.244.88.64 1.107l14.816 8.555a1.276 1.276 0 001.282-.001c.396-.23.64-.655.637-1.113l-.04-8.554a1.28 1.28 0 00-.641-1.104l-3.943-2.27a1.28 1.28 0 10-1.277 2.219l3.305 1.903.027 5.59-12.247-7.072V14.986l12.898 7.427a1.28 1.28 0 101.277-2.218L1.918 11.664a1.277 1.277 0 00-1.278.002z" clip-rule="evenodd"/>
  <path fill="#060101" fill-rule="evenodd" d="M150.755 22.874l1.205-6.948c.06-.396.12-.792.159-1.208.06.436.118.871.198 1.307l1.162 6.85h-2.724v-.001zm3.541 4.81h1.03l-2.534-14.054h-1.346l-2.554 14.054h1.03l.675-3.9h3.037l.662 3.9zm3.682 0V13.71h.97v13.105h4.612v.87l-5.582-.001zm-81.53 0V13.71h.97v13.105h4.612v.87l-5.582-.001zM52.596 14.58v5.384h3.999v.852h-3.999v5.998h3.98v.87h-4.93V13.71h4.949v.87h-3.999zm10.65 13.104l-3.247-12.79.08 12.79h-.931V13.71h1.425l3.346 13.029-.139-13.03h.95v13.976l-1.484-.001zm7.737-1.084H69.32v-5.44h.99c.93 0 1.979.119 2.355 1.148.099.297.12.614.12.95v1.398c0 .797-.05 1.26-.283 1.595-.585.402-1.333.349-1.52.349h.001zm0-11.806c.186 0 .934-.054 1.519.349.232.334.282.798.282 1.594v1.477c0 .337-.02.653-.119.95-.376 1.03-1.425 1.148-2.355 1.148h-.99v-5.518h1.663zm2.771 3.4v-1.892c0-.752-.08-1.445-.693-2-.732-.633-1.663-.593-1.94-.593H68.33v13.976h2.791c.277 0 1.208.04 1.94-.594.614-.555.693-1.247.693-2v-1.813c0-.732-.02-1.524-.653-2.059-.345-.292-.802-.421-1.128-.483.326-.06.783-.191 1.128-.483.633-.535.653-1.326.653-2.059zm14.531-.546c0-1.168-.06-1.821-.337-2.356a1.365 1.365 0 00-.634-.653 1.961 1.961 0 00-.93-.218c-.554 0-.91.198-1.069.297-.851.555-.811 1.663-.811 1.9v7.701c0 .792.04 1.227.158 1.584.138.376.633 1.089 1.742 1.089.396 0 .772-.1 1.089-.337.752-.535.792-1.386.792-2.197v-6.81zm.514 9.007c-.297.515-1.03 1.208-2.455 1.208-.276 0-1.484-.02-2.177-.851-.554-.694-.614-1.485-.614-2.317v-7.879c0-.157 0-.95.218-1.583.396-1.168 1.485-1.702 2.672-1.683.634 0 1.267.139 1.782.515.99.752.99 1.96.99 3.049v7.72c0 .653-.06 1.247-.416 1.821zm8.947-.317c-.257.733-.95 1.564-2.672 1.564-1.663 0-2.337-1.108-2.534-1.702-.139-.416-.198-.812-.198-1.683v-7.581c0-.852-.02-1.604.515-2.316.554-.773 1.365-1.05 2.256-1.05 1.05 0 2.059.416 2.455 1.446.198.494.198 1.108.198 1.247v1.96h-.95v-.931c0-1.05-.02-1.624-.258-2.079a1.358 1.358 0 00-.515-.515 1.688 1.688 0 00-.91-.237c-.178 0-.594.02-1.01.277-.89.535-.83 1.683-.83 1.92v6.89c0 .752-.06 1.94.355 2.632.139.257.337.436.574.574.416.218.832.238 1.01.238.435 0 .713-.12.871-.198.871-.456.831-1.426.831-1.683v-2.237h.99v2.158c0 .693-.06.97-.178 1.306zm7.66 1.346l-2.553-7.244-1.03 1.94v5.304h-.95V13.71h.97v6.85l3.484-6.85h1.089l-2.97 5.562 3.01 8.413-1.05-.001zm13.44-1.346c-.258.733-.951 1.564-2.673 1.564-1.663 0-2.336-1.108-2.534-1.702-.138-.416-.198-.812-.198-1.683v-7.581c0-.852-.02-1.604.515-2.316.554-.773 1.366-1.05 2.257-1.05 1.049 0 2.058.416 2.454 1.446.198.494.198 1.108.198 1.247v1.96h-.95v-.931c0-1.05-.02-1.624-.258-2.079a1.356 1.356 0 00-.514-.515 1.688 1.688 0 00-.91-.237c-.179 0-.594.02-1.01.277-.89.535-.831 1.683-.831 1.92v6.89c0 .752-.06 1.94.355 2.632.14.257.337.436.575.574.415.218.832.238 1.01.238.435 0 .712-.12.87-.198.872-.456.832-1.426.832-1.683v-2.237h.99v2.158c0 .693-.06.97-.178 1.306zm16.033-9.145c0-1.247-.02-1.92-.575-2.336-.356-.277-.672-.336-1.484-.336h-1.485v5.978h1.584c.534 0 1.089-.06 1.505-.495.534-.535.455-1.485.455-1.604v-1.207zm.396 3.227c-.713.85-1.881.89-2.495.89h-1.425v6.374h-.97V13.71h2.178c.85 0 1.8-.04 2.513.554.753.614.753 1.524.753 2.554V18.4c0 .752-.02 1.386-.554 2.02zm3.522 7.264h1.01V13.71h-1.01v13.974zm6.711-13.104v13.105h-.99V14.58h-2.435v-.871h5.9v.87l-2.475.001zM47.654 24.676c0 .435-.02 1.068-.198 1.485-.178.395-.627.89-1.637.89-.06 0-.13.002-.229-.004-.873-.039-1.309-.679-1.443-.966-.21-.419-.26-.908-.273-1.694l-.004-7.194c0-.871-.08-1.801.673-2.435.475-.376 1.029-.376 1.227-.376 1.01 0 1.445.495 1.623.89.178.416.198 1.05.198 1.485v1.445h.93v-1.94c0-.079 0-.653-.098-1.029-.218-.712-.852-1.683-2.594-1.683-.93 0-1.425.198-1.781.436a1.87 1.87 0 00-.456.376c-.613.614-.672 1.564-.672 2.375l.004 7.958c0 .34.024.677.092 1.011.079.44.213.77.438 1.107.036.056.096.145.188.258.067.073.127.13.184.18.463.42 1.088.631 1.726.631 0 0 .033 0 0 0 0 0 .263.002.327 0 1.773-.03 2.433-.97 2.651-1.682.1-.376.1-.95.1-1.03l-.01-3.86h-3.028v.851h2.059l.003 2.515zm75.509-1.802l1.205-6.948c.06-.396.118-.792.158-1.208.06.436.119.871.198 1.307l1.163 6.85h-2.724v-.001zm3.54 4.81h1.03L125.2 13.63h-1.346L121.3 27.684h1.029l.676-3.9h3.037l.661 3.9z" clip-rule="evenodd"/>
  <defs>
    <linearGradient id="paint0_linear_0_3" x1="3.954" x2="33.665" y1="5.614" y2="5.614" gradientUnits="userSpaceOnUse">
      <stop stop-color="#26295C"/>
      <stop offset="1" stop-color="#D21D52"/>
    </linearGradient>
    <linearGradient id="paint2_linear_0_3" x1="5.647" x2="19.235" y1="11.662" y2="35.23" gradientUnits="userSpaceOnUse">
      <stop stop-color="#26295C"/>
      <stop offset="1" stop-color="#45ABA7"/>
    </linearGradient>
    <radialGradient id="paint1_radial_0_3" cx="0" cy="0" r="1" gradientTransform="rotate(123.775 -16.709 1.673) scale(12.8934 27.4795)" gradientUnits="userSpaceOnUse">
      <stop stop-color="#D31D59"/>
      <stop offset="1" stop-color="#45ABA8"/>
    </radialGradient>
  </defs>
</svg>
