<?xml version="1.0" encoding="utf-8"?>
<!-- Generator: Adobe Illustrator 26.0.3, SVG Export Plug-In . SVG Version: 6.00 Build 0)  -->
<svg version="1.1" id="layer" xmlns="http://www.w3.org/2000/svg" xmlns:xlink="http://www.w3.org/1999/xlink" x="0px" y="0px"
	 viewBox="0 0 599.9 195.8" style="enable-background:new 0 0 599.9 195.8;" xml:space="preserve">
<style type="text/css">
	.st0{fill:#0B3460;}
</style>
<path class="st0" d="M0,160.4V0l58.7,33v162.8L0,160.4z M88.7,160.4V0l58.7,33v162.8L88.7,160.4z M177.4,160.4V0l58.7,33v162.8
	L177.4,160.4z M359.9,18.7h21.8v98.8h-23.6l-23.2-37.8c-8-12.8-13.8-22.7-17.4-29.8c0.6,11.4,0.8,24.2,0.8,38.2v29.3h-21.8V18.6
	h24.2l25.2,41.2c7,11.3,11.8,19.5,14.6,24.6c-0.4-7.8-0.6-19.1-0.6-34.1V18.7z M441.8,80.2V61.3h47v56.2h-17.1l-0.8-8.5
	c-5.7,7.2-14.7,10.8-27.1,10.8c-14.8,0-26.6-4.8-35.3-14.5s-13.1-22.1-13.1-37.4c-0.2-15,4.4-27.4,13.6-37.1
	c9.4-9.8,21.7-14.7,37-14.5c8.6,0,16.2,1.4,22.8,4.2c6.7,2.8,13.4,7.5,20.3,14.2l-14.2,14.7c-5.6-4.9-10.5-8.3-14.9-10.3
	c-4.4-1.9-9-2.9-14-2.9c-8.5,0-15.3,2.7-20.3,8.2c-4.9,5.5-7.4,13.3-7.4,23.4c0,10.4,2.4,18.4,7.2,24.1c4.9,5.6,11.6,8.3,20,8.3
	c7.2,0,12.8-1.7,16.8-5.1c4.1-3.5,6.1-8.3,6.1-14.5v-0.4L441.8,80.2L441.8,80.2z M550.7,16.2c7.9,0,14.6,1.2,20.2,3.5
	c5.7,2.4,11.5,6.3,17.4,11.7L575,46.9c-4.9-4.2-9.1-7-12.7-8.5c-3.4-1.6-7.4-2.4-11.8-2.4c-8.3,0-14.8,2.9-19.8,8.6
	c-4.8,5.7-7.2,13.4-7.2,23.2c0,9.9,2.4,17.8,7.2,23.5c4.9,5.7,11.5,8.6,19.6,8.6c4.8,0,9-0.9,12.5-2.6c3.6-1.7,8.2-4.7,13.8-9.2
	l12.9,15.3c-6.1,5.7-12.3,9.8-18.5,12.5c-6.1,2.6-12.9,3.9-20.4,3.9c-15.2,0-27.4-4.9-36.4-14.6c-9.1-9.8-13.6-22.4-13.6-37.7
	c0-15,4.5-27.4,13.5-37C523.1,21,535.3,16.2,550.7,16.2z M313,182.7l13.7-40.5H323l-12,37h-0.2l-11.9-36.9H295l13.6,40.5h4.4V182.7z
	 M353.9,183.4c5.6,0,9.7-2.9,11.6-7.2l-2.5-1.7c-1.6,3.9-4.8,6-9,6c-6.1,0-9.7-4.3-9.7-10.5v-1.5h22v-1.6c0-8.7-4.9-14.6-12.5-14.6
	c-7.9,0-12.9,5.8-12.9,15.5S346,183.4,353.9,183.4z M353.8,155.1c5.3,0,8.9,4.1,8.9,10.4v0.5h-18.4v-0.3
	C344.4,159.4,348.1,155.1,353.8,155.1z M389.6,182.7v-20.9c0-4.4,3.9-6.5,8.1-6.5c4.9,0,7.6,2.9,7.6,8.9v18.5h3.3v-19.1
	c0-7.2-3.7-11.3-10-11.3c-4.8,0-7.4,2.3-8.8,5.4h-0.2V153h-3.3v29.7H389.6z M441.6,182.7v-2.9h-6.3v-23.9h6.7V153h-6.7v-8.3h-3v6
	c0,1.7-0.5,2.3-2.1,2.3h-3.4v2.9h5.2V179c0,2.2,1.3,3.7,3.7,3.7L441.6,182.7L441.6,182.7z M480.1,182.7h3.3V153h-3.3v20.8
	c0,4.5-3.9,6.6-8,6.6c-4.9,0-7.6-2.9-7.6-9V153h-3.3v19.1c0,7.2,3.8,11.3,10.1,11.3c5.1,0,7.5-2.6,8.6-5.4h0.2L480.1,182.7
	L480.1,182.7z M509.1,182.7v-20.3c0-3.8,3.5-6.1,8.5-6.1h2.6v-3.2h-2c-5.1,0-7.7,2.5-8.9,5.3h-0.2v-5.3h-3.3v29.7h3.3V182.7z
	 M548.6,183.4c5.6,0,9.7-2.9,11.6-7.2l-2.4-1.6c-1.6,3.9-4.8,6-9,6c-6.1,0-9.7-4.3-9.7-10.5v-1.6h22v-1.6c0-8.7-4.9-14.6-12.5-14.6
	c-7.9,0-12.9,5.8-12.9,15.5S540.6,183.4,548.6,183.4z M548.5,155.1c5.3,0,8.9,4.1,8.9,10.4v0.5H539v-0.3
	C539.1,159.4,542.8,155.1,548.5,155.1z M589.4,183.4c6.5,0,10.5-3.3,10.5-8.8c0-4.8-2.8-7.4-8.9-8.3l-2.4-0.3
	c-4.2-0.7-6.4-2-6.4-5.4s2.5-5.3,6.7-5.3c4.1,0,6.5,1.9,8.1,3.8l2.2-2c-2.2-2.7-5.2-4.6-10.1-4.6c-5.7,0-10.1,2.8-10.1,8.3
	c0,5.3,3.7,7.5,9.1,8.3l2.4,0.4c4.3,0.6,6.1,2.4,6.1,5.6c0,3.6-2.6,5.6-7.1,5.6c-3.9,0-6.8-1.6-9.2-4.8l-2.4,1.9
	C580.7,181.4,584.3,183.4,589.4,183.4z"/>
</svg>
