<?xml version="1.0" encoding="UTF-8" ?>
<!DOCTYPE svg PUBLIC "-//W3C//DTD SVG 1.1//EN" "http://www.w3.org/Graphics/SVG/1.1/DTD/svg11.dtd">
<svg width="320pt" height="131pt" viewBox="0 0 320 131" version="1.1" xmlns="http://www.w3.org/2000/svg">
<g id="#000000ff">
<path fill="#000000" opacity="1.00" d=" M 36.29 17.40 C 38.14 15.57 41.64 17.42 41.23 20.02 C 41.28 40.70 41.25 61.38 41.24 82.06 C 42.02 85.39 37.23 87.46 35.48 84.46 C 34.96 81.67 35.32 78.82 35.26 76.01 C 35.22 57.65 35.32 39.29 35.20 20.93 C 35.26 19.70 35.00 18.14 36.29 17.40 Z" />
<path fill="#000000" opacity="1.00" d=" M 46.24 17.28 C 50.97 16.08 56.10 17.14 60.98 16.74 C 67.83 16.21 75.35 18.90 78.85 25.13 C 83.49 33.18 83.40 44.78 76.48 51.54 C 72.93 55.01 67.89 56.60 62.97 56.38 C 57.66 56.23 52.33 56.59 47.02 56.21 C 44.69 54.93 44.73 51.23 47.45 50.49 C 53.61 49.96 59.84 50.80 66.01 50.11 C 70.79 49.59 74.72 45.55 75.51 40.87 C 76.15 36.49 75.98 31.65 73.36 27.90 C 71.41 24.69 67.60 23.15 63.99 22.88 C 58.38 22.48 52.73 23.10 47.13 22.65 C 44.87 22.00 44.21 18.57 46.24 17.28 Z" />
<path fill="#000000" opacity="1.00" d=" M 96.25 17.12 C 98.44 15.71 100.36 17.76 101.42 19.52 C 115.27 40.08 129.21 60.58 143.04 81.16 C 145.02 83.81 141.85 86.90 139.06 85.81 C 137.37 84.09 136.13 82.01 134.80 80.02 C 121.80 60.74 108.76 41.48 95.77 22.20 C 94.34 20.68 94.38 18.27 96.25 17.12 Z" />
<path fill="#000000" opacity="1.00" d=" M 137.43 18.40 C 138.92 16.29 142.83 15.92 143.39 18.99 C 143.64 33.65 143.45 48.33 143.48 63.00 C 143.75 66.51 139.05 67.13 137.42 64.50 C 137.56 49.14 137.55 33.77 137.43 18.40 Z" />
<path fill="#000000" opacity="1.00" d=" M 155.28 17.18 C 157.08 15.83 159.10 17.38 160.26 18.78 C 168.76 28.25 177.46 37.53 185.94 47.01 C 187.80 48.68 186.58 52.18 184.05 52.19 C 182.62 52.45 181.75 51.08 180.80 50.29 C 172.51 41.26 164.28 32.17 155.98 23.15 C 154.19 21.61 152.81 18.83 155.28 17.18 Z" />
<path fill="#000000" opacity="1.00" d=" M 209.25 17.21 C 211.76 15.22 215.34 18.96 213.26 21.40 C 207.37 28.37 201.13 35.06 195.16 41.97 C 193.81 43.33 192.24 45.69 189.99 44.65 C 187.90 43.74 187.67 40.86 189.33 39.40 C 195.99 32.03 202.34 24.34 209.25 17.21 Z" />
<path fill="#000000" opacity="1.00" d=" M 226.32 17.40 C 228.52 15.42 230.96 17.96 232.32 19.66 C 250.72 39.98 269.28 60.16 287.70 80.46 C 289.43 81.84 289.10 84.80 287.01 85.62 C 285.40 86.65 283.89 85.20 282.85 84.10 C 264.09 63.52 245.31 42.94 226.54 22.38 C 225.05 21.16 224.56 18.60 226.32 17.40 Z" />
<path fill="#000000" opacity="1.00" d=" M 278.26 19.53 C 279.37 18.45 280.36 17.02 281.97 16.64 C 283.93 16.68 284.83 18.55 285.68 20.01 C 280.66 26.48 274.69 32.14 269.30 38.29 C 267.61 39.98 266.27 42.20 264.02 43.19 C 261.45 43.81 259.19 40.29 261.13 38.32 C 266.70 31.94 272.63 25.86 278.26 19.53 Z" />
<path fill="#000000" opacity="1.00" d=" M 96.10 36.93 C 97.74 35.42 100.76 36.78 100.70 39.00 C 100.80 53.66 100.75 68.34 100.72 83.00 C 101.13 86.76 94.75 86.79 94.82 83.12 C 94.61 69.40 94.85 55.66 94.71 41.93 C 94.88 40.22 94.27 37.95 96.10 36.93 Z" />
<path fill="#000000" opacity="1.00" d=" M 246.18 54.98 C 248.16 53.12 251.85 56.21 250.53 58.54 C 249.43 60.39 247.82 61.86 246.39 63.45 C 239.55 70.62 233.04 78.11 226.11 85.19 C 223.43 87.90 219.14 83.36 222.08 80.86 C 230.08 72.22 237.89 63.34 246.18 54.98 Z" />
<path fill="#000000" opacity="1.00" d=" M 180.81 58.98 C 180.80 56.80 183.71 55.19 185.52 56.61 C 187.19 57.40 186.60 59.53 186.79 61.01 C 186.60 68.62 186.96 76.25 186.63 83.85 C 185.94 86.76 182.19 86.13 180.71 84.17 C 180.86 75.77 180.61 67.37 180.81 58.98 Z" />
<path fill="#000000" opacity="1.00" d=" M 150.60 99.17 C 151.56 99.17 152.51 99.16 153.47 99.15 C 153.48 99.80 153.52 101.10 153.53 101.75 C 154.11 101.75 155.27 101.73 155.85 101.72 C 156.03 103.50 155.68 104.93 153.50 104.69 C 153.92 107.34 151.95 112.49 156.05 112.53 C 156.06 113.14 156.07 114.35 156.08 114.96 C 154.25 114.80 151.76 115.25 150.77 113.25 C 149.52 109.97 151.31 105.96 148.86 103.03 C 149.51 101.77 150.11 100.50 150.60 99.17 Z" />
<path fill="#000000" opacity="1.00" d=" M 93.85 101.29 C 94.67 101.24 96.32 101.14 97.14 101.08 C 97.97 104.00 98.91 106.88 99.71 109.81 C 100.47 106.94 101.29 104.09 102.07 101.23 C 103.24 101.22 104.41 101.21 105.57 101.20 C 104.01 105.76 102.49 110.33 100.99 114.92 C 100.31 114.89 98.94 114.84 98.25 114.82 C 96.88 110.28 95.28 105.81 93.85 101.29 Z" />
<path fill="#000000" opacity="1.00" d=" M 114.45 101.73 C 116.86 100.81 120.34 100.64 122.00 103.00 C 123.18 104.74 122.75 106.95 122.88 108.92 C 120.18 108.90 117.49 108.90 114.80 108.92 C 115.41 110.00 115.26 112.47 117.10 112.22 C 118.67 112.79 119.55 111.18 120.45 110.27 C 121.12 110.26 122.48 110.24 123.16 110.23 C 123.35 116.11 113.90 117.29 112.31 111.93 C 111.44 108.60 111.01 103.76 114.45 101.73 M 114.81 106.66 C 116.62 106.69 118.44 106.69 120.26 106.69 C 119.72 105.65 119.55 103.97 118.09 103.86 C 116.28 103.43 115.23 105.20 114.81 106.66 Z" />
<path fill="#000000" opacity="1.00" d=" M 130.77 100.98 C 132.23 100.91 133.33 101.47 134.07 102.67 C 136.18 101.45 139.52 100.21 141.04 102.95 C 142.39 106.73 141.52 110.90 141.76 114.84 C 140.95 114.91 139.33 115.05 138.52 115.13 C 138.44 111.91 138.73 108.67 138.33 105.48 C 137.58 103.16 135.11 105.05 133.79 105.73 C 134.06 108.77 133.97 111.82 134.06 114.87 C 133.23 114.89 131.58 114.95 130.75 114.97 C 130.75 110.31 130.73 105.64 130.77 100.98 Z" />
<path fill="#000000" opacity="1.00" d=" M 163.24 101.24 C 164.05 101.21 165.67 101.14 166.48 101.11 C 166.58 104.26 166.28 107.42 166.62 110.56 C 166.97 112.85 169.94 111.63 170.66 110.17 C 170.94 107.18 170.70 104.18 170.74 101.18 C 171.57 101.20 173.24 101.25 174.08 101.27 C 173.86 105.21 173.93 109.16 174.04 113.11 C 174.67 116.17 171.57 114.84 170.40 113.72 C 168.32 114.95 165.10 115.86 163.80 113.07 C 162.58 109.30 163.54 105.15 163.24 101.24 Z" />
<path fill="#000000" opacity="1.00" d=" M 182.44 101.12 C 183.67 101.17 184.83 101.55 185.91 102.13 C 187.32 101.72 188.72 101.29 190.11 100.79 C 189.83 101.94 189.60 103.11 189.41 104.29 C 188.14 104.58 186.87 104.81 185.58 104.99 C 185.50 108.41 185.53 111.83 185.38 115.25 C 184.66 115.15 183.20 114.95 182.48 114.86 C 182.52 110.28 182.53 105.70 182.44 101.12 Z" />
<path fill="#000000" opacity="1.00" d=" M 197.28 112.02 C 195.89 108.06 196.41 101.00 201.98 101.14 C 206.61 100.14 208.52 105.17 207.86 108.90 C 205.18 108.90 202.51 108.90 199.84 108.92 C 200.27 110.09 200.12 112.22 201.92 112.23 C 203.57 112.95 204.41 111.06 205.44 110.23 C 206.08 110.24 207.37 110.26 208.02 110.28 C 208.30 116.11 198.86 117.27 197.28 112.02 M 199.66 106.69 C 201.49 106.69 203.33 106.66 205.17 106.66 C 204.65 105.61 204.41 103.74 202.86 103.83 C 201.05 103.52 200.20 105.33 199.66 106.69 Z" />
<path fill="#000000" opacity="1.00" d=" M 215.55 106.95 C 213.92 103.50 217.75 100.26 221.08 101.13 C 223.79 100.95 225.16 103.46 225.60 105.78 C 223.67 106.09 222.21 105.21 220.86 103.97 C 219.25 103.14 218.09 104.81 218.48 106.24 C 220.26 106.59 222.11 106.77 223.78 107.51 C 225.88 108.93 226.09 112.43 224.10 114.05 C 220.80 116.47 215.08 115.27 214.55 110.74 C 216.45 110.29 218.01 110.93 219.09 112.53 C 219.86 112.43 221.40 112.23 222.17 112.13 C 223.12 107.86 216.23 110.49 215.55 106.95 Z" />
</g>
</svg>
