<?xml version="1.0" encoding="utf-8"?>
<!-- Generator: Adobe Illustrator 26.0.3, SVG Export Plug-In . SVG Version: 6.00 Build 0)  -->
<svg version="1.1" id="圖層_1" xmlns="http://www.w3.org/2000/svg" xmlns:xlink="http://www.w3.org/1999/xlink" x="0px" y="0px"
	 viewBox="0 0 983.2 183.4" style="enable-background:new 0 0 983.2 183.4;" xml:space="preserve">
<style type="text/css">
	.st0{fill:#8D2227;}
	.st1{fill:#FFFFFF;}
</style>
<g id="_x23_8d2227ff">
	<path class="st0" d="M80,0.7c19.4-2.4,39.7,1.3,56.7,11c17.9,10,32.2,26.1,39.9,45.1c8.1,19.4,9,41.5,2.9,61.6
		c-5.8,19.3-18.2,36.5-34.7,48.2c-15.4,11-34.2,17-53.1,16.8c-23.8,0.2-47.6-9.5-64.4-26.4c-11.9-11.5-20.4-26.4-24.5-42.5
		c-5.8-22.7-2.7-47.6,9-68C25.7,21.7,51.7,4.1,80,0.7 M66.6,31.8c2.1,4.7,4.4,9.4,6.6,14c12.3-0.4,24.6-0.5,36.9,0
		c2.2-4.7,4.5-9.3,6.7-14c-3.2-0.9-6.6-1.9-10-1.8c-10,0-20.1,0-30.1,0C73.3,30,69.9,30.9,66.6,31.8 M51.5,45.6
		c4.6,2.3,9.3,4.5,13.9,6.7c1.4-1.6,2.7-3.1,4.1-4.6c-2.2-4.7-4.5-9.3-6.6-13.9C58.1,36.6,54.3,40.7,51.5,45.6 M113.9,47.7
		c1.4,1.5,2.8,3,4.2,4.6c4.6-2.3,9.2-4.4,13.8-6.7c-2.7-4.8-6.6-8.9-11.3-11.8C118.3,38.4,116.1,43,113.9,47.7 M49.9,49.4
		c-0.9,3.3-1.6,6.7-1.6,10.2c0,21.4,0,42.7,0,64.1c0,3.5,0.7,6.9,1.6,10.3c4.7-2.2,9.4-4.5,14.1-6.8c-0.4-9.5-0.1-19-0.2-28.5
		c0.1-14.2-0.3-28.3,0.2-42.5C59.3,53.9,54.6,51.6,49.9,49.4 M74.2,50.1c-3.9,1.2-6.4,5.3-6.1,9.4c0,21.7,0,43.4,0,65.1
		c-0.2,4.6,3.7,9.2,8.4,9c10.1,0,20.3,0,30.5,0c4.6,0.1,8.7-4.4,8.3-9c0-22.3,0.1-44.6,0-66.8c-0.2-5.2-5.5-8.7-10.4-8.2
		C94.7,49.9,84.3,48.9,74.2,50.1 M119.5,56.1c0.1,23.7,0.2,47.4,0,71.1c4.7,2.2,9.4,4.5,14.1,6.8c0.8-3.1,1.6-6.2,1.5-9.4
		c0-21.7,0-43.4,0-65.1c0.1-3.4-0.7-6.8-1.5-10.2C128.9,51.6,124.2,53.9,119.5,56.1 M51.5,137.8c2.6,4.9,6.6,9,11.3,11.9
		c2.2-4.6,4.4-9.3,6.7-13.9c-1.4-1.6-2.8-3.1-4.2-4.7C60.8,133.4,56.2,135.5,51.5,137.8 M113.9,135.7c2.2,4.7,4.4,9.3,6.7,13.9
		c4.8-2.9,8.6-7,11.4-11.9c-4.6-2.2-9.3-4.4-13.9-6.7C116.7,132.7,115.3,134.2,113.9,135.7 M66.6,151.5c3.3,1,6.7,1.9,10.2,1.9
		c10,0,20.1,0,30.1,0c3.4,0,6.7-0.9,10-1.9c-2.2-4.7-4.4-9.3-6.7-14c-12.2,0.6-24.6,0.5-36.8,0C71,142.1,68.8,146.8,66.6,151.5z"/>
	<path class="st0" d="M72.7,61.7c5.7-0.1,11.5-0.1,17.2-0.1c5.1,0.1,10.7,1.7,13.8,6c4.5,6.4,3.6,16.3-2.6,21.4
		c-2.1,1.8-4.8,2.6-7.4,3.4c3,1.2,5.7,3.4,6.8,6.6c2.2,6.3,3.5,12.9,5.5,19.2c1.4,0.2,2.9,0.4,4.3,0.6c-0.1,0.7-0.2,2.2-0.2,2.9
		c-3,0.3-7.1,0.6-8.7-2.5c-2.6-7.1-3.2-14.9-6.1-22c-2.7-5.1-9.3-3.6-14-3.8c0.1,8.2-0.3,16.4,0.3,24.6c1.1,0.3,2.1,0.5,3.2,0.8
		c0,0.6,0,1.8,0,2.4c-3.9,0-7.8,0-11.7,0c0-0.6-0.1-1.8-0.1-2.3c1.2-0.3,2.4-0.6,3.6-0.9c0-17.6,0-35.3,0-52.9
		C74.8,64.4,72.7,64,72.7,61.7 M81.6,64.4c-0.5,8.7-0.2,17.5-0.3,26.2c5.5-0.1,11.9,1,16.3-3.2c4.8-4.9,5.3-13.4,1.5-19.1
		C95,63,87.5,64.5,81.6,64.4z"/>
</g>
<g id="_x23_ffffffff">
	<path class="st1" d="M66.6,31.8c3.3-0.9,6.7-1.9,10.1-1.8c10,0,20.1,0,30.1,0c3.4-0.1,6.7,0.9,10,1.8c-2.2,4.7-4.5,9.3-6.7,14
		c-12.3-0.5-24.6-0.4-36.9,0C71,41.2,68.7,36.6,66.6,31.8z"/>
	<path class="st1" d="M51.5,45.6c2.7-4.9,6.6-9,11.4-11.9c2.2,4.6,4.5,9.2,6.6,13.9c-1.4,1.5-2.8,3.1-4.1,4.6
		C60.8,50.1,56.1,47.9,51.5,45.6z"/>
	<path class="st1" d="M113.9,47.7c2.2-4.7,4.4-9.3,6.7-13.9c4.7,2.9,8.6,7,11.3,11.8c-4.6,2.3-9.2,4.4-13.8,6.7
		C116.7,50.7,115.3,49.2,113.9,47.7z"/>
	<path class="st1" d="M49.9,49.4c4.7,2.2,9.4,4.5,14.1,6.8c-0.5,14.1-0.1,28.3-0.2,42.5c0.1,9.5-0.2,19,0.2,28.5
		c-4.7,2.3-9.4,4.5-14.1,6.8c-0.9-3.4-1.7-6.8-1.6-10.3c0-21.3,0-42.7,0-64.1C48.3,56.1,49,52.7,49.9,49.4z"/>
	<path class="st1" d="M74.2,50.1c10.1-1.2,20.5-0.2,30.7-0.6c4.9-0.5,10.2,3,10.4,8.2c0.1,22.3,0,44.5,0,66.8c0.4,4.6-3.7,9.1-8.3,9
		c-10.2,0-20.3,0-30.5,0c-4.8,0.2-8.6-4.4-8.4-9c0-21.7,0-43.4,0-65.1C67.7,55.5,70.2,51.4,74.2,50.1 M72.7,61.7
		c0,2.3,2.1,2.7,3.9,3.2c0,17.6,0,35.3,0,52.9c-1.2,0.3-2.4,0.6-3.6,0.9c0,0.6,0.1,1.8,0.1,2.3c3.9,0,7.8,0,11.7,0
		c0-0.6,0-1.8,0-2.4c-1.1-0.3-2.1-0.5-3.2-0.8c-0.6-8.2-0.2-16.4-0.3-24.6c4.7,0.2,11.3-1.4,14,3.8c2.9,7.1,3.5,14.8,6.1,22
		c1.7,3.2,5.7,2.8,8.7,2.5c0.1-0.7,0.2-2.2,0.2-2.9c-1.4-0.2-2.9-0.4-4.3-0.6c-2-6.4-3.3-12.9-5.5-19.2c-1-3.2-3.7-5.4-6.8-6.6
		c2.6-0.7,5.3-1.5,7.4-3.4c6.2-5,7.1-14.9,2.6-21.4c-3.2-4.3-8.7-5.9-13.8-6C84.2,61.6,78.4,61.5,72.7,61.7z"/>
	<path class="st1" d="M119.5,56.1c4.7-2.2,9.4-4.5,14.1-6.7c0.8,3.3,1.6,6.7,1.5,10.2c0,21.7,0,43.4,0,65.1c0,3.2-0.7,6.3-1.5,9.4
		c-4.7-2.2-9.4-4.5-14.1-6.8C119.6,103.5,119.6,79.8,119.5,56.1z"/>
	<path class="st1" d="M81.6,64.4c5.9,0.2,13.4-1.4,17.6,4c3.8,5.6,3.3,14.2-1.5,19.1c-4.3,4.2-10.8,3-16.3,3.2
		C81.4,81.8,81,73.1,81.6,64.4z"/>
	<path class="st1" d="M51.5,137.8c4.6-2.2,9.3-4.4,13.8-6.7c1.4,1.6,2.8,3.1,4.2,4.7c-2.2,4.6-4.4,9.3-6.7,13.9
		C58.1,146.7,54.2,142.7,51.5,137.8z"/>
	<path class="st1" d="M113.9,135.7c1.4-1.5,2.8-3.1,4.2-4.6c4.6,2.2,9.3,4.5,13.9,6.7c-2.8,4.8-6.6,8.9-11.4,11.9
		C118.3,145,116.1,140.4,113.9,135.7z"/>
	<path class="st1" d="M66.6,151.5c2.2-4.7,4.4-9.3,6.8-14c12.2,0.5,24.6,0.5,36.8,0c2.3,4.6,4.5,9.3,6.7,14c-3.2,1-6.6,1.9-10,1.9
		c-10,0-20.1,0-30.1,0C73.3,153.4,69.9,152.5,66.6,151.5z"/>
</g>
<g id="_x23_000000ff">
	<path d="M543.5,61.3c13.2-11.9,33.8-12.6,49-4.3c0,5.8,0,11.7,0,17.6c-2.2,0-4.3,0-6.4,0c-1.1-5.3-2.4-10.6-3.5-15.9
		c-5.9-2.6-12.7-3.2-18.8-1.1c-7.6,2.4-13.4,8.7-16.2,16.1c-3.5,9-3.8,19-2.2,28.5c1.3,7.3,4.3,14.7,10.3,19.4
		c7.7,6.2,18.9,6.7,27.8,3c1.1-5.2,2.3-10.4,3.5-15.7c2.2,0,4.3,0,6.5,0c0.1,5.8-0.2,11.6-0.3,17.5c-11.2,5.9-24.7,7.3-36.8,3.5
		c-9.3-2.9-17.2-9.8-21.3-18.5C527.8,95.1,529.9,73.7,543.5,61.3z"/>
	<path d="M632,52.8c2.6,0,5.2,0,7.8,0c8.3,24,16.3,48.1,24.6,72.2c3,0.3,5.9,0.7,8.9,1c0,1,0,3,0,4.1c-10.7,0-21.4,0-32,0
		c0-1,0.1-3.1,0.1-4.1c3.5-0.4,7-0.8,10.5-1.2c-2.2-6.7-4.5-13.3-6.6-20c-8.5,0-16.9,0-25.4,0c-2.2,6.6-4.3,13.2-6.4,19.9
		c3.5,0.4,7,0.9,10.6,1.3c0,1,0,3.1,0,4.1c-8.3,0-16.7,0-25,0c0-1.4,0-2.7,0-4.1c3-0.5,6.1-0.9,9.1-1.3
		C616.2,100.8,624,76.8,632,52.8 M621.3,100.3c7.5,0,15,0,22.5,0c-3.8-11.6-7.7-23.1-11.5-34.7C628.6,77.2,624.9,88.8,621.3,100.3z"
		/>
	<path d="M879.1,52.8c2.6,0,5.2,0,7.8,0c8.1,24.1,16.3,48.1,24.5,72.2c3,0.3,5.9,0.7,8.9,1c0,1,0,3,0,4.1c-10.7,0-21.4,0-32,0
		c0-1,0-3,0-4c3.5-0.4,7-0.8,10.5-1.2c-2.3-6.6-4.3-13.3-6.6-20c-8.5,0-17,0-25.4,0c-2.1,6.6-4.3,13.2-6.4,19.9
		c3.6,0.4,7.2,0.9,10.8,1.3c0,1,0,3,0,4c-8.4,0-16.9,0-25.3,0c0-1.4,0-2.7,0-4.1c3-0.4,6-0.9,9.1-1.3
		C863.1,100.8,871.1,76.8,879.1,52.8 M879.4,65.6c-3.7,11.6-7.4,23.1-11.1,34.7c7.5,0,15,0,22.6,0C887,88.8,883.2,77.2,879.4,65.6z"
		/>
	<path d="M217,53.3c11.2,0,22.5,0,33.7,0c7.4,0.1,15.3,1.3,21.1,6.3c7.5,6.3,7.9,19.1,0.9,25.9c-3.9,4-9.3,5.9-14.6,6.9
		c5.7,0.9,10.9,4.6,12.7,10.2c2.6,7.4,4.2,15,6.4,22.5c3,0.3,6,0.6,9,0.8c0,1.4,0,2.8,0,4.2c-5.8,1.1-12.2,2.1-17.8-0.4
		c-4.3-2.3-4.5-7.8-5.7-12c-1.8-6.2-2.5-12.8-5.5-18.6c-3.7-6.1-11.7-4.7-17.8-4.8c0.1,10.2-0.3,20.4,0.3,30.6
		c3.5,0.4,6.9,0.8,10.4,1.1c0,1,0,3,0,4.1c-11.1,0-22.2,0-33.3,0c0-1.4,0.1-2.7,0.1-4.1c3.4-0.4,6.8-0.8,10.2-1.2
		c0.1-22.1,0.1-44.3,0-66.4c-3.4-0.4-6.8-0.7-10.2-1.1C217.1,56,217.1,54.7,217,53.3 M239.9,57.8c-0.6,10.7-0.2,21.3-0.3,32
		c5.9-0.1,12.1,0.8,17.6-1.9c9.2-4.3,11.1-18.1,4.8-25.6C256.1,56.6,247.3,58,239.9,57.8z"/>
	<path d="M287.3,53.3c11.1,0,22.2,0,33.3,0c0,1.3,0,2.7-0.1,4c-3.6,0.4-7.3,0.8-10.9,1.2c-0.4,14-0.3,28-0.2,42
		c0.4,7.3,1.5,15.9,7.9,20.5c6.3,4,15,3.9,21.5,0.4c7.1-4.3,8.6-13.4,9-21c0.4-13.9-0.4-27.8-0.1-41.6c-4-0.5-8-1.1-12-1.6
		c0-1.3,0-2.6,0-4c9.2,0,18.5,0,27.8,0c0,1.3,0,2.6,0,4c-3.4,0.5-6.8,1-10.2,1.5c-0.3,13.3-0.3,26.5-0.3,39.8
		c-0.1,9.1-1.5,19.1-7.9,26.1c-5.6,6-14.2,7.8-22.1,7.2c-7.4-0.3-15.2-3.1-19.8-9.3c-4.5-6-5.8-13.7-6-21c0-14.4,0.1-28.8-0.3-43.2
		c-3.2-0.4-6.3-0.7-9.5-1.1C287.3,56.3,287.3,54.3,287.3,53.3z"/>
	<path d="M369.6,53.3c11.1,0,22.1,0,33.2,0c6.9,0,14.2,1.1,19.8,5.5c7.6,5.9,7.9,18.9,0.6,25.1c-3.6,3.3-8.4,4.8-13.1,5.8
		c6.7,0.9,14,2.8,18.6,8.1c7.4,8.3,4,22.8-5.9,27.6c-6.6,3.7-14.4,4.6-21.9,4.7c-10.4,0-20.9,0-31.3,0c0-1,0-3,0-4
		c3.4-0.4,6.8-0.8,10.2-1.1c0.6-11.1,0.2-22.2,0.3-33.3c-0.1-11,0.3-22.1-0.3-33.1c-3.4-0.4-6.8-0.7-10.2-1.1
		C369.5,56,369.6,54.7,369.6,53.3 M392.3,57.9c0,10.1,0,20.2,0,30.3c7.3-0.1,16.1,0.4,21.3-5.8c4.1-5.8,4.3-14.7-0.4-20.2
		C407.6,56.8,399.3,58,392.3,57.9 M392.3,92.6c0,10.9,0,21.8,0,32.7c6.6-0.1,13.7,0.8,19.8-2.5c9.2-4.3,10.3-18.2,3.7-25.2
		C409.4,91.8,400.2,92.6,392.3,92.6z"/>
	<path d="M433,53.3c10.9,0,21.9,0,32.8,0c-0.1,1.3-0.1,2.7-0.1,4c-3.6,0.4-7.2,0.8-10.8,1.2c5.4,11.8,11,23.5,16.4,35.3
		c5.6-11.6,10.9-23.4,16.4-35c-3.5-0.5-7-1-10.4-1.4c0-1.4,0-2.7-0.1-4c8.6,0,17.2,0,25.8,0c0,1.3,0,2.7,0,4c-3.2,0.5-6.4,1-9.6,1.5
		c-6.3,12.5-12.3,25.2-18.6,37.7c-1.2,2.2-1,4.7-1,7.1c0.1,7.1-0.2,14.2,0.3,21.3c3.7,0.4,7.4,0.7,11.2,1.1c0,1,0,3,0,4.1
		c-11.9,0-23.7,0-35.6,0c0.1-1.4,0.1-2.7,0.2-4.1c3.9-0.3,7.8-0.8,11.7-1.2c0-7.4,0-14.8,0-22.3c0.2-2.9-1.5-5.4-2.6-8
		c-6.2-12.1-12-24.3-18.1-36.4c-2.6-0.3-5.1-0.5-7.7-0.8C433.1,56,433.1,54.7,433,53.3z"/>
	<path d="M678.3,53.3c10.9,0,21.7-0.1,32.6,0c7.5,0.3,15.6,1.6,21.4,6.8c6.4,5.6,7.9,15.3,5.5,23.2c-1.9,6.5-7.6,11.3-13.8,13.5
		c-7.3,2.8-15.2,2.7-22.9,2.6c0.2,8.5-0.5,17.1,0.3,25.5c3.6,0.6,7.3,0.8,10.9,1.2c0,1,0,3.1,0,4.1c-11.3,0-22.7,0-34,0
		c0-1,0-3,0-4.1c3.4-0.4,6.8-0.7,10.2-1.1c0.4-22.1,0.4-44.3,0-66.4c-3.4-0.4-6.8-0.8-10.2-1.1C678.3,56,678.3,54.7,678.3,53.3
		 M701.1,57.8c0,12.3,0,24.7,0,37c6.1,0.1,12.7,0.4,18.1-2.9c5.2-3.2,7.5-9.4,7.4-15.2c0.2-5.9-1.6-12.7-7-15.9
		C714,57.3,707.3,57.8,701.1,57.8z"/>
	<path d="M745,53.3c11.1,0,22.2,0,33.3,0c0,1.3,0,2.7,0,4c-3.4,0.4-6.8,0.8-10.2,1.1c-0.5,22.1-0.5,44.3,0,66.4
		c3.4,0.4,6.8,0.8,10.2,1.1c0,1,0,3,0,4.1c-11.1,0-22.2,0-33.3,0c0-1.4,0.1-2.7,0.1-4.1c3.4-0.4,6.8-0.7,10.2-1.1
		c0.6-17.1,0.1-34.2,0.3-51.3c0-5.1,0.1-10.1-0.2-15.2c-3.4-0.4-6.8-0.7-10.2-1.1C745.1,56,745,54.7,745,53.3z"/>
	<path d="M786.1,53.3c21.3,0,42.6,0,63.9,0c0.4,7,0.6,14,0.8,21c-2,0-3.9,0-5.8,0c-1.3-5.4-2.6-10.8-3.8-16.2c-5.6,0-11.1,0-16.7,0
		c-0.5,11.1-0.1,22.3-0.2,33.5c0.1,11.1-0.3,22.3,0.2,33.4c3.7,0.3,7.5,0.7,11.2,1.1c0,1.3,0,2.7,0,4.1c-11.8,0-23.7,0-35.5,0
		c0-1,0-3.1,0-4.1c3.8-0.4,7.6-0.8,11.5-1.2c0.3-22.2,0.3-44.5,0-66.7c-5.6-0.1-11.3-0.1-16.9-0.1c-1.2,5.4-2.6,10.8-3.9,16.3
		c-2,0-3.9,0-5.8,0C785.5,67.3,785.7,60.3,786.1,53.3z"/>
	<path d="M925.3,53.3c11.2,0,22.4,0,33.5,0c-0.1,1.4-0.1,2.7-0.1,4c-3.6,0.4-7.1,0.7-10.7,1.1c0,22.2,0,44.4,0,66.6
		c8.4,0,16.7,0,25.1,0c1.4-5.7,2.7-11.4,4-17c2,0,4,0,6.1,0c-0.2,7.3-0.5,14.7-0.4,22c-19.2,0-38.3,0-57.5,0c0-1,0-3,0-4.1
		c3.4-0.4,6.8-0.7,10.2-1.1c0.5-10.8,0.2-21.6,0.3-32.4c-0.1-11.4,0.2-22.7-0.3-34.1c-3.4-0.4-6.8-0.8-10.2-1.1
		C925.3,56,925.3,54.7,925.3,53.3z"/>
</g>
</svg>
