<?xml version="1.0" encoding="UTF-8" ?>
<!DOCTYPE svg PUBLIC "-//W3C//DTD SVG 1.1//EN" "http://www.w3.org/Graphics/SVG/1.1/DTD/svg11.dtd">
<svg width="1509pt" height="416pt" viewBox="0 0 1509 416" version="1.1" xmlns="http://www.w3.org/2000/svg">
<g id="#000000ff">
<path fill="#000000" opacity="1.00" d=" M 707.90 0.00 L 751.45 0.00 C 768.40 81.02 785.61 161.98 802.69 242.97 C 803.74 248.68 805.34 254.30 806.05 260.06 C 793.72 260.23 781.38 260.06 769.05 260.14 C 767.53 260.06 765.91 260.36 764.52 259.63 C 756.89 214.35 748.44 169.19 740.55 123.95 C 736.71 103.29 733.36 82.53 729.37 61.92 C 722.46 100.61 715.51 139.31 708.98 178.06 C 719.86 178.55 730.83 178.05 741.74 178.29 C 744.20 189.27 746.44 200.30 748.68 211.32 L 747.83 211.63 C 734.89 211.63 721.95 211.64 709.02 211.62 C 707.36 211.72 705.64 211.33 704.06 211.91 C 692.72 279.96 680.82 347.92 669.68 416.00 L 620.69 416.00 C 631.36 363.57 642.66 311.27 653.49 258.87 C 671.71 172.60 689.59 86.25 707.90 0.00 Z" />
<path fill="#000000" opacity="1.00" d=" M 755.64 0.00 L 826.73 0.00 C 826.74 10.94 826.79 21.88 826.71 32.82 L 826.20 33.53 C 805.13 33.45 784.06 33.51 762.99 33.50 L 761.99 33.21 C 760.04 22.11 757.17 11.14 755.64 0.00 Z" />
<path fill="#000000" opacity="1.00" d=" M 830.24 0.00 L 966.28 0.00 C 966.53 40.66 966.46 81.33 966.64 121.99 C 966.72 127.15 965.16 132.65 961.08 136.07 C 955.90 140.63 948.64 141.42 942.01 141.28 C 937.27 141.58 932.45 141.39 927.77 141.92 L 927.35 142.75 C 933.86 158.37 940.00 174.15 946.37 189.82 C 955.60 213.25 965.47 236.45 974.37 259.98 C 959.92 259.97 945.47 260.26 931.03 260.09 C 928.59 259.15 928.86 255.55 927.52 253.52 C 912.74 216.25 897.76 179.05 883.08 141.74 C 882.23 135.91 883.06 129.93 882.87 124.04 C 883.01 121.50 882.46 118.85 883.30 116.40 C 896.87 116.41 910.45 116.23 924.03 116.23 L 924.85 115.96 C 924.89 89.62 924.88 63.27 924.86 36.93 L 924.24 36.36 C 906.93 36.32 889.59 35.88 872.29 36.31 C 872.48 62.19 872.32 88.09 872.37 113.98 C 872.29 162.65 872.55 211.33 872.24 259.99 C 860.50 259.95 848.75 260.20 837.01 260.13 C 834.76 260.05 832.46 260.41 830.29 259.77 C 830.48 224.51 830.32 189.25 830.37 153.99 C 830.28 102.66 830.54 51.32 830.24 0.00 Z" />
<path fill="#000000" opacity="1.00" d=" M 970.28 0.00 L 970.74 0.00 C 979.38 0.45 988.06 -0.17 996.70 0.30 C 996.63 11.59 997.03 22.94 996.50 34.19 C 989.34 34.35 982.18 34.19 975.02 34.27 C 973.50 34.11 971.74 34.67 970.42 33.72 C 970.43 22.48 970.73 11.21 970.28 0.00 Z" />
<path fill="#000000" opacity="1.00" d=" M 1000.05 0.00 L 1041.52 0.00 C 1041.75 33.00 1041.55 66.01 1041.62 99.02 C 1041.52 102.64 1041.86 106.29 1041.33 109.88 C 1044.70 104.11 1046.76 97.58 1049.58 91.49 C 1060.88 65.22 1072.05 38.89 1083.34 12.62 C 1085.27 8.45 1086.67 3.99 1088.95 0.00 L 1135.24 0.00 C 1104.79 62.93 1073.92 125.65 1043.35 188.53 C 1042.66 189.93 1041.67 191.32 1041.76 192.95 C 1041.72 215.27 1041.78 237.59 1041.74 259.91 C 1027.86 260.49 1013.93 259.88 1000.03 259.96 C 999.99 173.31 999.96 86.65 1000.05 0.00 Z" />
<path fill="#000000" opacity="1.00" d=" M 1045.04 0.00 L 1084.62 0.00 C 1080.27 11.53 1074.81 22.69 1069.87 33.99 C 1061.67 34.45 1053.24 34.39 1045.04 34.03 C 1044.96 22.69 1044.98 11.34 1045.04 0.00 Z" />
<path fill="#000000" opacity="1.00" d=" M 1142.23 0.00 L 1509.00 0.00 L 1509.00 34.32 C 1402.66 34.54 1296.32 34.14 1189.98 34.25 C 1168.50 34.08 1146.94 34.61 1125.50 33.99 C 1125.31 32.58 1126.71 31.47 1127.18 30.19 C 1132.22 20.14 1137.36 10.13 1142.23 0.00 Z" />
<path fill="#000000" opacity="1.00" d=" M 328.26 20.97 C 328.26 11.28 336.04 2.03 346.03 1.82 C 383.69 1.64 421.35 1.81 459.01 1.73 C 460.52 1.95 462.37 1.25 463.66 2.27 C 463.56 12.76 463.70 23.25 463.60 33.73 L 463.10 34.38 C 440.40 34.05 417.69 34.46 394.99 34.13 C 391.36 34.24 387.70 33.90 384.09 34.29 C 379.88 36.07 378.43 41.08 378.41 45.30 C 378.32 55.52 378.42 65.74 378.36 75.97 C 378.27 79.70 377.77 83.74 379.66 87.15 C 381.51 91.50 385.62 94.10 388.96 97.19 C 411.34 116.78 433.70 136.39 456.11 155.94 C 460.74 160.38 463.36 166.67 463.61 173.04 C 463.71 201.96 463.52 230.87 463.70 259.78 C 461.85 260.29 459.92 260.10 458.03 260.14 C 305.35 260.08 152.68 260.20 0.00 260.08 L 0.00 226.89 C 136.95 226.58 273.91 226.91 410.86 226.61 C 415.81 226.48 419.21 221.61 419.19 216.95 C 419.34 205.32 419.20 193.68 419.25 182.04 C 419.41 178.01 417.40 174.18 414.53 171.47 C 388.55 148.79 362.60 126.09 336.64 103.40 C 331.50 98.38 328.19 91.26 328.37 84.01 C 328.46 62.99 328.25 41.98 328.26 20.97 Z" />
<path fill="#000000" opacity="1.00" d=" M 497.24 2.14 C 535.41 1.81 573.72 2.10 611.95 2.00 C 618.97 1.80 626.41 4.93 630.20 11.05 C 633.01 15.46 633.71 20.86 633.63 26.00 C 633.60 67.33 633.68 108.66 633.59 149.99 C 632.32 160.30 621.99 167.18 612.05 166.97 C 590.30 166.88 568.54 167.30 546.80 167.03 C 546.39 156.03 546.73 144.95 546.63 133.93 L 547.27 133.36 C 561.56 133.38 575.85 133.36 590.14 133.38 L 590.64 132.70 C 590.48 100.74 590.45 68.78 590.51 36.81 L 589.77 36.37 C 572.96 36.38 556.14 36.39 539.33 36.36 C 539.15 110.89 539.16 185.44 539.07 259.98 C 525.21 260.28 511.32 259.81 497.47 260.43 C 496.97 211.64 497.39 162.83 497.25 114.03 C 497.24 76.73 497.26 39.44 497.24 2.14 Z" />
<path fill="#000000" opacity="1.00" d=" M 1082.20 138.25 L 1082.84 138.15 C 1101.32 176.93 1120.02 215.60 1138.56 254.36 C 1139.33 256.12 1140.51 257.76 1140.83 259.70 C 1125.65 259.52 1110.47 259.71 1095.29 259.61 C 1094.10 259.07 1094.02 257.56 1093.38 256.58 C 1082.29 232.99 1071.26 209.36 1060.19 185.75 C 1059.71 184.54 1058.82 183.44 1058.84 182.09 C 1066.59 167.46 1074.36 152.84 1082.20 138.25 Z" />
<path fill="#000000" opacity="1.00" d=" M 465.95 225.93 C 475.30 225.82 484.67 225.86 494.03 225.91 C 494.21 237.28 494.15 248.68 494.06 260.06 C 484.69 260.18 475.31 260.17 465.94 260.06 C 465.83 248.69 465.82 237.30 465.95 225.93 Z" />
<path fill="#000000" opacity="1.00" d=" M 542.95 225.92 C 580.68 225.81 618.42 225.91 656.15 225.87 C 656.56 225.99 657.37 226.24 657.77 226.36 C 654.80 237.43 652.33 248.63 649.68 259.77 C 637.84 260.30 625.93 259.85 614.06 260.00 C 590.36 259.97 566.65 260.06 542.95 259.96 C 542.81 248.62 542.83 237.26 542.95 225.92 Z" />
<path fill="#000000" opacity="1.00" d=" M 770.03 279.26 C 778.67 279.25 787.32 279.21 795.96 279.29 C 800.56 279.31 805.30 281.21 807.91 285.15 C 812.67 292.39 812.58 303.10 806.48 309.55 C 802.68 313.28 797.18 314.81 791.96 314.76 C 784.69 314.73 777.42 314.77 770.16 314.74 L 769.61 314.06 C 769.63 302.69 769.64 291.33 769.60 279.96 L 770.03 279.26 M 777.46 285.50 C 776.76 292.82 777.20 300.37 777.23 307.76 C 782.85 307.66 788.49 307.91 794.12 307.62 C 798.41 307.32 802.68 304.35 803.55 299.98 C 804.69 294.66 803.09 287.55 797.22 285.83 C 790.64 285.45 784.02 286.11 777.46 285.50 Z" />
<path fill="#000000" opacity="1.00" d=" M 823.91 278.93 C 826.82 278.95 829.83 278.52 832.68 279.19 C 832.57 291.03 832.64 302.86 832.64 314.70 C 829.81 314.80 826.98 314.75 824.16 314.75 L 823.77 313.98 C 823.83 302.30 823.53 290.58 823.91 278.93 Z" />
<path fill="#000000" opacity="1.00" d=" M 845.89 286.03 C 845.63 282.66 848.31 278.85 851.92 279.12 C 862.20 279.22 872.49 278.95 882.76 279.26 C 887.07 280.44 887.58 285.96 886.56 289.59 C 884.15 289.49 881.74 289.45 879.35 289.63 C 879.18 288.47 879.05 287.31 878.96 286.15 C 870.73 286.13 862.50 286.06 854.27 286.19 C 854.25 293.34 854.20 300.49 854.30 307.64 C 862.64 307.46 871.15 307.94 879.37 307.42 C 879.03 305.45 879.05 303.45 879.36 301.49 C 875.36 300.57 871.01 301.52 866.89 301.02 C 866.57 299.26 866.72 297.46 866.80 295.69 C 873.15 295.09 879.75 295.34 886.16 295.56 C 886.35 300.39 886.24 305.23 886.23 310.06 C 886.06 313.13 882.76 314.75 880.02 314.63 C 870.37 314.61 860.72 314.65 851.08 314.61 C 847.84 314.44 845.91 310.92 845.87 307.99 C 845.87 300.67 845.85 293.35 845.89 286.03 Z" />
<path fill="#000000" opacity="1.00" d=" M 899.92 279.13 C 902.83 279.22 905.80 278.88 908.70 279.32 C 908.57 291.12 908.62 302.94 908.67 314.75 C 905.80 315.00 902.92 314.86 900.05 314.85 L 899.73 313.98 C 899.88 302.37 899.49 290.71 899.92 279.13 Z" />
<path fill="#000000" opacity="1.00" d=" M 919.05 279.14 C 932.34 279.09 945.62 279.17 958.91 279.10 C 959.05 281.36 959.06 283.64 958.90 285.91 C 953.60 285.89 948.31 285.80 943.03 285.93 C 942.94 295.33 943.05 304.73 942.98 314.14 L 942.60 314.69 C 940.14 314.61 937.69 314.61 935.26 314.69 C 934.89 305.14 935.33 295.55 935.04 285.99 C 929.72 285.70 924.39 285.95 919.07 285.89 C 918.94 283.64 918.94 281.39 919.05 279.14 Z" />
<path fill="#000000" opacity="1.00" d=" M 979.19 279.21 C 981.46 279.03 983.75 279.11 986.04 279.15 C 991.64 287.84 996.63 297.15 1001.94 306.12 C 1003.31 308.93 1005.62 311.34 1006.39 314.38 C 1003.29 314.37 999.96 314.96 997.02 314.13 C 995.25 311.83 994.24 308.84 992.09 306.94 C 985.16 307.05 978.01 306.36 971.23 307.29 C 969.71 309.73 968.49 312.43 966.67 314.63 C 964.15 314.66 961.64 314.59 959.14 314.72 C 959.20 314.31 959.33 313.48 959.39 313.07 C 966.14 301.87 972.42 290.38 979.19 279.21 M 982.27 286.34 C 979.80 290.95 976.73 295.29 974.74 300.10 C 979.55 300.37 984.41 300.31 989.23 300.14 C 987.68 295.41 984.74 290.43 982.27 286.34 Z" />
<path fill="#000000" opacity="1.00" d=" M 1014.30 279.26 C 1016.79 279.02 1019.31 279.11 1021.82 279.16 C 1022.21 288.70 1021.75 298.27 1022.18 307.82 C 1030.98 308.05 1039.79 307.70 1048.59 307.78 C 1049.09 310.02 1048.92 312.42 1048.65 314.70 C 1037.27 314.47 1025.87 314.80 1014.50 314.54 C 1014.14 302.79 1014.55 291.01 1014.30 279.26 Z" />
<path fill="#000000" opacity="1.00" d=" M 1087.97 285.95 C 1088.16 281.94 1092.02 278.58 1096.05 279.12 C 1104.61 279.29 1113.22 278.82 1121.76 279.35 C 1126.60 281.28 1126.14 287.48 1125.68 291.74 C 1123.19 291.58 1120.71 291.61 1118.24 291.70 C 1117.79 290.17 1117.92 288.55 1117.82 286.99 C 1112.20 286.71 1106.57 286.95 1100.95 286.87 C 1099.39 287.15 1097.53 286.23 1096.23 287.21 C 1096.31 294.06 1096.17 300.90 1096.31 307.75 C 1103.68 307.52 1111.11 308.16 1118.46 307.63 C 1118.44 305.48 1117.64 303.01 1118.73 301.07 C 1121.09 301.17 1123.48 301.04 1125.86 301.18 C 1125.86 304.17 1125.96 307.17 1125.78 310.16 C 1125.45 312.92 1122.52 314.62 1119.93 314.63 C 1111.07 314.61 1102.21 314.69 1093.35 314.58 C 1089.72 314.23 1087.75 310.31 1087.87 307.01 C 1087.93 299.99 1087.74 292.96 1087.97 285.95 Z" />
<path fill="#000000" opacity="1.00" d=" M 1152.41 279.39 C 1154.80 279.18 1157.29 279.07 1159.69 279.43 C 1165.39 289.07 1170.94 298.81 1176.66 308.45 C 1177.68 310.55 1179.40 312.39 1179.84 314.73 C 1176.72 314.47 1173.56 314.84 1170.46 314.49 C 1168.94 312.02 1167.46 309.53 1165.87 307.12 C 1158.94 306.88 1151.99 306.99 1145.06 307.06 C 1143.31 309.40 1141.98 312.03 1140.54 314.57 C 1137.77 314.95 1134.93 314.73 1132.15 314.69 C 1138.70 302.83 1145.78 291.22 1152.41 279.39 M 1155.26 287.04 C 1153.06 291.15 1150.79 295.23 1148.30 299.17 L 1148.55 300.39 C 1153.21 300.35 1157.87 300.39 1162.54 300.37 C 1161.43 295.84 1158.30 291.83 1156.49 287.44 C 1156.18 287.34 1155.57 287.14 1155.26 287.04 Z" />
<path fill="#000000" opacity="1.00" d=" M 1189.08 279.25 C 1199.71 279.28 1210.35 279.19 1220.99 279.30 C 1224.34 279.46 1226.93 282.71 1226.75 286.00 C 1226.73 289.02 1226.79 292.05 1226.72 295.08 C 1226.64 298.41 1222.91 300.26 1219.96 300.24 C 1212.06 300.31 1204.17 300.16 1196.29 300.31 C 1196.15 305.02 1196.37 309.73 1196.19 314.44 C 1193.68 314.78 1191.12 314.66 1188.61 314.50 C 1188.33 302.97 1188.62 291.42 1188.47 279.88 L 1189.08 279.25 M 1196.32 286.30 C 1196.39 288.72 1196.33 291.14 1196.40 293.56 C 1203.10 293.40 1209.80 293.60 1216.50 293.46 C 1219.36 292.72 1218.64 288.40 1217.61 286.39 C 1210.58 285.88 1203.38 286.07 1196.32 286.30 Z" />
<path fill="#000000" opacity="1.00" d=" M 1240.15 279.18 C 1242.68 279.27 1245.23 279.23 1247.79 279.24 C 1247.82 291.04 1248.14 302.97 1247.63 314.69 C 1245.19 314.62 1242.75 314.56 1240.34 314.77 C 1239.65 302.99 1240.02 291.02 1240.15 279.18 Z" />
<path fill="#000000" opacity="1.00" d=" M 1259.29 279.22 C 1272.45 279.29 1285.63 279.22 1298.80 279.26 C 1299.85 281.22 1299.03 283.83 1299.17 286.05 C 1293.84 286.26 1288.50 286.03 1283.18 286.15 C 1282.80 295.64 1283.66 305.29 1282.75 314.69 C 1280.26 314.61 1277.78 314.63 1275.31 314.65 C 1275.17 305.40 1275.26 296.15 1275.28 286.90 L 1274.89 286.13 C 1269.71 286.09 1264.55 286.16 1259.38 286.12 C 1258.87 283.86 1259.16 281.51 1259.29 279.22 Z" />
<path fill="#000000" opacity="1.00" d=" M 1322.49 279.50 C 1324.83 279.01 1327.31 279.24 1329.71 279.32 C 1336.94 290.86 1343.58 303.14 1350.62 314.69 C 1347.42 314.75 1343.86 314.69 1340.57 314.43 C 1339.37 312.00 1337.77 309.82 1336.44 307.48 C 1335.20 306.52 1333.46 307.19 1332.06 306.99 C 1326.41 307.09 1320.76 306.83 1315.13 307.12 C 1313.63 309.61 1312.21 312.15 1310.67 314.62 C 1307.86 314.92 1305.02 314.67 1302.22 314.78 C 1308.98 303.02 1316.00 291.40 1322.49 279.50 M 1318.52 300.35 C 1323.32 300.15 1328.35 300.85 1333.02 300.02 C 1330.79 295.44 1328.60 290.40 1325.90 286.32 C 1323.76 291.14 1320.16 295.44 1318.52 300.35 Z" />
<path fill="#000000" opacity="1.00" d=" M 1358.09 279.12 C 1360.92 279.24 1363.81 278.83 1366.63 279.37 C 1366.56 288.86 1366.16 298.50 1366.82 307.91 C 1375.33 307.86 1383.84 307.84 1392.36 307.91 C 1392.56 309.95 1392.63 312.05 1392.36 314.10 L 1391.70 314.56 C 1380.59 314.50 1369.48 314.43 1358.38 314.60 C 1357.55 302.94 1358.14 290.91 1358.09 279.12 Z" />
</g>
</svg>
