<?xml version="1.0" encoding="utf-8"?>
<!-- Generator: Adobe Illustrator 26.0.3, SVG Export Plug-In . SVG Version: 6.00 Build 0)  -->
<svg version="1.1" id="圖層_1" xmlns="http://www.w3.org/2000/svg" xmlns:xlink="http://www.w3.org/1999/xlink" x="0px" y="0px"
	 viewBox="0 0 1875 625" style="enable-background:new 0 0 1875 625;" xml:space="preserve">
<g id="_x23_000000ff">
	<path d="M0,0c277.8,0,555.6,0,833.3,0c-3.9,6-8.2,11.8-12.1,17.9c-107.5,0.3-214.9,0-322.4,0.1C336.6,18.1,174.3,18,12,18.1
		C7.9,12.2,4,6.1,0,0z"/>
	<path d="M68.8,102c7.3,0,14.6,0,21.9,0c108.7,163.4,217.3,326.9,326,490.4c104.6-157.4,209.3-314.8,313.9-472.2
		c-40-0.1-80,0-119.9,0C546,217.3,481.4,314.5,416.8,411.7C348,308.6,279.5,205.2,210.8,102c71.7,0,143.3,0,215,0
		c0,56.4,0,112.8,0,169.1c-5.6-8.3-11-16.7-16.6-25c-0.7-1.2-1.7-2.3-1.5-3.7c0-40.8,0-81.5,0-122.2c-54.3,0-108.7,0-163.1,0
		C302,206.4,359.3,292.7,416.8,379C478.2,286.7,539.6,194.3,601,102c54.5,0,109,0,163.5,0C648.6,276.4,532.7,450.7,416.8,625
		C300.7,450.7,184.8,276.3,68.8,102z"/>
	<path d="M1409.6,157.7c1.2,0,2.5,0,3.8-0.1c30.1,68.5,60.3,136.9,90.5,205.4c-11.2,0-22.3,0-33.5,0c-3.4-8.3-6.9-16.7-10.4-25
		c-32.5,0-64.9,0-97.4,0c-3.4,8.3-6.8,16.7-10.2,25c-10.3,0-20.7,0-31,0C1350.7,294.6,1380.4,226.2,1409.6,157.7 M1400.4,245.9
		c-9.1,22.3-18.3,44.5-27.3,66.9c25.5,0,51,0,76.5,0c-5.2-12.6-10.4-25.1-15.6-37.7c-8.2-20-17.3-39.8-23-60.7
		C1408,225,1404.8,235.7,1400.4,245.9z"/>
	<path d="M1537.5,157.7c1.4,0,2.8,0,4.2-0.1c28.4,29.9,56.7,60,85,89.9c16.2,17.5,33.4,34.2,47.9,53.1c-3-22-2-44.2-2.1-66.4
		c0-24.9,0-49.7,0-74.6c10,0,19.9,0,29.9,0c0,68.5,0,136.9,0,205.4c-1.4,0-2.8,0-4.1,0c-27.5-29.2-55-58.4-82.5-87.6
		c-17-18.4-34.9-36-50.5-55.7c1,9.5,2,18.9,2,28.5c0,37.6,0,75.2,0,112.8c-9.9,0-19.8,0-29.8,0
		C1537.5,294.6,1537.5,226.1,1537.5,157.7z"/>
	<path d="M1770,166.4c16.8-10.3,37.8-11.1,56.5-6.4c15.7,3.9,28.8,15.3,36.4,29.4c-8.4,5.1-16.8,10.1-25.2,15.3
		c-4.7-7.9-11.2-15.4-20.4-18c-10-2.8-21.8-2.8-30.5,3.5c-11.6,8.3-11.9,27.4-1.4,36.7c6.6,6,15,9.5,23,13.1
		c13.1,5.9,26.5,11.2,38.5,19.2c8.7,5.8,16.7,13.1,21.6,22.4c5.1,9.4,6.7,20.2,6.3,30.8c-0.4,13.3-5.7,26.5-15.5,35.6
		c-12.1,11.6-29.1,16.8-45.6,17.7c-18.6,1-37.9-2.4-53.7-12.4c-11.4-7.1-20.5-17.6-26.7-29.5c8.8-4.9,17.7-9.6,26.5-14.4
		c5,8.1,11,15.8,19.1,21c9,5.9,20.1,7.8,30.7,7.4c8.8-0.4,17.9-2.9,24.7-8.7c10.3-8.5,11.4-25.1,3.4-35.5c-4.1-5.3-9.9-9-15.7-12.2
		c-15.7-8.3-32.9-13.6-47.9-23.2c-8.2-5.2-15.7-11.8-20.7-20.2c-6.2-10.6-7.9-23.4-6.6-35.4C1748.6,187.6,1757.4,174,1770,166.4z"/>
	<path d="M916.6,159.7c51.5-0.1,103,0,154.5,0c0.1,9.3,0,18.6,0,27.9c-20.4,0-40.9,0-61.3,0c0,58.5,0,117,0,175.5
		c-10.6,0-21.2,0-31.9,0c-0.1-58.5,0-117,0-175.5c-20.4,0-40.8,0-61.3,0C916.6,178.3,916.6,169,916.6,159.7z"/>
	<path d="M1106.9,159.7c10.6,0,21.2,0,31.9,0c0,67.8,0,135.6,0,203.4c-10.6,0-21.3,0-31.9,0C1106.9,295.3,1106.9,227.5,1106.9,159.7
		z"/>
	<path d="M1174.2,159.7c51.5,0,103,0,154.5,0c0,9.3,0,18.6,0,27.9c-20.4,0.1-40.9,0-61.3,0c0,58.5,0,116.9,0,175.4
		c-10.7,0-21.3,0-31.9,0c0-58.5,0-117,0-175.5c-20.4,0.1-40.8-0.2-61.2,0.1C1174,178.4,1174.3,169,1174.2,159.7z"/>
	<path d="M1250,429.3c1.2,0.2,2.2,1,2.9,2c13.8,17.9,27.6,35.7,41.4,53.5c9,12,18.7,23.4,27.2,35.8c-0.8-10.4-0.2-20.9-0.4-31.3
		c0-19.5,0-39,0-58.4c1.9,0,3.8,0,5.8,0c0,34.4,0,68.7,0,103.1c-0.5-0.1-1.4-0.2-1.9-0.3c-13.7-17.4-27.2-35.1-40.8-52.6
		c-9.6-12.8-19.9-25-29-38.1c0.8,11.1,0.2,22.2,0.4,33.3c0,18.8,0,37.6,0,56.4c-1.9,0-3.8,0-5.7,0c0-29.1,0-58.3,0-87.4
		C1249.9,440,1249.5,434.6,1250,429.3z"/>
	<path d="M1720.1,432.4c7.3-3.5,15.9-3.6,23.5-1c6.6,2.2,11.7,7.2,15.4,12.9c-1.6,1.1-3.3,2.1-4.9,3.2c-3.3-5.2-8.1-10-14.3-11.5
		c-7.1-1.8-15.6-1.2-21.3,4c-7.4,7.3-6.3,21.3,2.3,27.2c11.7,8.5,27.1,10.9,37.3,21.7c7.1,7.3,8.9,18.7,5.6,28.1
		c-2.9,8-10.3,13.6-18.4,15.6c-9.2,2.2-19.1,1.6-27.8-2.2c-7.5-3.3-13.2-9.6-16.8-16.9c1.8-0.9,3.5-1.7,5.3-2.6
		c3.8,7.1,9.7,13.5,17.6,15.8c9.6,2.9,21.3,2.4,29.2-4.5c8.9-7.7,8.3-23.1-0.4-30.6c-11.1-9.9-27-11.9-37.9-22.1
		c-6.5-5.9-8.2-15.6-6-23.8C1710.3,439.9,1714.7,435,1720.1,432.4z"/>
	<path d="M1057.1,430.8c2.2,0,4.5,0,6.7,0c8.8,22.3,17.7,44.6,26.6,66.9c3.2,8.4,7.1,16.5,9.2,25.2c2-8.1,5.5-15.6,8.5-23.3
		c9.2-22.9,18.2-45.9,27.4-68.8c2,0,4.1,0,6.1,0c-13.7,34.4-27.5,68.8-41.4,103.2c-2.2,0.5-2.2-2-3-3.2
		C1083.9,497.5,1070.4,464.2,1057.1,430.8z"/>
	<path d="M1163.7,430.9c19.9,0,39.8,0,59.7,0c0,1.8,0,3.6,0,5.4c-17.8,0-35.6,0-53.4,0c0,18.1,0,36.3,0,54.5c16,0,31.9,0,47.9,0
		c0,1.8,0,3.6,0,5.4c-16,0-31.9,0-47.9,0c0,10.4,0,20.8,0,31.2c18.5,0,37.1-0.1,55.6,0.1c0,1.8-0.1,3.5-0.1,5.3
		c-20.6,0-41.2,0-61.7,0C1163.7,498.7,1163.7,464.8,1163.7,430.9z"/>
	<path d="M1347.2,436.2c0-1.8,0-3.6,0.1-5.4c23.7,0,47.4,0,71.1,0c-0.1,1.8,0,3.6,0,5.4c-10.8,0-21.7,0-32.5,0c0,32.1,0,64.3,0,96.4
		c-2.1,0-4.2,0-6.2,0c0-32.1,0-64.3,0-96.4C1368.9,436.2,1358.1,436.3,1347.2,436.2z"/>
	<path d="M1437.7,430.9c2.1,0,4.2,0,6.2,0c0,22.8,0,45.7,0,68.5c0,8.3,2.7,17.1,9.2,22.7c7,6,16.9,7.3,25.8,5.8
		c7.2-1.3,13.9-5.6,17.5-12.1c3.4-5.8,4.3-12.7,4.1-19.4c0-21.8,0-43.7,0-65.5c2.1,0,4.2,0,6.2,0c0,22.5,0,45,0,67.5
		c0.1,7.8-1.7,15.9-6.3,22.3c-4.9,7-13,11.4-21.4,12.6c-9.9,1.5-20.7,0-28.9-6.2c-7.2-5.3-11.2-14-12.1-22.8
		c-0.6-6.3-0.2-12.7-0.3-19C1437.7,467.2,1437.7,449,1437.7,430.9z"/>
	<path d="M1536.5,430.9c12,0.4,24.3-1.3,36,2c10.4,2.8,19.5,10.7,23,21c4.4,13,2.8,28.9-6.7,39.2c-3.5,3.9-8,6.6-12.8,8.7
		c7.5,10.3,15.1,20.5,22.5,30.9c-2.5,0-4.9,0-7.4,0c-7-9.7-14.1-19.3-21.2-28.9c-8.9,1.9-18.1,1.1-27.2,1.3c0,9.2,0,18.4,0,27.6
		c-2.1,0-4.2,0-6.2,0C1536.5,498.7,1536.5,464.8,1536.5,430.9 M1542.7,436.3c0,21.1,0,42.2,0,63.2c9.7-0.2,19.8,1,29.2-2.2
		c6.9-2.2,13-7.1,16.2-13.7c3.9-8.2,4.2-17.8,1.9-26.5c-2.2-8-8.3-14.8-16.1-17.8C1564.1,435.1,1553.2,436.5,1542.7,436.3z"/>
	<path d="M1624.8,430.9c19.9,0,39.8,0,59.7,0c-0.1,1.8,0,3.6,0,5.4c-17.8,0-35.7,0-53.5,0c0,18.1,0,36.3,0,54.4c16,0,31.9,0,47.9,0
		c0,1.8,0,3.6,0,5.4c-16,0-31.9,0-47.9,0c0,10.4,0,20.8,0,31.1c18.5,0,37.1,0,55.6,0c-0.1,1.8-0.1,3.6-0.1,5.4
		c-20.6-0.1-41.1,0-61.7,0C1624.8,498.7,1624.8,464.8,1624.8,430.9z"/>
</g>
</svg>
