<?xml version="1.0" encoding="UTF-8" ?>
<!DOCTYPE svg PUBLIC "-//W3C//DTD SVG 1.1//EN" "http://www.w3.org/Graphics/SVG/1.1/DTD/svg11.dtd">
<svg width="972pt" height="293pt" viewBox="0 0 972 293" version="1.1" xmlns="http://www.w3.org/2000/svg">
<g id="#1a8df6ff">
<path fill="#1a8df6" opacity="1.00" d=" M 141.75 0.00 L 146.41 0.00 C 149.00 0.25 151.49 1.02 153.88 2.02 C 169.88 8.59 185.55 15.91 201.51 22.58 C 210.55 25.64 219.64 29.69 226.20 36.85 C 231.27 42.24 234.18 49.57 234.06 56.98 C 234.07 92.98 234.06 128.99 234.06 165.00 C 234.06 178.27 235.22 191.72 232.34 204.80 C 229.14 220.61 220.30 234.76 209.28 246.33 C 204.22 251.44 197.98 255.14 191.92 258.91 C 170.13 271.76 147.18 282.50 124.20 293.00 L 121.62 293.00 C 97.51 282.45 73.96 270.46 51.82 256.18 C 39.67 248.60 30.17 237.61 21.86 226.11 C 10.21 209.68 1.91 190.32 0.97 170.02 C 0.49 147.62 0.92 125.19 0.00 102.80 L 0.00 47.28 C 0.77 39.39 7.99 32.86 15.94 33.06 C 24.25 32.58 32.12 39.61 32.31 47.98 C 32.87 90.91 33.01 133.85 33.54 176.77 C 34.13 185.18 35.34 193.95 39.55 201.39 C 44.84 208.75 52.02 214.47 58.70 220.50 C 58.27 157.33 57.89 94.15 57.44 30.97 C 57.40 25.86 56.82 20.27 59.81 15.78 C 64.25 8.30 75.09 5.78 82.38 10.53 C 87.27 13.50 90.08 19.22 89.86 24.89 C 90.27 92.93 90.78 160.97 91.23 229.00 C 91.00 232.67 92.99 235.98 95.54 238.44 C 101.55 244.38 109.47 247.74 117.17 250.90 C 117.13 176.24 117.07 101.58 117.10 26.92 C 116.76 13.30 128.24 1.03 141.75 0.00 M 149.45 114.16 C 166.86 114.30 184.27 114.47 201.68 114.63 C 201.67 97.47 201.71 80.30 201.65 63.14 C 201.74 55.88 196.14 49.98 189.89 47.10 C 176.62 40.73 163.29 34.39 149.48 29.24 C 149.43 57.55 149.45 85.86 149.45 114.16 M 149.42 243.93 C 161.75 237.14 174.38 230.84 186.34 223.38 C 189.96 221.10 193.63 218.59 195.86 214.83 C 200.25 207.75 201.81 199.22 201.70 190.98 C 201.67 173.47 201.71 155.95 201.67 138.43 C 184.26 138.55 166.85 138.71 149.45 138.83 C 149.42 173.86 149.44 208.90 149.42 243.93 Z" />
</g>
<g id="#353559ff">
<path fill="#353559" opacity="1.00" d=" M 309.34 81.42 C 314.90 79.19 321.95 82.48 323.49 88.34 C 329.01 109.73 334.12 131.23 339.68 152.60 C 340.52 155.64 345.53 155.39 346.08 152.27 C 352.66 131.14 359.07 109.95 365.61 88.81 C 368.23 78.01 386.59 77.65 389.83 88.16 C 396.45 109.29 402.82 130.50 409.45 151.63 C 410.00 154.79 415.10 155.02 415.86 151.88 C 421.46 130.96 426.68 109.93 432.19 88.99 C 433.37 83.36 439.55 79.59 445.10 81.04 C 450.74 82.21 454.61 88.49 452.97 94.06 C 444.36 128.05 435.61 162.01 426.95 195.99 C 425.72 202.28 419.49 207.10 413.07 206.48 C 407.51 206.23 402.49 202.10 401.11 196.73 C 394.41 173.85 387.85 150.93 381.08 128.08 C 380.36 124.76 375.05 125.05 374.57 128.35 C 367.77 151.41 361.19 174.53 354.37 197.58 C 352.43 203.86 345.36 207.66 339.02 206.27 C 334.05 205.34 329.90 201.31 328.76 196.40 C 320.08 162.25 311.35 128.12 302.74 93.96 C 301.32 88.88 304.40 83.17 309.34 81.42 Z" />
<path fill="#353559" opacity="1.00" d=" M 561.01 87.83 C 560.58 83.95 564.04 80.34 567.97 80.76 C 582.99 80.75 598.01 80.72 613.03 80.78 C 623.76 80.84 634.98 84.44 642.31 92.58 C 648.99 99.81 651.25 110.50 648.84 119.96 C 647.04 127.75 641.80 134.22 635.63 139.10 C 642.05 141.94 648.02 146.20 651.84 152.19 C 658.22 162.10 658.61 175.53 652.87 185.82 C 645.96 198.65 631.48 206.65 617.02 206.54 C 600.67 206.58 584.31 206.57 567.96 206.55 C 564.35 206.85 560.87 203.81 561.05 200.12 C 560.95 162.69 561.01 125.26 561.01 87.83 M 586.25 99.26 C 583.64 100.31 582.20 103.15 582.39 105.89 C 582.40 112.22 582.28 118.55 582.45 124.87 C 582.51 128.21 585.61 131.00 588.92 130.84 C 595.98 130.90 603.05 130.93 610.11 130.82 C 617.14 130.63 624.41 127.03 627.65 120.58 C 630.95 114.36 629.61 105.43 623.31 101.62 C 616.62 97.51 608.43 99.06 601.00 98.75 C 596.09 99.01 591.05 98.16 586.25 99.26 M 586.25 149.28 C 583.61 150.33 582.18 153.21 582.38 155.96 C 582.39 164.64 582.30 173.32 582.43 182.00 C 582.36 185.46 585.55 188.51 589.02 188.23 C 596.67 188.29 604.32 188.23 611.97 188.25 C 618.18 188.22 624.70 186.63 629.45 182.43 C 633.25 179.11 635.40 174.07 635.16 169.02 C 635.09 162.04 630.42 155.77 624.35 152.66 C 616.33 148.12 606.86 148.72 597.99 148.75 C 594.09 148.96 590.05 148.21 586.25 149.28 Z" />
<path fill="#353559" opacity="1.00" d=" M 679.40 81.50 C 683.65 80.28 689.08 80.19 692.39 83.61 C 694.33 85.52 695.14 88.29 695.01 90.96 C 694.94 126.69 695.09 162.43 694.94 198.15 C 694.49 206.24 684.05 208.67 677.98 205.15 C 675.21 203.47 673.53 200.27 673.64 197.04 C 673.60 161.71 673.64 126.36 673.62 91.03 C 673.29 87.03 675.60 82.95 679.40 81.50 Z" />
<path fill="#353559" opacity="1.00" d=" M 900.98 83.93 C 903.87 80.50 908.82 80.39 912.90 81.08 C 917.36 81.97 920.43 86.49 920.06 90.96 C 920.07 110.06 920.05 129.15 920.06 148.25 C 930.03 138.46 940.02 128.70 949.94 118.87 C 951.86 116.92 954.11 114.97 956.99 114.79 C 961.58 114.11 966.21 117.51 967.06 122.05 C 967.86 125.36 966.44 128.78 964.01 131.03 C 957.77 137.27 951.53 143.51 945.28 149.73 C 950.45 158.53 955.68 167.29 960.88 176.07 C 964.50 182.65 969.09 188.74 972.00 195.69 L 972.00 198.58 C 970.71 208.15 955.74 209.55 951.70 201.34 C 944.56 189.16 937.45 176.96 930.29 164.78 C 926.80 168.17 923.42 171.68 920.05 175.18 C 920.02 182.50 920.14 189.81 920.03 197.13 C 920.09 200.20 918.57 203.24 916.00 204.95 C 909.96 208.78 899.10 206.36 898.76 198.08 C 898.57 162.72 898.77 127.35 898.66 91.99 C 898.57 89.15 898.89 86.06 900.98 83.93 Z" />
<path fill="#353559" opacity="1.00" d=" M 494.03 113.77 C 505.70 111.53 518.52 113.59 528.12 120.87 C 538.22 128.30 543.83 140.64 544.76 152.95 C 544.90 155.58 545.26 158.29 544.63 160.89 C 543.68 164.11 540.44 166.45 537.08 166.29 C 518.59 166.36 500.11 166.26 481.62 166.34 C 482.70 174.29 486.05 182.43 492.67 187.33 C 500.67 193.45 513.37 191.38 519.27 183.28 C 521.74 180.41 522.64 176.02 526.40 174.42 C 529.12 173.40 532.14 173.64 534.98 173.97 C 539.48 174.82 542.37 180.21 540.43 184.42 C 535.76 194.31 527.09 202.25 516.77 205.91 C 505.11 210.06 491.45 208.96 481.01 202.13 C 471.39 196.12 464.81 186.04 461.87 175.21 C 457.91 160.99 459.38 144.98 467.36 132.38 C 473.24 122.92 483.05 115.89 494.03 113.77 M 498.27 131.31 C 491.48 132.70 485.82 137.97 483.38 144.37 C 482.31 147.22 484.94 150.47 487.95 150.10 C 497.65 150.15 507.37 150.13 517.08 150.11 C 520.19 150.57 523.14 147.19 521.79 144.21 C 518.72 134.65 507.89 129.23 498.27 131.31 Z" />
<path fill="#353559" opacity="1.00" d=" M 742.49 113.81 C 754.10 111.61 766.86 113.30 776.61 120.31 C 788.18 128.31 794.31 142.33 795.23 156.07 C 796.39 170.84 792.32 186.81 781.32 197.27 C 769.25 208.91 750.16 211.18 734.89 205.14 C 722.70 200.26 713.91 188.94 710.69 176.38 C 706.88 161.73 708.27 145.29 716.21 132.20 C 721.88 122.74 731.66 115.90 742.49 113.81 M 747.37 131.49 C 739.60 133.45 734.26 140.55 731.99 147.92 C 728.91 157.96 729.35 169.31 734.13 178.75 C 737.34 185.15 743.71 190.35 751.10 190.49 C 758.28 190.99 765.05 186.73 768.76 180.76 C 773.58 173.15 774.75 163.71 773.66 154.89 C 772.67 147.28 769.51 139.50 763.23 134.75 C 758.83 131.25 752.79 130.13 747.37 131.49 Z" />
<path fill="#353559" opacity="1.00" d=" M 837.51 113.79 C 846.90 112.10 857.10 112.71 865.58 117.41 C 873.84 121.70 879.94 129.48 883.12 138.13 C 884.64 142.20 881.37 147.06 877.07 147.32 C 873.74 147.50 870.34 147.69 867.05 147.08 C 862.33 145.72 861.94 140.13 859.24 136.78 C 854.10 129.07 842.14 128.57 835.47 134.50 C 828.17 140.67 825.78 150.77 825.87 159.96 C 826.10 169.65 828.69 180.11 836.10 186.85 C 840.46 191.11 847.72 192.22 852.98 189.00 C 857.71 186.21 860.52 181.16 862.18 176.08 C 862.93 173.28 865.10 170.67 868.12 170.30 C 871.39 170.06 874.69 170.12 877.98 170.25 C 882.10 170.48 885.34 175.00 884.15 178.98 C 881.26 190.11 873.76 200.39 862.98 204.95 C 849.25 210.64 832.00 209.49 820.45 199.58 C 811.29 191.67 806.56 179.73 805.03 167.95 C 803.34 155.17 805.25 141.50 812.46 130.59 C 818.08 121.90 827.35 115.72 837.51 113.79 Z" />
</g>
</svg>
